<svg xmlns="http://www.w3.org/2000/svg" viewBox="0 0 532.3319 144.6828"><defs><style>.a{fill:#18165e;}</style></defs><path class="a" d="M111.69,100.6556l-14.2858,8.2478V84.4853L41.5026,52.3414V27.9229L62.649,15.714,83.7959,27.923V52.3414l-7.33,4.2317,13.65,7.8326,7.288-4.2078V35.78L111.69,44.0276l13.6084-7.8566L62.649,0,27.2166,20.4572a27.2168,27.2168,0,0,0-13.6082,23.57h0L27.8942,35.78V60.1979L83.7959,92.3418V116.76L62.649,128.9688,41.5026,116.76V92.3418l7.4452-4.2984-13.64-7.8388-7.414,4.2807v24.4181L13.608,100.6556V44.0276L0,36.171v72.3412l35.4326,20.4571a27.2166,27.2166,0,0,0,27.2164,0h0v15.7135l62.65-36.1706V67.9177a27.7746,27.7746,0,0,0-13.6084-23.89h0Z"/><polygon class="a" points="77.108 39.719 50.836 24.551 50.836 33.39 77.108 48.558 77.108 39.719"/><polygon class="a" points="74.462 110.974 48.19 95.806 48.19 104.645 74.462 119.813 74.462 110.974"/><path class="a" d="M167.5713,68.12c-2.8953-2.73-6.205-3.6406-10.0928-3.6406-4.7986,0-7.446,1.49-7.446,4.0539,0,2.6474,2.399,4.1368,7.6114,4.4677,7.6938.4963,17.4564,2.2336,17.4564,13.0717,0,7.1976-5.8741,13.4026-17.5394,13.4026-6.4529,0-12.9063-1.0756-18.8629-7.2806l4.964-7.1976c2.8953,3.2268,9.5142,5.6258,14.0643,5.7088,3.806.0824,7.363-1.9033,7.363-4.8816,0-2.8129-2.316-3.9709-8.1077-4.3017-7.6939-.5793-16.8772-3.3922-16.8772-12.6585,0-9.4311,9.7626-12.74,17.2081-12.74,6.37,0,11.169,1.241,15.8845,5.3772Z"/><path class="a" d="M213.9039,57.2823h9.68v40.787H214.07l-.4963-5.9566c-2.3165,4.7986-8.687,7.1146-13.2371,7.1976-12.0791.0824-21.014-7.363-21.014-21.6758,0-14.0648,9.3487-21.4278,21.2619-21.3448,5.4608,0,10.6727,2.5644,12.9892,6.6183ZM189.4153,77.6345c0,7.7769,5.3773,12.4095,12.0786,12.4095,15.8846,0,15.8846-24.7365,0-24.7365C194.7926,65.3075,189.4153,69.8577,189.4153,77.6345Z"/><path class="a" d="M241.4566,57.2823l.7447,4.7155c3.1438-5.0464,7.363-5.7911,11.5-5.7911a15.4756,15.4756,0,0,1,10.5067,3.8884l-4.55,8.7694a10.0838,10.0838,0,0,0-7.2806-2.6474c-5.2949,0-10.1759,2.8134-10.1759,10.3419v21.51H232.1079V57.2823Z"/><path class="a" d="M295.1517,98.0693V76.2281c0-5.3778-2.8129-10.2588-8.3556-10.2588-5.46,0-8.687,4.881-8.687,10.2588V98.0693H268.0156V57.2h9.3488l.7447,4.9635c2.1511-4.1363,6.8667-5.6258,10.7551-5.6258,4.881,0,9.7626,1.9858,12.0792,7.6115,3.64-5.7912,8.3555-7.446,13.65-7.446,11.5828,0,17.2909,7.1151,17.2909,19.36V98.0693H321.7919V76.0627c0-5.3779-2.2341-9.928-7.6944-9.928s-8.8524,4.7156-8.8524,10.0934V98.0693Z"/><path class="a" d="M369.2843,98.0693V76.2281c0-5.3778-2.8129-10.2588-8.3556-10.2588-5.46,0-8.687,4.881-8.687,10.2588V98.0693H342.1482V57.2h9.3488l.7447,4.9635c2.1511-4.1363,6.8667-5.6258,10.7551-5.6258,4.881,0,9.7626,1.9858,12.0792,7.6115,3.64-5.7912,8.3555-7.446,13.65-7.446,11.5828,0,17.291,7.1151,17.291,19.36V98.0693H395.9246V76.0627c0-5.3779-2.2342-9.928-7.6945-9.928s-8.8524,4.7156-8.8524,10.0934V98.0693Z"/><path class="a" d="M427.285,45.7824c0,7.86-11.9137,7.86-11.9137,0S427.285,37.9231,427.285,45.7824ZM416.2814,57.1168V98.0693h10.0935V57.1168Z"/><path class="a" d="M444.0809,81.2745c.6617,5.047,5.0464,8.687,12.1615,8.687,3.723,0,8.604-1.4064,10.9206-3.8054l6.4529,6.37c-4.3017,4.4677-11.3345,6.6188-17.5389,6.6188-14.0649,0-22.42-8.687-22.42-21.7587,0-12.4094,8.4385-21.3448,21.6757-21.3448,13.65,0,22.172,8.4385,20.6,25.2332Zm22.172-8.3561c-.6617-5.2949-4.7986-7.9417-10.59-7.9417-5.46,0-9.928,2.6468-11.4169,7.9417Z"/><path class="a" d="M510.3519,68.12c-2.8953-2.73-6.205-3.6406-10.0929-3.6406-4.7985,0-7.446,1.49-7.446,4.0539,0,2.6474,2.399,4.1368,7.6115,4.4677,7.6938.4963,17.4564,2.2336,17.4564,13.0717,0,7.1976-5.8742,13.4026-17.5394,13.4026-6.4529,0-12.9063-1.0756-18.8629-7.2806l4.964-7.1976c2.8953,3.2268,9.5141,5.6258,14.0643,5.7088,3.806.0824,7.363-1.9033,7.363-4.8816,0-2.8129-2.316-3.9709-8.1077-4.3017-7.6939-.5793-16.8772-3.3922-16.8772-12.6585,0-9.4311,9.7626-12.74,17.208-12.74,6.37,0,11.1691,1.241,15.8847,5.3772Z"/><circle class="a" cx="421.3281" cy="44.7055" r="8.5554"/><path class="a" d="M520.1748,57.2816h-2.2939v-1.24h5.9527v1.24h-2.2943v5.994h-1.3645Z"/><path class="a" d="M530.9678,58.036l-2.3567,3.1417h-.2683l-2.3049-3.1522v5.2606h-1.3641V56.0518h1.5711l2.2632,3.1105,2.2632-3.1105h1.5606v7.2343h-1.3641Z"/></svg>