<svg id="insta_dark_purple" data-name="insta dark purple" xmlns="http://www.w3.org/2000/svg" width="16" height="16" viewBox="0 0 16 16">
  <g id="instagram-icon-white">
    <path id="Icon" d="M0,4.628A4.62,4.62,0,0,1,4.628,0h6.744A4.62,4.62,0,0,1,16,4.628v6.744A4.62,4.62,0,0,1,11.372,16H4.628A4.62,4.62,0,0,1,0,11.372Zm1.448.127v6.49a3.3,3.3,0,0,0,3.307,3.307h6.49a3.3,3.3,0,0,0,3.307-3.307V4.755a3.3,3.3,0,0,0-3.307-3.307H4.755A3.3,3.3,0,0,0,1.448,4.755ZM8,12.069A4.069,4.069,0,1,1,12.069,8,4.069,4.069,0,0,1,8,12.069Zm0-1.448A2.621,2.621,0,1,0,5.379,8,2.621,2.621,0,0,0,8,10.621ZM12.207,4.69a.966.966,0,1,1,.966-.966A.966.966,0,0,1,12.207,4.69Z" fill="#44374d" fill-rule="evenodd"/>
  </g>
</svg>
