<svg xmlns="http://www.w3.org/2000/svg" xmlns:xlink="http://www.w3.org/1999/xlink" viewBox="0 0 378.1673 436.6718"><defs><style>.a{fill:url(#a);}.b{fill:url(#b);}.c{fill:url(#c);}</style><linearGradient id="a" x1="189.0837" y1="2.8124" x2="189.0837" y2="347.3626" gradientUnits="userSpaceOnUse"><stop offset="0" stop-color="#fd9d33"/><stop offset="0.5391" stop-color="#fd4145"/><stop offset="1" stop-color="#9c02fa"/></linearGradient><linearGradient id="b" x1="193.0768" y1="2.8124" x2="193.0768" y2="347.3626" xlink:href="#a"/><linearGradient id="c" x1="185.0906" y1="2.8124" x2="185.0906" y2="347.3626" xlink:href="#a"/></defs><path class="a" d="M337.0953,303.792,293.979,328.6847v-73.697L125.26,157.9732V84.2749L189.083,47.4268l63.824,36.8484v73.698l-22.1221,12.772,41.1979,23.64,21.9962-12.7V107.988l43.1163,24.893,41.072-23.7121L189.083,0,82.1434,61.7427A82.1437,82.1437,0,0,0,41.072,132.881h0l43.1163-24.8931v73.6975L252.907,278.7v73.6972L189.083,389.245,125.26,352.3975V278.7l22.4706-12.9734-41.166-23.6584-22.3766,12.92v73.6972L41.072,303.792V132.881L0,109.1689V327.5042l106.94,61.7422a82.1424,82.1424,0,0,0,82.1427,0h0v47.4255L378.1673,327.5042v-122.52a83.8264,83.8264,0,0,0-41.0719-72.1036l0,0Z"/><polygon class="b" points="232.723 119.878 153.431 74.099 153.431 100.775 232.723 146.554 232.723 119.878"/><polygon class="c" points="224.736 334.935 145.445 289.156 145.445 315.832 224.736 361.612 224.736 334.935"/></svg>