<svg xmlns="http://www.w3.org/2000/svg" viewBox="0 0 125.299 144.6828"><defs><style>.a{fill:#fff;}</style></defs><path class="a" d="M111.69,100.6556l-14.2858,8.2478V84.4853L41.5026,52.3414V27.9229L62.649,15.714,83.7959,27.923V52.3414l-7.33,4.2317,13.65,7.8326,7.288-4.2078V35.78L111.69,44.0276l13.6084-7.8566L62.649,0,27.2166,20.4572a27.2168,27.2168,0,0,0-13.6082,23.57h0L27.8942,35.78V60.1979L83.7959,92.3418V116.76L62.649,128.9688,41.5026,116.76V92.3418l7.4452-4.2984-13.64-7.8388-7.414,4.2807v24.4181L13.608,100.6556V44.0276L0,36.171v72.3412l35.4326,20.4571a27.2166,27.2166,0,0,0,27.2164,0h0v15.7135l62.65-36.1706V67.9177a27.7746,27.7746,0,0,0-13.6084-23.89h0Z"/><polygon class="a" points="77.108 39.719 50.836 24.551 50.836 33.39 77.108 48.558 77.108 39.719"/><polygon class="a" points="74.462 110.974 48.19 95.806 48.19 104.645 74.462 119.813 74.462 110.974"/></svg>