<svg xmlns="http://www.w3.org/2000/svg" viewBox="0 0 125.299 144.683"  fill="#18165e" xmlns:v="https://vecta.io/nano"><path d="M111.69 100.656l-14.286 8.248V84.485L41.503 52.341V27.923l21.146-12.209 21.147 12.209v24.418l-7.33 4.232 13.65 7.833 7.288-4.208V35.78l14.286 8.248 13.608-7.857L62.649 0 27.217 20.457a27.217 27.217 0 0 0-13.608 23.57h0l14.286-8.247v24.418l55.902 32.144v24.418L62.65 128.969 41.504 116.76V92.342l7.445-4.298-13.64-7.839-7.414 4.281v24.418l-14.286-8.248V44.028L0 36.171v72.341l35.433 20.457a27.217 27.217 0 0 0 27.216 0h0v15.714l62.65-36.171V67.918a27.775 27.775 0 0 0-13.608-23.89h0zM77.108 39.719L50.836 24.551v8.839l26.272 15.168v-8.839zm-2.646 71.255L48.19 95.806v8.839l26.272 15.168v-8.839z"/></svg>