<svg xmlns="http://www.w3.org/2000/svg" width="184" height="74" fill="#44374d"  fill-rule="evenodd" xmlns:v="https://vecta.io/nano"><path d="M20.496 51.457h23.41v-8.804H12.041l-.336-.002v31.346h8.545V51.588l.247-.131h0zm-8.79-39.575l63.971-.008.136-.06c13.808.129 24.96 11.324 24.96 25.114 0 13.81-11.187 25.017-25.03 25.111l-.22-.01-15.65-.016V30.309h8.835V53.39l.738-.02h6.095l.339-.004c8.941-.181 16.132-7.458 16.132-16.409 0-8.999-7.264-16.307-16.269-16.415h-55.28l-.213.005v9.583l.007.172 23.587.008.024 8.804-32.066-.006-.097-.006.002-27.221h0zM139.831.345l38.649 65.142 5.52-9.143-34.251-56h-9.918 0zM100.171 74L139.8 7.98l32.688 54.082h-45.052v-8.436h29.247L139.8 25.465 112.132 74h-11.961 0z"/><path d="M178.479 65.488l-51.044-.014V74l46.026-.018.069-.202 4.949-8.293zM47.364 65.21l.036-34.904h8.835V65.21l-.002.069h19.308l.203.006c15.642-.109 28.289-12.778 28.289-28.392 0-15.586-12.611-28.242-28.22-28.389l-.271.007-66.994-.002-.002 65.486H0L.003.005 75.541 0h.341c17.964.162 32.878 12.641 36.102 29.649L129.915.344h9.915l-30.749 51.504-2.983 5.04c-6.614 9.691-17.594 16.91-30.216 17.024l-.341.002H47.364V65.21h0z"/></svg>