<svg width="20" height="20" viewBox="0 0 20 20" fill="none" xmlns="http://www.w3.org/2000/svg">
<path d="M9.76445 1.00426C11.2147 0.971284 12.6512 1.29235 13.9495 1.93965C15.7544 2.83364 17.207 4.30768 18.0745 6.12556C18.9419 7.94343 19.174 9.99989 18.7335 11.9654C18.3123 13.8742 17.238 15.628 15.7409 16.8832C15.0225 17.4895 14.2133 17.9792 13.3429 18.3345C11.9435 18.9112 10.3957 19.1134 8.89393 18.9372C7.53056 18.7769 6.22238 18.305 5.07072 17.5579C4.02424 16.8792 3.1289 15.992 2.44058 14.9518C1.79804 13.9824 1.35084 12.897 1.12404 11.7563C0.781898 10.0367 0.949955 8.25448 1.60753 6.62908C2.26511 5.00369 3.38352 3.60599 4.82515 2.60797C6.27631 1.59579 7.99548 1.0376 9.76445 1.00426V1.00426ZM8.98301 1.92245C8.41412 2.21725 7.96713 2.69979 7.61021 3.22297C7.16088 3.87391 6.83268 4.60163 6.5832 5.34986C7.5938 5.34986 8.6044 5.35338 9.615 5.34849C9.615 4.134 9.615 2.91944 9.615 1.70482C9.3942 1.74404 9.18085 1.8174 8.98262 1.92226L8.98301 1.92245ZM10.2894 1.70326C10.287 2.91801 10.287 4.13283 10.2894 5.34771C10.978 5.35611 11.6667 5.34771 12.3553 5.35103C12.6763 5.34459 12.9975 5.35728 13.3186 5.3481C13.301 5.28197 13.2801 5.21676 13.2559 5.15274C13.1071 4.73815 12.9309 4.33391 12.7285 3.94268C12.4159 3.35367 12.0353 2.78888 11.5331 2.34385C11.18 2.03342 10.7573 1.78336 10.289 1.70306L10.2894 1.70326ZM7.22047 2.13305C5.62867 2.68202 4.21699 3.73188 3.22515 5.09101C3.16517 5.17579 3.10031 5.25745 3.04932 5.3483C3.9892 5.35435 4.92908 5.3483 5.86916 5.35103C6.13094 4.56725 6.4525 3.79713 6.89793 3.09853C7.15841 2.68112 7.46799 2.29645 7.82003 1.95274C7.61668 2.00086 7.41635 2.06094 7.22008 2.13266L7.22047 2.13305ZM12.0849 1.95332C12.8484 2.69237 13.378 3.63928 13.7678 4.62077C13.8672 4.8599 13.9436 5.10761 14.0337 5.35025C14.3205 5.34634 14.6074 5.35553 14.8942 5.34791C15.1611 5.35045 15.428 5.35318 15.6952 5.34791C15.9556 5.35142 16.2162 5.35299 16.4767 5.34791C16.6017 5.34791 16.7267 5.35611 16.8515 5.34673C16.792 5.24046 16.7125 5.14747 16.6435 5.04744C15.7877 3.89377 14.6498 2.97941 13.339 2.3921C12.933 2.21315 12.5151 2.05686 12.0836 1.95293L12.0849 1.95332ZM2.63438 6.02268C2.02205 7.14653 1.67848 8.39699 1.63061 9.67593C2.81645 9.67788 4.00236 9.67651 5.18833 9.67182C5.21021 8.8644 5.27682 8.05756 5.41416 7.26127C5.4798 6.84476 5.57846 6.43431 5.67458 6.02405C5.04259 6.01663 4.4104 6.02405 3.77841 6.02073C3.39706 6.02366 3.01552 6.01663 2.63438 6.02268ZM6.37846 6.02151C6.35248 6.09497 6.33412 6.17077 6.31458 6.24598C6.03285 7.36632 5.88207 8.51556 5.86525 9.67065C6.05534 9.67495 6.24542 9.67221 6.43551 9.6726C7.49514 9.66909 8.55497 9.6726 9.61461 9.66635C9.61461 8.4518 9.61637 7.23724 9.61344 6.02249C9.22487 6.01487 8.83629 6.02385 8.44772 6.01956C7.7579 6.02268 7.06828 6.01838 6.37846 6.02151ZM10.2904 6.02268C10.2853 7.23724 10.2886 8.45199 10.2888 9.66655C11.5391 9.6685 12.788 9.66264 14.0376 9.66323C14.019 8.43507 13.8497 7.21385 13.5333 6.02698C13.3755 6.01448 13.2171 6.02034 13.059 6.01877C12.1353 6.02268 11.2127 6.01584 10.2904 6.02268ZM14.2294 6.02268C14.2857 6.28759 14.3582 6.54898 14.407 6.81546C14.5959 7.75182 14.6911 8.70557 14.7127 9.65991C14.9687 9.66752 15.2248 9.65893 15.4809 9.66205C16.412 9.65912 17.3433 9.66205 18.2746 9.656C18.2185 8.40061 17.8854 7.15538 17.2823 6.0514C17.2667 6.0092 17.2169 6.01975 17.1819 6.0176C16.4327 6.02073 15.6835 6.0176 14.9343 6.02092C14.6989 6.01799 14.4639 6.01643 14.229 6.02268H14.2294ZM10.2904 10.3402C10.2865 11.561 10.2865 12.7818 10.2904 14.0026C11.3678 14.0041 12.4458 14.0094 13.5232 14.0041C13.85 12.8097 14.0167 11.5729 14.0391 10.3355C12.7891 10.3375 11.5395 10.3391 10.2904 10.3402ZM14.7178 10.3343C14.6965 10.6902 14.693 11.0479 14.6569 11.4033C14.5859 12.2826 14.4387 13.1541 14.2171 14.008C15.225 14.0127 16.2328 14.0127 17.2407 14.0133C17.3062 13.9156 17.3532 13.809 17.4087 13.7064C17.9323 12.6554 18.2267 11.5051 18.2722 10.3318C17.0873 10.3296 15.9023 10.3345 14.7172 10.3345L14.7178 10.3343ZM1.63003 10.3517C1.68173 11.5824 2.00615 12.7862 2.57987 13.8762C2.60878 13.9188 2.6209 14.001 2.68556 13.9971C3.68229 13.9958 4.67902 13.9963 5.67575 13.9985C5.66481 13.902 5.63179 13.81 5.61226 13.7152C5.35142 12.6136 5.21072 11.4869 5.19262 10.355C5.11874 10.347 5.04436 10.3445 4.97011 10.3476C3.85655 10.3484 2.743 10.3472 1.62944 10.3519L1.63003 10.3517ZM5.86447 10.347C5.89123 11.5778 6.05026 12.8105 6.38178 13.9977C7.45959 13.9977 8.53739 14.0014 9.6152 14.0006C9.6152 12.7826 9.6152 11.5649 9.6152 10.3474C9.42179 10.3341 9.22741 10.3474 9.03361 10.3429C7.9769 10.3441 6.92039 10.3417 5.86388 10.3472L5.86447 10.347ZM3.06339 14.6701C3.07921 14.6965 3.09543 14.7231 3.11281 14.7483C4.01087 16.0389 5.25409 17.0506 6.70022 17.6677C7.06379 17.8191 7.43575 17.9561 7.81964 18.0471C7.41661 17.6611 7.07942 17.2112 6.79341 16.7331C6.40777 16.0865 6.11199 15.3892 5.88068 14.6736C5.81153 14.6686 5.74237 14.668 5.67341 14.6697C4.80346 14.6695 3.93333 14.6664 3.06339 14.6701ZM6.58984 14.6723C6.62149 14.7801 6.66095 14.8854 6.70081 14.9905C6.97275 15.7133 7.31815 16.4137 7.78955 17.0275C8.17597 17.5314 8.66477 17.9848 9.2698 18.2063C9.38252 18.2423 9.49622 18.2878 9.61598 18.2886C9.61207 17.0844 9.61598 15.8802 9.61383 14.6762C8.60577 14.6738 7.59771 14.6699 6.58984 14.6723ZM10.2904 14.6772C10.2841 15.8819 10.2904 17.0867 10.2874 18.2913C10.4177 18.2839 10.5414 18.2364 10.6629 18.1936C11.0075 18.068 11.3127 17.8549 11.5837 17.6111C12.0279 17.202 12.3766 16.7001 12.6648 16.1723C12.925 15.6954 13.1408 15.1957 13.3095 14.6793C12.3026 14.6799 11.2967 14.6758 10.2904 14.6772ZM14.0192 14.6854C13.7723 15.4311 13.4648 16.1613 13.0492 16.83C12.7791 17.2746 12.4547 17.6839 12.0836 18.0485C14.0018 17.5517 15.7183 16.3293 16.8289 14.6883C16.6204 14.6809 16.4118 14.6873 16.2037 14.6846C15.4754 14.6865 14.7471 14.6772 14.0192 14.685V14.6854Z" fill="#44374D" stroke="#44374D"/>
</svg>
