<svg xmlns="http://www.w3.org/2000/svg" width="1138" height="213" fill="#44374d" xmlns:v="https://vecta.io/nano"><path d="M13.392 54.656c2.048 0 3.84-.352 5.376-1.056 1.568-.704 2.784-1.68 3.648-2.928s1.296-2.688 1.296-4.32c0-2.528-1.024-4.56-3.072-6.096.96-.736 1.712-1.632 2.256-2.688s.816-2.224.816-3.504c0-1.92-.608-3.568-1.824-4.944s-2.96-2.4-5.232-3.072l-4.464-1.296c-.896-.256-1.68-.608-2.352-1.056-.64-.448-.96-1.104-.96-1.968s.336-1.552 1.008-2.064c.672-.544 1.6-.816 2.784-.816 1.408 0 2.672.384 3.792 1.152 1.12.736 1.936 1.728 2.448 2.976l4.8-2.256c-.832-2.272-2.256-4.016-4.272-5.232-1.984-1.216-4.224-1.824-6.72-1.824-1.952 0-3.696.352-5.232 1.056-1.504.704-2.688 1.68-3.552 2.928S2.64 20.352 2.64 22.016c0 2.528 1.024 4.544 3.072 6.048-.96.736-1.712 1.632-2.256 2.688s-.816 2.24-.816 3.552c0 1.856.592 3.488 1.776 4.896 1.184 1.376 2.944 2.384 5.28 3.024l4.512 1.296c.928.224 1.712.576 2.352 1.056s.96 1.136.96 1.968c0 .96-.384 1.712-1.152 2.256s-1.76.816-2.976.816c-1.568 0-2.992-.432-4.272-1.296s-2.288-2.08-3.024-3.648l-4.752 2.256c.832 2.368 2.32 4.24 4.464 5.616 2.144 1.408 4.672 2.112 7.584 2.112zm-.576-17.424c-1.184-.352-2.144-.832-2.88-1.44-.704-.64-1.056-1.504-1.056-2.592 0-1.376.48-2.4 1.44-3.072l3.216.912c1.28.352 2.256.864 2.928 1.536.704.672 1.056 1.52 1.056 2.544 0 1.344-.464 2.368-1.392 3.072l-3.312-.96zM46.4528 50h15.072c3.648 0 6.528-.944 8.64-2.832s3.168-4.48 3.168-7.776c0-1.792-.432-3.44-1.296-4.944-.832-1.504-2.096-2.736-3.792-3.696 2.432-1.696 3.648-4.08 3.648-7.152 0-2.848-.944-5.12-2.832-6.816-1.856-1.696-4.384-2.544-7.584-2.544h-15.024V50zm4.704-21.072V18.512h10.224c1.728 0 3.12.448 4.176 1.344 1.056.864 1.5839 2.096 1.5839 3.696 0 1.568-.5279 2.864-1.5839 3.888-1.056.992-2.448 1.488-4.176 1.488h-10.224zm0 16.752V33.152h10.56c2.08 0 3.744.576 4.9919 1.728s1.8721 2.672 1.8721 4.56c0 1.92-.624 3.44-1.8721 4.56s-2.9119 1.68-4.9919 1.68h-10.56zm29.3943 14.88c1.696 0 3.136-.336 4.32-1.008 1.216-.672 2.24-1.584 3.072-2.736.864-1.12 1.568-2.368 2.112-3.744l11.6639-28.944h-4.9439l-7.824 20.208-7.872-20.208h-4.848l10.272 25.92-.768 1.872c-.704 1.6-1.456 2.736-2.256 3.408-.768.672-1.904 1.008-3.408 1.008-.512 0-1.04-.048-1.584-.144L77.1911 56v3.984c.512.224 1.056.368 1.632.432.576.096 1.152.144 1.728.144zm45.4359-9.984c1.696 0 3.28-.304 4.752-.912 1.504-.608 2.8-1.44 3.888-2.496s1.904-2.24 2.448-3.552l-3.984-2.016c-.608 1.408-1.536 2.544-2.784 3.408-1.216.832-2.656 1.248-4.32 1.248-1.568 0-2.992-.4-4.272-1.2-1.248-.8-2.24-1.888-2.976-3.264-.736-1.408-1.104-2.976-1.104-4.704 0-1.792.368-3.376 1.104-4.752s1.728-2.464 2.976-3.264c1.28-.8 2.704-1.2 4.272-1.2 1.632 0 3.072.432 4.32 1.296 1.248.832 2.176 1.92 2.784 3.264l3.984-1.92c-.544-1.344-1.376-2.544-2.496-3.6-1.088-1.056-2.368-1.872-3.84-2.448-1.472-.608-3.056-.912-4.752-.912-2.528 0-4.784.592-6.768 1.776-1.952 1.152-3.488 2.752-4.608 4.8-1.12 2.016-1.68 4.32-1.68 6.912 0 2.56.56 4.864 1.68 6.912s2.656 3.664 4.608 4.848c1.984 1.184 4.24 1.776 6.768 1.776zm29.21 0c2.432 0 4.656-.576 6.672-1.728s3.616-2.752 4.8-4.8c1.216-2.048 1.824-4.384 1.824-7.008 0-2.592-.592-4.896-1.776-6.912-1.152-2.048-2.736-3.648-4.752-4.8-2.016-1.184-4.272-1.776-6.768-1.776-2.528 0-4.8.592-6.816 1.776-2.016 1.152-3.616 2.752-4.8 4.8-1.152 2.016-1.728 4.32-1.728 6.912s.592 4.912 1.776 6.96 2.784 3.664 4.8 4.848c2.016 1.152 4.272 1.728 6.768 1.728zm0-4.32c-1.632 0-3.104-.4-4.416-1.2-1.28-.8-2.304-1.888-3.072-3.264-.768-1.408-1.152-2.992-1.152-4.752s.384-3.328 1.152-4.704 1.792-2.464 3.072-3.264c1.312-.8 2.784-1.2 4.416-1.2 1.6 0 3.04.4 4.32 1.2 1.312.8 2.336 1.888 3.072 3.264.768 1.376 1.152 2.944 1.152 4.704s-.384 3.344-1.152 4.752c-.736 1.376-1.76 2.464-3.072 3.264-1.28.8-2.72 1.2-4.32 1.2zM174.315 50h4.464V34.688c0-2.112.592-3.776 1.776-4.992s2.688-1.824 4.512-1.824 3.312.608 4.464 1.824c1.152 1.184 1.728 2.848 1.728 4.992V50h4.512V33.248c0-1.856-.432-3.504-1.296-4.944-.832-1.472-1.984-2.624-3.456-3.456-1.44-.864-3.088-1.296-4.944-1.296-1.6 0-3.04.336-4.32 1.008-1.28.64-2.304 1.552-3.072 2.736v-3.168h-4.368V50zm38.356.288l1.296-.048c.512-.032.976-.096 1.392-.192v-3.984l-.912.096-.864.048c-1.568 0-2.688-.384-3.36-1.152-.64-.8-.96-1.856-.96-3.168V28.4h5.808v-4.272h-5.808v-5.952h-4.464v2.112c0 1.184-.336 2.128-1.008 2.832-.672.672-1.584 1.008-2.736 1.008h-.96V28.4h4.704v13.632c0 2.624.672 4.656 2.016 6.096 1.376 1.44 3.328 2.16 5.856 2.16zM221.19 20h4.464v-5.76h-4.464V20zm0 30h4.464V24.128h-4.464V50zm11.391 0h4.464V34.688c0-2.112.592-3.776 1.776-4.992s2.688-1.824 4.512-1.824 3.312.608 4.464 1.824c1.152 1.184 1.728 2.848 1.728 4.992V50h4.512V33.248c0-1.856-.432-3.504-1.296-4.944-.832-1.472-1.984-2.624-3.456-3.456-1.44-.864-3.088-1.296-4.944-1.296-1.6 0-3.04.336-4.32 1.008-1.28.64-2.304 1.552-3.072 2.736v-3.168h-4.368V50zm37.012.576c1.6 0 3.04-.32 4.32-.96 1.28-.672 2.304-1.6 3.072-2.784V50h4.368V24.128h-4.512V39.44c0 2.112-.592 3.776-1.776 4.992-1.152 1.216-2.64 1.824-4.464 1.824-1.856 0-3.36-.576-4.512-1.728-1.152-1.184-1.728-2.752-1.728-4.704V24.128h-4.464v16.176c0 2.016.416 3.808 1.248 5.376.832 1.536 1.968 2.736 3.408 3.6 1.472.864 3.152 1.296 5.04 1.296zM288.269 20h4.464v-5.76h-4.464V20zm0 30h4.464V24.128h-4.464V50zm11.39 0h4.464V34.688c0-2.112.592-3.776 1.776-4.992s2.688-1.824 4.512-1.824 3.312.608 4.464 1.824c1.152 1.184 1.728 2.848 1.728 4.992V50h4.512V33.248c0-1.856-.432-3.504-1.296-4.944-.832-1.472-1.984-2.624-3.456-3.456-1.44-.864-3.088-1.296-4.944-1.296-1.6 0-3.04.336-4.32 1.008-1.28.64-2.304 1.552-3.072 2.736v-3.168h-4.368V50zm40.18 10.56c2.4 0 4.528-.512 6.384-1.536 1.888-.992 3.36-2.368 4.416-4.128s1.584-3.76 1.584-6V24.128h-4.368v3.6c-1.024-1.312-2.288-2.336-3.792-3.072s-3.168-1.104-4.992-1.104c-2.432 0-4.608.576-6.528 1.728-1.888 1.12-3.376 2.656-4.464 4.608s-1.632 4.144-1.632 6.576.544 4.624 1.632 6.576c1.12 1.952 2.624 3.504 4.512 4.656 1.92 1.12 4.096 1.68 6.528 1.68 1.76 0 3.392-.352 4.896-1.056s2.736-1.712 3.696-3.024v3.6c0 1.568-.368 2.896-1.104 3.984-.704 1.12-1.648 1.952-2.832 2.496-1.184.576-2.512.864-3.984.864-1.92 0-3.52-.432-4.8-1.296-1.248-.832-2.096-1.856-2.544-3.072l-4.176 1.92c.864 2.016 2.32 3.648 4.368 4.896s4.448 1.872 7.2 1.872zm-.336-15.504c-1.6 0-3.04-.384-4.32-1.152-1.248-.768-2.24-1.792-2.976-3.072-.704-1.312-1.056-2.768-1.056-4.368s.368-3.04 1.104-4.32c.736-1.312 1.728-2.352 2.976-3.12 1.28-.768 2.704-1.152 4.272-1.152 1.536 0 2.928.384 4.176 1.152s2.224 1.808 2.928 3.12c.736 1.28 1.104 2.72 1.104 4.32 0 1.568-.368 3.008-1.104 4.32-.704 1.312-1.68 2.352-2.928 3.12s-2.64 1.152-4.176 1.152zm38.449 5.232l1.296-.048c.512-.032.976-.096 1.392-.192v-3.984l-.912.096-.864.048c-1.568 0-2.688-.384-3.36-1.152-.64-.8-.96-1.856-.96-3.168V28.4h5.808v-4.272h-5.808v-5.952h-4.464v2.112c0 1.184-.336 2.128-1.008 2.832-.672.672-1.584 1.008-2.736 1.008h-.96V28.4h4.704v13.632c0 2.624.672 4.656 2.016 6.096 1.376 1.44 3.328 2.16 5.856 2.16zm20.105.288c2.432 0 4.656-.576 6.672-1.728s3.616-2.752 4.8-4.8c1.216-2.048 1.824-4.384 1.824-7.008 0-2.592-.592-4.896-1.776-6.912-1.152-2.048-2.736-3.648-4.752-4.8-2.016-1.184-4.272-1.776-6.768-1.776-2.528 0-4.8.592-6.816 1.776-2.016 1.152-3.616 2.752-4.8 4.8-1.152 2.016-1.728 4.32-1.728 6.912s.592 4.912 1.776 6.96 2.784 3.664 4.8 4.848c2.016 1.152 4.272 1.728 6.768 1.728zm0-4.32c-1.632 0-3.104-.4-4.416-1.2-1.28-.8-2.304-1.888-3.072-3.264-.768-1.408-1.152-2.992-1.152-4.752s.384-3.328 1.152-4.704 1.792-2.464 3.072-3.264c1.312-.8 2.784-1.2 4.416-1.2 1.6 0 3.04.4 4.32 1.2 1.312.8 2.336 1.888 3.072 3.264.768 1.376 1.152 2.944 1.152 4.704s-.384 3.344-1.152 4.752c-.736 1.376-1.76 2.464-3.072 3.264-1.28.8-2.72 1.2-4.32 1.2zm39.415 4.32c1.696 0 3.28-.304 4.752-.912 1.504-.608 2.8-1.44 3.888-2.496s1.904-2.24 2.448-3.552l-3.984-2.016c-.608 1.408-1.536 2.544-2.784 3.408-1.216.832-2.656 1.248-4.32 1.248-1.568 0-2.992-.4-4.272-1.2-1.248-.8-2.24-1.888-2.976-3.264-.736-1.408-1.104-2.976-1.104-4.704 0-1.792.368-3.376 1.104-4.752s1.728-2.464 2.976-3.264c1.28-.8 2.704-1.2 4.272-1.2 1.632 0 3.072.432 4.32 1.296 1.248.832 2.176 1.92 2.784 3.264l3.984-1.92c-.544-1.344-1.376-2.544-2.496-3.6-1.088-1.056-2.368-1.872-3.84-2.448-1.472-.608-3.056-.912-4.752-.912-2.528 0-4.784.592-6.768 1.776-1.952 1.152-3.488 2.752-4.608 4.8-1.12 2.016-1.68 4.32-1.68 6.912 0 2.56.56 4.864 1.68 6.912s2.656 3.664 4.608 4.848c1.984 1.184 4.24 1.776 6.768 1.776zM454.394 50h4.464V34.688c0-2.112.592-3.776 1.776-4.992 1.216-1.216 2.72-1.824 4.512-1.824s3.264.608 4.416 1.824c1.184 1.184 1.776 2.848 1.776 4.992V50h4.512V33.248c0-1.856-.432-3.504-1.296-4.944-.832-1.472-1.984-2.624-3.456-3.456-1.44-.864-3.088-1.296-4.944-1.296-1.568 0-2.992.32-4.272.96-1.248.608-2.256 1.488-3.024 2.64V14.096h-4.464V50zm39.747.576c2.656 0 4.96-.624 6.912-1.872s3.328-2.768 4.128-4.56l-3.744-1.92c-.736 1.248-1.696 2.272-2.88 3.072s-2.64 1.2-4.368 1.2c-1.44 0-2.784-.32-4.032-.96-1.216-.672-2.224-1.616-3.024-2.832-.768-1.216-1.184-2.656-1.248-4.32h19.776c.16-.864.24-1.664.24-2.4 0-2.144-.48-4.16-1.44-6.048s-2.352-3.424-4.176-4.608c-1.792-1.184-3.968-1.776-6.528-1.776-2.4 0-4.544.576-6.432 1.728s-3.392 2.752-4.512 4.8c-1.088 2.016-1.632 4.32-1.632 6.912s.56 4.912 1.68 6.96 2.656 3.664 4.608 4.848 4.176 1.776 6.672 1.776zm-.384-23.04c1.312 0 2.512.304 3.6.912 1.088.576 1.968 1.392 2.64 2.448s1.024 2.272 1.056 3.648h-15.072c.32-2.176 1.216-3.888 2.688-5.136s3.168-1.872 5.088-1.872zm29.965 23.04c1.696 0 3.28-.304 4.752-.912 1.504-.608 2.8-1.44 3.888-2.496s1.904-2.24 2.448-3.552l-3.984-2.016c-.608 1.408-1.536 2.544-2.784 3.408-1.216.832-2.656 1.248-4.32 1.248-1.568 0-2.992-.4-4.272-1.2-1.248-.8-2.24-1.888-2.976-3.264-.736-1.408-1.104-2.976-1.104-4.704 0-1.792.368-3.376 1.104-4.752s1.728-2.464 2.976-3.264c1.28-.8 2.704-1.2 4.272-1.2 1.632 0 3.072.432 4.32 1.296 1.248.832 2.176 1.92 2.784 3.264l3.984-1.92c-.544-1.344-1.376-2.544-2.496-3.6-1.088-1.056-2.368-1.872-3.84-2.448-1.472-.608-3.056-.912-4.752-.912-2.528 0-4.784.592-6.768 1.776-1.952 1.152-3.488 2.752-4.608 4.8-1.12 2.016-1.68 4.32-1.68 6.912 0 2.56.56 4.864 1.68 6.912s2.656 3.664 4.608 4.848c1.984 1.184 4.24 1.776 6.768 1.776zM540.644 50h4.464v-7.776l4.415-4.656L558.116 50h5.28l-10.608-15.456 9.936-10.416h-5.712l-11.904 12.144V13.856h-4.464V50zm38.584.576c2.432 0 4.656-.576 6.672-1.728s3.616-2.752 4.8-4.8c1.216-2.048 1.824-4.384 1.824-7.008 0-2.592-.592-4.896-1.776-6.912-1.152-2.048-2.736-3.648-4.752-4.8-2.016-1.184-4.272-1.776-6.768-1.776-2.528 0-4.8.592-6.816 1.776-2.016 1.152-3.616 2.752-4.8 4.8-1.152 2.016-1.728 4.32-1.728 6.912s.592 4.912 1.776 6.96 2.784 3.664 4.8 4.848c2.016 1.152 4.272 1.728 6.768 1.728zm0-4.32c-1.632 0-3.104-.4-4.416-1.2-1.28-.8-2.304-1.888-3.072-3.264-.768-1.408-1.152-2.992-1.152-4.752s.384-3.328 1.152-4.704 1.792-2.464 3.072-3.264c1.312-.8 2.784-1.2 4.416-1.2 1.6 0 3.04.4 4.32 1.2 1.312.8 2.336 1.888 3.072 3.264.768 1.376 1.152 2.944 1.152 4.704s-.384 3.344-1.152 4.752c-.736 1.376-1.76 2.464-3.072 3.264-1.28.8-2.72 1.2-4.32 1.2zm28.287 4.32c1.6 0 3.04-.32 4.32-.96 1.28-.672 2.304-1.6 3.072-2.784V50h4.368V24.128h-4.512V39.44c0 2.112-.592 3.776-1.776 4.992-1.152 1.216-2.64 1.824-4.464 1.824-1.856 0-3.36-.576-4.512-1.728-1.152-1.184-1.728-2.752-1.728-4.704V24.128h-4.464v16.176c0 2.016.416 3.808 1.248 5.376.832 1.536 1.968 2.736 3.408 3.6 1.472.864 3.152 1.296 5.04 1.296zm29.187-.288l1.296-.048c.512-.032.976-.096 1.392-.192v-3.984l-.912.096-.864.048c-1.568 0-2.688-.384-3.36-1.152-.64-.8-.96-1.856-.96-3.168V28.4h5.808v-4.272h-5.808v-5.952h-4.464v2.112c0 1.184-.336 2.128-1.008 2.832-.672.672-1.584 1.008-2.736 1.008h-.96V28.4h4.704v13.632c0 2.624.672 4.656 2.016 6.096 1.376 1.44 3.328 2.16 5.856 2.16zm9.288 6.384c3.744-.864 5.616-3.648 5.616-8.352v-4.08h-4.656V50h2.352c-.192 2.56-1.296 4.112-3.312 4.656v2.016zm23.264 3.888c1.696 0 3.136-.336 4.32-1.008 1.216-.672 2.24-1.584 3.072-2.736.864-1.12 1.568-2.368 2.112-3.744l11.664-28.944h-4.944l-7.824 20.208-7.872-20.208h-4.848l10.272 25.92-.768 1.872c-.704 1.6-1.456 2.736-2.256 3.408-.768.672-1.904 1.008-3.408 1.008-.512 0-1.04-.048-1.584-.144-.512-.064-.944-.128-1.296-.192v3.984c.512.224 1.056.368 1.632.432.576.096 1.152.144 1.728.144zm36.959-9.984c2.432 0 4.656-.576 6.672-1.728s3.616-2.752 4.8-4.8c1.216-2.048 1.824-4.384 1.824-7.008 0-2.592-.592-4.896-1.776-6.912-1.152-2.048-2.736-3.648-4.752-4.8-2.016-1.184-4.272-1.776-6.768-1.776-2.528 0-4.8.592-6.816 1.776-2.016 1.152-3.616 2.752-4.8 4.8-1.152 2.016-1.728 4.32-1.728 6.912s.592 4.912 1.776 6.96 2.784 3.664 4.8 4.848c2.016 1.152 4.272 1.728 6.768 1.728zm0-4.32c-1.632 0-3.104-.4-4.416-1.2-1.28-.8-2.304-1.888-3.072-3.264-.768-1.408-1.152-2.992-1.152-4.752s.384-3.328 1.152-4.704 1.792-2.464 3.072-3.264c1.312-.8 2.784-1.2 4.416-1.2 1.6 0 3.04.4 4.32 1.2 1.312.8 2.336 1.888 3.072 3.264.768 1.376 1.152 2.944 1.152 4.704s-.384 3.344-1.152 4.752c-.736 1.376-1.76 2.464-3.072 3.264-1.28.8-2.72 1.2-4.32 1.2zm28.286 4.32c1.6 0 3.04-.32 4.32-.96 1.28-.672 2.304-1.6 3.072-2.784V50h4.368V24.128h-4.512V39.44c0 2.112-.592 3.776-1.776 4.992-1.152 1.216-2.64 1.824-4.464 1.824-1.856 0-3.36-.576-4.512-1.728-1.152-1.184-1.728-2.752-1.728-4.704V24.128h-4.464v16.176c0 2.016.416 3.808 1.248 5.376.832 1.536 1.968 2.736 3.408 3.6 1.472.864 3.152 1.296 5.04 1.296zm34.557 0c1.888 0 3.584-.352 5.088-1.056 1.504-.736 2.72-1.696 3.648-2.88V50h4.368V32.432c0-1.76-.432-3.296-1.296-4.608-.832-1.344-2-2.384-3.504-3.12-1.504-.768-3.248-1.152-5.232-1.152-1.536 0-3.008.272-4.416.816s-2.64 1.296-3.696 2.256c-1.056.928-1.824 1.984-2.304 3.168l3.888 2.016c.544-1.216 1.376-2.208 2.496-2.976s2.432-1.152 3.936-1.152c1.696 0 3.056.448 4.08 1.344 1.056.864 1.584 2 1.584 3.408v1.2l-8.832 1.44c-2.912.48-5.056 1.456-6.432 2.928-1.344 1.44-2.016 3.184-2.016 5.232 0 2.176.8 3.952 2.4 5.328 1.632 1.344 3.712 2.016 6.24 2.016zm-3.936-7.488c0-1.12.368-2.064 1.104-2.832.768-.768 1.984-1.296 3.648-1.584l7.824-1.296v1.632c0 1.44-.336 2.752-1.008 3.936s-1.616 2.128-2.832 2.832c-1.216.672-2.64 1.008-4.272 1.008-1.28 0-2.352-.352-3.216-1.056-.832-.704-1.248-1.584-1.248-2.64zm36.297 17.472c2.4 0 4.528-.512 6.384-1.536 1.888-.992 3.36-2.368 4.416-4.128s1.584-3.76 1.584-6V24.128h-4.368v3.6c-1.024-1.312-2.288-2.336-3.792-3.072s-3.168-1.104-4.992-1.104c-2.432 0-4.608.576-6.528 1.728-1.888 1.12-3.376 2.656-4.464 4.608s-1.632 4.144-1.632 6.576.544 4.624 1.632 6.576c1.12 1.952 2.624 3.504 4.512 4.656 1.92 1.12 4.096 1.68 6.528 1.68 1.76 0 3.392-.352 4.896-1.056s2.736-1.712 3.696-3.024v3.6c0 1.568-.368 2.896-1.104 3.984-.704 1.12-1.648 1.952-2.832 2.496-1.184.576-2.512.864-3.984.864-1.92 0-3.52-.432-4.8-1.296-1.248-.832-2.096-1.856-2.544-3.072l-4.176 1.92c.864 2.016 2.32 3.648 4.368 4.896s4.448 1.872 7.2 1.872zm-.336-15.504c-1.6 0-3.04-.384-4.32-1.152-1.248-.768-2.24-1.792-2.976-3.072-.704-1.312-1.056-2.768-1.056-4.368s.368-3.04 1.104-4.32c.736-1.312 1.728-2.352 2.976-3.12 1.28-.768 2.704-1.152 4.272-1.152 1.536 0 2.928.384 4.176 1.152s2.224 1.808 2.928 3.12c.736 1.28 1.104 2.72 1.104 4.32 0 1.568-.368 3.008-1.104 4.32-.704 1.312-1.68 2.352-2.928 3.12s-2.64 1.152-4.176 1.152zM820.722 50h4.464V34.592c0-2.08.56-3.68 1.68-4.8 1.12-1.152 2.592-1.728 4.416-1.728h2.256V23.84h-1.584c-1.6 0-2.976.288-4.128.864-1.152.544-2.064 1.376-2.736 2.496v-3.072h-4.368V50zm28.685.576c2.656 0 4.96-.624 6.912-1.872s3.328-2.768 4.128-4.56l-3.744-1.92c-.736 1.248-1.696 2.272-2.88 3.072s-2.64 1.2-4.368 1.2c-1.44 0-2.784-.32-4.032-.96-1.216-.672-2.224-1.616-3.024-2.832-.768-1.216-1.184-2.656-1.248-4.32h19.776c.16-.864.24-1.664.24-2.4 0-2.144-.48-4.16-1.44-6.048s-2.352-3.424-4.176-4.608c-1.792-1.184-3.968-1.776-6.528-1.776-2.4 0-4.544.576-6.432 1.728s-3.392 2.752-4.512 4.8c-1.088 2.016-1.632 4.32-1.632 6.912s.56 4.912 1.68 6.96 2.656 3.664 4.608 4.848 4.176 1.776 6.672 1.776zm-.384-23.04c1.312 0 2.512.304 3.6.912 1.088.576 1.968 1.392 2.64 2.448s1.024 2.272 1.056 3.648h-15.072c.32-2.176 1.216-3.888 2.688-5.136s3.168-1.872 5.088-1.872zm29.868 23.04c2.656 0 4.96-.624 6.912-1.872s3.328-2.768 4.128-4.56l-3.744-1.92c-.736 1.248-1.696 2.272-2.88 3.072s-2.64 1.2-4.368 1.2c-1.44 0-2.784-.32-4.032-.96-1.216-.672-2.224-1.616-3.024-2.832-.768-1.216-1.184-2.656-1.248-4.32h19.776c.16-.864.24-1.664.24-2.4 0-2.144-.48-4.16-1.44-6.048s-2.352-3.424-4.176-4.608c-1.792-1.184-3.968-1.776-6.528-1.776-2.4 0-4.544.576-6.432 1.728s-3.392 2.752-4.512 4.8c-1.088 2.016-1.632 4.32-1.632 6.912s.56 4.912 1.68 6.96 2.656 3.664 4.608 4.848 4.176 1.776 6.672 1.776zm-.384-23.04c1.312 0 2.512.304 3.6.912 1.088.576 1.968 1.392 2.64 2.448s1.024 2.272 1.056 3.648h-15.072c.32-2.176 1.216-3.888 2.688-5.136s3.168-1.872 5.088-1.872zm36.774 22.752c.352 0 .784-.016 1.296-.048s.976-.096 1.392-.192v-3.984l-.912.096c-.32.032-.608.048-.864.048-1.568 0-2.688-.384-3.36-1.152-.64-.8-.96-1.856-.96-3.168V28.4h5.808v-4.272h-5.808v-5.952h-4.464v2.112c0 1.184-.336 2.128-1.008 2.832-.672.672-1.584 1.008-2.736 1.008h-.96V28.4h4.704v13.632c0 2.624.672 4.656 2.016 6.096 1.376 1.44 3.328 2.16 5.856 2.16zm20.104.288c2.432 0 4.656-.576 6.672-1.728s3.616-2.752 4.8-4.8c1.216-2.048 1.824-4.384 1.824-7.008 0-2.592-.592-4.896-1.776-6.912-1.152-2.048-2.736-3.648-4.752-4.8-2.016-1.184-4.272-1.776-6.768-1.776-2.528 0-4.8.592-6.816 1.776-2.016 1.152-3.616 2.752-4.8 4.8-1.152 2.016-1.728 4.32-1.728 6.912s.592 4.912 1.776 6.96 2.784 3.664 4.8 4.848c2.016 1.152 4.272 1.728 6.768 1.728zm0-4.32c-1.632 0-3.104-.4-4.416-1.2-1.28-.8-2.304-1.888-3.072-3.264-.768-1.408-1.152-2.992-1.152-4.752s.384-3.328 1.152-4.704 1.792-2.464 3.072-3.264c1.312-.8 2.784-1.2 4.416-1.2 1.6 0 3.04.4 4.32 1.2 1.312.8 2.336 1.888 3.072 3.264.768 1.376 1.152 2.944 1.152 4.704s-.384 3.344-1.152 4.752c-.736 1.376-1.76 2.464-3.072 3.264-1.28.8-2.72 1.2-4.32 1.2zM959.872 50h5.04l2.928-8.4h15.264l2.928 8.4h5.04l-12.816-35.76h-5.568L959.872 50zm9.456-12.72l6.144-17.712 6.144 17.712h-12.288zM995.578 50h20.402v-4.32h-15.7V14.24h-4.702V50zm25.692 0h20.4v-4.32h-15.7V14.24h-4.7V50zm26.98-20.112h4.65v-5.76h-4.65v5.76zm0 20.112h4.65v-5.76h-4.65V50z"/><path d="M664.406 58.4h393.774v1.92H664.406V58.4zM2.592 122.2H5.94v-9.9c.744 1.008 1.692 1.788 2.844 2.34 1.176.528 2.46.792 3.852.792 1.848 0 3.492-.444 4.932-1.332 1.464-.888 2.616-2.088 3.456-3.6.84-1.536 1.26-3.264 1.26-5.184 0-1.944-.42-3.672-1.26-5.184-.84-1.536-1.98-2.748-3.42-3.636s-3.084-1.332-4.932-1.332c-1.464 0-2.784.288-3.96.864-1.152.552-2.1 1.32-2.844 2.304v-2.736H2.592V122.2zm9.792-10.008c-1.2 0-2.292-.3-3.276-.9s-1.764-1.416-2.34-2.448c-.552-1.056-.828-2.232-.828-3.528 0-1.32.276-2.496.828-3.528.576-1.032 1.356-1.848 2.34-2.448.984-.624 2.076-.936 3.276-.936 1.224 0 2.304.3 3.24.9.96.6 1.716 1.428 2.268 2.484.552 1.032.828 2.208.828 3.528 0 1.296-.276 2.472-.828 3.528-.552 1.032-1.308 1.848-2.268 2.448-.936.6-2.016.9-3.24.9zM26.674 115h3.348v-11.556c0-1.56.42-2.76 1.26-3.6.84-.864 1.944-1.296 3.312-1.296h1.692V95.38h-1.188c-1.2 0-2.232.216-3.096.648-.864.408-1.548 1.032-2.052 1.872v-2.304h-3.276V115zm21.802.432c1.824 0 3.492-.432 5.004-1.296s2.712-2.064 3.6-3.6c.912-1.536 1.368-3.288 1.368-5.256 0-1.944-.444-3.672-1.332-5.184-.864-1.536-2.052-2.736-3.564-3.6-1.512-.888-3.204-1.332-5.076-1.332-1.896 0-3.6.444-5.112 1.332-1.512.864-2.712 2.064-3.6 3.6-.864 1.512-1.296 3.24-1.296 5.184s.444 3.684 1.332 5.22 2.088 2.748 3.6 3.636c1.512.864 3.204 1.296 5.076 1.296zm0-3.24c-1.224 0-2.328-.3-3.312-.9-.96-.6-1.728-1.416-2.304-2.448-.576-1.056-.864-2.244-.864-3.564s.288-2.496.864-3.528 1.344-1.848 2.304-2.448c.984-.6 2.088-.9 3.312-.9 1.2 0 2.28.3 3.24.9.984.6 1.752 1.416 2.304 2.448.576 1.032.864 2.208.864 3.528s-.288 2.508-.864 3.564c-.552 1.032-1.32 1.848-2.304 2.448-.96.6-2.04.9-3.24.9zM67.8631 115h3.168l7.632-19.404h-3.744l-5.472 14.688-5.436-14.688h-3.744L67.8631 115zm13.7953-22.5h3.348v-4.32h-3.348v4.32zm0 22.5h3.348V95.596h-3.348V115zm15.491.432c1.392 0 2.616-.24 3.6716-.72s1.884-1.14 2.484-1.98c.6-.864.9-1.848.9-2.952 0-1.344-.444-2.496-1.332-3.456s-2.112-1.668-3.6716-2.124l-3.168-.936-1.188-.432c-.408-.192-.756-.456-1.044-.792-.288-.36-.432-.816-.432-1.368 0-.768.288-1.392.864-1.872.6-.48 1.38-.72 2.34-.72 1.056 0 2.016.3 2.88.9.8876.576 1.5476 1.368 1.9796 2.376l2.736-1.26c-.576-1.56-1.548-2.772-2.916-3.636-1.3436-.864-2.8676-1.296-4.5716-1.296-1.272 0-2.424.24-3.456.72-1.008.48-1.812 1.152-2.412 2.016-.576.84-.864 1.836-.864 2.988 0 1.248.396 2.352 1.188 3.312.816.936 2.1 1.644 3.852 2.124l2.916.828c.408.096.828.252 1.26.468.456.192.8396.468 1.1516.828.336.336.504.792.504 1.368 0 .816-.348 1.476-1.0436 1.98s-1.572.756-2.628.756c-1.176 0-2.244-.324-3.204-.972-.96-.672-1.716-1.596-2.268-2.772l-2.664 1.296c.6 1.632 1.62 2.928 3.06 3.888s3.132 1.44 5.076 1.44zm20.6546 0c1.824 0 3.492-.432 5.004-1.296s2.712-2.064 3.6-3.6c.912-1.536 1.368-3.288 1.368-5.256 0-1.944-.444-3.672-1.332-5.184-.864-1.536-2.052-2.736-3.564-3.6-1.512-.888-3.204-1.332-5.076-1.332-1.896 0-3.6.444-5.112 1.332-1.512.864-2.712 2.064-3.6 3.6-.864 1.512-1.296 3.24-1.296 5.184s.444 3.684 1.332 5.22 2.088 2.748 3.6 3.636c1.512.864 3.204 1.296 5.076 1.296zm0-3.24c-1.224 0-2.328-.3-3.312-.9-.96-.6-1.728-1.416-2.304-2.448-.576-1.056-.864-2.244-.864-3.564s.288-2.496.864-3.528 1.344-1.848 2.304-2.448c.984-.6 2.088-.9 3.312-.9 1.2 0 2.28.3 3.24.9.984.6 1.752 1.416 2.304 2.448.576 1.032.864 2.208.864 3.528s-.288 2.508-.864 3.564c-.552 1.032-1.32 1.848-2.304 2.448-.96.6-2.04.9-3.24.9zm21.287 3.24c1.392 0 2.616-.24 3.672-.72s1.884-1.14 2.484-1.98c.6-.864.9-1.848.9-2.952 0-1.344-.444-2.496-1.332-3.456s-2.112-1.668-3.672-2.124l-3.168-.936-1.188-.432c-.408-.192-.756-.456-1.044-.792-.288-.36-.432-.816-.432-1.368 0-.768.288-1.392.864-1.872.6-.48 1.38-.72 2.34-.72 1.056 0 2.016.3 2.88.9.888.576 1.548 1.368 1.98 2.376l2.736-1.26c-.576-1.56-1.548-2.772-2.916-3.636-1.344-.864-2.868-1.296-4.572-1.296-1.272 0-2.424.24-3.456.72-1.008.48-1.812 1.152-2.412 2.016-.576.84-.864 1.836-.864 2.988 0 1.248.396 2.352 1.188 3.312.816.936 2.1 1.644 3.852 2.124l2.916.828c.408.096.828.252 1.26.468.456.192.84.468 1.152.828.336.336.504.792.504 1.368 0 .816-.348 1.476-1.044 1.98s-1.572.756-2.628.756c-1.176 0-2.244-.324-3.204-.972-.96-.672-1.716-1.596-2.268-2.772l-2.664 1.296c.6 1.632 1.62 2.928 3.06 3.888s3.132 1.44 5.076 1.44zm12.015 4.572c2.808-.648 4.212-2.736 4.212-6.264v-3.06h-3.492V115h1.764c-.144 1.92-.972 3.084-2.484 3.492v1.512zM167.51 92.5h3.348v-4.32h-3.348v4.32zm0 22.5h3.348V95.596h-3.348V115zm8.543 0h3.348v-11.484c0-1.584.444-2.832 1.332-3.744s2.016-1.368 3.384-1.368 2.484.456 3.348 1.368c.864.888 1.296 2.136 1.296 3.744V115h3.384v-12.564c0-1.392-.324-2.628-.972-3.708-.624-1.104-1.488-1.968-2.592-2.592-1.08-.648-2.316-.972-3.708-.972-1.2 0-2.28.252-3.24.756-.96.48-1.728 1.164-2.304 2.052v-2.376h-3.276V115zm29.883.432c1.272 0 2.46-.228 3.564-.684 1.128-.456 2.1-1.08 2.916-1.872s1.428-1.68 1.836-2.664l-2.988-1.512c-.456 1.056-1.152 1.908-2.088 2.556-.912.624-1.992.936-3.24.936-1.176 0-2.244-.3-3.204-.9-.936-.6-1.68-1.416-2.232-2.448-.552-1.056-.828-2.232-.828-3.528 0-1.344.276-2.532.828-3.564s1.296-1.848 2.232-2.448c.96-.6 2.028-.9 3.204-.9 1.224 0 2.304.324 3.24.972.936.624 1.632 1.44 2.088 2.448l2.988-1.44c-.408-1.008-1.032-1.908-1.872-2.7-.816-.792-1.776-1.404-2.88-1.836-1.104-.456-2.292-.684-3.564-.684-1.896 0-3.588.444-5.076 1.332-1.464.864-2.616 2.064-3.456 3.6-.84 1.512-1.26 3.24-1.26 5.184 0 1.92.42 3.648 1.26 5.184s1.992 2.748 3.456 3.636c1.488.888 3.18 1.332 5.076 1.332zm12.691-.432h3.348V88.18h-3.348V115zm15.419.432c1.2 0 2.28-.24 3.24-.72.96-.504 1.728-1.2 2.304-2.088V115h3.276V95.596h-3.384v11.484c0 1.584-.444 2.832-1.332 3.744-.864.912-1.98 1.368-3.348 1.368-1.392 0-2.52-.432-3.384-1.296-.864-.888-1.296-2.064-1.296-3.528V95.596h-3.348v12.132c0 1.512.312 2.856.936 4.032.624 1.152 1.476 2.052 2.556 2.7 1.104.648 2.364.972 3.78.972zm22.827 0c1.44 0 2.748-.276 3.924-.828 1.2-.576 2.16-1.392 2.88-2.448V115h3.276V88.18h-3.384v10.008c-.744-.96-1.692-1.704-2.844-2.232s-2.436-.792-3.852-.792c-1.824 0-3.468.444-4.932 1.332-1.44.888-2.58 2.1-3.42 3.636-.84 1.512-1.26 3.24-1.26 5.184 0 1.92.42 3.648 1.26 5.184.84 1.512 1.98 2.712 3.42 3.6 1.464.888 3.108 1.332 4.932 1.332zm.288-3.24c-1.224 0-2.316-.3-3.276-.9s-1.716-1.416-2.268-2.448c-.552-1.056-.828-2.232-.828-3.528 0-1.32.276-2.496.828-3.528.552-1.056 1.308-1.884 2.268-2.484.984-.6 2.076-.9 3.276-.9 1.224 0 2.316.312 3.276.936.96.6 1.716 1.416 2.268 2.448.576 1.032.864 2.208.864 3.528 0 1.296-.288 2.472-.864 3.528-.552 1.032-1.308 1.848-2.268 2.448s-2.052.9-3.276.9zM272.135 92.5h3.348v-4.32h-3.348v4.32zm0 22.5h3.348V95.596h-3.348V115zm8.543 0h3.348v-11.484c0-1.584.444-2.832 1.332-3.744s2.016-1.368 3.384-1.368 2.484.456 3.348 1.368c.864.888 1.296 2.136 1.296 3.744V115h3.384v-12.564c0-1.392-.324-2.628-.972-3.708-.624-1.104-1.488-1.968-2.592-2.592-1.08-.648-2.316-.972-3.708-.972-1.2 0-2.28.252-3.24.756-.96.48-1.728 1.164-2.304 2.052v-2.376h-3.276V115zm30.135 7.92c1.8 0 3.396-.384 4.788-1.152 1.416-.744 2.52-1.776 3.312-3.096s1.188-2.82 1.188-4.5V95.596h-3.276v2.7c-.768-.984-1.716-1.752-2.844-2.304s-2.376-.828-3.744-.828c-1.824 0-3.456.432-4.896 1.296-1.416.84-2.532 1.992-3.348 3.456s-1.224 3.108-1.224 4.932.408 3.468 1.224 4.932c.84 1.464 1.968 2.628 3.384 3.492 1.44.84 3.072 1.26 4.896 1.26 1.32 0 2.544-.264 3.672-.792s2.052-1.284 2.772-2.268v2.7c0 1.176-.276 2.172-.828 2.988-.528.84-1.236 1.464-2.124 1.872-.888.432-1.884.648-2.988.648-1.44 0-2.64-.324-3.6-.972-.936-.624-1.572-1.392-1.908-2.304l-3.132 1.44c.648 1.512 1.74 2.736 3.276 3.672s3.336 1.404 5.4 1.404zm-.252-11.628c-1.2 0-2.28-.288-3.24-.864-.936-.576-1.68-1.344-2.232-2.304-.528-.984-.792-2.076-.792-3.276s.276-2.28.828-3.24c.552-.984 1.296-1.764 2.232-2.34.96-.576 2.028-.864 3.204-.864 1.152 0 2.196.288 3.132.864s1.668 1.356 2.196 2.34c.552.96.828 2.04.828 3.24 0 1.176-.276 2.256-.828 3.24-.528.984-1.26 1.764-2.196 2.34s-1.98.864-3.132.864zm30.169 4.14c1.824 0 3.492-.432 5.004-1.296s2.712-2.064 3.6-3.6c.912-1.536 1.368-3.288 1.368-5.256 0-1.944-.444-3.672-1.332-5.184-.864-1.536-2.052-2.736-3.564-3.6-1.512-.888-3.204-1.332-5.076-1.332-1.896 0-3.6.444-5.112 1.332-1.512.864-2.712 2.064-3.6 3.6-.864 1.512-1.296 3.24-1.296 5.184s.444 3.684 1.332 5.22 2.088 2.748 3.6 3.636c1.512.864 3.204 1.296 5.076 1.296zm0-3.24c-1.224 0-2.328-.3-3.312-.9-.96-.6-1.728-1.416-2.304-2.448-.576-1.056-.864-2.244-.864-3.564s.288-2.496.864-3.528 1.344-1.848 2.304-2.448c.984-.6 2.088-.9 3.312-.9 1.2 0 2.28.3 3.24.9.984.6 1.752 1.416 2.304 2.448.576 1.032.864 2.208.864 3.528s-.288 2.508-.864 3.564c-.552 1.032-1.32 1.848-2.304 2.448-.96.6-2.04.9-3.24.9zm21.215 3.24c1.2 0 2.28-.24 3.24-.72.96-.504 1.728-1.2 2.304-2.088V115h3.276V95.596h-3.384v11.484c0 1.584-.444 2.832-1.332 3.744-.864.912-1.98 1.368-3.348 1.368-1.392 0-2.52-.432-3.384-1.296-.864-.888-1.296-2.064-1.296-3.528V95.596h-3.348v12.132c0 1.512.312 2.856.936 4.032.624 1.152 1.476 2.052 2.556 2.7 1.104.648 2.364.972 3.78.972zm14.006-.432h3.348v-11.556c0-1.56.42-2.76 1.26-3.6.84-.864 1.944-1.296 3.312-1.296h1.692V95.38h-1.188c-1.2 0-2.232.216-3.096.648-.864.408-1.548 1.032-2.052 1.872v-2.304h-3.276V115zm29.784 0h4.932V92.5h6.84v-4.32h-18.72v4.32h6.948V115zm21.12.432c1.992 0 3.732-.444 5.22-1.332 1.512-.912 2.568-2.064 3.168-3.456l-3.816-1.872c-.432.744-1.032 1.356-1.8 1.836-.744.456-1.656.684-2.736.684-1.416 0-2.604-.432-3.564-1.296s-1.512-2.016-1.656-3.456h14.112c.096-.264.156-.564.18-.9.048-.36.072-.72.072-1.08 0-1.752-.372-3.348-1.116-4.788s-1.824-2.592-3.24-3.456c-1.416-.888-3.144-1.332-5.184-1.332-1.824 0-3.48.444-4.968 1.332-1.464.888-2.628 2.1-3.492 3.636-.84 1.512-1.26 3.252-1.26 5.22 0 1.896.42 3.624 1.26 5.184s2.016 2.796 3.528 3.708 3.276 1.368 5.292 1.368zm-.36-16.56c1.248 0 2.28.384 3.096 1.152.84.744 1.308 1.716 1.404 2.916h-9.216c.264-1.296.816-2.292 1.656-2.988.864-.72 1.884-1.08 3.06-1.08zM439.61 115h4.716v-10.908c0-1.488.408-2.64 1.224-3.456.84-.84 1.92-1.26 3.24-1.26h1.692V95.2h-1.152c-1.2 0-2.256.216-3.168.648s-1.62 1.212-2.124 2.34v-2.772h-4.428V115zm13.465 0h4.716v-11.484c0-1.272.348-2.292 1.044-3.06s1.608-1.152 2.736-1.152c1.152 0 2.064.384 2.736 1.152.696.744 1.044 1.764 1.044 3.06V115h4.716v-11.484c0-1.272.348-2.292 1.044-3.06s1.608-1.152 2.736-1.152c1.152 0 2.064.384 2.736 1.152.696.744 1.044 1.764 1.044 3.06V115h4.716v-12.6c0-1.464-.324-2.748-.972-3.852-.624-1.128-1.476-2.004-2.556-2.628s-2.316-.936-3.708-.936c-1.296 0-2.472.264-3.528.792-1.032.528-1.884 1.32-2.556 2.376-.576-.96-1.404-1.728-2.484-2.304-1.056-.576-2.244-.864-3.564-.864-1.224 0-2.316.24-3.276.72s-1.692 1.2-2.196 2.16v-2.448h-4.428V115zm40.71.432c1.488 0 2.784-.252 3.888-.756s1.968-1.2 2.592-2.088c.624-.912.936-1.956.936-3.132 0-1.368-.432-2.544-1.296-3.528s-2.112-1.704-3.744-2.16l-3.132-.936c-.672-.192-1.224-.444-1.656-.756s-.648-.744-.648-1.296c0-.576.228-1.044.684-1.404s1.08-.54 1.872-.54c.984 0 1.872.264 2.664.792.816.528 1.38 1.236 1.692 2.124l3.6-1.692c-.6-1.584-1.608-2.82-3.024-3.708-1.416-.912-3.048-1.368-4.896-1.368-1.416 0-2.676.252-3.78.756-1.08.504-1.932 1.212-2.556 2.124-.6.888-.9 1.932-.9 3.132 0 1.344.42 2.508 1.26 3.492.864.984 2.124 1.716 3.78 2.196l3.204.9c.624.168 1.152.42 1.584.756.456.312.684.744.684 1.296 0 .648-.264 1.164-.792 1.548-.504.36-1.176.54-2.016.54-1.104 0-2.1-.312-2.988-.936s-1.596-1.488-2.124-2.592l-3.528 1.692c.576 1.68 1.632 3.024 3.168 4.032 1.56 1.008 3.384 1.512 5.472 1.512zm27.014 0c1.896 0 3.624-.432 5.184-1.296 1.56-.888 2.808-2.1 3.744-3.636.936-1.56 1.404-3.324 1.404-5.292s-.468-3.72-1.404-5.256c-.912-1.536-2.148-2.748-3.708-3.636s-3.3-1.332-5.22-1.332c-1.944 0-3.696.444-5.256 1.332s-2.808 2.1-3.744 3.636c-.912 1.536-1.368 3.288-1.368 5.256s.456 3.72 1.368 5.256c.936 1.536 2.184 2.748 3.744 3.636 1.584.888 3.336 1.332 5.256 1.332zm0-4.32c-1.056 0-2.004-.252-2.844-.756-.816-.504-1.464-1.2-1.944-2.088-.456-.912-.684-1.932-.684-3.06s.228-2.136.684-3.024c.48-.888 1.128-1.584 1.944-2.088.84-.528 1.788-.792 2.844-.792s1.98.264 2.772.792c.816.504 1.452 1.2 1.908 2.088.48.888.72 1.896.72 3.024s-.24 2.148-.72 3.06c-.456.888-1.092 1.584-1.908 2.088-.792.504-1.716.756-2.772.756zm15.72 3.888h4.716V99.628h4.356v-4.212h-4.356v-.648c0-.984.288-1.704.864-2.16.6-.48 1.416-.72 2.448-.72.384 0 .792.036 1.224.108v-4.068c-.552-.12-1.164-.18-1.836-.18-2.256 0-4.056.612-5.4 1.836s-2.016 2.952-2.016 5.184v.648h-3.456v4.212h3.456V115zm29.483.432c2.064 0 3.888-.432 5.472-1.296 1.608-.864 2.868-2.052 3.78-3.564s1.368-3.228 1.368-5.148V88.18h-4.896v16.992c0 1.128-.252 2.136-.756 3.024-.48.864-1.152 1.548-2.016 2.052-.84.48-1.824.72-2.952.72-1.104 0-2.088-.24-2.952-.72-.864-.504-1.548-1.188-2.052-2.052-.48-.888-.72-1.896-.72-3.024V88.18h-4.896v17.244c0 1.92.456 3.636 1.368 5.148s2.16 2.7 3.744 3.564c1.608.864 3.444 1.296 5.508 1.296zm22.564 0c1.488 0 2.784-.252 3.888-.756s1.968-1.2 2.592-2.088c.624-.912.936-1.956.936-3.132 0-1.368-.432-2.544-1.296-3.528s-2.112-1.704-3.744-2.16l-3.132-.936c-.672-.192-1.224-.444-1.656-.756s-.648-.744-.648-1.296c0-.576.228-1.044.684-1.404s1.08-.54 1.872-.54c.984 0 1.872.264 2.664.792.816.528 1.38 1.236 1.692 2.124l3.6-1.692c-.6-1.584-1.608-2.82-3.024-3.708-1.416-.912-3.048-1.368-4.896-1.368-1.416 0-2.676.252-3.78.756-1.08.504-1.932 1.212-2.556 2.124-.6.888-.9 1.932-.9 3.132 0 1.344.42 2.508 1.26 3.492.864.984 2.124 1.716 3.78 2.196l3.204.9c.624.168 1.152.42 1.584.756.456.312.684.744.684 1.296 0 .648-.264 1.164-.792 1.548-.504.36-1.176.54-2.016.54-1.104 0-2.1-.312-2.988-.936s-1.596-1.488-2.124-2.592l-3.528 1.692c.576 1.68 1.632 3.024 3.168 4.032 1.56 1.008 3.384 1.512 5.472 1.512zm20.328 0c1.992 0 3.732-.444 5.22-1.332 1.512-.912 2.568-2.064 3.168-3.456l-3.816-1.872c-.432.744-1.032 1.356-1.8 1.836-.744.456-1.656.684-2.736.684-1.416 0-2.604-.432-3.564-1.296s-1.512-2.016-1.656-3.456h14.112c.096-.264.156-.564.18-.9.048-.36.072-.72.072-1.08 0-1.752-.372-3.348-1.116-4.788s-1.824-2.592-3.24-3.456c-1.416-.888-3.144-1.332-5.184-1.332-1.824 0-3.48.444-4.968 1.332-1.464.888-2.628 2.1-3.492 3.636-.84 1.512-1.26 3.252-1.26 5.22 0 1.896.42 3.624 1.26 5.184s2.016 2.796 3.528 3.708 3.276 1.368 5.292 1.368zm-.36-16.56c1.248 0 2.28.384 3.096 1.152.84.744 1.308 1.716 1.404 2.916h-9.216c.264-1.296.816-2.292 1.656-2.988.864-.72 1.884-1.08 3.06-1.08zm33.408 16.56c1.872 0 3.42-.396 4.644-1.188 1.248-.792 2.28-1.68 3.096-2.664l3.24 3.42h4.428l-5.76-6.156 4.644-7.092h-3.852l-3.096 4.608-4.716-5.076c.456-.264.972-.612 1.548-1.044s1.128-.936 1.656-1.512c.552-.576.996-1.248 1.332-2.016.36-.768.54-1.632.54-2.592 0-1.248-.3-2.34-.9-3.276-.6-.96-1.404-1.716-2.412-2.268-.984-.552-2.076-.828-3.276-.828s-2.316.276-3.348.828c-1.008.552-1.824 1.32-2.448 2.304-.6.96-.9 2.088-.9 3.384 0 1.368.312 2.592.936 3.672.648 1.056 1.356 2.004 2.124 2.844l-1.476 1.008c-.576.408-1.152.924-1.728 1.548s-1.068 1.368-1.476 2.232c-.384.864-.576 1.86-.576 2.988 0 1.392.336 2.604 1.008 3.636s1.584 1.836 2.736 2.412c1.176.552 2.52.828 4.032.828zm-2.16-21.312c0-.96.312-1.752.936-2.376s1.404-.936 2.34-.936 1.716.312 2.34.936.936 1.404.936 2.34c0 .768-.204 1.464-.612 2.088-.384.6-.876 1.14-1.476 1.62-.6.456-1.212.864-1.836 1.224-.648-.696-1.248-1.452-1.8-2.268-.552-.84-.828-1.716-.828-2.628zm-1.944 14.364c0-.96.216-1.776.648-2.448.432-.696.936-1.284 1.512-1.764.6-.48 1.152-.864 1.656-1.152l5.724 6.048c-.6.816-1.32 1.548-2.16 2.196-.816.624-1.872.936-3.168.936-1.248 0-2.268-.336-3.06-1.008-.768-.672-1.152-1.608-1.152-2.808zM674.076 115h4.896v-9.9h5.112c1.824 0 3.432-.324 4.824-.972 1.392-.672 2.484-1.644 3.276-2.916.816-1.272 1.224-2.796 1.224-4.572 0-1.824-.396-3.36-1.188-4.608s-1.896-2.196-3.312-2.844c-1.392-.672-3-1.008-4.824-1.008h-10.008V115zm4.896-14.22V92.5h5.184c1.32 0 2.376.372 3.168 1.116s1.188 1.752 1.188 3.024c0 1.248-.396 2.256-1.188 3.024-.792.744-1.848 1.116-3.168 1.116h-5.184zM697.024 115h4.716v-10.908c0-1.488.408-2.64 1.224-3.456.84-.84 1.92-1.26 3.24-1.26h1.692V95.2h-1.152c-1.2 0-2.256.216-3.168.648s-1.62 1.212-2.124 2.34v-2.772h-4.428V115zm13.465-21.78h4.716v-5.04h-4.716v5.04zm0 21.78h4.716V95.416h-4.716V115zm14.974 0h4.176l7.704-19.584h-5.148l-4.644 12.78-4.644-12.78h-5.148L725.463 115zm19.724.432c2.544 0 4.584-.84 6.12-2.52V115h4.464v-13.032c0-1.368-.348-2.58-1.044-3.636s-1.656-1.872-2.88-2.448c-1.2-.6-2.604-.9-4.212-.9-1.968 0-3.72.468-5.256 1.404s-2.592 2.172-3.168 3.708l3.852 1.872c.36-.888.924-1.596 1.692-2.124.768-.552 1.668-.828 2.7-.828 1.08 0 1.944.288 2.592.864.672.552 1.008 1.248 1.008 2.088v.648l-5.832.936c-2.304.384-4.008 1.116-5.112 2.196s-1.656 2.436-1.656 4.068c0 1.728.612 3.096 1.836 4.104s2.856 1.512 4.896 1.512zm-1.836-5.796c0-1.368.924-2.232 2.772-2.592l4.932-.828v.792c0 1.344-.468 2.484-1.404 3.42-.912.936-2.112 1.404-3.6 1.404-.792 0-1.44-.192-1.944-.576-.504-.408-.756-.948-.756-1.62zm26.211 5.796c1.416 0 2.724-.24 3.924-.72 1.2-.504 2.232-1.188 3.096-2.052.864-.888 1.488-1.884 1.872-2.988l-4.14-1.872c-.384 1.032-.996 1.848-1.836 2.448-.816.576-1.788.864-2.916.864-1.032 0-1.956-.252-2.772-.756-.792-.504-1.416-1.2-1.872-2.088-.456-.912-.684-1.932-.684-3.06 0-1.152.228-2.172.684-3.06s1.08-1.584 1.872-2.088c.816-.504 1.74-.756 2.772-.756 1.128 0 2.1.3 2.916.9.84.6 1.452 1.392 1.836 2.376l4.14-1.8c-.408-1.152-1.044-2.16-1.908-3.024-.864-.888-1.896-1.572-3.096-2.052s-2.496-.72-3.888-.72c-1.944 0-3.696.444-5.256 1.332-1.536.888-2.748 2.1-3.636 3.636s-1.332 3.276-1.332 5.22.444 3.696 1.332 5.256c.888 1.536 2.1 2.76 3.636 3.672 1.56.888 3.312 1.332 5.256 1.332zm14.846 7.524c1.848 0 3.384-.528 4.608-1.584 1.248-1.032 2.244-2.496 2.988-4.392l8.532-21.564h-5.112l-5.04 13.5-5.076-13.5h-5.076l7.74 19.584-.432 1.044c-.384.816-.828 1.476-1.332 1.98-.48.504-1.26.756-2.34.756-.384 0-.792-.036-1.224-.108-.432-.048-.816-.12-1.152-.216v3.96c.408.192.864.324 1.368.396.504.096 1.02.144 1.548.144zM809.92 115h4.896v-9.9h5.112c1.824 0 3.432-.324 4.824-.972 1.392-.672 2.484-1.644 3.276-2.916.816-1.272 1.224-2.796 1.224-4.572 0-1.824-.396-3.36-1.188-4.608s-1.896-2.196-3.312-2.844c-1.392-.672-3-1.008-4.824-1.008H809.92V115zm4.896-14.22V92.5H820c1.32 0 2.376.372 3.168 1.116s1.188 1.752 1.188 3.024c0 1.248-.396 2.256-1.188 3.024-.792.744-1.848 1.116-3.168 1.116h-5.184zm26.925 14.652c1.896 0 3.624-.432 5.184-1.296 1.56-.888 2.808-2.1 3.744-3.636.936-1.56 1.404-3.324 1.404-5.292s-.468-3.72-1.404-5.256c-.912-1.536-2.148-2.748-3.708-3.636s-3.3-1.332-5.22-1.332c-1.944 0-3.696.444-5.256 1.332s-2.808 2.1-3.744 3.636c-.912 1.536-1.368 3.288-1.368 5.256s.456 3.72 1.368 5.256c.936 1.536 2.184 2.748 3.744 3.636 1.584.888 3.336 1.332 5.256 1.332zm0-4.32c-1.056 0-2.004-.252-2.844-.756-.816-.504-1.464-1.2-1.944-2.088-.456-.912-.684-1.932-.684-3.06s.228-2.136.684-3.024c.48-.888 1.128-1.584 1.944-2.088.84-.528 1.788-.792 2.844-.792s1.98.264 2.772.792c.816.504 1.452 1.2 1.908 2.088.48.888.72 1.896.72 3.024s-.24 2.148-.72 3.06c-.456.888-1.092 1.584-1.908 2.088-.792.504-1.716.756-2.772.756zM855.649 115h4.716V88.18h-4.716V115zm9.07-21.78h4.716v-5.04h-4.716v5.04zm0 21.78h4.716V95.416h-4.716V115zm18.503.432c1.416 0 2.724-.24 3.924-.72 1.2-.504 2.232-1.188 3.096-2.052.864-.888 1.488-1.884 1.872-2.988l-4.14-1.872c-.384 1.032-.996 1.848-1.836 2.448-.816.576-1.788.864-2.916.864-1.032 0-1.956-.252-2.772-.756-.792-.504-1.416-1.2-1.872-2.088-.456-.912-.684-1.932-.684-3.06 0-1.152.228-2.172.684-3.06s1.08-1.584 1.872-2.088c.816-.504 1.74-.756 2.772-.756 1.128 0 2.1.3 2.916.9.84.6 1.452 1.392 1.836 2.376l4.14-1.8c-.408-1.152-1.044-2.16-1.908-3.024-.864-.888-1.896-1.572-3.096-2.052s-2.496-.72-3.888-.72c-1.944 0-3.696.444-5.256 1.332-1.536.888-2.748 2.1-3.636 3.636s-1.332 3.276-1.332 5.22.444 3.696 1.332 5.256c.888 1.536 2.1 2.76 3.636 3.672 1.56.888 3.312 1.332 5.256 1.332zm14.846 7.524c1.848 0 3.384-.528 4.608-1.584 1.248-1.032 2.244-2.496 2.988-4.392l8.532-21.564h-5.112l-5.04 13.5-5.076-13.5h-5.076l7.74 19.584-.432 1.044c-.384.816-.828 1.476-1.332 1.98-.48.504-1.26.756-2.34.756-.384 0-.792-.036-1.224-.108-.432-.048-.816-.12-1.152-.216v3.96c.408.192.864.324 1.368.396.504.096 1.02.144 1.548.144zm18.788-2.34c3.648-.768 5.472-3.288 5.472-7.56v-3.096h-4.752V115h2.196c-.288 1.8-1.26 2.904-2.916 3.312v2.304zM937.278 115h3.168l3.24-6.552h11.952l1.404 6.552h2.916l-6.048-26.82h-3.096L937.278 115zm7.74-9.252l7.02-14.112 3.024 14.112h-10.044zM963.57 115h2.88l3.024-21.564L981.21 115h2.52l3.744-26.82h-2.88l-3.024 21.42-11.736-21.42h-2.52L963.57 115zm26.543 0h9.468c2.999 0 5.579-.636 7.739-1.908s3.82-3.036 4.97-5.292c1.18-2.256 1.76-4.836 1.76-7.74 0-2.328-.48-4.38-1.44-6.156s-2.32-3.168-4.1-4.176c-1.75-1.032-3.85-1.548-6.3-1.548h-8.353L990.113 115zm3.24-2.7l3.024-21.42h5.543c1.87 0 3.49.384 4.86 1.152s2.41 1.86 3.13 3.276c.75 1.416 1.12 3.096 1.12 5.04 0 2.352-.48 4.428-1.44 6.228s-2.29 3.204-4 4.212c-1.7 1.008-3.67 1.512-5.901 1.512h-6.336zm35.387 3.132c1.32 0 2.56-.264 3.71-.792 1.18-.528 2.14-1.224 2.88-2.088l-.36 2.448h2.74l1.8-12.816c.19-1.368 0-2.568-.58-3.6-.55-1.032-1.37-1.836-2.45-2.412-1.08-.6-2.31-.9-3.71-.9-1.77 0-3.39.42-4.86 1.26-1.44.84-2.49 1.872-3.16 3.096l2.34 1.476c.55-.936 1.29-1.704 2.23-2.304.96-.624 2.05-.936 3.27-.936.8 0 1.53.156 2.2.468.7.288 1.24.744 1.62 1.368s.5 1.416.36 2.376l-.07.648-7.35 1.188c-2.11.336-3.76 1.056-4.96 2.16s-1.8 2.472-1.8 4.104c0 1.176.28 2.16.86 2.952.6.768 1.37 1.344 2.3 1.728.94.384 1.94.576 2.99.576zm-3.27-5.4c0-.96.38-1.764 1.15-2.412.79-.672 1.87-1.128 3.24-1.368l6.48-1.08-.18 1.404c-.15 1.176-.55 2.256-1.23 3.24-.67.96-1.51 1.728-2.52 2.304-1 .576-2.11.864-3.31.864-1.1 0-1.99-.264-2.66-.792-.65-.552-.97-1.272-.97-2.16zm19.77 4.968h2.74l2.3-16.596h11.41l-2.3 16.596h2.73l2.31-16.596h8.6L1070.69 115h2.74l2.7-19.296h-11.31l.18-1.296c.22-1.56.77-2.64 1.66-3.24s1.92-.9 3.1-.9c.09 0 .27.012.54.036.28 0 .51.024.68.072l.18-2.448c-.53-.12-1.14-.18-1.84-.18-1.03 0-2.05.24-3.06.72-.98.48-1.83 1.2-2.55 2.16s-1.19 2.172-1.41 3.636l-.21 1.44h-11.41l.18-1.296c.21-1.56.76-2.64 1.65-3.24s1.92-.9 3.1-.9c.09 0 .27.012.54.036.29 0 .51.024.68.072l.18-2.448c-.53-.12-1.14-.18-1.83-.18-1.04 0-2.06.24-3.06.72-.99.48-1.84 1.2-2.56 2.16s-1.19 2.172-1.4 3.636l-.22 1.44h-3.82l-.39 2.7h3.81l-2.3 16.596zm33.21 0h2.74l1.58-11.52c.27-1.776.87-3.108 1.8-3.996.96-.888 2.14-1.332 3.53-1.332h1.69l.4-2.7h-1.23c-1.15 0-2.18.204-3.09.612-.89.384-1.65.936-2.27 1.656l.29-2.016h-2.74l-2.7 19.296zm12.17 0h2.7l1.58-11.412c.17-1.152.53-2.148 1.08-2.988.58-.84 1.27-1.488 2.09-1.944.84-.456 1.73-.684 2.66-.684 1.35 0 2.39.468 3.13 1.404.77.912 1.05 2.148.83 3.708L1103.04 115h2.7l1.65-11.88c.15-1.08.51-2.004 1.08-2.772.58-.768 1.27-1.356 2.09-1.764.84-.408 1.7-.612 2.59-.612 1.35 0 2.39.468 3.13 1.404.77.912 1.05 2.148.83 3.708L1115.46 115h2.7l1.69-12.096c.21-1.488.06-2.808-.47-3.96-.5-1.152-1.26-2.052-2.27-2.7s-2.18-.972-3.53-.972c-1.27 0-2.5.312-3.7.936s-2.16 1.56-2.88 2.808c-.44-1.176-1.16-2.088-2.16-2.736-1.01-.672-2.19-1.008-3.53-1.008-1.08 0-2.11.24-3.1.72-.98.48-1.81 1.152-2.48 2.016l.29-2.304h-2.7l-2.7 19.296zM10.836 160.432c1.872 0 3.564-.456 5.076-1.368 1.536-.912 2.676-2.088 3.42-3.528l-2.376-1.404c-.576 1.08-1.38 1.956-2.412 2.628-1.032.648-2.196.972-3.492.972-1.176 0-2.232-.288-3.168-.864s-1.668-1.368-2.196-2.376-.792-2.16-.792-3.456c0-1.416.312-2.736.936-3.96s1.488-2.208 2.592-2.952c1.104-.768 2.364-1.152 3.78-1.152 1.272 0 2.376.324 3.312.972.936.624 1.608 1.452 2.016 2.484l2.484-1.188c-.552-1.488-1.536-2.688-2.952-3.6s-3.048-1.368-4.896-1.368c-1.896 0-3.612.48-5.148 1.44-1.536.936-2.76 2.22-3.672 3.852-.888 1.608-1.332 3.432-1.332 5.472 0 1.8.372 3.408 1.116 4.824s1.776 2.532 3.096 3.348c1.344.816 2.88 1.224 4.608 1.224zm22.511 0c1.44 0 2.784-.276 4.032-.828s2.352-1.32 3.312-2.304c.96-1.008 1.704-2.16 2.232-3.456.552-1.296.828-2.676.828-4.14 0-1.848-.408-3.48-1.224-4.896s-1.932-2.52-3.348-3.312c-1.392-.816-2.976-1.224-4.752-1.224-1.44 0-2.796.276-4.068.828-1.248.552-2.352 1.32-3.312 2.304-.936.96-1.668 2.088-2.196 3.384-.528 1.272-.792 2.64-.792 4.104 0 1.872.408 3.528 1.224 4.968.84 1.44 1.956 2.568 3.348 3.384 1.416.792 2.988 1.188 4.716 1.188zm-.036-2.7c-1.224 0-2.316-.288-3.276-.864-.96-.6-1.716-1.404-2.268-2.412-.552-1.032-.828-2.196-.828-3.492 0-1.464.336-2.796 1.008-3.996s1.572-2.16 2.7-2.88c1.152-.744 2.424-1.116 3.816-1.116 1.224 0 2.316.288 3.276.864.984.576 1.752 1.368 2.304 2.376s.828 2.16.828 3.456c0 1.44-.336 2.772-1.008 3.996s-1.584 2.208-2.736 2.952c-1.128.744-2.4 1.116-3.816 1.116zM47.1783 160h2.7l1.584-11.412c.168-1.152.528-2.148 1.08-2.988.576-.84 1.272-1.488 2.088-1.944.84-.456 1.728-.684 2.664-.684 1.344 0 2.388.468 3.132 1.404.768.912 1.044 2.148.828 3.708L59.5983 160h2.7l1.656-11.88c.144-1.08.504-2.004 1.08-2.772s1.272-1.356 2.088-1.764c.84-.408 1.704-.612 2.592-.612 1.344 0 2.388.468 3.132 1.404.768.912 1.044 2.148.828 3.708L72.0183 160h2.7l1.692-12.096c.216-1.488.06-2.808-.468-3.96-.504-1.152-1.26-2.052-2.268-2.7s-2.184-.972-3.528-.972c-1.272 0-2.508.312-3.708.936s-2.16 1.56-2.88 2.808c-.432-1.176-1.152-2.088-2.16-2.736-1.008-.672-2.184-1.008-3.528-1.008-1.08 0-2.112.24-3.096.72s-1.812 1.152-2.484 2.016l.288-2.304h-2.7l-2.7 19.296zm31.7225 7.2h2.736l1.44-10.44c.696 1.152 1.68 2.052 2.952 2.7 1.296.648 2.712.972 4.248.972 1.464 0 2.808-.276 4.032-.828 1.248-.576 2.328-1.368 3.24-2.376.936-1.008 1.656-2.16 2.16-3.456.5042-1.32.7562-2.712.7562-4.176 0-1.752-.372-3.324-1.1162-4.716-.72-1.416-1.752-2.532-3.096-3.348-1.344-.84-2.916-1.26-4.716-1.26-1.296 0-2.496.228-3.6.684-1.104.432-2.064 1.044-2.88 1.836l.288-2.088h-2.736l-3.708 26.496zm11.304-9.468c-1.224 0-2.316-.288-3.276-.864-.936-.6-1.68-1.416-2.232-2.448s-.828-2.208-.828-3.528c0-1.416.312-2.724.936-3.924s1.488-2.16 2.592-2.88c1.128-.744 2.4-1.116 3.816-1.116 1.272 0 2.376.288 3.312.864.96.576 1.704 1.368 2.232 2.376.552 1.008.828 2.16.828 3.456 0 1.44-.324 2.772-.972 3.996s-1.524 2.208-2.628 2.952-2.364 1.116-3.78 1.116zM103.885 160h2.736l3.744-26.82h-2.736L103.885 160zm11.536-22.86h2.736l.54-3.96h-2.736l-.54 3.96zM112.217 160h2.736l2.7-19.296h-2.736l-2.7 19.296zm14.416.432c1.32 0 2.556-.264 3.708-.792 1.176-.528 2.136-1.224 2.88-2.088l-.36 2.448h2.736l1.8-12.816c.192-1.368 0-2.568-.576-3.6-.552-1.032-1.368-1.836-2.448-2.412-1.08-.6-2.316-.9-3.708-.9-1.776 0-3.396.42-4.86 1.26-1.44.84-2.496 1.872-3.168 3.096l2.34 1.476c.552-.936 1.296-1.704 2.232-2.304.96-.624 2.052-.936 3.276-.936.792 0 1.524.156 2.196.468.696.288 1.236.744 1.62 1.368s.504 1.416.36 2.376l-.072.648-7.344 1.188c-2.112.336-3.768 1.056-4.968 2.16s-1.8 2.472-1.8 4.104c0 1.176.288 2.16.864 2.952.6.768 1.368 1.344 2.304 1.728s1.932.576 2.988.576zm-3.276-5.4c0-.96.384-1.764 1.152-2.412.792-.672 1.872-1.128 3.24-1.368l6.48-1.08-.18 1.404c-.144 1.176-.552 2.256-1.224 3.24-.672.96-1.512 1.728-2.52 2.304s-2.112.864-3.312.864c-1.104 0-1.992-.264-2.664-.792-.648-.552-.972-1.272-.972-2.16zM141.186 160h2.7l1.584-11.412c.264-1.728.948-3.096 2.052-4.104 1.128-1.008 2.448-1.512 3.96-1.512 1.44 0 2.544.468 3.312 1.404.768.912 1.044 2.148.828 3.708L153.966 160h2.7l1.692-12.096c.216-1.488.072-2.808-.432-3.96-.48-1.152-1.236-2.052-2.268-2.7-1.008-.648-2.208-.972-3.6-.972-1.152 0-2.232.24-3.24.72-1.008.456-1.848 1.116-2.52 1.98l.288-2.268h-2.7l-2.7 19.296zm30.068.432c1.872 0 3.564-.456 5.076-1.368 1.536-.912 2.676-2.088 3.42-3.528l-2.376-1.404c-.576 1.08-1.38 1.956-2.412 2.628-1.032.648-2.196.972-3.492.972-1.176 0-2.232-.288-3.168-.864s-1.668-1.368-2.196-2.376-.792-2.16-.792-3.456c0-1.416.312-2.736.936-3.96s1.488-2.208 2.592-2.952c1.104-.768 2.364-1.152 3.78-1.152 1.272 0 2.376.324 3.312.972.936.624 1.608 1.452 2.016 2.484l2.484-1.188c-.552-1.488-1.536-2.688-2.952-3.6s-3.048-1.368-4.896-1.368c-1.896 0-3.612.48-5.148 1.44-1.536.936-2.76 2.22-3.672 3.852-.888 1.608-1.332 3.432-1.332 5.472 0 1.8.372 3.408 1.116 4.824s1.776 2.532 3.096 3.348c1.344.816 2.88 1.224 4.608 1.224zm22.187 0c1.296 0 2.496-.216 3.6-.648 1.128-.432 2.112-1.008 2.952-1.728.84-.744 1.488-1.548 1.944-2.412l-2.268-1.296c-.672 1.008-1.524 1.86-2.556 2.556-1.008.672-2.22 1.008-3.636 1.008-1.104 0-2.124-.252-3.06-.756s-1.692-1.224-2.268-2.16c-.576-.96-.864-2.076-.864-3.348v-.468h15.192l.18-1.08c.072-.456.108-.876.108-1.26 0-1.464-.324-2.844-.972-4.14-.648-1.32-1.596-2.388-2.844-3.204s-2.76-1.224-4.536-1.224c-1.44 0-2.76.288-3.96.864-1.2.552-2.256 1.332-3.168 2.34-.888.984-1.584 2.124-2.088 3.42-.48 1.296-.72 2.676-.72 4.14 0 1.824.384 3.444 1.152 4.86.792 1.416 1.86 2.532 3.204 3.348 1.344.792 2.88 1.188 4.608 1.188zm.936-17.64c1.104 0 2.088.264 2.952.792.888.504 1.56 1.2 2.016 2.088.48.888.672 1.884.576 2.988h-12.348c.408-1.8 1.176-3.228 2.304-4.284 1.152-1.056 2.652-1.584 4.5-1.584zM216.449 160h2.7l6.804-15.12 2.448 15.12h2.7l9.36-19.296h-3.132l-7.02 15.12-2.52-15.12h-2.7l-6.84 15.192-2.808-15.192h-2.88L216.449 160zm27.679-22.86h2.736l.54-3.96h-2.736l-.54 3.96zM240.924 160h2.736l2.7-19.296h-2.736l-2.7 19.296zm15.82.216l.792-.036c.36 0 .684-.036.972-.108l.216-2.484-.684.072-.756.036c-1.176 0-1.932-.3-2.268-.9s-.432-1.38-.288-2.34l1.548-11.052h4.212l.396-2.7h-4.212l.612-4.464h-2.736l-.216 1.548c-.096.816-.444 1.512-1.044 2.088-.576.552-1.272.828-2.088.828h-.828l-.396 2.7h3.564l-1.512 10.908c-.24 1.872.048 3.324.864 4.356s2.1 1.548 3.852 1.548zm6.54-.216h2.736l1.584-11.412c.24-1.728.924-3.096 2.052-4.104 1.152-1.008 2.46-1.512 3.924-1.512 1.416 0 2.508.468 3.276 1.404.768.912 1.044 2.148.828 3.708L276.028 160h2.736l1.692-12.096c.216-1.488.072-2.808-.432-3.96-.48-1.152-1.236-2.052-2.268-2.7-1.008-.648-2.208-.972-3.6-.972-1.152 0-2.232.24-3.24.72-1.008.456-1.848 1.116-2.52 1.98l1.332-9.792h-2.7L263.284 160zm36.329.432c1.296 0 2.496-.216 3.6-.648 1.128-.432 2.112-1.008 2.952-1.728.84-.744 1.488-1.548 1.944-2.412l-2.268-1.296c-.672 1.008-1.524 1.86-2.556 2.556-1.008.672-2.22 1.008-3.636 1.008-1.104 0-2.124-.252-3.06-.756s-1.692-1.224-2.268-2.16c-.576-.96-.864-2.076-.864-3.348v-.468h15.192l.18-1.08c.072-.456.108-.876.108-1.26 0-1.464-.324-2.844-.972-4.14-.648-1.32-1.596-2.388-2.844-3.204s-2.76-1.224-4.536-1.224c-1.44 0-2.76.288-3.96.864-1.2.552-2.256 1.332-3.168 2.34-.888.984-1.584 2.124-2.088 3.42-.48 1.296-.72 2.676-.72 4.14 0 1.824.384 3.444 1.152 4.86.792 1.416 1.86 2.532 3.204 3.348 1.344.792 2.88 1.188 4.608 1.188zm.936-17.64c1.104 0 2.088.264 2.952.792.888.504 1.56 1.2 2.016 2.088.48.888.672 1.884.576 2.988h-12.348c.408-1.8 1.176-3.228 2.304-4.284 1.152-1.056 2.652-1.584 4.5-1.584zM316.7 160h2.7l10.332-19.296h-3.168l-8.1 15.66-3.672-15.66h-2.88L316.7 160zm22.675.432c1.296 0 2.496-.216 3.6-.648 1.128-.432 2.112-1.008 2.952-1.728.84-.744 1.488-1.548 1.944-2.412l-2.268-1.296c-.672 1.008-1.524 1.86-2.556 2.556-1.008.672-2.22 1.008-3.636 1.008-1.104 0-2.124-.252-3.06-.756s-1.692-1.224-2.268-2.16c-.576-.96-.864-2.076-.864-3.348v-.468h15.192l.18-1.08c.072-.456.108-.876.108-1.26 0-1.464-.324-2.844-.972-4.14-.648-1.32-1.596-2.388-2.844-3.204s-2.76-1.224-4.536-1.224c-1.44 0-2.76.288-3.96.864-1.2.552-2.256 1.332-3.168 2.34-.888.984-1.584 2.124-2.088 3.42-.48 1.296-.72 2.676-.72 4.14 0 1.824.384 3.444 1.152 4.86.792 1.416 1.86 2.532 3.204 3.348 1.344.792 2.88 1.188 4.608 1.188zm.936-17.64c1.104 0 2.088.264 2.952.792.888.504 1.56 1.2 2.016 2.088.48.888.672 1.884.576 2.988h-12.348c.408-1.8 1.176-3.228 2.304-4.284 1.152-1.056 2.652-1.584 4.5-1.584zM352.053 160h2.736l1.584-11.52c.264-1.776.864-3.108 1.8-3.996.96-.888 2.136-1.332 3.528-1.332h1.692l.396-2.7h-1.224c-1.152 0-2.184.204-3.096.612-.888.384-1.644.936-2.268 1.656l.288-2.016h-2.736l-2.7 19.296zm11.552 7.92c1.248 0 2.34-.252 3.276-.756s1.752-1.176 2.448-2.016c.72-.816 1.332-1.692 1.836-2.628l11.88-21.852h-3.06l-8.604 15.804-3.996-15.804h-2.844l4.968 19.26-.972 1.656c-.528.912-1.032 1.632-1.512 2.16s-1.008.9-1.584 1.116c-.552.24-1.236.36-2.052.36-.36 0-.708-.036-1.044-.108l-.9-.108-.216 2.484c.72.288 1.512.432 2.376.432zm32.114-7.488c1.32 0 2.556-.264 3.708-.792 1.176-.528 2.136-1.224 2.88-2.088l-.36 2.448h2.736l1.8-12.816c.192-1.368 0-2.568-.576-3.6-.552-1.032-1.368-1.836-2.448-2.412-1.08-.6-2.316-.9-3.708-.9-1.776 0-3.396.42-4.86 1.26-1.44.84-2.496 1.872-3.168 3.096l2.34 1.476c.552-.936 1.296-1.704 2.232-2.304.96-.624 2.052-.936 3.276-.936.792 0 1.524.156 2.196.468.696.288 1.236.744 1.62 1.368s.504 1.416.36 2.376l-.072.648-7.344 1.188c-2.112.336-3.768 1.056-4.968 2.16s-1.8 2.472-1.8 4.104c0 1.176.288 2.16.864 2.952.6.768 1.368 1.344 2.304 1.728s1.932.576 2.988.576zm-3.276-5.4c0-.96.384-1.764 1.152-2.412.792-.672 1.872-1.128 3.24-1.368l6.48-1.08-.18 1.404c-.144 1.176-.552 2.256-1.224 3.24-.672.96-1.512 1.728-2.52 2.304s-2.112.864-3.312.864c-1.104 0-1.992-.264-2.664-.792-.648-.552-.972-1.272-.972-2.16zm27.261 5.4c1.32 0 2.556-.24 3.708-.72 1.176-.504 2.172-1.212 2.988-2.124l-.324 2.412h2.7l3.744-26.82h-2.736l-1.512 10.872c-.72-1.176-1.704-2.1-2.952-2.772-1.224-.672-2.676-1.008-4.356-1.008-1.464 0-2.82.288-4.068.864-1.224.552-2.292 1.332-3.204 2.34-.912.984-1.62 2.136-2.124 3.456-.504 1.296-.756 2.688-.756 4.176 0 1.8.372 3.408 1.116 4.824.768 1.392 1.824 2.496 3.168 3.312 1.344.792 2.88 1.188 4.608 1.188zm.18-2.7c-1.2 0-2.268-.288-3.204-.864s-1.668-1.356-2.196-2.34c-.528-1.008-.792-2.148-.792-3.42 0-1.464.312-2.808.936-4.032.648-1.248 1.524-2.244 2.628-2.988 1.128-.744 2.4-1.116 3.816-1.116 1.224 0 2.316.3 3.276.9.96.576 1.716 1.368 2.268 2.376s.828 2.16.828 3.456c0 1.416-.336 2.736-1.008 3.96s-1.584 2.208-2.736 2.952c-1.128.744-2.4 1.116-3.816 1.116zm23.902 2.7c1.32 0 2.556-.24 3.708-.72 1.176-.504 2.172-1.212 2.988-2.124l-.324 2.412h2.7l3.744-26.82h-2.736l-1.512 10.872c-.72-1.176-1.704-2.1-2.952-2.772-1.224-.672-2.676-1.008-4.356-1.008-1.464 0-2.82.288-4.068.864-1.224.552-2.292 1.332-3.204 2.34-.912.984-1.62 2.136-2.124 3.456-.504 1.296-.756 2.688-.756 4.176 0 1.8.372 3.408 1.116 4.824.768 1.392 1.824 2.496 3.168 3.312 1.344.792 2.88 1.188 4.608 1.188zm.18-2.7c-1.2 0-2.268-.288-3.204-.864s-1.668-1.356-2.196-2.34c-.528-1.008-.792-2.148-.792-3.42 0-1.464.312-2.808.936-4.032.648-1.248 1.524-2.244 2.628-2.988 1.128-.744 2.4-1.116 3.816-1.116 1.224 0 2.316.3 3.276.9.96.576 1.716 1.368 2.268 2.376s.828 2.16.828 3.456c0 1.416-.336 2.736-1.008 3.96s-1.584 2.208-2.736 2.952c-1.128.744-2.4 1.116-3.816 1.116zm17.674-20.592h2.736l.54-3.96h-2.736l-.54 3.96zM458.436 160h2.736l2.7-19.296h-2.736l-2.7 19.296zm15.82.216l.792-.036c.36 0 .684-.036.972-.108l.216-2.484-.684.072-.756.036c-1.176 0-1.932-.3-2.268-.9s-.432-1.38-.288-2.34l1.548-11.052H478l.396-2.7h-4.212l.612-4.464h-2.736l-.216 1.548c-.096.816-.444 1.512-1.044 2.088-.576.552-1.272.828-2.088.828h-.828l-.396 2.7h3.564l-1.512 10.908c-.24 1.872.048 3.324.864 4.356s2.1 1.548 3.852 1.548zm9.743-23.076h2.736l.54-3.96h-2.736l-.54 3.96zM480.795 160h2.736l2.7-19.296h-2.736l-2.7 19.296zm18.197.432c1.44 0 2.784-.276 4.032-.828s2.352-1.32 3.312-2.304c.96-1.008 1.704-2.16 2.232-3.456.552-1.296.828-2.676.828-4.14 0-1.848-.408-3.48-1.224-4.896s-1.932-2.52-3.348-3.312c-1.392-.816-2.976-1.224-4.752-1.224-1.44 0-2.796.276-4.068.828-1.248.552-2.352 1.32-3.312 2.304-.936.96-1.668 2.088-2.196 3.384-.528 1.272-.792 2.64-.792 4.104 0 1.872.408 3.528 1.224 4.968.84 1.44 1.956 2.568 3.348 3.384 1.416.792 2.988 1.188 4.716 1.188zm-.036-2.7c-1.224 0-2.316-.288-3.276-.864-.96-.6-1.716-1.404-2.268-2.412-.552-1.032-.828-2.196-.828-3.492 0-1.464.336-2.796 1.008-3.996s1.572-2.16 2.7-2.88c1.152-.744 2.424-1.116 3.816-1.116 1.224 0 2.316.288 3.276.864.984.576 1.752 1.368 2.304 2.376s.828 2.16.828 3.456c0 1.44-.336 2.772-1.008 3.996s-1.584 2.208-2.736 2.952c-1.128.744-2.4 1.116-3.816 1.116zM512.823 160h2.7l1.584-11.412c.264-1.728.948-3.096 2.052-4.104 1.128-1.008 2.448-1.512 3.96-1.512 1.44 0 2.544.468 3.312 1.404.768.912 1.044 2.148.828 3.708L525.603 160h2.7l1.692-12.096c.216-1.488.072-2.808-.432-3.96-.48-1.152-1.236-2.052-2.268-2.7-1.008-.648-2.208-.972-3.6-.972-1.152 0-2.232.24-3.24.72-1.008.456-1.848 1.116-2.52 1.98l.288-2.268h-2.7l-2.7 19.296zm26.756.432c1.32 0 2.556-.264 3.708-.792 1.176-.528 2.136-1.224 2.88-2.088l-.36 2.448h2.736l1.8-12.816c.192-1.368 0-2.568-.576-3.6-.552-1.032-1.368-1.836-2.448-2.412-1.08-.6-2.316-.9-3.708-.9-1.776 0-3.396.42-4.86 1.26-1.44.84-2.496 1.872-3.168 3.096l2.34 1.476c.552-.936 1.296-1.704 2.232-2.304.96-.624 2.052-.936 3.276-.936.792 0 1.524.156 2.196.468.696.288 1.236.744 1.62 1.368s.504 1.416.36 2.376l-.072.648-7.344 1.188c-2.112.336-3.768 1.056-4.968 2.16s-1.8 2.472-1.8 4.104c0 1.176.288 2.16.864 2.952.6.768 1.368 1.344 2.304 1.728s1.932.576 2.988.576zm-3.276-5.4c0-.96.384-1.764 1.152-2.412.792-.672 1.872-1.128 3.24-1.368l6.48-1.08-.18 1.404c-.144 1.176-.552 2.256-1.224 3.24-.672.96-1.512 1.728-2.52 2.304s-2.112.864-3.312.864c-1.104 0-1.992-.264-2.664-.792-.648-.552-.972-1.272-.972-2.16zM554.131 160h2.736l3.744-26.82h-2.736L554.131 160zm13.442 7.2h2.736l1.44-10.44c.696 1.152 1.68 2.052 2.952 2.7 1.296.648 2.712.972 4.248.972 1.464 0 2.808-.276 4.032-.828 1.248-.576 2.328-1.368 3.24-2.376.936-1.008 1.656-2.16 2.16-3.456.504-1.32.756-2.712.756-4.176 0-1.752-.372-3.324-1.116-4.716-.72-1.416-1.752-2.532-3.096-3.348-1.344-.84-2.916-1.26-4.716-1.26-1.296 0-2.496.228-3.6.684-1.104.432-2.064 1.044-2.88 1.836l.288-2.088h-2.736l-3.708 26.496zm11.304-9.468c-1.224 0-2.316-.288-3.276-.864-.936-.6-1.68-1.416-2.232-2.448s-.828-2.208-.828-3.528c0-1.416.312-2.724.936-3.924s1.488-2.16 2.592-2.88c1.128-.744 2.4-1.116 3.816-1.116 1.272 0 2.376.288 3.312.864.96.576 1.704 1.368 2.232 2.376.552 1.008.828 2.16.828 3.456 0 1.44-.324 2.772-.972 3.996s-1.524 2.208-2.628 2.952-2.364 1.116-3.78 1.116zm13.68 2.268h2.736l1.584-11.52c.264-1.776.864-3.108 1.8-3.996.96-.888 2.136-1.332 3.528-1.332h1.692l.396-2.7h-1.224c-1.152 0-2.184.204-3.096.612-.888.384-1.644.936-2.268 1.656l.288-2.016h-2.736l-2.7 19.296zm22.028.432c1.44 0 2.784-.276 4.032-.828s2.352-1.32 3.312-2.304c.96-1.008 1.704-2.16 2.232-3.456.552-1.296.828-2.676.828-4.14 0-1.848-.408-3.48-1.224-4.896s-1.932-2.52-3.348-3.312c-1.392-.816-2.976-1.224-4.752-1.224-1.44 0-2.796.276-4.068.828-1.248.552-2.352 1.32-3.312 2.304-.936.96-1.668 2.088-2.196 3.384-.528 1.272-.792 2.64-.792 4.104 0 1.872.408 3.528 1.224 4.968.84 1.44 1.956 2.568 3.348 3.384 1.416.792 2.988 1.188 4.716 1.188zm-.036-2.7c-1.224 0-2.316-.288-3.276-.864-.96-.6-1.716-1.404-2.268-2.412-.552-1.032-.828-2.196-.828-3.492 0-1.464.336-2.796 1.008-3.996s1.572-2.16 2.7-2.88c1.152-.744 2.424-1.116 3.816-1.116 1.224 0 2.316.288 3.276.864.984.576 1.752 1.368 2.304 2.376s.828 2.16.828 3.456c0 1.44-.336 2.772-1.008 3.996s-1.584 2.208-2.736 2.952c-1.128.744-2.4 1.116-3.816 1.116zm23.3 2.7c1.32 0 2.556-.24 3.708-.72 1.176-.504 2.172-1.212 2.988-2.124l-.324 2.412h2.7l3.744-26.82h-2.736l-1.512 10.872c-.72-1.176-1.704-2.1-2.952-2.772-1.224-.672-2.676-1.008-4.356-1.008-1.464 0-2.82.288-4.068.864-1.224.552-2.292 1.332-3.204 2.34-.912.984-1.62 2.136-2.124 3.456-.504 1.296-.756 2.688-.756 4.176 0 1.8.372 3.408 1.116 4.824.768 1.392 1.824 2.496 3.168 3.312 1.344.792 2.88 1.188 4.608 1.188zm.18-2.7c-1.2 0-2.268-.288-3.204-.864s-1.668-1.356-2.196-2.34c-.528-1.008-.792-2.148-.792-3.42 0-1.464.312-2.808.936-4.032.648-1.248 1.524-2.244 2.628-2.988 1.128-.744 2.4-1.116 3.816-1.116 1.224 0 2.316.3 3.276.9.96.576 1.716 1.368 2.268 2.376s.828 2.16.828 3.456c0 1.416-.336 2.736-1.008 3.96s-1.584 2.208-2.736 2.952c-1.128.744-2.4 1.116-3.816 1.116zm21.382 2.7c1.152 0 2.232-.24 3.24-.72s1.86-1.152 2.556-2.016l-.324 2.304h2.7l2.7-19.296h-2.7l-1.62 11.412c-.24 1.728-.924 3.096-2.052 4.104-1.104 1.008-2.412 1.512-3.924 1.512-1.44 0-2.556-.456-3.348-1.368-.768-.936-1.044-2.184-.828-3.744l1.692-11.916h-2.7l-1.656 11.736c-.216 1.608-.084 3.012.396 4.212s1.236 2.136 2.268 2.808c1.032.648 2.232.972 3.6.972zm23.155 0c1.872 0 3.564-.456 5.076-1.368 1.536-.912 2.676-2.088 3.42-3.528l-2.376-1.404c-.576 1.08-1.38 1.956-2.412 2.628-1.032.648-2.196.972-3.492.972-1.176 0-2.232-.288-3.168-.864s-1.668-1.368-2.196-2.376-.792-2.16-.792-3.456c0-1.416.312-2.736.936-3.96s1.488-2.208 2.592-2.952c1.104-.768 2.364-1.152 3.78-1.152 1.272 0 2.376.324 3.312.972.936.624 1.608 1.452 2.016 2.484l2.484-1.188c-.552-1.488-1.536-2.688-2.952-3.6s-3.048-1.368-4.896-1.368c-1.896 0-3.612.48-5.148 1.44-1.536.936-2.76 2.22-3.672 3.852-.888 1.608-1.332 3.432-1.332 5.472 0 1.8.372 3.408 1.116 4.824s1.776 2.532 3.096 3.348c1.344.816 2.88 1.224 4.608 1.224zm20.135-.216l.792-.036c.36 0 .684-.036.972-.108l.216-2.484-.684.072-.756.036c-1.176 0-1.932-.3-2.268-.9s-.432-1.38-.288-2.34l1.548-11.052h4.212l.396-2.7h-4.212l.612-4.464h-2.736l-.216 1.548c-.096.816-.444 1.512-1.044 2.088-.576.552-1.272.828-2.088.828h-.828l-.396 2.7h3.564l-1.512 10.908c-.24 1.872.048 3.324.864 4.356s2.1 1.548 3.852 1.548zm3.624 1.224h3.276l16.344-29.7h-3.276l-16.344 29.7zm26.77 6.48c1.704 0 3.276-.348 4.716-1.044 1.44-.672 2.64-1.632 3.6-2.88s1.548-2.7 1.764-4.356l2.628-18.936h-2.736l-.432 3.24c-.72-1.128-1.692-2.016-2.916-2.664-1.2-.672-2.592-1.008-4.176-1.008-1.44 0-2.772.276-3.996.828-1.224.528-2.304 1.272-3.24 2.232-.912.96-1.62 2.076-2.124 3.348-.504 1.248-.756 2.58-.756 3.996 0 1.8.396 3.384 1.188 4.752.792 1.344 1.86 2.4 3.204 3.168 1.344.744 2.82 1.116 4.428 1.116 1.272 0 2.472-.24 3.6-.72 1.152-.48 2.136-1.176 2.952-2.088l-.36 2.664c-.168 1.296-.612 2.352-1.332 3.168-.72.84-1.584 1.464-2.592 1.872s-2.052.612-3.132.612c-1.68 0-2.976-.324-3.888-.972-.912-.624-1.512-1.356-1.8-2.196l-2.52 1.044c.456 1.392 1.356 2.544 2.7 3.456 1.368.912 3.108 1.368 5.22 1.368zm1.368-10.908c-1.152 0-2.196-.276-3.132-.828-.936-.576-1.68-1.344-2.232-2.304-.528-.984-.792-2.088-.792-3.312 0-1.44.336-2.724 1.008-3.852.672-1.152 1.56-2.064 2.664-2.736 1.128-.672 2.34-1.008 3.636-1.008 1.224 0 2.304.288 3.24.864.936.552 1.668 1.32 2.196 2.304s.792 2.088.792 3.312c0 1.32-.336 2.556-1.008 3.708s-1.572 2.088-2.7 2.808c-1.104.696-2.328 1.044-3.672 1.044zm23.763 3.42c1.296 0 2.496-.216 3.6-.648 1.128-.432 2.112-1.008 2.952-1.728.84-.744 1.488-1.548 1.944-2.412l-2.268-1.296c-.672 1.008-1.524 1.86-2.556 2.556-1.008.672-2.22 1.008-3.636 1.008-1.104 0-2.124-.252-3.06-.756s-1.692-1.224-2.268-2.16c-.576-.96-.864-2.076-.864-3.348v-.468h15.192l.18-1.08c.072-.456.108-.876.108-1.26 0-1.464-.324-2.844-.972-4.14-.648-1.32-1.596-2.388-2.844-3.204s-2.76-1.224-4.536-1.224c-1.44 0-2.76.288-3.96.864-1.2.552-2.256 1.332-3.168 2.34-.888.984-1.584 2.124-2.088 3.42-.48 1.296-.72 2.676-.72 4.14 0 1.824.384 3.444 1.152 4.86.792 1.416 1.86 2.532 3.204 3.348 1.344.792 2.88 1.188 4.608 1.188zm.936-17.64c1.104 0 2.088.264 2.952.792.888.504 1.56 1.2 2.016 2.088.48.888.672 1.884.576 2.988h-12.348c.408-1.8 1.176-3.228 2.304-4.284 1.152-1.056 2.652-1.584 4.5-1.584zM770.905 160h2.7l1.584-11.412c.264-1.728.948-3.096 2.052-4.104 1.128-1.008 2.448-1.512 3.96-1.512 1.44 0 2.544.468 3.312 1.404.768.912 1.044 2.148.828 3.708L783.685 160h2.7l1.692-12.096c.216-1.488.072-2.808-.432-3.96-.48-1.152-1.236-2.052-2.268-2.7-1.008-.648-2.208-.972-3.6-.972-1.152 0-2.232.24-3.24.72-1.008.456-1.848 1.116-2.52 1.98l.288-2.268h-2.7l-2.7 19.296zm30.212.432c1.296 0 2.496-.216 3.6-.648 1.128-.432 2.112-1.008 2.952-1.728.84-.744 1.488-1.548 1.944-2.412l-2.268-1.296c-.672 1.008-1.524 1.86-2.556 2.556-1.008.672-2.22 1.008-3.636 1.008-1.104 0-2.124-.252-3.06-.756s-1.692-1.224-2.268-2.16c-.576-.96-.864-2.076-.864-3.348v-.468h15.192l.18-1.08c.072-.456.108-.876.108-1.26 0-1.464-.324-2.844-.972-4.14-.648-1.32-1.596-2.388-2.844-3.204s-2.76-1.224-4.536-1.224c-1.44 0-2.76.288-3.96.864-1.2.552-2.256 1.332-3.168 2.34-.888.984-1.584 2.124-2.088 3.42-.48 1.296-.72 2.676-.72 4.14 0 1.824.384 3.444 1.152 4.86.792 1.416 1.86 2.532 3.204 3.348 1.344.792 2.88 1.188 4.608 1.188zm.936-17.64c1.104 0 2.088.264 2.952.792.888.504 1.56 1.2 2.016 2.088.48.888.672 1.884.576 2.988h-12.348c.408-1.8 1.176-3.228 2.304-4.284 1.152-1.056 2.652-1.584 4.5-1.584zM813.795 160h2.736l1.584-11.52c.264-1.776.864-3.108 1.8-3.996.96-.888 2.136-1.332 3.528-1.332h1.692l.396-2.7h-1.224c-1.152 0-2.184.204-3.096.612-.888.384-1.644.936-2.268 1.656l.288-2.016h-2.736l-2.7 19.296zm18.249.432c1.32 0 2.556-.264 3.708-.792 1.176-.528 2.136-1.224 2.88-2.088l-.36 2.448h2.736l1.8-12.816c.192-1.368 0-2.568-.576-3.6-.552-1.032-1.368-1.836-2.448-2.412-1.08-.6-2.316-.9-3.708-.9-1.776 0-3.396.42-4.86 1.26-1.44.84-2.496 1.872-3.168 3.096l2.34 1.476c.552-.936 1.296-1.704 2.232-2.304.96-.624 2.052-.936 3.276-.936.792 0 1.524.156 2.196.468.696.288 1.236.744 1.62 1.368s.504 1.416.36 2.376l-.072.648-7.344 1.188c-2.112.336-3.768 1.056-4.968 2.16s-1.8 2.472-1.8 4.104c0 1.176.288 2.16.864 2.952.6.768 1.368 1.344 2.304 1.728s1.932.576 2.988.576zm-3.276-5.4c0-.96.384-1.764 1.152-2.412.792-.672 1.872-1.128 3.24-1.368l6.48-1.08-.18 1.404c-.144 1.176-.552 2.256-1.224 3.24-.672.96-1.512 1.728-2.52 2.304s-2.112.864-3.312.864c-1.104 0-1.992-.264-2.664-.792-.648-.552-.972-1.272-.972-2.16zM846.596 160h2.736l3.744-26.82h-2.736L846.596 160zm23.881.432c1.32 0 2.556-.24 3.708-.72 1.176-.504 2.172-1.212 2.988-2.124l-.324 2.412h2.7l3.744-26.82h-2.736l-1.512 10.872c-.72-1.176-1.704-2.1-2.952-2.772-1.224-.672-2.676-1.008-4.356-1.008-1.464 0-2.82.288-4.068.864-1.224.552-2.292 1.332-3.204 2.34-.912.984-1.62 2.136-2.124 3.456-.504 1.296-.756 2.688-.756 4.176 0 1.8.372 3.408 1.116 4.824.768 1.392 1.824 2.496 3.168 3.312 1.344.792 2.88 1.188 4.608 1.188zm.18-2.7c-1.2 0-2.268-.288-3.204-.864s-1.668-1.356-2.196-2.34c-.528-1.008-.792-2.148-.792-3.42 0-1.464.312-2.808.936-4.032.648-1.248 1.524-2.244 2.628-2.988 1.128-.744 2.4-1.116 3.816-1.116 1.224 0 2.316.3 3.276.9.96.576 1.716 1.368 2.268 2.376s.828 2.16.828 3.456c0 1.416-.336 2.736-1.008 3.96s-1.584 2.208-2.736 2.952c-1.128.744-2.4 1.116-3.816 1.116zm17.675-20.592h2.736l.54-3.96h-2.736l-.54 3.96zM885.128 160h2.736l2.7-19.296h-2.736l-2.7 19.296zm15.352.432c1.368 0 2.604-.264 3.708-.792s1.968-1.236 2.592-2.124c.648-.888.972-1.884.972-2.988 0-1.2-.396-2.232-1.188-3.096-.768-.864-1.872-1.512-3.312-1.944l-3.096-.936c-.888-.264-1.536-.612-1.944-1.044-.384-.432-.576-.972-.576-1.62 0-.912.372-1.668 1.116-2.268s1.704-.9 2.88-.9c2.28 0 3.828 1.128 4.644 3.384l2.376-.936c-.384-1.488-1.2-2.676-2.448-3.564s-2.724-1.332-4.428-1.332c-1.272 0-2.436.276-3.492.828-1.056.528-1.896 1.248-2.52 2.16-.624.888-.936 1.884-.936 2.988 0 2.448 1.512 4.092 4.536 4.932l2.7.756c1.92.528 2.88 1.428 2.88 2.7 0 .96-.396 1.764-1.188 2.412-.792.624-1.8.936-3.024.936-1.272 0-2.4-.336-3.384-1.008-.96-.672-1.656-1.596-2.088-2.772l-2.34.936c.456 1.608 1.368 2.892 2.736 3.852 1.392.96 3 1.44 4.824 1.44zm20.727 0c1.872 0 3.564-.456 5.076-1.368 1.536-.912 2.676-2.088 3.42-3.528l-2.376-1.404c-.576 1.08-1.38 1.956-2.412 2.628-1.032.648-2.196.972-3.492.972-1.176 0-2.232-.288-3.168-.864s-1.668-1.368-2.196-2.376-.792-2.16-.792-3.456c0-1.416.312-2.736.936-3.96s1.488-2.208 2.592-2.952c1.104-.768 2.364-1.152 3.78-1.152 1.272 0 2.376.324 3.312.972.936.624 1.608 1.452 2.016 2.484l2.484-1.188c-.552-1.488-1.536-2.688-2.952-3.6s-3.048-1.368-4.896-1.368c-1.896 0-3.612.48-5.148 1.44-1.536.936-2.76 2.22-3.672 3.852-.888 1.608-1.332 3.432-1.332 5.472 0 1.8.372 3.408 1.116 4.824s1.776 2.532 3.096 3.348c1.344.816 2.88 1.224 4.608 1.224zm12.647-.432h2.736l3.744-26.82h-2.736L933.854 160zm14.416.432c1.32 0 2.556-.264 3.708-.792 1.176-.528 2.136-1.224 2.88-2.088l-.36 2.448h2.736l1.8-12.816c.192-1.368 0-2.568-.576-3.6-.552-1.032-1.368-1.836-2.448-2.412-1.08-.6-2.316-.9-3.708-.9-1.776 0-3.396.42-4.86 1.26-1.44.84-2.496 1.872-3.168 3.096l2.34 1.476c.552-.936 1.296-1.704 2.232-2.304.96-.624 2.052-.936 3.276-.936.792 0 1.524.156 2.196.468.696.288 1.236.744 1.62 1.368s.504 1.416.36 2.376l-.072.648-7.344 1.188c-2.112.336-3.768 1.056-4.968 2.16s-1.8 2.472-1.8 4.104c0 1.176.288 2.16.864 2.952.6.768 1.368 1.344 2.304 1.728s1.932.576 2.988.576zm-3.276-5.4c0-.96.384-1.764 1.152-2.412.792-.672 1.872-1.128 3.24-1.368l6.48-1.08-.18 1.404c-.144 1.176-.552 2.256-1.224 3.24-.672.96-1.512 1.728-2.52 2.304s-2.112.864-3.312.864c-1.104 0-1.992-.264-2.664-.792-.648-.552-.972-1.272-.972-2.16zm21.033-17.892h2.736l.54-3.96h-2.736l-.54 3.96zM962.823 160h2.736l2.7-19.296h-2.736l-2.7 19.296zm8.332 0h2.7l1.584-11.412c.168-1.152.528-2.148 1.08-2.988.576-.84 1.272-1.488 2.088-1.944.84-.456 1.728-.684 2.664-.684 1.344 0 2.388.468 3.132 1.404.768.912 1.044 2.148.828 3.708L983.575 160h2.7l1.656-11.88c.144-1.08.504-2.004 1.08-2.772s1.272-1.356 2.088-1.764c.84-.408 1.704-.612 2.592-.612 1.344 0 2.388.468 3.132 1.404.768.912 1.044 2.148.828 3.708L995.995 160h2.7l1.695-12.096c.21-1.488.06-2.808-.471-3.96-.504-1.152-1.26-2.052-2.268-2.7s-2.184-.972-3.528-.972c-1.272 0-2.508.312-3.708.936s-2.16 1.56-2.88 2.808c-.432-1.176-1.152-2.088-2.16-2.736-1.008-.672-2.184-1.008-3.528-1.008-1.08 0-2.112.24-3.096.72s-1.812 1.152-2.484 2.016l.288-2.304h-2.7l-2.7 19.296zm42.275.432c1.29 0 2.49-.216 3.6-.648 1.12-.432 2.11-1.008 2.95-1.728.84-.744 1.49-1.548 1.94-2.412l-2.27-1.296c-.67 1.008-1.52 1.86-2.55 2.556-1.01.672-2.22 1.008-3.64 1.008-1.1 0-2.12-.252-3.06-.756-.93-.504-1.69-1.224-2.27-2.16-.57-.96-.86-2.076-.86-3.348v-.468h15.19l.18-1.08c.07-.456.11-.876.11-1.26 0-1.464-.32-2.844-.97-4.14-.65-1.32-1.6-2.388-2.85-3.204-1.24-.816-2.76-1.224-4.53-1.224-1.44 0-2.76.288-3.96.864-1.2.552-2.26 1.332-3.17 2.34-.89.984-1.58 2.124-2.09 3.42-.48 1.296-.72 2.676-.72 4.14 0 1.824.39 3.444 1.15 4.86.8 1.416 1.86 2.532 3.21 3.348 1.34.792 2.88 1.188 4.61 1.188zm.93-17.64c1.11 0 2.09.264 2.95.792.89.504 1.56 1.2 2.02 2.088.48.888.67 1.884.58 2.988h-12.35c.41-1.8 1.17-3.228 2.3-4.284 1.15-1.056 2.65-1.584 4.5-1.584zM1026.1 160h2.74l1.58-11.52c.27-1.776.87-3.108 1.8-3.996.96-.888 2.14-1.332 3.53-1.332h1.69l.4-2.7h-1.22c-1.16 0-2.19.204-3.1.612-.89.384-1.64.936-2.27 1.656l.29-2.016h-2.74L1026.1 160zm18.29 0h2.73l3.75-26.82h-2.74l-3.74 26.82zm11.53-22.86h2.74l.54-3.96h-2.74l-.54 3.96zm-3.2 22.86h2.73l2.7-19.296h-2.73l-2.7 19.296zm15.35.432c1.37 0 2.6-.264 3.71-.792 1.1-.528 1.97-1.236 2.59-2.124.65-.888.97-1.884.97-2.988 0-1.2-.39-2.232-1.19-3.096-.76-.864-1.87-1.512-3.31-1.944l-3.09-.936c-.89-.264-1.54-.612-1.95-1.044-.38-.432-.57-.972-.57-1.62 0-.912.37-1.668 1.11-2.268.75-.6 1.71-.9 2.88-.9 2.28 0 3.83 1.128 4.65 3.384l2.37-.936c-.38-1.488-1.2-2.676-2.45-3.564-1.24-.888-2.72-1.332-4.42-1.332-1.28 0-2.44.276-3.5.828-1.05.528-1.89 1.248-2.52 2.16-.62.888-.93 1.884-.93 2.988 0 2.448 1.51 4.092 4.53 4.932l2.7.756c1.92.528 2.88 1.428 2.88 2.7 0 .96-.39 1.764-1.18 2.412-.8.624-1.8.936-3.03.936-1.27 0-2.4-.336-3.38-1.008-.96-.672-1.66-1.596-2.09-2.772l-2.34.936c.46 1.608 1.37 2.892 2.74 3.852 1.39.96 3 1.44 4.82 1.44zm18.82-.216l.79-.036c.36 0 .68-.036.97-.108l.22-2.484-.69.072-.75.036c-1.18 0-1.93-.3-2.27-.9s-.43-1.38-.29-2.34l1.55-11.052h4.21l.4-2.7h-4.21l.61-4.464h-2.74l-.21 1.548c-.1.816-.45 1.512-1.05 2.088-.57.552-1.27.828-2.09.828h-.82l-.4 2.7h3.56l-1.51 10.908c-.24 1.872.05 3.324.87 4.356.81 1.032 2.1 1.548 3.85 1.548zm15.38.216c1.29 0 2.49-.216 3.6-.648 1.12-.432 2.11-1.008 2.95-1.728.84-.744 1.49-1.548 1.94-2.412l-2.27-1.296c-.67 1.008-1.52 1.86-2.55 2.556-1.01.672-2.22 1.008-3.64 1.008-1.1 0-2.12-.252-3.06-.756-.93-.504-1.69-1.224-2.27-2.16-.57-.96-.86-2.076-.86-3.348v-.468h15.19l.18-1.08c.07-.456.11-.876.11-1.26 0-1.464-.32-2.844-.97-4.14-.65-1.32-1.6-2.388-2.85-3.204-1.24-.816-2.76-1.224-4.53-1.224-1.44 0-2.76.288-3.96.864-1.2.552-2.26 1.332-3.17 2.34-.89.984-1.58 2.124-2.09 3.42-.48 1.296-.72 2.676-.72 4.14 0 1.824.39 3.444 1.15 4.86.8 1.416 1.86 2.532 3.21 3.348 1.34.792 2.88 1.188 4.61 1.188zm.93-17.64c1.11 0 2.09.264 2.95.792.89.504 1.56 1.2 2.02 2.088.48.888.67 1.884.58 2.988h-12.35c.41-1.8 1.17-3.228 2.3-4.284 1.15-1.056 2.65-1.584 4.5-1.584zm21.18 17.64c1.32 0 2.55-.24 3.7-.72 1.18-.504 2.18-1.212 2.99-2.124l-.32 2.412h2.7l3.74-26.82h-2.73l-1.52 10.872c-.72-1.176-1.7-2.1-2.95-2.772-1.22-.672-2.67-1.008-4.35-1.008-1.47 0-2.82.288-4.07.864-1.23.552-2.29 1.332-3.21 2.34-.91.984-1.62 2.136-2.12 3.456-.5 1.296-.76 2.688-.76 4.176 0 1.8.38 3.408 1.12 4.824.77 1.392 1.82 2.496 3.17 3.312 1.34.792 2.88 1.188 4.61 1.188zm.18-2.7c-1.2 0-2.27-.288-3.21-.864-.93-.576-1.67-1.356-2.19-2.34-.53-1.008-.8-2.148-.8-3.42 0-1.464.32-2.808.94-4.032.65-1.248 1.52-2.244 2.63-2.988 1.13-.744 2.4-1.116 3.81-1.116 1.23 0 2.32.3 3.28.9.96.576 1.72 1.368 2.27 2.376s.83 2.16.83 3.456c0 1.416-.34 2.736-1.01 3.96s-1.59 2.208-2.74 2.952c-1.13.744-2.4 1.116-3.81 1.116zm-1113.256 47.7c1.44 0 2.784-.276 4.032-.828s2.352-1.32 3.312-2.304c.96-1.008 1.704-2.16 2.232-3.456.552-1.296.828-2.676.828-4.14 0-1.848-.408-3.48-1.224-4.896s-1.932-2.52-3.348-3.312c-1.392-.816-2.976-1.224-4.752-1.224-1.44 0-2.796.276-4.068.828-1.248.552-2.352 1.32-3.312 2.304-.936.96-1.668 2.088-2.196 3.384-.528 1.272-.792 2.64-.792 4.104 0 1.872.408 3.528 1.224 4.968.84 1.44 1.956 2.568 3.348 3.384 1.416.792 2.988 1.188 4.716 1.188zm-.036-2.7c-1.224 0-2.316-.288-3.276-.864-.96-.6-1.716-1.404-2.268-2.412-.552-1.032-.828-2.196-.828-3.492 0-1.464.336-2.796 1.008-3.996s1.572-2.16 2.7-2.88c1.152-.744 2.424-1.116 3.816-1.116 1.224 0 2.316.288 3.276.864.984.576 1.752 1.368 2.304 2.376s.828 2.16.828 3.456c0 1.44-.336 2.772-1.008 3.996s-1.584 2.208-2.736 2.952c-1.128.744-2.4 1.116-3.816 1.116zM25.1353 205h2.7l1.584-11.412c.264-1.728.948-3.096 2.052-4.104 1.128-1.008 2.448-1.512 3.96-1.512 1.44 0 2.544.468 3.312 1.404.768.912 1.044 2.148.828 3.708L37.9153 205h2.7l1.692-12.096c.216-1.488.072-2.808-.432-3.96-.48-1.152-1.236-2.052-2.268-2.7-1.008-.648-2.208-.972-3.6-.972-1.152 0-2.232.24-3.24.72-1.008.456-1.848 1.116-2.52 1.98l.288-2.268h-2.7l-2.7 19.296zm34.2771.216l.792-.036c.36 0 .684-.036.972-.108l.216-2.484-.684.072-.756.036c-1.176 0-1.932-.3-2.268-.9s-.432-1.38-.288-2.34l1.548-11.052h4.212l.396-2.7h-4.212l.612-4.464h-2.736l-.216 1.548c-.096.816-.444 1.512-1.044 2.088-.576.552-1.272.828-2.088.828h-.828l-.396 2.7h3.564l-1.512 10.908c-.24 1.872.048 3.324.864 4.356s2.1 1.548 3.852 1.548zm6.5393-.216h2.736l1.584-11.412c.24-1.728.924-3.096 2.052-4.104 1.152-1.008 2.46-1.512 3.924-1.512 1.416 0 2.508.468 3.276 1.404.768.912 1.044 2.148.828 3.708L78.6957 205h2.736l1.692-12.096c.216-1.488.072-2.808-.432-3.96-.48-1.152-1.236-2.052-2.268-2.7-1.008-.648-2.208-.972-3.6-.972-1.152 0-2.232.24-3.24.72-1.008.456-1.848 1.116-2.52 1.98l1.332-9.792h-2.7L65.9517 205zm30.2119.432c1.296 0 2.496-.216 3.6-.648 1.1284-.432 2.1124-1.008 2.9524-1.728.84-.744 1.488-1.548 1.944-2.412l-2.268-1.296c-.672 1.008-1.524 1.86-2.5564 2.556-1.008.672-2.22 1.008-3.636 1.008-1.104 0-2.124-.252-3.06-.756s-1.692-1.224-2.268-2.16c-.576-.96-.864-2.076-.864-3.348v-.468H105.2l.18-1.08c.072-.456.108-.876.108-1.26 0-1.464-.324-2.844-.972-4.14-.648-1.32-1.596-2.388-2.844-3.204s-2.7604-1.224-4.5364-1.224c-1.44 0-2.76.288-3.96.864-1.2.552-2.256 1.332-3.168 2.34-.888.984-1.584 2.124-2.088 3.42-.48 1.296-.72 2.676-.72 4.14 0 1.824.384 3.444 1.152 4.86.792 1.416 1.86 2.532 3.204 3.348 1.344.792 2.88 1.188 4.608 1.188zm.936-17.64c1.104 0 2.088.264 2.9524.792.888.504 1.56 1.2 2.016 2.088.48.888.672 1.884.576 2.988H90.2956c.408-1.8 1.176-3.228 2.304-4.284 1.152-1.056 2.652-1.584 4.5-1.584zm25.9964-1.764h2.88l.54-3.96h-1.548c.168-.816.48-1.512.936-2.088s1.056-.96 1.8-1.152l.144-1.08c-1.224.288-2.208.888-2.952 1.8-.72.912-1.176 2.064-1.368 3.456l-.432 3.024zm-5.4 0h2.88l.54-3.96h-1.548c.168-.816.48-1.512.936-2.088s1.056-.96 1.8-1.152l.144-1.08c-1.224.288-2.208.888-2.952 1.8-.72.912-1.176 2.064-1.368 3.456l-.432 3.024zm19.366 19.404c1.368 0 2.604-.264 3.708-.792s1.968-1.236 2.592-2.124c.648-.888.972-1.884.972-2.988 0-1.2-.396-2.232-1.188-3.096-.768-.864-1.872-1.512-3.312-1.944l-3.096-.936c-.888-.264-1.536-.612-1.944-1.044-.384-.432-.576-.972-.576-1.62 0-.912.372-1.668 1.116-2.268s1.704-.9 2.88-.9c2.28 0 3.828 1.128 4.644 3.384l2.376-.936c-.384-1.488-1.2-2.676-2.448-3.564s-2.724-1.332-4.428-1.332c-1.272 0-2.436.276-3.492.828-1.056.528-1.896 1.248-2.52 2.16-.624.888-.936 1.884-.936 2.988 0 2.448 1.512 4.092 4.536 4.932l2.7.756c1.92.528 2.88 1.428 2.88 2.7 0 .96-.396 1.764-1.188 2.412-.792.624-1.8.936-3.024.936-1.272 0-2.4-.336-3.384-1.008-.96-.672-1.656-1.596-2.088-2.772l-2.34.936c.456 1.608 1.368 2.892 2.736 3.852 1.392.96 3 1.44 4.824 1.44zm17.415 0c1.32 0 2.556-.264 3.708-.792 1.176-.528 2.136-1.224 2.88-2.088l-.36 2.448h2.736l1.8-12.816c.192-1.368 0-2.568-.576-3.6-.552-1.032-1.368-1.836-2.448-2.412-1.08-.6-2.316-.9-3.708-.9-1.776 0-3.396.42-4.86 1.26-1.44.84-2.496 1.872-3.168 3.096l2.34 1.476c.552-.936 1.296-1.704 2.232-2.304.96-.624 2.052-.936 3.276-.936.792 0 1.524.156 2.196.468.696.288 1.236.744 1.62 1.368s.504 1.416.36 2.376l-.072.648-7.344 1.188c-2.112.336-3.768 1.056-4.968 2.16s-1.8 2.472-1.8 4.104c0 1.176.288 2.16.864 2.952.6.768 1.368 1.344 2.304 1.728s1.932.576 2.988.576zm-3.276-5.4c0-.96.384-1.764 1.152-2.412.792-.672 1.872-1.128 3.24-1.368l6.48-1.08-.18 1.404c-.144 1.176-.552 2.256-1.224 3.24-.672.96-1.512 1.728-2.52 2.304s-2.112.864-3.312.864c-1.104 0-1.992-.264-2.664-.792-.648-.552-.972-1.272-.972-2.16zM169.03 205h2.736l1.584-11.52c.264-1.776.864-3.108 1.8-3.996.96-.888 2.136-1.332 3.528-1.332h1.692l.396-2.7h-1.224c-1.152 0-2.184.204-3.096.612-.888.384-1.644.936-2.268 1.656l.288-2.016h-2.736L169.03 205zm12.164 0h2.7l1.584-11.412c.168-1.152.528-2.148 1.08-2.988.576-.84 1.272-1.488 2.088-1.944.84-.456 1.728-.684 2.664-.684 1.344 0 2.388.468 3.132 1.404.768.912 1.044 2.148.828 3.708L193.614 205h2.7l1.656-11.88c.144-1.08.504-2.004 1.08-2.772s1.272-1.356 2.088-1.764c.84-.408 1.704-.612 2.592-.612 1.344 0 2.388.468 3.132 1.404.768.912 1.044 2.148.828 3.708L206.034 205h2.7l1.692-12.096c.216-1.488.06-2.808-.468-3.96-.504-1.152-1.26-2.052-2.268-2.7s-2.184-.972-3.528-.972c-1.272 0-2.508.312-3.708.936s-2.16 1.56-2.88 2.808c-.432-1.176-1.152-2.088-2.16-2.736-1.008-.672-2.184-1.008-3.528-1.008-1.08 0-2.112.24-3.096.72s-1.812 1.152-2.484 2.016l.288-2.304h-2.7l-2.7 19.296zm32.73 0h2.7l1.584-11.412c.168-1.152.528-2.148 1.08-2.988.576-.84 1.272-1.488 2.088-1.944.84-.456 1.728-.684 2.664-.684 1.344 0 2.388.468 3.132 1.404.768.912 1.044 2.148.828 3.708L226.344 205h2.7l1.656-11.88c.144-1.08.504-2.004 1.08-2.772s1.272-1.356 2.088-1.764c.84-.408 1.704-.612 2.592-.612 1.344 0 2.388.468 3.132 1.404.768.912 1.044 2.148.828 3.708L238.764 205h2.7l1.692-12.096c.216-1.488.06-2.808-.468-3.96-.504-1.152-1.26-2.052-2.268-2.7s-2.184-.972-3.528-.972c-1.272 0-2.508.312-3.708.936s-2.16 1.56-2.88 2.808c-.432-1.176-1.152-2.088-2.16-2.736-1.008-.672-2.184-1.008-3.528-1.008-1.08 0-2.112.24-3.096.72s-1.812 1.152-2.484 2.016l.288-2.304h-2.7l-2.7 19.296zm35.935-22.86h2.736l.54-3.96h-2.736l-.54 3.96zM246.655 205h2.736l2.7-19.296h-2.736l-2.7 19.296zm17.872.432c1.296 0 2.496-.216 3.6-.648 1.128-.432 2.112-1.008 2.952-1.728.84-.744 1.488-1.548 1.944-2.412l-2.268-1.296c-.672 1.008-1.524 1.86-2.556 2.556-1.008.672-2.22 1.008-3.636 1.008-1.104 0-2.124-.252-3.06-.756s-1.692-1.224-2.268-2.16c-.576-.96-.864-2.076-.864-3.348v-.468h15.192l.18-1.08c.072-.456.108-.876.108-1.26 0-1.464-.324-2.844-.972-4.14-.648-1.32-1.596-2.388-2.844-3.204s-2.76-1.224-4.536-1.224c-1.44 0-2.76.288-3.96.864-1.2.552-2.256 1.332-3.168 2.34-.888.984-1.584 2.124-2.088 3.42-.48 1.296-.72 2.676-.72 4.14 0 1.824.384 3.444 1.152 4.86.792 1.416 1.86 2.532 3.204 3.348 1.344.792 2.88 1.188 4.608 1.188zm.936-17.64c1.104 0 2.088.264 2.952.792.888.504 1.56 1.2 2.016 2.088.48.888.672 1.884.576 2.988h-12.348c.408-1.8 1.176-3.228 2.304-4.284 1.152-1.056 2.652-1.584 4.5-1.584zm18.763 17.64c1.368 0 2.604-.264 3.708-.792s1.968-1.236 2.592-2.124c.648-.888.972-1.884.972-2.988 0-1.2-.396-2.232-1.188-3.096-.768-.864-1.872-1.512-3.312-1.944l-3.096-.936c-.888-.264-1.536-.612-1.944-1.044-.384-.432-.576-.972-.576-1.62 0-.912.372-1.668 1.116-2.268s1.704-.9 2.88-.9c2.28 0 3.828 1.128 4.644 3.384l2.376-.936c-.384-1.488-1.2-2.676-2.448-3.564s-2.724-1.332-4.428-1.332c-1.272 0-2.436.276-3.492.828-1.056.528-1.896 1.248-2.52 2.16-.624.888-.936 1.884-.936 2.988 0 2.448 1.512 4.092 4.536 4.932l2.7.756c1.92.528 2.88 1.428 2.88 2.7 0 .96-.396 1.764-1.188 2.412-.792.624-1.8.936-3.024.936-1.272 0-2.4-.336-3.384-1.008-.96-.672-1.656-1.596-2.088-2.772l-2.34.936c.456 1.608 1.368 2.892 2.736 3.852 1.392.96 3 1.44 4.824 1.44zm12.231-.432h2.88l.576-3.96h-2.88l-.576 3.96zm19.769.432c1.464 0 2.808-.276 4.032-.828 1.248-.576 2.328-1.368 3.24-2.376.936-1.008 1.656-2.16 2.16-3.456.504-1.32.756-2.712.756-4.176 0-1.752-.372-3.324-1.116-4.716-.72-1.416-1.752-2.532-3.096-3.348-1.344-.84-2.916-1.26-4.716-1.26-1.296 0-2.496.228-3.6.684-1.104.432-2.064 1.044-2.88 1.836l1.332-9.612h-2.736L305.858 205h2.736l.432-3.24c.696 1.152 1.68 2.052 2.952 2.7 1.296.648 2.712.972 4.248.972zm-.072-2.7c-1.224 0-2.316-.288-3.276-.864-.936-.6-1.68-1.416-2.232-2.448s-.828-2.208-.828-3.528c0-1.416.312-2.724.936-3.924s1.488-2.16 2.592-2.88c1.128-.744 2.4-1.116 3.816-1.116 1.272 0 2.376.288 3.312.864.96.576 1.704 1.368 2.232 2.376.552 1.008.828 2.16.828 3.456 0 1.44-.324 2.772-.972 3.996s-1.524 2.208-2.628 2.952-2.364 1.116-3.78 1.116zm16.885-20.592h2.736l.54-3.96h-2.736l-.54 3.96zM329.835 205h2.736l2.7-19.296h-2.736l-2.7 19.296zm18.196.432c1.44 0 2.784-.276 4.032-.828s2.352-1.32 3.312-2.304c.96-1.008 1.704-2.16 2.232-3.456.552-1.296.828-2.676.828-4.14 0-1.848-.408-3.48-1.224-4.896s-1.932-2.52-3.348-3.312c-1.392-.816-2.976-1.224-4.752-1.224-1.44 0-2.796.276-4.068.828-1.248.552-2.352 1.32-3.312 2.304-.936.96-1.668 2.088-2.196 3.384-.528 1.272-.792 2.64-.792 4.104 0 1.872.408 3.528 1.224 4.968.84 1.44 1.956 2.568 3.348 3.384 1.416.792 2.988 1.188 4.716 1.188zm-.036-2.7c-1.224 0-2.316-.288-3.276-.864-.96-.6-1.716-1.404-2.268-2.412-.552-1.032-.828-2.196-.828-3.492 0-1.464.336-2.796 1.008-3.996s1.572-2.16 2.7-2.88c1.152-.744 2.424-1.116 3.816-1.116 1.224 0 2.316.288 3.276.864.984.576 1.752 1.368 2.304 2.376s.828 2.16.828 3.456c0 1.44-.336 2.772-1.008 3.996s-1.584 2.208-2.736 2.952c-1.128.744-2.4 1.116-3.816 1.116zm21.967-16.272c1.224-.288 2.208-.888 2.952-1.8s1.2-2.064 1.368-3.456l.432-3.024h-2.88l-.54 3.96h1.548c-.168.816-.48 1.512-.936 2.088-.432.576-1.032.96-1.8 1.152l-.144 1.08zm-5.4 0c1.224-.288 2.208-.888 2.952-1.8s1.2-2.064 1.368-3.456l.432-3.024h-2.88l-.54 3.96h1.548c-.168.816-.48 1.512-.936 2.088-.432.576-1.032.96-1.8 1.152l-.144 1.08zM387.308 205h2.7l6.804-15.12L399.26 205h2.7l9.36-19.296h-3.132l-7.02 15.12-2.52-15.12h-2.7l-6.84 15.192-2.808-15.192h-2.88L387.308 205zm33.664.432c1.296 0 2.496-.216 3.6-.648 1.128-.432 2.112-1.008 2.952-1.728.84-.744 1.488-1.548 1.944-2.412l-2.268-1.296c-.672 1.008-1.524 1.86-2.556 2.556-1.008.672-2.22 1.008-3.636 1.008-1.104 0-2.124-.252-3.06-.756s-1.692-1.224-2.268-2.16c-.576-.96-.864-2.076-.864-3.348v-.468h15.192l.18-1.08c.072-.456.108-.876.108-1.26 0-1.464-.324-2.844-.972-4.14-.648-1.32-1.596-2.388-2.844-3.204s-2.76-1.224-4.536-1.224c-1.44 0-2.76.288-3.96.864-1.2.552-2.256 1.332-3.168 2.34-.888.984-1.584 2.124-2.088 3.42-.48 1.296-.72 2.676-.72 4.14 0 1.824.384 3.444 1.152 4.86.792 1.416 1.86 2.532 3.204 3.348 1.344.792 2.88 1.188 4.608 1.188zm.936-17.64c1.104 0 2.088.264 2.952.792.888.504 1.56 1.2 2.016 2.088.48.888.672 1.884.576 2.988h-12.348c.408-1.8 1.176-3.228 2.304-4.284 1.152-1.056 2.652-1.584 4.5-1.584zm22.111 17.64c1.464 0 2.808-.276 4.032-.828 1.248-.576 2.328-1.368 3.24-2.376.936-1.008 1.656-2.16 2.16-3.456.504-1.32.756-2.712.756-4.176 0-1.752-.372-3.324-1.116-4.716-.72-1.416-1.752-2.532-3.096-3.348-1.344-.84-2.916-1.26-4.716-1.26-1.296 0-2.496.228-3.6.684-1.104.432-2.064 1.044-2.88 1.836l1.332-9.612h-2.736L433.651 205h2.736l.432-3.24c.696 1.152 1.68 2.052 2.952 2.7 1.296.648 2.712.972 4.248.972zm-.072-2.7c-1.224 0-2.316-.288-3.276-.864-.936-.6-1.68-1.416-2.232-2.448s-.828-2.208-.828-3.528c0-1.416.312-2.724.936-3.924s1.488-2.16 2.592-2.88c1.128-.744 2.4-1.116 3.816-1.116 1.272 0 2.376.288 3.312.864.96.576 1.704 1.368 2.232 2.376.552 1.008.828 2.16.828 3.456 0 1.44-.324 2.772-.972 3.996s-1.524 2.208-2.628 2.952-2.364 1.116-3.78 1.116zm29.23 2.7c1.32 0 2.556-.24 3.708-.72 1.176-.504 2.172-1.212 2.988-2.124l-.324 2.412h2.7l3.744-26.82h-2.736l-1.512 10.872c-.72-1.176-1.704-2.1-2.952-2.772-1.224-.672-2.676-1.008-4.356-1.008-1.464 0-2.82.288-4.068.864-1.224.552-2.292 1.332-3.204 2.34-.912.984-1.62 2.136-2.124 3.456-.504 1.296-.756 2.688-.756 4.176 0 1.8.372 3.408 1.116 4.824.768 1.392 1.824 2.496 3.168 3.312 1.344.792 2.88 1.188 4.608 1.188zm.18-2.7c-1.2 0-2.268-.288-3.204-.864s-1.668-1.356-2.196-2.34c-.528-1.008-.792-2.148-.792-3.42 0-1.464.312-2.808.936-4.032.648-1.248 1.524-2.244 2.628-2.988 1.128-.744 2.4-1.116 3.816-1.116 1.224 0 2.316.3 3.276.9.96.576 1.716 1.368 2.268 2.376s.828 2.16.828 3.456c0 1.416-.336 2.736-1.008 3.96s-1.584 2.208-2.736 2.952c-1.128.744-2.4 1.116-3.816 1.116zm24.334 2.7c1.44 0 2.784-.276 4.032-.828s2.352-1.32 3.312-2.304c.96-1.008 1.704-2.16 2.232-3.456.552-1.296.828-2.676.828-4.14 0-1.848-.408-3.48-1.224-4.896s-1.932-2.52-3.348-3.312c-1.392-.816-2.976-1.224-4.752-1.224-1.44 0-2.796.276-4.068.828-1.248.552-2.352 1.32-3.312 2.304-.936.96-1.668 2.088-2.196 3.384-.528 1.272-.792 2.64-.792 4.104 0 1.872.408 3.528 1.224 4.968.84 1.44 1.956 2.568 3.348 3.384 1.416.792 2.988 1.188 4.716 1.188zm-.036-2.7c-1.224 0-2.316-.288-3.276-.864-.96-.6-1.716-1.404-2.268-2.412-.552-1.032-.828-2.196-.828-3.492 0-1.464.336-2.796 1.008-3.996s1.572-2.16 2.7-2.88c1.152-.744 2.424-1.116 3.816-1.116 1.224 0 2.316.288 3.276.864.984.576 1.752 1.368 2.304 2.376s.828 2.16.828 3.456c0 1.44-.336 2.772-1.008 3.996s-1.584 2.208-2.736 2.952c-1.128.744-2.4 1.116-3.816 1.116zM511.522 205h2.7l1.584-11.412c.168-1.152.528-2.148 1.08-2.988.576-.84 1.272-1.488 2.088-1.944.84-.456 1.728-.684 2.664-.684 1.344 0 2.388.468 3.132 1.404.768.912 1.044 2.148.828 3.708L523.942 205h2.7l1.656-11.88c.144-1.08.504-2.004 1.08-2.772s1.272-1.356 2.088-1.764c.84-.408 1.704-.612 2.592-.612 1.344 0 2.388.468 3.132 1.404.768.912 1.044 2.148.828 3.708L536.362 205h2.7l1.692-12.096c.216-1.488.06-2.808-.468-3.96-.504-1.152-1.26-2.052-2.268-2.7s-2.184-.972-3.528-.972c-1.272 0-2.508.312-3.708.936s-2.16 1.56-2.88 2.808c-.432-1.176-1.152-2.088-2.16-2.736-1.008-.672-2.184-1.008-3.528-1.008-1.08 0-2.112.24-3.096.72s-1.812 1.152-2.484 2.016l.288-2.304h-2.7l-2.7 19.296zm38.815.432c1.32 0 2.556-.264 3.708-.792 1.176-.528 2.136-1.224 2.88-2.088l-.36 2.448h2.736l1.8-12.816c.192-1.368 0-2.568-.576-3.6-.552-1.032-1.368-1.836-2.448-2.412-1.08-.6-2.316-.9-3.708-.9-1.776 0-3.396.42-4.86 1.26-1.44.84-2.496 1.872-3.168 3.096l2.34 1.476c.552-.936 1.296-1.704 2.232-2.304.96-.624 2.052-.936 3.276-.936.792 0 1.524.156 2.196.468.696.288 1.236.744 1.62 1.368s.504 1.416.36 2.376l-.072.648-7.344 1.188c-2.112.336-3.768 1.056-4.968 2.16s-1.8 2.472-1.8 4.104c0 1.176.288 2.16.864 2.952.6.768 1.368 1.344 2.304 1.728s1.932.576 2.988.576zm-3.276-5.4c0-.96.384-1.764 1.152-2.412.792-.672 1.872-1.128 3.24-1.368l6.48-1.08-.18 1.404c-.144 1.176-.552 2.256-1.224 3.24-.672.96-1.512 1.728-2.52 2.304s-2.112.864-3.312.864c-1.104 0-1.992-.264-2.664-.792-.648-.552-.972-1.272-.972-2.16zm21.032-17.892h2.736l.54-3.96h-2.736l-.54 3.96zM564.889 205h2.736l2.7-19.296h-2.736l-2.7 19.296zm8.332 0h2.7l1.584-11.412c.264-1.728.948-3.096 2.052-4.104 1.128-1.008 2.448-1.512 3.96-1.512 1.44 0 2.544.468 3.312 1.404.768.912 1.044 2.148.828 3.708L586.001 205h2.7l1.692-12.096c.216-1.488.072-2.808-.432-3.96-.48-1.152-1.236-2.052-2.268-2.7-1.008-.648-2.208-.972-3.6-.972-1.152 0-2.232.24-3.24.72-1.008.456-1.848 1.116-2.52 1.98l.288-2.268h-2.7l-2.7 19.296zm31.433 5.04h2.34c-2.52-4.128-3.78-8.556-3.78-13.284 0-3.192.612-6.396 1.836-9.612s2.988-6.204 5.292-8.964h-2.34c-2.472 2.472-4.368 5.34-5.688 8.604-1.32 3.24-1.98 6.612-1.98 10.116 0 5.088 1.44 9.468 4.32 13.14zm9.74-27.9h2.736l.54-3.96h-2.736l-.54 3.96zM611.19 205h2.736l2.7-19.296h-2.736L611.19 205zm10.276 0h2.736l2.304-16.596h4.716l.396-2.7h-4.716l.18-1.296c.216-1.56.768-2.64 1.656-3.24s1.92-.9 3.096-.9c.096 0 .276.012.54.036.288 0 .516.024.684.072l.18-2.448c-.528-.12-1.14-.18-1.836-.18-1.032 0-2.052.24-3.06.72-.984.48-1.836 1.2-2.556 2.16s-1.188 2.172-1.404 3.636l-.216 1.44h-3.816l-.396 2.7h3.816L621.466 205zm24.531.432c1.32 0 2.556-.264 3.708-.792 1.176-.528 2.136-1.224 2.88-2.088l-.36 2.448h2.736l1.8-12.816c.192-1.368 0-2.568-.576-3.6-.552-1.032-1.368-1.836-2.448-2.412-1.08-.6-2.316-.9-3.708-.9-1.776 0-3.396.42-4.86 1.26-1.44.84-2.496 1.872-3.168 3.096l2.34 1.476c.552-.936 1.296-1.704 2.232-2.304.96-.624 2.052-.936 3.276-.936.792 0 1.524.156 2.196.468.696.288 1.236.744 1.62 1.368s.504 1.416.36 2.376l-.072.648-7.344 1.188c-2.112.336-3.768 1.056-4.968 2.16s-1.8 2.472-1.8 4.104c0 1.176.288 2.16.864 2.952.6.768 1.368 1.344 2.304 1.728s1.932.576 2.988.576zm-3.276-5.4c0-.96.384-1.764 1.152-2.412.792-.672 1.872-1.128 3.24-1.368l6.48-1.08-.18 1.404c-.144 1.176-.552 2.256-1.224 3.24-.672.96-1.512 1.728-2.52 2.304s-2.112.864-3.312.864c-1.104 0-1.992-.264-2.664-.792-.648-.552-.972-1.272-.972-2.16zm16.82 12.168h2.736l1.44-10.44c.696 1.152 1.68 2.052 2.952 2.7 1.296.648 2.712.972 4.248.972 1.464 0 2.808-.276 4.032-.828 1.248-.576 2.328-1.368 3.24-2.376.936-1.008 1.656-2.16 2.16-3.456.504-1.32.756-2.712.756-4.176 0-1.752-.372-3.324-1.116-4.716-.72-1.416-1.752-2.532-3.096-3.348-1.344-.84-2.916-1.26-4.716-1.26-1.296 0-2.496.228-3.6.684-1.104.432-2.064 1.044-2.88 1.836l.288-2.088h-2.736l-3.708 26.496zm11.304-9.468c-1.224 0-2.316-.288-3.276-.864-.936-.6-1.68-1.416-2.232-2.448s-.828-2.208-.828-3.528c0-1.416.312-2.724.936-3.924s1.488-2.16 2.592-2.88c1.128-.744 2.4-1.116 3.816-1.116 1.272 0 2.376.288 3.312.864.96.576 1.704 1.368 2.232 2.376.552 1.008.828 2.16.828 3.456 0 1.44-.324 2.772-.972 3.996s-1.524 2.208-2.628 2.952-2.364 1.116-3.78 1.116zm12.673 9.468h2.736l1.44-10.44c.696 1.152 1.68 2.052 2.952 2.7 1.296.648 2.712.972 4.248.972 1.464 0 2.808-.276 4.032-.828 1.248-.576 2.328-1.368 3.24-2.376.936-1.008 1.656-2.16 2.16-3.456.504-1.32.756-2.712.756-4.176 0-1.752-.372-3.324-1.116-4.716-.72-1.416-1.752-2.532-3.096-3.348-1.344-.84-2.916-1.26-4.716-1.26-1.296 0-2.496.228-3.6.684-1.104.432-2.064 1.044-2.88 1.836l.288-2.088h-2.736l-3.708 26.496zm11.304-9.468c-1.224 0-2.316-.288-3.276-.864-.936-.6-1.68-1.416-2.232-2.448s-.828-2.208-.828-3.528c0-1.416.312-2.724.936-3.924s1.488-2.16 2.592-2.88c1.128-.744 2.4-1.116 3.816-1.116 1.272 0 2.376.288 3.312.864.96.576 1.704 1.368 2.232 2.376.552 1.008.828 2.16.828 3.456 0 1.44-.324 2.772-.972 3.996s-1.524 2.208-2.628 2.952-2.364 1.116-3.78 1.116zM708.503 205h2.736l3.744-26.82h-2.736L708.503 205zm11.536-22.86h2.736l.54-3.96h-2.736l-.54 3.96zM716.835 205h2.736l2.7-19.296h-2.736l-2.7 19.296zm17.728.432c1.872 0 3.564-.456 5.076-1.368 1.536-.912 2.676-2.088 3.42-3.528l-2.376-1.404c-.576 1.08-1.38 1.956-2.412 2.628-1.032.648-2.196.972-3.492.972-1.176 0-2.232-.288-3.168-.864s-1.668-1.368-2.196-2.376-.792-2.16-.792-3.456c0-1.416.312-2.736.936-3.96s1.488-2.208 2.592-2.952c1.104-.768 2.364-1.152 3.78-1.152 1.272 0 2.376.324 3.312.972.936.624 1.608 1.452 2.016 2.484l2.484-1.188c-.552-1.488-1.536-2.688-2.952-3.6s-3.048-1.368-4.896-1.368c-1.896 0-3.612.48-5.148 1.44-1.536.936-2.76 2.22-3.672 3.852-.888 1.608-1.332 3.432-1.332 5.472 0 1.8.372 3.408 1.116 4.824s1.776 2.532 3.096 3.348c1.344.816 2.88 1.224 4.608 1.224zm18.379 0c1.32 0 2.556-.264 3.708-.792 1.176-.528 2.136-1.224 2.88-2.088l-.36 2.448h2.736l1.8-12.816c.192-1.368 0-2.568-.576-3.6-.552-1.032-1.368-1.836-2.448-2.412-1.08-.6-2.316-.9-3.708-.9-1.776 0-3.396.42-4.86 1.26-1.44.84-2.496 1.872-3.168 3.096l2.34 1.476c.552-.936 1.296-1.704 2.232-2.304.96-.624 2.052-.936 3.276-.936.792 0 1.524.156 2.196.468.696.288 1.236.744 1.62 1.368s.504 1.416.36 2.376l-.072.648-7.344 1.188c-2.112.336-3.768 1.056-4.968 2.16s-1.8 2.472-1.8 4.104c0 1.176.288 2.16.864 2.952.6.768 1.368 1.344 2.304 1.728s1.932.576 2.988.576zm-3.276-5.4c0-.96.384-1.764 1.152-2.412.792-.672 1.872-1.128 3.24-1.368l6.48-1.08-.18 1.404c-.144 1.176-.552 2.256-1.224 3.24-.672.96-1.512 1.728-2.52 2.304s-2.112.864-3.312.864c-1.104 0-1.992-.264-2.664-.792-.648-.552-.972-1.272-.972-2.16zm28.197 5.4c1.464 0 2.808-.276 4.032-.828 1.248-.576 2.328-1.368 3.24-2.376.936-1.008 1.656-2.16 2.16-3.456.504-1.32.756-2.712.756-4.176 0-1.752-.372-3.324-1.116-4.716-.72-1.416-1.752-2.532-3.096-3.348-1.344-.84-2.916-1.26-4.716-1.26-1.296 0-2.496.228-3.6.684-1.104.432-2.064 1.044-2.88 1.836l1.332-9.612h-2.736L767.495 205h2.736l.432-3.24c.696 1.152 1.68 2.052 2.952 2.7 1.296.648 2.712.972 4.248.972zm-.072-2.7c-1.224 0-2.316-.288-3.276-.864-.936-.6-1.68-1.416-2.232-2.448s-.828-2.208-.828-3.528c0-1.416.312-2.724.936-3.924s1.488-2.16 2.592-2.88c1.128-.744 2.4-1.116 3.816-1.116 1.272 0 2.376.288 3.312.864.96.576 1.704 1.368 2.232 2.376.552 1.008.828 2.16.828 3.456 0 1.44-.324 2.772-.972 3.996s-1.524 2.208-2.628 2.952-2.364 1.116-3.78 1.116zm13.68 2.268h2.736l3.744-26.82h-2.736L791.471 205zm17.872.432c1.296 0 2.496-.216 3.6-.648 1.128-.432 2.112-1.008 2.952-1.728.84-.744 1.488-1.548 1.944-2.412l-2.268-1.296c-.672 1.008-1.524 1.86-2.556 2.556-1.008.672-2.22 1.008-3.636 1.008-1.104 0-2.124-.252-3.06-.756s-1.692-1.224-2.268-2.16c-.576-.96-.864-2.076-.864-3.348v-.468h15.192l.18-1.08c.072-.456.108-.876.108-1.26 0-1.464-.324-2.844-.972-4.14-.648-1.32-1.596-2.388-2.844-3.204s-2.76-1.224-4.536-1.224c-1.44 0-2.76.288-3.96.864-1.2.552-2.256 1.332-3.168 2.34-.888.984-1.584 2.124-2.088 3.42-.48 1.296-.72 2.676-.72 4.14 0 1.824.384 3.444 1.152 4.86.792 1.416 1.86 2.532 3.204 3.348 1.344.792 2.88 1.188 4.608 1.188zm.936-17.64c1.104 0 2.088.264 2.952.792.888.504 1.56 1.2 2.016 2.088.48.888.672 1.884.576 2.988h-12.348c.408-1.8 1.176-3.228 2.304-4.284 1.152-1.056 2.652-1.584 4.5-1.584zm10.087 22.248h2.34c2.496-2.544 4.392-5.436 5.688-8.676 1.32-3.24 1.98-6.6 1.98-10.08 0-2.424-.36-4.752-1.08-6.984-.696-2.232-1.776-4.272-3.24-6.12h-2.34c1.248 2.016 2.184 4.152 2.808 6.408.624 2.232.936 4.512.936 6.84 0 3.192-.612 6.384-1.836 9.576-1.2 3.192-2.952 6.204-5.256 9.036zm13.771-5.04h2.88l.576-3.96h-2.88l-.576 3.96z"/><path d="M398.391 121.3h221.051v1.44H398.391v-1.44zm273.093 0H926v1.44H671.484v-1.44zm349.736 0h100.68v1.44h-100.68v-1.44zM0 166.3h204.673v1.44H0v-1.44z"/></svg>