<svg xmlns="http://www.w3.org/2000/svg" width="32" height="32" fill="none" xmlns:v="https://vecta.io/nano"><path d="M12.8 20.714v-9.429L21.114 16 12.8 20.714zM31.331 8.435a3.92 3.92 0 0 0-1.036-1.761c-.497-.488-1.115-.839-1.793-1.018C26.007 5 16 5 16 5S5.993 5 3.498 5.657c-.678.179-1.296.53-1.793 1.018A3.92 3.92 0 0 0 .669 8.435C0 10.886 0 16 0 16s0 5.114.669 7.564a3.92 3.92 0 0 0 1.036 1.761c.496.488 1.115.839 1.793 1.018C5.993 27 16 27 16 27s10.006 0 12.502-.657c.678-.179 1.296-.53 1.793-1.018a3.92 3.92 0 0 0 1.036-1.761C32 21.114 32 16 32 16s0-5.114-.669-7.565h0z" fill="#000111"/></svg>