<svg xmlns="http://www.w3.org/2000/svg" xmlns:xlink="http://www.w3.org/1999/xlink" width="1250" height="50" fill="none" xmlns:v="https://vecta.io/nano"><path opacity=".5" fill="#fff" d="M0 0h1250v50H0z"/><g opacity=".75" fill="#44374d"><path d="M8.1792 15.3374h1.59375l1.03125-5.3062H8.61045l-.43125 5.3062zm3.5062 0h1.5938l1.0312-5.3062h-2.2125l-.4125 5.3062zm9.3009 8.8875c.95 0 1.7938-.1875 2.5313-.5625.75-.3875 1.3437-.9062 1.7812-1.5562s.6563-1.375.6563-2.175c0-1.725-1.0125-2.9313-3.0375-3.6188l-2.3438-.8062c-.95-.3125-1.425-.85-1.425-1.6125 0-.5625.2125-1.0125.6375-1.35s.9813-.5063 1.6688-.5063c.7375 0 1.3625.1875 1.875.5625.525.375.8875.9 1.0875 1.575l2.175-.825c-.275-1.0625-.8625-1.9187-1.7625-2.5687s-2.0063-.97505-3.3188-.97505c-.9375 0-1.775.19375-2.5125.58125-.7375.375-1.325.8875-1.7625 1.5375-.425.65-.6375 1.3813-.6375 2.1938 0 1.775.9813 2.9875 2.9438 3.6375l2.475.825c.9125.2875 1.3687.7937 1.3687 1.5187 0 .5375-.2187.9875-.6562 1.35-.425.3625-1.0063.5438-1.7438.5438-.8 0-1.5-.2188-2.1-.6563-.6-.45-1.025-1.075-1.275-1.875l-2.1937.825c.1875.7875.5437 1.4813 1.0687 2.0813.525.5875 1.1688 1.0437 1.9313 1.3687.775.325 1.6312.4875 2.5687.4875zm9.7966 0c1.2125 0 2.2313-.375 3.0563-1.125l-.1313.9h2.3438l.9187-6.6375c.1125-.75 0-1.4062-.3375-1.9687-.3375-.575-.8312-1.0188-1.4812-1.3313-.6375-.325-1.3688-.4875-2.1938-.4875-1.025 0-1.9562.2375-2.7937.7125-.825.4625-1.4313 1.0938-1.8188 1.8938l1.9313 1.0875c.2375-.4625.575-.8438 1.0125-1.1438.45-.3.9562-.45 1.5187-.45.4875 0 .9063.1375 1.2563.4125.3625.2625.5125.65.45 1.1625l-.0375.2813-3.225.5062c-1.1125.175-2.0313.5438-2.7563 1.1063-.7125.5625-1.0687 1.3312-1.0687 2.3062 0 .9125.3125 1.6063.9375 2.0813.625.4625 1.4312.6937 2.4187.6937zm-.8062-2.925c0-.4.1562-.7125.4687-.9375.3125-.2375.7-.4 1.1625-.4875l2.6063-.45-.0563.375c-.0625.4625-.225.8875-.4875 1.275-.25.3875-.575.7-.975.9375-.4.225-.85.3375-1.35.3375-.4 0-.7312-.0875-.9937-.2625-.25-.175-.375-.4375-.375-.7875zm8.3635 2.7h2.475l.75-5.4937c.1375-.875.45-1.5313.9375-1.9688.4875-.45 1.075-.675 1.7625-.675h.8812l.3-2.175h-.6c-.625 0-1.1875.1125-1.6875.3375-.4875.2125-.9062.6-1.2562 1.1625l.1875-1.3875h-2.325l-1.425 10.2z"/><use xlink:href="#B"/><use xlink:href="#B" x="17.3218"/><path d="M81.5717 12.6562h2.4937l.3563-2.625h-2.475l-.375 2.625zm-1.575 11.3437h2.475l1.425-10.2h-2.475l-1.425 10.2zm10.0295.225c1.0375 0 1.9562-.225 2.7562-.675.8-.4625 1.3813-1.0625 1.7438-1.8l-1.95-1.0125c-.25.3875-.5875.7063-1.0125.9563-.4125.25-.9063.375-1.4813.375-.725 0-1.3125-.2125-1.7625-.6375-.45-.4375-.6937-1.05-.7312-1.8375h7.3687l.15-.7125c.0375-.2375.0563-.4688.0563-.6938 0-.85-.1813-1.625-.5438-2.325s-.8937-1.2562-1.5937-1.6687c-.6875-.4125-1.5375-.6188-2.55-.6188-.7625 0-1.475.15-2.1375.45-.65.2875-1.225.6938-1.725 1.2188-.4875.5125-.8688 1.1125-1.1438 1.8-.2625.6875-.3937 1.4187-.3937 2.1937 0 .9375.2 1.7813.6 2.5313.4125.75.9875 1.35 1.725 1.8.75.4375 1.625.6562 2.625.6562zm.4312-8.625c.65 0 1.1688.2 1.5563.6s.5812.9063.5812 1.5188h-4.8c.1875-.6375.4938-1.15.9188-1.5375.4375-.3875 1.0187-.5813 1.7437-.5813zm9.8306 8.625c.8 0 1.506-.1437 2.118-.4312.625-.3 1.113-.7 1.463-1.2s.525-1.0625.525-1.6875c0-.6625-.206-1.225-.619-1.6875-.4-.4625-.987-.8125-1.762-1.05l-1.575-.4875c-.288-.0875-.5378-.2063-.7503-.3563s-.3188-.3687-.3188-.6562c0-.325.1375-.5875.4125-.7875.2876-.2.6496-.3 1.0876-.3.5 0 .944.1312 1.331.3937s.644.6188.769 1.0688l1.931-.7688c-.225-.8375-.694-1.4937-1.406-1.9687-.7-.4875-1.544-.7313-2.531-.7313-.763 0-1.4441.15-2.0441.45-.6.2875-1.075.6813-1.425 1.1813s-.525 1.0687-.525 1.7062c0 .675.2 1.2563.6 1.7438.4.475.9813.8187 1.7438 1.0312l1.6313.4688c.262.0625.5.1687.712.3187s.319.3688.319.6563c0 .325-.137.6-.412.825s-.669.3375-1.182.3375c-.5746 0-1.0808-.1563-1.5183-.4688-.4375-.325-.7625-.7625-.975-1.3125l-1.8938.7688c.1375.5875.4063 1.1062.8063 1.5562.4125.4375.9187.7813 1.5187 1.0313.6.2375 1.2563.3562 1.9691.3562zm8.638-5.8125h2.063l.937-6.6h2.006l.244-1.7812h-6.131l-.244 1.7812h2.063l-.938 6.6zm4.725 0h2.063l.731-5.0812 1.969 3.1125h.3l2.85-3-.694 4.9687h2.044l1.162-8.3812h-2.006l-3.094 3.4687-2.25-3.4687h-1.912l-1.163 8.3812zm14.261-3.075h1.594l1.031-5.3062h-2.194l-.431 5.3062zm3.506 0h1.594l1.031-5.3062h-2.212l-.413 5.3062z"/><use xlink:href="#C"/><use xlink:href="#D"/><use xlink:href="#E"/><use xlink:href="#F"/><use xlink:href="#G"/><use xlink:href="#H"/><use xlink:href="#I"/><path d="M212.323 24.2249c.675 0 1.306-.1062 1.894-.3187.587-.225 1.099-.525 1.537-.9.437-.3875.775-.8125 1.013-1.275l-1.444-.7875c-.313.475-.719.875-1.219 1.2-.487.325-1.075.4875-1.762.4875-.55 0-1.05-.1188-1.5-.3563-.45-.25-.813-.6062-1.088-1.0687-.263-.4625-.394-1.0063-.394-1.6313v-.1125h7.744l.113-.6c.037-.25.056-.475.056-.675 0-.8-.175-1.5375-.525-2.2125-.35-.6875-.856-1.2437-1.519-1.6687s-1.469-.6375-2.419-.6375c-.75 0-1.45.15-2.1.45-.637.2875-1.193.6937-1.668 1.2187-.463.5125-.825 1.1063-1.088 1.7813s-.394 1.4-.394 2.175c0 .95.2 1.8.6 2.55.413.7375.975 1.3187 1.688 1.7437s1.537.6375 2.475.6375zm.469-9c.525 0 .987.1188 1.387.3563.413.2375.731.5625.956.975s.325.8812.3 1.4062h-5.906c.2-.825.569-1.4875 1.106-1.9875.55-.5 1.269-.75 2.157-.75z"/><use xlink:href="#J"/><use xlink:href="#E" x="80.127"/><use xlink:href="#G" x="69.397"/><path d="M253.293 23.9999h1.762l.431-3.075 2.025-1.8187 2.719 4.8937h1.95l-3.3-6.0375 4.463-4.0687h-2.382l-5.118 4.575 1.2-8.58755h-1.782l-1.968 14.11875zm17.784.225c.962 0 1.781-.2062 2.456-.6187s1.25-.8688 1.725-1.3688l1.481 1.7625h2.288l-2.644-3.15 2.794-3.75h-2.025l-1.894 2.3813-2.156-2.5688c.562-.325 1.075-.6812 1.537-1.0687s.832-.8313 1.107-1.3313c.287-.5.431-1.0687.431-1.7062 0-.5875-.138-1.1063-.413-1.5563-.262-.45-.631-.8-1.106-1.05-.462-.2625-1.006-.39375-1.631-.39375-.713 0-1.356.16875-1.931.50625-.563.3375-1.013.7875-1.35 1.35-.338.55-.507 1.1688-.507 1.8563 0 .625.131 1.1875.394 1.6875s.55.95.863 1.35c-.5.275-.994.6-1.482.975s-.9.8312-1.237 1.3687c-.325.5375-.488 1.1813-.488 1.9313 0 .7125.163 1.325.488 1.8375.337.5.787.8875 1.35 1.1625.575.2625 1.225.3937 1.95.3937zm-.075-10.8375c0-.55.187-1.0187.562-1.4062.388-.3875.863-.5813 1.425-.5813.438 0 .788.1375 1.05.4125.275.2625.413.6125.413 1.05 0 .4625-.181.925-.544 1.3875-.35.4625-.963.9375-1.838 1.425-.262-.325-.506-.6812-.731-1.0687s-.337-.7938-.337-1.2188zm-1.781 7.3875c0-.5.112-.925.337-1.275.225-.3625.513-.675.863-.9375.362-.275.737-.525 1.125-.75l2.587 3.0938c-.35.4375-.756.8312-1.219 1.1812-.45.3375-1.031.5063-1.743.5063-.575 0-1.044-.15-1.407-.45-.362-.3125-.543-.7688-.543-1.3688z"/><use xlink:href="#K"/><path d="M297.018 23.9999h1.781l.807-5.8312c.137-.9.45-1.5813.937-2.0438s1.088-.6937 1.8-.6937h.881l.244-1.65h-.619c-1.262 0-2.212.4312-2.85 1.2937l.169-1.1812h-1.725l-1.425 10.1062zm9.78.225c.663 0 1.275-.1187 1.838-.3562.575-.2375 1.062-.5688 1.462-.9938l-.15 1.125h1.725l.938-6.6562c.1-.725-.006-1.3625-.319-1.9125-.3-.55-.75-.9813-1.35-1.2938-.587-.3125-1.256-.4687-2.006-.4687-.963 0-1.838.225-2.625.675-.775.45-1.344 1.0187-1.706 1.7062l1.462.8813c.263-.475.631-.8688 1.106-1.1813.488-.3125 1.038-.4687 1.65-.4687.388 0 .744.075 1.069.225.325.1375.575.3562.75.6562.188.2875.25.6563.188 1.1063l-.038.3187-3.619.5813c-1.1.175-1.981.55-2.643 1.125-.65.5625-.975 1.2875-.975 2.175 0 .6125.15 1.125.45 1.5375.3.4.693.7062 1.181.9187.5.2 1.037.3 1.612.3zm-1.406-2.85c0-.4625.188-.85.563-1.1625s.881-.5187 1.518-.6187l3.113-.5438-.075.6188c-.075.5625-.275 1.0812-.6 1.5562-.313.4625-.713.8313-1.2 1.1063-.475.275-1.006.4125-1.594.4125-.512 0-.931-.1188-1.256-.3563-.313-.25-.469-.5875-.469-1.0125z"/><use xlink:href="#L"/><use xlink:href="#I" x="130.554"/><use xlink:href="#L" x="26.66"/><use xlink:href="#E" x="196.106"/><use xlink:href="#J" x="143.921"/><use xlink:href="#M"/><path d="M399.9 24.2249c.75 0 1.456-.1437 2.119-.4312.675-.2875 1.262-.6875 1.762-1.2.513-.525.913-1.125 1.2-1.8s.431-1.4.431-2.175c0-.9625-.218-1.8125-.656-2.55-.437-.75-1.031-1.3375-1.781-1.7625-.738-.425-1.575-.6375-2.513-.6375-.762 0-1.475.1437-2.137.4312s-1.25.6875-1.763 1.2c-.5.5-.893 1.0875-1.181 1.7625-.275.675-.412 1.4-.412 2.175 0 .975.218 1.8375.656 2.5875s1.031 1.3375 1.781 1.7625 1.581.6375 2.494.6375zm-.019-1.6875c-.587 0-1.112-.1375-1.575-.4125-.462-.2875-.825-.675-1.087-1.1625-.263-.5-.394-1.0625-.394-1.6875 0-.7125.162-1.3625.487-1.95.325-.6.763-1.075 1.313-1.425.55-.3625 1.162-.5437 1.837-.5437.6 0 1.132.1437 1.594.4312.475.275.844.6563 1.106 1.1438s.394 1.0437.394 1.6687c0 .7-.162 1.35-.487 1.95s-.769 1.0813-1.332 1.4438c-.55.3625-1.168.5437-1.856.5437zm7.831 1.4625h1.781l1.163-8.4375h2.4l.244-1.6687h-2.4l.075-.525c.1-.7375.362-1.25.787-1.5375s.944-.4313 1.556-.4313c.05 0 .144.0063.282.0188.137 0 .25.0125.337.0375l.113-1.5563c-.275-.0625-.6-.09375-.975-.09375-.613 0-1.194.13125-1.744.39375-.538.25-.994.6313-1.369 1.1438s-.619 1.1562-.731 1.9312l-.094.6188h-1.931l-.244 1.6687h1.931l-1.181 8.4375zm15.154.225c.95 0 1.794-.1875 2.531-.5625.75-.3875 1.344-.9062 1.782-1.5562s.656-1.375.656-2.175c0-1.725-1.013-2.9313-3.038-3.6188l-2.343-.8062c-.95-.3125-1.425-.85-1.425-1.6125 0-.5625.212-1.0125.637-1.35s.981-.5063 1.669-.5063c.737 0 1.362.1875 1.875.5625.525.375.887.9 1.087 1.575l2.175-.825c-.275-1.0625-.862-1.9187-1.762-2.5687s-2.006-.97505-3.319-.97505c-.937 0-1.775.19375-2.512.58125-.738.375-1.325.8875-1.763 1.5375-.425.65-.637 1.3813-.637 2.1938 0 1.775.981 2.9875 2.943 3.6375l2.475.825c.913.2875 1.369.7937 1.369 1.5187 0 .5375-.219.9875-.656 1.35-.425.3625-1.006.5438-1.744.5438-.8 0-1.5-.2188-2.1-.6563-.6-.45-1.025-1.075-1.275-1.875l-2.194.825c.188.7875.544 1.4813 1.069 2.0813.525.5875 1.169 1.0437 1.931 1.3687.775.325 1.632.4875 2.569.4875zm5.577-.225h2.887l1.425-3h5.381l.582 3h2.662l-2.869-13.9687h-3.3l-6.768 13.9687zm5.362-5.25l2.775-5.8312 1.125 5.8312h-3.9zm9.13 5.25h2.55l.731-5.1562h2.55l2.156 5.1562h2.738l-2.363-5.5125c.938-.3375 1.675-.8812 2.213-1.6312s.806-1.6313.806-2.6438c0-1.35-.406-2.3812-1.219-3.0937-.812-.725-1.881-1.0875-3.206-1.0875h-5.006l-1.95 13.9687zm3.6-7.4062l.581-4.3125h2.569c.637 0 1.137.175 1.5.525.375.3375.562.8.562 1.3875 0 .7-.231 1.275-.693 1.725s-1.063.675-1.8.675h-2.719zm8.943 7.4062h2.55l1.368-9.825 3.469 6.075h.3l5.156-5.8875-1.331 9.6375h2.55l1.95-13.9687h-2.512l-5.513 6.2062-3.6-6.2062h-2.437l-1.95 13.9687zm16.735 0h2.55l1.369-9.825 3.469 6.075h.3l5.156-5.8875-1.331 9.6375h2.55l1.95-13.9687h-2.513l-5.512 6.2062-3.6-6.2062h-2.438l-1.95 13.9687zm16.736 0h2.55l1.95-13.9687h-2.55l-1.95 13.9687zm5.255 0h9.3l.3-2.25h-6.731l.506-3.6375h6.375l.3-2.25h-6.356l.488-3.5812h6.75l.318-2.25h-9.3l-1.95 13.9687zm16.608.225c.95 0 1.794-.1875 2.531-.5625.75-.3875 1.344-.9062 1.781-1.5562s.657-1.375.657-2.175c0-1.725-1.013-2.9313-3.038-3.6188l-2.344-.8062c-.95-.3125-1.425-.85-1.425-1.6125 0-.5625.213-1.0125.638-1.35s.981-.5063 1.669-.5063c.737 0 1.362.1875 1.875.5625.525.375.887.9 1.087 1.575l2.175-.825c-.275-1.0625-.862-1.9187-1.762-2.5687s-2.007-.97505-3.319-.97505c-.938 0-1.775.19375-2.513.58125-.737.375-1.325.8875-1.762 1.5375-.425.65-.638 1.3813-.638 2.1938 0 1.775.982 2.9875 2.944 3.6375l2.475.825c.913.2875 1.369.7937 1.369 1.5187 0 .5375-.219.9875-.656 1.35-.425.3625-1.007.5438-1.744.5438-.8 0-1.5-.2188-2.1-.6563-.6-.45-1.025-1.075-1.275-1.875l-2.194.825c.188.7875.544 1.4813 1.069 2.0813.525.5875 1.169 1.0437 1.931 1.3687.775.325 1.631.4875 2.569.4875z"/><use xlink:href="#N"/><path d="M534.213 23.9999h2.55l1.294-9.3 5.343 9.3h2.007l1.95-13.9687h-2.55l-1.275 9.15-5.363-9.15h-2.006l-1.95 13.9687z"/><use xlink:href="#N" x="27.246"/><use xlink:href="#O"/><path d="M573.518 23.9999h2.587l.863-6.2062 5.756-7.7625h-3.094l-3.769 5.175-2.343-5.175h-2.757l3.619 7.7812-.862 6.1875zm11.309 0h2.55l1.631-11.7187h3.581l.3-2.25h-9.75l-.3 2.25h3.619l-1.631 11.7187zm7.668 0h2.55l1.95-13.9687h-2.55l-1.95 13.9687zm12.381.225c.987 0 1.887-.1625 2.7-.4875.812-.3375 1.506-.7812 2.081-1.3312.587-.55 1.025-1.1563 1.312-1.8188l-2.212-1.1437c-.325.7125-.825 1.3-1.5 1.7625-.663.4625-1.456.6937-2.381.6937-.8 0-1.5-.1812-2.1-.5437s-1.069-.875-1.407-1.5375c-.325-.6625-.487-1.4375-.487-2.325 0-1.025.206-1.9375.619-2.7375.425-.8125 1-1.45 1.725-1.9125.725-.475 1.543-.7125 2.456-.7125.9 0 1.637.225 2.212.675.588.4375.994 1.0125 1.219 1.725l2.344-1.0313c-.2-.6625-.556-1.2687-1.069-1.8187-.512-.5625-1.162-1.0125-1.95-1.35-.775-.35005-1.669-.52505-2.681-.52505-1.063 0-2.05.20005-2.963.60005-.9.4-1.687.9562-2.362 1.6687-.663.7-1.181 1.5125-1.556 2.4375-.363.925-.544 1.9188-.544 2.9813 0 1.325.281 2.4937.844 3.5062.575 1.0125 1.356 1.8063 2.343 2.3813.988.5625 2.107.8437 3.357.8437zm6.544-.225h2.887l1.426-3h5.381l.581 3h2.663l-2.869-13.9687h-3.3l-6.769 13.9687zm5.363-5.25l2.774-5.8312 1.125 5.8312h-3.899z"/><use xlink:href="#O" x="64.453"/><path d="M639.425 23.9999h8.532l.318-2.25h-5.981l1.631-11.7187h-2.55l-1.95 13.9687z"/><use xlink:href="#O" x="88.147"/><path d="M666.545 24.2249c.988 0 1.888-.1625 2.7-.4875.813-.3375 1.507-.7812 2.082-1.3312.587-.55 1.025-1.1563 1.312-1.8188l-2.212-1.1437c-.325.7125-.825 1.3-1.5 1.7625-.663.4625-1.457.6937-2.382.6937-.8 0-1.5-.1812-2.1-.5437s-1.068-.875-1.406-1.5375c-.325-.6625-.487-1.4375-.487-2.325 0-1.025.206-1.9375.618-2.7375.425-.8125 1-1.45 1.725-1.9125.725-.475 1.544-.7125 2.457-.7125.9 0 1.637.225 2.212.675.588.4375.994 1.0125 1.219 1.725l2.344-1.0313c-.2-.6625-.557-1.2687-1.069-1.8187-.513-.5625-1.163-1.0125-1.95-1.35-.775-.35005-1.669-.52505-2.681-.52505-1.063 0-2.05.20005-2.963.60005-.9.4-1.687.9562-2.362 1.6687-.663.7-1.182 1.5125-1.557 2.4375-.362.925-.543 1.9188-.543 2.9813 0 1.325.281 2.4937.843 3.5062.575 1.0125 1.357 1.8063 2.344 2.3813.988.5625 2.106.8437 3.356.8437z"/><use xlink:href="#H" x="493.579"/><use xlink:href="#P"/><path d="M704.142 24.2249c.637 0 1.237-.1125 1.8-.3375.575-.225 1.075-.55 1.5-.975l-.15 1.0875h1.725l1.95-13.9687h-1.781l-.75 5.3625c-.375-.5375-.869-.9563-1.482-1.2563-.6-.3125-1.3-.4687-2.1-.4687-1.025 0-1.943.25-2.756.75s-1.456 1.1812-1.931 2.0437-.713 1.8313-.713 2.9063c0 .9375.194 1.775.582 2.5125.4.725.95 1.3 1.65 1.725.712.4125 1.531.6187 2.456.6187zm.187-1.6875c-.587 0-1.112-.1375-1.575-.4125-.45-.275-.806-.6562-1.068-1.1437-.25-.4875-.375-1.0375-.375-1.65 0-.725.15-1.3875.45-1.9875.312-.6.737-1.0813 1.275-1.4438.55-.3625 1.175-.5437 1.875-.5437.6 0 1.131.1437 1.593.4312.463.275.825.6625 1.088 1.1625.262.4875.394 1.0438.394 1.6688 0 .7-.163 1.35-.488 1.95-.312.5875-.744 1.0625-1.294 1.425s-1.175.5437-1.875.5437zm10.609 1.4625h1.763l.825-5.9625c.112-.8125.431-1.4625.956-1.95.537-.4875 1.15-.7312 1.837-.7312.663 0 1.175.225 1.538.675s.494 1.0562.394 1.8187l-.863 6.15h1.763l.843-6.1312c.113-.775.438-1.3875.975-1.8375.55-.45 1.15-.675 1.8-.675.663 0 1.175.225 1.538.675s.487 1.0562.375 1.8187l-.844 6.15h1.763l.881-6.3562c.112-.775.037-1.4625-.225-2.0625s-.663-1.0688-1.2-1.4063c-.525-.3375-1.144-.5062-1.856-.5062-.663 0-1.3.15-1.913.45s-1.119.7562-1.519 1.3687c-.25-.5625-.637-1.0062-1.162-1.3312-.513-.325-1.113-.4875-1.8-.4875-.588 0-1.131.125-1.631.375-.488.2375-.913.5875-1.275 1.05l.168-1.2h-1.706l-1.425 10.1062z"/><use xlink:href="#H" x="548.181"/><use xlink:href="#Q"/><use xlink:href="#K" x="471.991"/><use xlink:href="#M" x="389.154"/><path d="M787.46 24.2249c.6 0 1.157-.1187 1.669-.3562.525-.25.963-.6 1.313-1.05l-.15 1.1812h1.706l1.406-10.1062h-1.744l-.843 5.9625c-.113.825-.438 1.4812-.976 1.9687-.537.475-1.168.7125-1.893.7125-.7 0-1.244-.225-1.631-.675-.375-.45-.513-1.0562-.413-1.8187l.881-6.15h-1.762l-.863 6.075c-.112.85-.05 1.6.188 2.25.25.6375.643 1.1312 1.181 1.4812s1.181.525 1.931.525z"/><use xlink:href="#D" x="651.709"/><use xlink:href="#M" x="424.42"/><path d="M820.817 24.2249c.637 0 1.237-.1125 1.8-.3375.575-.225 1.075-.55 1.5-.975l-.15 1.0875h1.725l1.95-13.9687h-1.782l-.75 5.3625c-.375-.5375-.868-.9563-1.481-1.2563-.6-.3125-1.3-.4687-2.1-.4687-1.025 0-1.944.25-2.756.75s-1.456 1.1812-1.931 2.0437-.713 1.8313-.713 2.9063c0 .9375.194 1.775.581 2.5125.4.725.95 1.3 1.65 1.725.713.4125 1.532.6187 2.457.6187zm.187-1.6875c-.587 0-1.112-.1375-1.575-.4125-.45-.275-.806-.6562-1.069-1.1437-.25-.4875-.375-1.0375-.375-1.65 0-.725.15-1.3875.45-1.9875.313-.6.738-1.0813 1.275-1.4438.55-.3625 1.175-.5437 1.875-.5437.6 0 1.132.1437 1.594.4312.463.275.825.6625 1.088 1.1625.262.4875.393 1.0438.393 1.6688 0 .7-.162 1.35-.487 1.95-.313.5875-.744 1.0625-1.294 1.425s-1.175.5437-1.875.5437z"/><use xlink:href="#C" x="693.109"/><use xlink:href="#P" x="147.821"/><use xlink:href="#F" x="677.124"/><path d="M859.271 24.2249c.675 0 1.306-.1062 1.894-.3187.587-.225 1.1-.525 1.537-.9.438-.3875.775-.8125 1.013-1.275l-1.444-.7875c-.313.475-.719.875-1.219 1.2-.487.325-1.075.4875-1.762.4875-.55 0-1.05-.1188-1.5-.3563-.45-.25-.813-.6062-1.088-1.0687-.262-.4625-.394-1.0063-.394-1.6313v-.1125h7.744l.113-.6c.037-.25.056-.475.056-.675 0-.8-.175-1.5375-.525-2.2125-.35-.6875-.856-1.2437-1.519-1.6687s-1.469-.6375-2.419-.6375c-.75 0-1.449.15-2.099.45-.638.2875-1.194.6937-1.669 1.2187-.463.5125-.825 1.1063-1.088 1.7813s-.394 1.4-.394 2.175c0 .95.201 1.8.601 2.55.412.7375.975 1.3187 1.687 1.7437s1.537.6375 2.475.6375zm.469-9c.525 0 .987.1188 1.387.3563.413.2375.731.5625.956.975s.325.8812.3 1.4062h-5.906c.2-.825.569-1.4875 1.106-1.9875.55-.5 1.269-.75 2.157-.75zm6.004 8.775h1.781l.806-5.8312c.138-.9.45-1.5813.938-2.0438s1.087-.6937 1.8-.6937h.881l.244-1.65h-.619c-1.263 0-2.213.4312-2.85 1.2937l.169-1.1812h-1.725l-1.425 10.1062zm11.599.225c1.025 0 1.943-.25 2.756-.75s1.412-1.1437 1.8-1.9312l-1.519-.8438c-.275.55-.669.9938-1.181 1.3313s-1.1.5062-1.763.5062c-.575 0-1.087-.1375-1.537-.4125-.438-.275-.788-.6562-1.05-1.1437-.25-.5-.375-1.0625-.375-1.6875 0-.7.15-1.3438.45-1.9313.3-.6.719-1.0812 1.256-1.4437.538-.375 1.15-.5625 1.838-.5625.637 0 1.181.1625 1.631.4875.462.325.794.75.994 1.275l1.593-.7125c-.275-.8125-.793-1.4688-1.556-1.9688-.762-.5125-1.65-.7687-2.662-.7687-.75 0-1.457.1437-2.119.4312-.65.2875-1.225.6875-1.725 1.2-.488.5125-.869 1.1125-1.144 1.8-.275.675-.412 1.4063-.412 2.1938 0 .95.2 1.8.6 2.55.4.7375.956 1.3187 1.668 1.7437s1.532.6375 2.457.6375zm6.492-.225h1.781l.825-5.9625c.112-.8125.437-1.4625.975-1.95.55-.4875 1.181-.7312 1.894-.7312.687 0 1.218.225 1.593.675s.513 1.0562.413 1.8187l-.863 6.15h1.781l.882-6.3c.112-.775.037-1.4625-.225-2.0625-.25-.6125-.644-1.0937-1.181-1.4437s-1.176-.525-1.913-.525c-.588 0-1.137.1187-1.65.3562-.512.225-.944.55-1.294.975l.694-4.9687h-1.762l-1.95 13.9687zm14.101.225c.662 0 1.275-.1187 1.837-.3562.575-.2375 1.063-.5688 1.463-.9938l-.15 1.125h1.725l.937-6.6562c.1-.725-.006-1.3625-.318-1.9125-.3-.55-.75-.9813-1.35-1.2938-.588-.3125-1.257-.4687-2.007-.4687-.962 0-1.837.225-2.625.675-.775.45-1.343 1.0187-1.706 1.7062l1.463.8813c.262-.475.631-.8688 1.106-1.1813.487-.3125 1.037-.4687 1.65-.4687.387 0 .744.075 1.069.225.325.1375.575.3562.75.6562.187.2875.25.6563.187 1.1063l-.037.3187-3.619.5813c-1.1.175-1.981.55-2.644 1.125-.65.5625-.975 1.2875-.975 2.175 0 .6125.15 1.125.45 1.5375.3.4.694.7062 1.181.9187.5.2 1.038.3 1.613.3zm-1.406-2.85c0-.4625.187-.85.562-1.1625s.881-.5187 1.519-.6187l3.113-.5438-.076.6188c-.075.5625-.275 1.0812-.6 1.5562-.312.4625-.712.8313-1.199 1.1063-.475.275-1.007.4125-1.594.4125-.513 0-.932-.1188-1.257-.3563-.312-.25-.468-.5875-.468-1.0125zm8.984 2.625h1.763l.825-5.9625c.125-.8125.456-1.4625.993-1.95s1.169-.7312 1.894-.7312c.7 0 1.238.225 1.613.675s.512 1.0562.412 1.8187l-.862 6.15h1.762l.881-6.3c.113-.775.038-1.4625-.225-2.0625-.25-.6125-.643-1.0937-1.181-1.4437s-1.175-.525-1.912-.525c-.6 0-1.163.1187-1.688.3562-.512.2375-.944.5875-1.294 1.05l.15-1.1812h-1.706l-1.425 10.1062zm15.283 4.125c.912 0 1.75-.1812 2.512-.5437s1.394-.875 1.894-1.5375c.5-.65.806-1.4063.919-2.2688l1.369-9.8812h-1.744l-.206 1.5c-.375-.5375-.869-.9563-1.482-1.2563-.6-.3125-1.287-.4687-2.062-.4687-1 0-1.9.2437-2.7.7312-.788.475-1.413 1.125-1.875 1.95-.463.8125-.694 1.7188-.694 2.7188 0 .925.206 1.7437.619 2.4562.412.7.962 1.25 1.65 1.65.7.3875 1.481.5813 2.344.5813.612 0 1.187-.1063 1.725-.3188.55-.2125 1.031-.5187 1.443-.9187l-.168 1.2c-.088.6-.3 1.1-.638 1.5s-.75.7-1.237.9c-.475.2125-.982.3187-1.519.3187-.8 0-1.425-.1562-1.875-.4687s-.744-.6938-.881-1.1438l-1.65.6c.212.7875.693 1.4313 1.443 1.9313.75.5125 1.688.7687 2.813.7687zm.731-6.0562c-.562 0-1.069-.1313-1.519-.3938-.437-.2625-.787-.625-1.05-1.0875-.25-.4625-.375-.9875-.375-1.575 0-.7.157-1.325.469-1.875.325-.55.75-.9812 1.275-1.2937.538-.325 1.125-.4875 1.763-.4875.6 0 1.118.1375 1.556.4125.45.2625.8.6312 1.05 1.1062.25.4625.375.9875.375 1.575 0 .6375-.163 1.2313-.488 1.7813-.312.55-.737.9937-1.275 1.3312-.525.3375-1.118.5063-1.781.5063zm12.322 2.1562c.675 0 1.306-.1062 1.894-.3187.587-.225 1.1-.525 1.537-.9.438-.3875.775-.8125 1.013-1.275l-1.444-.7875c-.313.475-.719.875-1.219 1.2-.487.325-1.075.4875-1.762.4875-.55 0-1.05-.1188-1.5-.3563-.45-.25-.813-.6062-1.088-1.0687-.262-.4625-.394-1.0063-.394-1.6313v-.1125h7.744l.113-.6c.037-.25.056-.475.056-.675 0-.8-.175-1.5375-.525-2.2125-.35-.6875-.856-1.2437-1.519-1.6687s-1.469-.6375-2.419-.6375c-.75 0-1.45.15-2.1.45-.637.2875-1.193.6937-1.668 1.2187-.463.5125-.825 1.1063-1.088 1.7813s-.394 1.4-.394 2.175c0 .95.2 1.8.6 2.55.413.7375.975 1.3187 1.688 1.7437s1.537.6375 2.475.6375zm.469-9c.525 0 .987.1188 1.387.3563.413.2375.731.5625.956.975s.325.8812.3 1.4062h-5.906c.2-.825.569-1.4875 1.106-1.9875.55-.5 1.269-.75 2.157-.75z"/><use xlink:href="#E" x="784.369"/><path d="M956.567 24.2249c.762 0 1.469-.1437 2.119-.4312.65-.3 1.218-.7125 1.706-1.2375s.862-1.125 1.125-1.8c.275-.6875.412-1.4125.412-2.175 0-.925-.2-1.7563-.6-2.4938-.387-.7375-.937-1.325-1.65-1.7625s-1.537-.6562-2.475-.6562c-.625 0-1.206.1-1.743.3s-1.013.4875-1.425.8625l.675-4.8h-1.782l-1.95 13.9687h1.744l.206-1.5187c.363.55.863.9812 1.5 1.2937.65.3 1.363.45 2.138.45zm-.113-1.6875c-.587 0-1.112-.1375-1.575-.4125-.462-.2875-.825-.6812-1.087-1.1812s-.394-1.0688-.394-1.7063c0-.7.15-1.3437.45-1.9312.313-.5875.738-1.0563 1.275-1.4063.538-.3625 1.156-.5437 1.856-.5437.613 0 1.15.1437 1.613.4312.462.275.825.6563 1.087 1.1438s.394 1.0437.394 1.6687c0 .7125-.156 1.3688-.469 1.9688-.312.5875-.743 1.0625-1.293 1.425-.538.3625-1.157.5437-1.857.5437zm7.05 1.4625h1.781l1.95-13.9687h-1.781l-1.95 13.9687z"/><use xlink:href="#Q" x="225.11"/><path d="M979.085 19.7437h14.437l.225-1.5938H979.31l-.225 1.5938zm21.725 4.4812c.68 0 1.31-.1062 1.9-.3187.58-.225 1.1-.525 1.53-.9.44-.3875.78-.8125 1.02-1.275l-1.45-.7875c-.31.475-.72.875-1.22 1.2-.48.325-1.07.4875-1.76.4875-.55 0-1.05-.1188-1.5-.3563-.45-.25-.812-.6062-1.087-1.0687-.263-.4625-.394-1.0063-.394-1.6313v-.1125h7.741l.12-.6.05-.675c0-.8-.17-1.5375-.52-2.2125-.35-.6875-.86-1.2437-1.52-1.6687s-1.47-.6375-2.42-.6375c-.75 0-1.451.15-2.101.45-.637.2875-1.194.6937-1.669 1.2187-.462.5125-.825 1.1063-1.087 1.7813s-.394 1.4-.394 2.175c0 .95.2 1.8.6 2.55.413.7375.975 1.3187 1.688 1.7437s1.537.6375 2.473.6375zm.47-9c.53 0 .99.1188 1.39.3563.41.2375.73.5625.95.975.23.4125.33.8812.3 1.4062h-5.902c.2-.825.569-1.4875 1.106-1.9875.55-.5 1.266-.75 2.156-.75zm7.65-2.9437h1.79l.3-2.25h-1.79l-.3 2.25zm-1.65 11.7187h1.79l1.4-10.1062h-1.76l-1.43 10.1062zm8.69.1125l.45-.0187.54-.0563.14-1.575c-.23.0375-.47.0563-.74.0563-.6 0-.99-.1438-1.18-.4313-.18-.3-.24-.7-.17-1.2l.75-5.325h2.24l.24-1.6687h-2.23l.32-2.325h-1.78l-.12.7875c-.05.45-.23.8187-.56 1.1062-.31.2875-.69.4313-1.14.4313h-.34l-.23 1.6687h1.82l-.73 5.2688c-.14 1.025.03 1.8312.49 2.4187.47.575 1.22.8625 2.23.8625zm3.29-.1125h1.78l.83-5.9625c.11-.8125.43-1.4625.97-1.95.55-.4875 1.18-.7312 1.89-.7312.69 0 1.22.225 1.6.675.37.45.51 1.0562.41 1.8187l-.86 6.15h1.78l.88-6.3c.11-.775.04-1.4625-.22-2.0625-.25-.6125-.65-1.0937-1.19-1.4437-.53-.35-1.17-.525-1.91-.525-.59 0-1.14.1187-1.65.3562-.51.225-.94.55-1.29.975l.69-4.9687h-1.76l-1.95 13.9687zm15.96.225c.67 0 1.3-.1062 1.89-.3187.59-.225 1.1-.525 1.54-.9.44-.3875.77-.8125 1.01-1.275l-1.44-.7875c-.32.475-.72.875-1.22 1.2-.49.325-1.08.4875-1.76.4875-.55 0-1.05-.1188-1.5-.3563-.45-.25-.82-.6062-1.09-1.0687-.26-.4625-.4-1.0063-.4-1.6313v-.1125h7.75c.04-.1625.07-.3625.11-.6.04-.25.06-.475.06-.675 0-.8-.18-1.5375-.53-2.2125-.35-.6875-.85-1.2437-1.52-1.6687-.66-.425-1.47-.6375-2.42-.6375-.75 0-1.45.15-2.1.45-.63.2875-1.19.6937-1.66 1.2187-.47.5125-.83 1.1063-1.09 1.7813s-.4 1.4-.4 2.175c0 .95.2 1.8.6 2.55.42.7375.98 1.3187 1.69 1.7437s1.54.6375 2.48.6375zm.47-9c.52 0 .98.1188 1.38.3563.42.2375.73.5625.96.975.22.4125.32.8812.3 1.4062h-5.91c.2-.825.57-1.4875 1.11-1.9875.55-.5 1.27-.75 2.16-.75zm6 8.775h1.78l.81-5.8312c.13-.9.45-1.5813.93-2.0438.49-.4625 1.09-.6937 1.8-.6937h.89l.24-1.65h-.62c-1.26 0-2.21.4312-2.85 1.2937l.17-1.1812h-1.73l-1.42 10.1062z"/><use xlink:href="#R"/><path d="M1059.76 24.2249c.75 0 1.42-.1375 2.01-.4125.58-.2875 1.05-.6687 1.38-1.1437.34-.475.51-1.0063.51-1.5938 0-.6375-.21-1.1812-.62-1.6312-.4-.4625-.98-.8063-1.74-1.0313l-1.6-.4875c-.41-.125-.72-.2875-.93-.4875-.2-.2-.3-.4625-.3-.7875 0-.425.17-.775.52-1.05.36-.275.82-.4125 1.37-.4125s1.02.1438 1.42.4313c.42.2875.71.7.89 1.2375l1.46-.5813c-.2-.7875-.64-1.4187-1.31-1.8937s-1.46-.7125-2.39-.7125c-.7 0-1.33.1437-1.91.4312-.56.275-1.01.6563-1.35 1.1438-.32.475-.49 1.0125-.49 1.6125 0 .6375.2 1.1875.6 1.65.42.45 1 .7812 1.77.9937l1.48.4125c.44.125.77.2875.99.4875.24.2.36.4625.36.7875 0 .4375-.19.8063-.56 1.1063-.37.2875-.85.4312-1.45.4312-.64 0-1.2-.1687-1.69-.5062-.47-.3375-.81-.8-1.03-1.3875l-1.44.5812c.22.8375.71 1.5188 1.44 2.0438.75.5125 1.62.7687 2.61.7687z"/><use xlink:href="#S"/><path d="M1078.26 24.2249c.64 0 1.24-.1125 1.8-.3375.58-.225 1.08-.55 1.5-.975l-.15 1.0875h1.73l1.95-13.9687h-1.78l-.75 5.3625c-.38-.5375-.87-.9563-1.48-1.2563-.6-.3125-1.3-.4687-2.1-.4687-1.03 0-1.95.25-2.76.75s-1.46 1.1812-1.93 2.0437c-.48.8625-.71 1.8313-.71 2.9063 0 .9375.19 1.775.58 2.5125.4.725.95 1.3 1.65 1.725.71.4125 1.53.6187 2.45.6187zm.19-1.6875c-.59 0-1.11-.1375-1.57-.4125-.45-.275-.81-.6562-1.07-1.1437-.25-.4875-.38-1.0375-.38-1.65 0-.725.15-1.3875.45-1.9875.31-.6.74-1.0813 1.28-1.4438.55-.3625 1.17-.5437 1.87-.5437.6 0 1.13.1437 1.6.4312.46.275.82.6625 1.08 1.1625.27.4875.4 1.0438.4 1.6688 0 .7-.17 1.35-.49 1.95-.31.5875-.74 1.0625-1.29 1.425s-1.18.5437-1.88.5437zm12.45 1.6875c.67 0 1.31-.1062 1.89-.3187.59-.225 1.1-.525 1.54-.9.44-.3875.78-.8125 1.01-1.275l-1.44-.7875c-.31.475-.72.875-1.22 1.2-.49.325-1.07.4875-1.76.4875-.55 0-1.05-.1188-1.5-.3563-.45-.25-.81-.6062-1.09-1.0687-.26-.4625-.39-1.0063-.39-1.6313v-.1125h7.74c.04-.1625.08-.3625.11-.6.04-.25.06-.475.06-.675 0-.8-.18-1.5375-.53-2.2125-.35-.6875-.85-1.2437-1.51-1.6687-.67-.425-1.47-.6375-2.42-.6375-.75 0-1.45.15-2.1.45-.64.2875-1.2.6937-1.67 1.2187-.46.5125-.83 1.1063-1.09 1.7813s-.39 1.4-.39 2.175c0 .95.2 1.8.6 2.55.41.7375.97 1.3187 1.68 1.7437.72.425 1.54.6375 2.48.6375zm.47-9c.52 0 .99.1188 1.39.3563.41.2375.73.5625.95.975.23.4125.33.8812.3 1.4062h-5.9c.2-.825.56-1.4875 1.1-1.9875.55-.5 1.27-.75 2.16-.75zm6 8.775h1.76l.83-5.9625c.12-.8125.46-1.4625.99-1.95.54-.4875 1.17-.7312 1.9-.7312.7 0 1.23.225 1.61.675.37.45.51 1.0562.41 1.8187l-.86 6.15h1.76l.88-6.3c.12-.775.04-1.4625-.22-2.0625-.25-.6125-.65-1.0937-1.18-1.4437-.54-.35-1.18-.525-1.92-.525-.6 0-1.16.1187-1.68.3562s-.95.5875-1.3 1.05l.15-1.1812h-1.7l-1.43 10.1062zm15.08.1125l.45-.0187.54-.0563.13-1.575c-.22.0375-.47.0563-.73.0563-.6 0-.99-.1438-1.18-.4313-.19-.3-.24-.7-.17-1.2l.75-5.325h2.23l.25-1.6687h-2.23l.31-2.325h-1.78l-.11.7875c-.05.45-.24.8187-.56 1.1062-.31.2875-.7.4313-1.15.4313h-.33l-.23 1.6687h1.82l-.73 5.2688c-.14 1.025.02 1.8312.49 2.4187.47.575 1.22.8625 2.23.8625z"/><use xlink:href="#S" x="46.95"/><path d="M1125.27 24.2249c1.02 0 1.94-.25 2.75-.75.82-.5 1.42-1.1437 1.8-1.9312l-1.52-.8438c-.27.55-.66.9938-1.18 1.3313-.51.3375-1.1.5062-1.76.5062-.57 0-1.09-.1375-1.54-.4125-.43-.275-.78-.6562-1.05-1.1437-.25-.5-.37-1.0625-.37-1.6875 0-.7.15-1.3438.45-1.9313.3-.6.72-1.0812 1.25-1.4437.54-.375 1.15-.5625 1.84-.5625.64 0 1.18.1625 1.63.4875.47.325.8.75 1 1.275l1.59-.7125c-.27-.8125-.79-1.4688-1.56-1.9688-.76-.5125-1.65-.7687-2.66-.7687-.75 0-1.45.1437-2.12.4312-.65.2875-1.22.6875-1.72 1.2-.49.5125-.87 1.1125-1.15 1.8-.27.675-.41 1.4063-.41 2.1938 0 .95.2 1.8.6 2.55.4.7375.96 1.3187 1.67 1.7437s1.53.6375 2.46.6375zm9.53 0c.66 0 1.28-.1187 1.84-.3562.57-.2375 1.06-.5688 1.46-.9938l-.15 1.125h1.73l.93-6.6562c.1-.725 0-1.3625-.32-1.9125-.3-.55-.75-.9813-1.35-1.2938-.58-.3125-1.25-.4687-2-.4687-.96 0-1.84.225-2.63.675-.77.45-1.34 1.0187-1.7 1.7062l1.46.8813c.26-.475.63-.8688 1.11-1.1813s1.03-.4687 1.65-.4687c.38 0 .74.075 1.07.225.32.1375.57.3562.75.6562.18.2875.25.6563.18 1.1063l-.04.3187-3.61.5813c-1.1.175-1.99.55-2.65 1.125-.65.5625-.97 1.2875-.97 2.175 0 .6125.15 1.125.45 1.5375.3.4.69.7062 1.18.9187.5.2 1.04.3 1.61.3zm-1.4-2.85c0-.4625.18-.85.56-1.1625.37-.3125.88-.5187 1.52-.6187l3.11-.5438-.08.6188c-.07.5625-.27 1.0812-.6 1.5562-.31.4625-.71.8313-1.2 1.1063-.47.275-1 .4125-1.59.4125-.51 0-.93-.1188-1.26-.3563-.31-.25-.46-.5875-.46-1.0125zm8.98 2.625h1.78l1.95-13.9687h-1.78l-1.95 13.9687z"/><use xlink:href="#R" x="98.62"/><path d="M1154.59 23.9999h1.77l.82-5.9625c.13-.8125.46-1.4625.99-1.95.54-.4875 1.17-.7312 1.9-.7312.7 0 1.24.225 1.61.675.38.45.51 1.0562.41 1.8187l-.86 6.15h1.76l.88-6.3c.12-.775.04-1.4625-.22-2.0625-.25-.6125-.64-1.0937-1.18-1.4437s-1.18-.525-1.91-.525c-.6 0-1.17.1187-1.69.3562-.51.2375-.95.5875-1.3 1.05l.15-1.1812h-1.7l-1.43 10.1062zm19.16.225c1.03 0 1.95-.25 2.76-.75s1.41-1.1437 1.8-1.9312l-1.52-.8438c-.27.55-.67.9938-1.18 1.3313s-1.1.5062-1.76.5062c-.58 0-1.09-.1375-1.54-.4125-.44-.275-.79-.6562-1.05-1.1437-.25-.5-.37-1.0625-.37-1.6875 0-.7.14-1.3438.44-1.9313.3-.6.72-1.0812 1.26-1.4437.54-.375 1.15-.5625 1.84-.5625.64 0 1.18.1625 1.63.4875.46.325.79.75.99 1.275l1.6-.7125c-.28-.8125-.8-1.4688-1.56-1.9688-.76-.5125-1.65-.7687-2.66-.7687-.75 0-1.46.1437-2.12.4312-.65.2875-1.23.6875-1.73 1.2-.48.5125-.86 1.1125-1.14 1.8-.27.675-.41 1.4063-.41 2.1938 0 .95.2 1.8.6 2.55.4.7375.95 1.3187 1.67 1.7437.71.425 1.53.6375 2.45.6375zm11.75 0c.75 0 1.45-.1437 2.11-.4312.68-.2875 1.27-.6875 1.77-1.2.51-.525.91-1.125 1.2-1.8.28-.675.43-1.4.43-2.175 0-.9625-.22-1.8125-.66-2.55-.44-.75-1.03-1.3375-1.78-1.7625-.74-.425-1.57-.6375-2.51-.6375-.76 0-1.48.1437-2.14.4312s-1.25.6875-1.76 1.2c-.5.5-.9 1.0875-1.18 1.7625s-.42 1.4-.42 2.175c0 .975.22 1.8375.66 2.5875s1.03 1.3375 1.78 1.7625 1.58.6375 2.5.6375zm-.02-1.6875c-.59 0-1.12-.1375-1.58-.4125-.46-.2875-.82-.675-1.09-1.1625-.26-.5-.39-1.0625-.39-1.6875 0-.7125.16-1.3625.49-1.95.32-.6.76-1.075 1.31-1.425.55-.3625 1.16-.5437 1.84-.5437.6 0 1.13.1437 1.59.4312.48.275.85.6563 1.11 1.1438s.39 1.0437.39 1.6687c0 .7-.16 1.35-.49 1.95-.32.6-.76 1.0813-1.33 1.4438-.55.3625-1.17.5437-1.85.5437zm7.09 1.4625h1.76l.83-5.9625c.12-.8125.45-1.4625.99-1.95s1.17-.7312 1.89-.7312c.7 0 1.24.225 1.62.675.37.45.51 1.0562.41 1.8187l-.86 6.15h1.76l.88-6.3c.11-.775.04-1.4625-.23-2.0625-.25-.6125-.64-1.0937-1.18-1.4437-.53-.35-1.17-.525-1.91-.525-.6 0-1.16.1187-1.69.3562-.51.2375-.94.5875-1.29 1.05l.15-1.1812h-1.71l-1.42 10.1062zm15.08.1125l.45-.0187.54-.0563.13-1.575c-.22.0375-.47.0563-.73.0563-.6 0-.99-.1438-1.18-.4313-.19-.3-.25-.7-.17-1.2l.75-5.325h2.23l.24-1.6687h-2.23l.32-2.325h-1.78l-.11.7875c-.05.45-.24.8187-.56 1.1062s-.7.4313-1.15.4313h-.34l-.22 1.6687h1.82l-.73 5.2688c-.14 1.025.02 1.8312.48 2.4187.48.575 1.22.8625 2.24.8625zm8.09.1125c.68 0 1.31-.1062 1.89-.3187.59-.225 1.1-.525 1.54-.9.44-.3875.78-.8125 1.01-1.275l-1.44-.7875c-.31.475-.72.875-1.22 1.2-.49.325-1.07.4875-1.76.4875-.55 0-1.05-.1188-1.5-.3563-.45-.25-.81-.6062-1.09-1.0687-.26-.4625-.39-1.0063-.39-1.6313v-.1125h7.74c.04-.1625.08-.3625.11-.6.04-.25.06-.475.06-.675 0-.8-.17-1.5375-.52-2.2125-.35-.6875-.86-1.2437-1.52-1.6687-.67-.425-1.47-.6375-2.42-.6375-.75 0-1.45.15-2.1.45-.64.2875-1.2.6937-1.67 1.2187-.46.5125-.83 1.1063-1.09 1.7813s-.39 1.4-.39 2.175c0 .95.2 1.8.6 2.55.41.7375.97 1.3187 1.69 1.7437.71.425 1.53.6375 2.47.6375zm.47-9c.52 0 .99.1188 1.39.3563.41.2375.73.5625.95.975.23.4125.33.8812.3 1.4062h-5.9c.2-.825.57-1.4875 1.1-1.9875.55-.5 1.27-.75 2.16-.75zm4.68 8.775h2.19l3-3.6562 2.01 3.6562h1.97l-2.78-5.0062 4.24-5.1h-2.23l-2.93 3.5812-1.95-3.5812h-1.97l2.74 4.9687-4.29 5.1375zm14.95.1125l.45-.0187.55-.0563.13-1.575c-.23.0375-.47.0563-.73.0563-.6 0-1-.1438-1.18-.4313-.19-.3-.25-.7-.17-1.2l.75-5.325h2.23l.24-1.6687h-2.23l.32-2.325h-1.78l-.11.7875c-.05.45-.24.8187-.57 1.1062-.31.2875-.69.4313-1.14.4313h-.34l-.22 1.6687h1.82l-.74 5.2688c-.13 1.025.03 1.8312.49 2.4187.48.575 1.22.8625 2.23.8625zm4-.1125h1.82l.34-2.25h-1.84l-.32 2.25z"/><path opacity=".5" d="M6 47h1238v2H6z"/></g><defs ><path id="B" d="M45.3531 23.9999h2.4563l.825-5.9812c.1-.6625.3562-1.1938.7687-1.5938.425-.4.9375-.6 1.5375-.6.5875 0 1.0313.1938 1.3313.5813s.4062.9062.3187 1.5562l-.8437 6.0375h2.4562l.8438-6.0375c.1-.65.3625-1.1687.7875-1.5562s.925-.5813 1.5-.5813c.5875 0 1.0312.1938 1.3312.5813.3125.3875.4188.9062.3188 1.5562l-.8438 6.0375h2.475l.8813-6.45c.1125-.775.0375-1.4625-.225-2.0625-.25-.6-.6438-1.0687-1.1813-1.4062s-1.175-.5063-1.9125-.5063c-.675 0-1.3062.1313-1.8937.3938-.5875.25-1.1.65-1.5375 1.2-.275-.5-.6688-.8875-1.1813-1.1625-.5125-.2875-1.1062-.4313-1.7812-.4313-.6 0-1.1438.1125-1.6313.3375s-.9.5875-1.2375 1.0875l.1688-1.2h-2.3063l-1.425 10.2z"/><path id="C" d="M140.154 12.2812h1.781l.3-2.25h-1.781l-.3 2.25zm-1.65 11.7187h1.781l1.406-10.1062h-1.762l-1.425 10.1062z"/><path id="D" d="M146.777 24.2249c.75 0 1.419-.1375 2.007-.4125.587-.2875 1.05-.6687 1.387-1.1437s.506-1.0063.506-1.5938c0-.6375-.206-1.1812-.618-1.6312-.4-.4625-.982-.8063-1.744-1.0313l-1.594-.4875c-.412-.125-.725-.2875-.937-.4875-.2-.2-.3-.4625-.3-.7875 0-.425.175-.775.525-1.05.362-.275.818-.4125 1.368-.4125s1.025.1438 1.425.4313c.413.2875.707.7.882 1.2375l1.462-.5813c-.2-.7875-.637-1.4187-1.312-1.8937-.663-.475-1.457-.7125-2.382-.7125-.7 0-1.337.1437-1.912.4312-.563.275-1.013.6563-1.35 1.1438-.325.475-.488 1.0125-.488 1.6125 0 .6375.2 1.1875.6 1.65.413.45 1 .7812 1.763.9937l1.481.4125c.438.125.769.2875.994.4875.237.2.356.4625.356.7875 0 .4375-.187.8063-.562 1.1063-.363.2875-.844.4312-1.444.4312-.638 0-1.2-.1687-1.688-.5062-.475-.3375-.818-.8-1.031-1.3875l-1.444.5812c.225.8375.707 1.5188 1.444 2.0438.75.5125 1.619.7687 2.606.7687z"/><path id="E" d="M159.032 24.2249c.663 0 1.275-.1187 1.838-.3562.575-.2375 1.062-.5688 1.462-.9938l-.15 1.125h1.725l.938-6.6562c.1-.725-.007-1.3625-.319-1.9125-.3-.55-.75-.9813-1.35-1.2938-.588-.3125-1.256-.4687-2.006-.4687-.963 0-1.838.225-2.625.675-.775.45-1.344 1.0187-1.707 1.7062l1.463.8813c.262-.475.631-.8688 1.106-1.1813.488-.3125 1.038-.4687 1.65-.4687.388 0 .744.075 1.069.225.325.1375.575.3562.75.6562.187.2875.25.6563.187 1.1063l-.037.3187-3.619.5813c-1.1.175-1.981.55-2.644 1.125-.65.5625-.975 1.2875-.975 2.175 0 .6125.15 1.125.45 1.5375.3.4.694.7062 1.182.9187.5.2 1.037.3 1.612.3zm-1.406-2.85c0-.4625.187-.85.562-1.1625s.882-.5187 1.519-.6187l3.113-.5438-.075.6188c-.075.5625-.275 1.0812-.6 1.5562-.313.4625-.713.8313-1.2 1.1063-.475.275-1.007.4125-1.594.4125-.513 0-.931-.1188-1.256-.3563-.313-.25-.469-.5875-.469-1.0125z"/><path id="F" d="M174.051 24.1124l.45-.0187.544-.0563.131-1.575c-.225.0375-.468.0563-.731.0563-.6 0-.994-.1438-1.181-.4313-.188-.3-.244-.7-.169-1.2l.75-5.325h2.231l.244-1.6687h-2.231l.319-2.325h-1.782l-.112.7875c-.05.45-.238.8187-.563 1.1062-.312.2875-.693.4313-1.143.4313h-.338l-.225 1.6687h1.819l-.731 5.2688c-.138 1.025.025 1.8312.487 2.4187.475.575 1.219.8625 2.231.8625z"/><path id="G" d="M177.34 23.9999h1.782l.806-5.8312c.137-.9.45-1.5813.937-2.0438s1.088-.6937 1.8-.6937h.882l.243-1.65h-.618c-1.263 0-2.213.4312-2.85 1.2937l.168-1.1812h-1.725l-1.425 10.1062z"/><path id="H" d="M187.121 24.2249c.662 0 1.275-.1187 1.837-.3562.575-.2375 1.063-.5688 1.463-.9938l-.15 1.125h1.725l.937-6.6562c.1-.725-.006-1.3625-.319-1.9125-.3-.55-.75-.9813-1.35-1.2938-.587-.3125-1.256-.4687-2.006-.4687-.962 0-1.837.225-2.625.675-.775.45-1.344 1.0187-1.706 1.7062l1.462.8813c.263-.475.632-.8688 1.107-1.1813.487-.3125 1.037-.4687 1.65-.4687.387 0 .743.075 1.068.225.325.1375.575.3562.75.6562.188.2875.25.6563.188 1.1063l-.038.3187-3.618.5813c-1.1.175-1.982.55-2.644 1.125-.65.5625-.975 1.2875-.975 2.175 0 .6125.15 1.125.45 1.5375.3.4.694.7062 1.181.9187.5.2 1.038.3 1.613.3zm-1.407-2.85c0-.4625.188-.85.563-1.1625s.881-.5187 1.519-.6187l3.112-.5438-.075.6188c-.075.5625-.275 1.0812-.6 1.5562-.312.4625-.712.8313-1.2 1.1063-.475.275-1.006.4125-1.594.4125-.512 0-.931-.1188-1.256-.3563-.312-.25-.469-.5875-.469-1.0125z"/><path id="I" d="M199.686 24.2249c.638 0 1.238-.1125 1.8-.3375.575-.225 1.075-.55 1.5-.975l-.15 1.0875h1.725l1.95-13.9687h-1.781l-.75 5.3625c-.375-.5375-.869-.9563-1.481-1.2563-.6-.3125-1.3-.4687-2.1-.4687-1.025 0-1.944.25-2.756.75s-1.457 1.1812-1.932 2.0437-.712 1.8313-.712 2.9063c0 .9375.194 1.775.581 2.5125.4.725.95 1.3 1.65 1.725.713.4125 1.531.6187 2.456.6187zm.188-1.6875c-.588 0-1.113-.1375-1.575-.4125-.45-.275-.806-.6562-1.069-1.1437-.25-.4875-.375-1.0375-.375-1.65 0-.725.15-1.3875.45-1.9875.313-.6.738-1.0813 1.275-1.4438.55-.3625 1.175-.5437 1.875-.5437.6 0 1.131.1437 1.594.4312.462.275.825.6625 1.087 1.1625.263.4875.394 1.0438.394 1.6688 0 .7-.162 1.35-.487 1.95-.313.5875-.744 1.0625-1.294 1.425s-1.175.5437-1.875.5437z"/><path id="J" d="M218.795 23.9999h1.763l.825-5.9625c.112-.8125.431-1.4625.956-1.95.538-.4875 1.15-.7312 1.838-.7312.662 0 1.175.225 1.537.675s.494 1.0562.394 1.8187l-.863 6.15h1.763l.844-6.1312c.112-.775.437-1.3875.975-1.8375.55-.45 1.15-.675 1.8-.675.662 0 1.175.225 1.537.675s.488 1.0562.375 1.8187l-.844 6.15h1.763l.881-6.3562c.113-.775.038-1.4625-.225-2.0625s-.662-1.0688-1.2-1.4063c-.525-.3375-1.144-.5062-1.856-.5062-.663 0-1.3.15-1.913.45s-1.118.7562-1.518 1.3687c-.25-.5625-.638-1.0062-1.163-1.3312-.512-.325-1.112-.4875-1.8-.4875-.587 0-1.131.125-1.631.375-.488.2375-.913.5875-1.275 1.05l.169-1.2h-1.707l-1.425 10.1062z"/><path id="K" d="M290.081 24.2249c.763 0 1.469-.1437 2.119-.4312.65-.3 1.219-.7125 1.706-1.2375s.863-1.125 1.125-1.8c.275-.6875.413-1.4125.413-2.175 0-.925-.2-1.7563-.6-2.4938-.388-.7375-.938-1.325-1.65-1.7625s-1.538-.6562-2.475-.6562c-.625 0-1.207.1-1.744.3s-1.013.4875-1.425.8625l.675-4.8h-1.781l-1.95 13.9687h1.743l.207-1.5187c.362.55.862.9812 1.5 1.2937.65.3 1.362.45 2.137.45zm-.112-1.6875c-.588 0-1.113-.1375-1.575-.4125-.463-.2875-.825-.6812-1.088-1.1812s-.394-1.0688-.394-1.7063c0-.7.15-1.3437.45-1.9312.313-.5875.738-1.0563 1.275-1.4063.538-.3625 1.157-.5437 1.857-.5437.612 0 1.15.1437 1.612.4312.463.275.825.6563 1.088 1.1438s.393 1.0437.393 1.6687c0 .7125-.156 1.3688-.468 1.9688-.313.5875-.744 1.0625-1.294 1.425-.538.3625-1.156.5437-1.856.5437z"/><path id="L" d="M314.377 23.9999h1.762l.825-5.9625c.125-.8125.456-1.4625.994-1.95s1.169-.7312 1.894-.7312c.7 0 1.237.225 1.612.675s.513 1.0562.413 1.8187l-.863 6.15h1.763l.881-6.3c.112-.775.037-1.4625-.225-2.0625-.25-.6125-.644-1.0937-1.181-1.4437s-1.175-.525-1.913-.525c-.6 0-1.162.1187-1.687.3562-.513.2375-.944.5875-1.294 1.05l.15-1.1812h-1.706l-1.425 10.1062z"/><path id="M" d="M384.936 24.2249c.675 0 1.307-.1062 1.894-.3187.588-.225 1.1-.525 1.538-.9.437-.3875.775-.8125 1.012-1.275l-1.444-.7875c-.312.475-.718.875-1.218 1.2-.488.325-1.075.4875-1.763.4875-.55 0-1.05-.1188-1.5-.3563-.45-.25-.812-.6062-1.087-1.0687-.263-.4625-.394-1.0063-.394-1.6313v-.1125h7.744l.112-.6c.038-.25.056-.475.056-.675 0-.8-.175-1.5375-.525-2.2125-.35-.6875-.856-1.2437-1.518-1.6687s-1.469-.6375-2.419-.6375c-.75 0-1.45.15-2.1.45-.638.2875-1.194.6937-1.669 1.2187-.462.5125-.825 1.1063-1.087 1.7813s-.394 1.4-.394 2.175c0 .95.2 1.8.6 2.55.412.7375.975 1.3187 1.687 1.7437s1.538.6375 2.475.6375zm.469-9c.525 0 .988.1188 1.388.3563.412.2375.731.5625.956.975s.325.8812.3 1.4062h-5.906c.2-.825.568-1.4875 1.106-1.9875.55-.5 1.269-.75 2.156-.75z"/><path id="N" d="M519.721 23.9999h2.887l1.425-3h5.382l.581 3h2.662l-2.868-13.9687h-3.3l-6.769 13.9687zm5.362-5.25l2.775-5.8312 1.125 5.8312h-3.9z"/><path id="O" d="M561.459 23.9999h8.531l.319-2.25h-5.981l1.631-11.7187h-2.55l-1.95 13.9687z"/><path id="P" d="M688.278 23.9999h1.762l.825-5.9625c.125-.8125.457-1.4625.994-1.95s1.169-.7312 1.894-.7312c.7 0 1.237.225 1.612.675s.513 1.0562.413 1.8187l-.863 6.15h1.763l.881-6.3c.113-.775.038-1.4625-.225-2.0625-.25-.6125-.644-1.0937-1.181-1.4437s-1.175-.525-1.913-.525c-.6 0-1.162.1187-1.687.3562-.513.2375-.944.5875-1.294 1.05l.15-1.1812h-1.706l-1.425 10.1062z"/><path id="Q" d="M742.917 28.1249c.963 0 1.769-.275 2.419-.825s1.194-1.2375 1.631-2.0625l6.15-11.3437h-1.987l-4.2 7.8187-1.931-7.8187h-1.838l2.588 10.0312-.469.7875c-.363.6125-.725 1.0563-1.088 1.3313-.35.2875-.825.4312-1.425.4312-.175 0-.356-.0187-.543-.0562l-.507-.075-.131 1.5375c.188.0875.4.15.638.1875.225.0375.456.0562.693.0562z"/><path id="R" d="M1053.14 12.2812h1.78l.3-2.25h-1.78l-.3 2.25zm-1.65 11.7187h1.78l1.4-10.1062h-1.76l-1.42 10.1062z"/><path id="S" d="M1070.44 12.2812h1.78l.3-2.25h-1.78l-.3 2.25zm-1.65 11.7187h1.78l1.41-10.1062h-1.77l-1.42 10.1062z"/></defs></svg>