<svg xmlns="http://www.w3.org/2000/svg" width="4413" height="679" fill="none" xmlns:v="https://vecta.io/nano"><path fill-rule="evenodd" d="M343.872.378389c3.652-.824548 7.479-.291337 10.767 1.500011L666.801 165.344c2.182 1.024 4.293 2.192 6.32 3.497 1.983 1.422 3.592 3.303 4.69 5.482s1.65 4.593 1.611 7.033l-.009 14.031v.023l-.026 17.011c-.391 7.722-7.518 14.282-15.267 13.962H34.8612c-.6577-.009-1.3201-.002-1.9843.005-2.5985.026-5.2232.053-7.6903-.866-2.8833-1.053-5.3848-2.946-7.182-5.435s-2.8076-5.458-2.9009-8.527l-.0119-16.495v-.001h0 0v-.001h0 0v-.001h0v-.001l-.0059-13.758c.0186-2.751.766-5.448 2.1661-7.817s3.4029-4.323 5.8044-5.666L336.435 3.71569l1.003-.54089c2.062-1.11838 4.143-2.246537 6.434-2.796411zM337.943 91.5329c-10.368 2.1935-19.637 7.9569-26.192 16.2851s-9.977 18.692-9.671 29.286 4.319 20.744 11.341 28.681 16.609 13.157 27.086 14.75 21.182-.542 30.246-6.033 15.914-13.99 19.354-24.014 3.252-20.937-.531-30.837-10.92-18.158-20.168-23.334c-9.566-5.3424-20.743-7.0417-31.465-4.7841zM75.4843 271.917c-.1864-7.802 6.4172-15.08 14.2812-15.266h62.1925c7.767.266 14.441 7.429 14.131 15.213l-.018 211.084c-10.381-.006-20.762 0-31.143.005-19.815.011-39.6291.021-59.4437-.049V271.917zm152.1667-5.992c1.149-2.755 3.089-5.108 5.573-6.764s5.403-2.538 8.388-2.538l29.201.01h.001.001 0 0 .001 0 .001 0l32.109.017c7.731.266 14.459 7.429 14.131 15.177l-.036 211.12c-11.03-.013-22.061-.003-33.092.006-19.16.017-38.32.034-57.477-.068V277.224c.011-.73.003-1.467-.004-2.207-.032-3.089-.065-6.228 1.203-9.092zm149.807 3.249c-.249-7.412 7.375-12.453 14.165-12.533l62.184-.009c6.577.062 13.838 4.58 14.29 11.636v139.191l-33.321.042c-9.33-.006-18.661-.013-27.993.02-10.1.207-20.06 2.397-29.316 6.444l-.009-144.791zm151.065-2.601c.356-6.4 7.501-9.471 13.092-9.897l59.391-.024 4.551.006c5.432.382 12.053 2.947 13.393 8.841l.055 93.508-.01 48.496-35.187-.002c-18.428.004-36.854.008-55.285-.025V266.573zM404.255 438.098l159.463-.113 100.394-.003c18.16-.337 36.186 11.157 42.621 28.305 2.824 6.791 2.746 14.111 2.669 21.349l-.015 5.225V625.12c-.022 1.638-.004 3.287.013 4.939.067 6.41.135 12.868-2.081 18.972-5.707 17.725-23.663 30.462-42.284 29.947H406.669c-6.25.038-12.435-1.261-18.142-3.808-14.725-6.399-25.412-21.461-25.847-37.606l-.017-157.129c.044-5.204 1.08-10.352 3.053-15.169 6.302-15.426 22.03-26.121 38.539-27.168zm190.98 60.577c-1.808.562-3.394 1.681-4.53 3.196s-1.765 3.351-1.798 5.245l-.008 3.939v.004.003.003.003.003l.026 23.595c.044 4.847 4.748 8.628 9.408 8.663l24.05.01h.17l15.881-.001c4.819.151 9.71-3.683 9.861-8.672l.039-22.296h0v-.001-.001-.001l-.012-5.251c.062-5.166-4.962-9.213-9.932-9l-19.089-.014h-.029c-6.372.003-12.742.005-19.111-.013-1.663-.092-3.33.106-4.926.586zm-160.039 75.098c-7.03 1.154-12.666 7.829-12.364 14.991-.196 7.642 6.373 14.574 13.97 14.921l17.042.008c3.189-.183 6.238-1.374 8.707-3.402s4.232-4.786 5.033-7.879c2.05-6.994-2.042-15.009-8.761-17.689-2.915-1.309-6.098-1.254-9.239-1.199l-2.947.01c-1.3.03-2.601.011-3.902-.009-2.521-.037-5.04-.074-7.539.248zm60.417 0c-9.009 1.296-14.929 11.725-11.476 20.157 2.334 6.728 9.701 10.642 16.624 9.799 2.115-.176 4.311-.093 6.519-.01h0 .001.001.001c5.139.194 10.337.39 14.683-2.67 6.577-4.367 8.591-14.14 4.047-20.655-1.479-2.234-3.515-4.043-5.908-5.248s-5.059-1.764-7.734-1.621c-2.077.052-4.159.027-6.24.001-3.511-.044-7.023-.087-10.518.247zm60.382-.009c-3.621.653-6.88 2.606-9.163 5.492s-3.433 6.507-3.235 10.181 1.732 7.151 4.313 9.774 6.03 4.215 9.701 4.474l16.997.008c7.713-.204 14.361-7.251 14.263-14.938.249-7.819-6.541-15.017-14.361-15.186-1.85.008-3.703-.016-5.557-.039h-.002-.001-.001-.001-.002c-4.325-.055-8.653-.11-12.951.234zm58.749.391c-3.381 1.01-6.302 3.172-8.255 6.112s-2.816 6.47-2.437 9.978 1.974 6.775 4.509 9.23 5.851 3.944 9.37 4.21l9.417.033h.001 0 .001.001l6.601.002c10.242.577 18.381-11.05 14.316-20.485-1.193-3.013-3.305-5.574-6.036-7.318s-5.941-2.585-9.177-2.401c-2.186.108-4.387.056-6.588.005-3.937-.092-7.874-.184-11.723.638v-.004zM39.5376 514.324c2.7147-1.231 5.7022-1.204 8.6361-1.178l1.7219.006 282.3044.009v120.702l-316.9378.027c-8.09471.32-15.408373-6.941-15.2397331-15.009L.0135911 573.65C-.128422 566.221 5.95151 559.165 13.4338 558.597c3.1017-.084 6.2062-.07 9.3119-.055l7.5078-.016-.0089-30.116c-.0209-3.004.8513-5.947 2.5058-8.455s4.0169-4.468 6.7872-5.631zM2794.86 476h44.01v-55.776l23.52-25.536L2913.8 476h50.4l-68.88-109.2 67.54-73.584h-54.77l-69.22 72.576v-141.12h-44.01V476zm-1829.784 0h32.928v-95.76h55.436c16.58 0 31.14-3.136 43.68-9.408 12.55-6.272 22.29-15.232 29.24-26.88 7.16-11.648 10.75-25.312 10.75-40.992 0-15.904-3.59-29.568-10.75-40.992-6.95-11.648-16.69-20.608-29.24-26.88-12.54-6.272-27.1-9.408-43.68-9.408h-88.364V476zm32.928-126v-94.08h56.446c15.01 0 26.99 4.256 35.95 12.768 8.96 8.288 13.44 19.712 13.44 34.272 0 14.336-4.48 25.76-13.44 34.272S1069.46 350 1054.45 350h-56.446zm220.226 130.032c13.22 0 25.09-2.464 35.62-7.392 10.53-5.152 19.04-11.872 25.54-20.16V476h30.57V353.024c0-12.32-3.02-23.072-9.07-32.256-5.82-9.408-14-16.688-24.53-21.84-10.53-5.376-22.73-8.064-36.62-8.064-10.75 0-21.06 1.904-30.91 5.712-9.86 3.808-18.48 9.072-25.88 15.792-7.39 6.496-12.76 13.888-16.12 22.176l27.21 14.112c3.81-8.512 9.63-15.456 17.47-20.832s17.03-8.064 27.56-8.064c11.87 0 21.39 3.136 28.56 9.408 7.39 6.048 11.08 14 11.08 23.856v8.4l-61.82 10.08c-20.38 3.36-35.39 10.192-45.02 20.496-9.41 10.08-14.12 22.288-14.12 36.624 0 15.232 5.6 27.664 16.8 37.296 11.43 9.408 25.99 14.112 43.68 14.112zm-27.55-52.416c0-7.84 2.58-14.448 7.73-19.824 5.38-5.376 13.89-9.072 25.54-11.088l54.76-9.072v11.424c0 10.08-2.35 19.264-7.05 27.552-4.71 8.288-11.31 14.896-19.83 19.824-8.51 4.704-18.48 7.056-29.9 7.056-8.96 0-16.46-2.464-22.51-7.392-5.83-4.928-8.74-11.088-8.74-18.48zm207.72 115.248c-8.29 4.704-18.37 7.056-30.24 7.056-4.04 0-8.07-.336-12.1-1.008-4.03-.448-7.84-1.456-11.42-3.024V518c2.46.448 5.48.896 9.07 1.344 3.81.672 7.5 1.008 11.09 1.008 10.52 0 18.48-2.352 23.85-7.056 5.6-4.704 10.87-12.656 15.79-23.856l5.38-13.104-71.9-181.44h33.93l55.11 141.456 54.76-141.456h34.61l-81.65 202.608c-3.8 9.632-8.73 18.368-14.78 26.208-5.82 8.064-12.99 14.448-21.5 19.152zM1682.18 476l71.23-181.104h-34.95l-51.07 137.088-50.73-137.088h-34.95L1652.61 476h29.57zm130.43-210h-31.25v-40.32h31.25V266zm0 210h-31.25V294.896h31.25V476zm101.58 4.032c13.21 0 25.08-2.464 35.61-7.392 10.53-5.152 19.04-11.872 25.54-20.16V476h30.57V353.024c0-12.32-3.02-23.072-9.07-32.256-5.82-9.408-14-16.688-24.53-21.84-10.52-5.376-22.73-8.064-36.62-8.064-10.75 0-21.06 1.904-30.91 5.712-9.86 3.808-18.48 9.072-25.87 15.792-7.4 6.496-12.77 13.888-16.13 22.176l27.21 14.112c3.81-8.512 9.64-15.456 17.48-20.832s17.02-8.064 27.55-8.064c11.87 0 21.39 3.136 28.56 9.408 7.39 6.048 11.09 14 11.09 23.856v8.4l-61.83 10.08c-20.38 3.36-35.39 10.192-45.02 20.496-9.41 10.08-14.11 22.288-14.11 36.624 0 15.232 5.6 27.664 16.8 37.296 11.42 9.408 25.98 14.112 43.68 14.112zm-27.55-52.416c0-7.84 2.57-14.448 7.72-19.824 5.38-5.376 13.89-9.072 25.54-11.088l54.77-9.072v11.424c0 10.08-2.36 19.264-7.06 27.552s-11.31 14.896-19.82 19.824c-8.52 4.704-18.48 7.056-29.91 7.056-8.96 0-16.46-2.464-22.51-7.392-5.82-4.928-8.73-11.088-8.73-18.48zM2277.67 476h-105.51V225.68h105.51c24.64 0 44.01 6.272 58.12 18.816 14.12 12.544 21.17 29.792 21.17 51.744 0 8.512-1.68 16.576-5.04 24.192-3.13 7.616-8.17 14.56-15.12 20.832 11.2 7.168 19.04 15.792 23.52 25.872s6.72 20.832 6.72 32.256c0 23.968-7.95 42.784-23.85 56.448-15.68 13.44-37.52 20.16-65.52 20.16zm-59.81-211.344v58.128h62.16c9.41 0 16.91-2.688 22.51-8.064 5.6-5.6 8.4-12.768 8.4-21.504s-2.8-15.68-8.4-20.832-13.1-7.728-22.51-7.728h-62.16zm0 98.112v72.912h64.51c11.87 0 21.28-3.248 28.22-9.744 7.17-6.72 10.76-15.568 10.76-26.544 0-11.2-3.59-20.048-10.76-26.544-6.94-6.72-16.35-10.08-28.22-10.08h-64.51zm238.36 117.264c23.74 0 42.78-7.84 57.12-23.52V476H2555V354.368c0-12.768-3.25-24.08-9.74-33.936-6.5-9.856-15.46-17.472-26.88-22.848-11.2-5.6-24.31-8.4-39.31-8.4-18.37 0-34.72 4.368-49.06 13.104s-24.19 20.272-29.57 34.608l35.95 17.472c3.36-8.288 8.63-14.896 15.8-19.824 7.16-5.152 15.56-7.728 25.2-7.728 10.08 0 18.14 2.688 24.19 8.064 6.27 5.152 9.41 11.648 9.41 19.488v6.048l-54.44 8.736c-21.5 3.584-37.4 10.416-47.71 20.496-10.3 10.08-15.45 22.736-15.45 37.968 0 16.128 5.71 28.896 17.13 38.304 11.43 9.408 26.66 14.112 45.7 14.112zm-17.14-54.096c0-12.768 8.63-20.832 25.87-24.192l46.04-7.728v7.392c0 12.544-4.37 23.184-13.11 31.92-8.51 8.736-19.71 13.104-33.6 13.104-7.39 0-13.44-1.792-18.14-5.376-4.71-3.808-7.06-8.848-7.06-15.12zM2639.7 476h-44.02V293.216h41.33v22.512c4.93-8.736 11.87-15.344 20.83-19.824 9.19-4.48 19.49-6.72 30.92-6.72 13.44 0 25.31 2.912 35.61 8.736 10.53 5.824 18.71 14 24.53 24.528 5.82 10.304 8.74 22.288 8.74 35.952V476h-44.02V368.816c0-12.096-3.47-21.616-10.42-28.56-6.72-7.168-15.56-10.752-26.54-10.752s-19.94 3.584-26.88 10.752c-6.72 7.168-10.08 16.688-10.08 28.56V476zm441.39 0h-49.39l86.35-250.32h59.13L3263.54 476h-49.73L3196 422.24h-96.77L3081.09 476zm66.53-199.584l-35.28 105.504h70.56l-35.28-105.504zm221.55 203.616c13.22 0 25.42-2.24 36.62-6.72 11.2-4.704 20.84-11.088 28.9-19.152 8.06-8.288 13.89-17.584 17.47-27.888l-38.64-17.472c-3.58 9.632-9.29 17.248-17.13 22.848-7.62 5.376-16.69 8.064-27.22 8.064-9.63 0-18.26-2.352-25.87-7.056-7.39-4.704-13.22-11.2-17.47-19.488-4.26-8.512-6.39-18.032-6.39-28.56 0-10.752 2.13-20.272 6.39-28.56 4.25-8.288 10.08-14.784 17.47-19.488 7.61-4.704 16.24-7.056 25.87-7.056 10.53 0 19.6 2.8 27.22 8.4 7.84 5.6 13.55 12.992 17.13 22.176l38.64-16.8c-3.81-10.752-9.74-20.16-17.81-28.224-8.06-8.288-17.69-14.672-28.89-19.152s-23.3-6.72-36.29-6.72c-18.14 0-34.5 4.144-49.06 12.432-14.33 8.288-25.64 19.6-33.93 33.936s-12.43 30.576-12.43 48.72 4.14 34.496 12.43 49.056c8.29 14.336 19.6 25.76 33.93 34.272 14.56 8.288 30.92 12.432 49.06 12.432zm241.05-6.72c-11.2 4.48-23.41 6.72-36.63 6.72-18.14 0-34.49-4.144-49.05-12.432-14.34-8.512-25.65-19.936-33.94-34.272-8.29-14.56-12.43-30.912-12.43-49.056s4.14-34.384 12.43-48.72 19.6-25.648 33.94-33.936c14.56-8.288 30.91-12.432 49.05-12.432 12.99 0 25.09 2.24 36.29 6.72s20.83 10.864 28.9 19.152c8.06 8.064 14 17.472 17.8 28.224l-38.64 16.8c-3.58-9.184-9.29-16.576-17.13-22.176-7.62-5.6-16.69-8.4-27.22-8.4-9.63 0-18.25 2.352-25.87 7.056-7.39 4.704-13.22 11.2-17.47 19.488-4.26 8.288-6.39 17.808-6.39 28.56 0 10.528 2.13 20.048 6.39 28.56 4.25 8.288 10.08 14.784 17.47 19.488 7.62 4.704 16.24 7.056 25.87 7.056 10.53 0 19.6-2.688 27.22-8.064 7.84-5.6 13.55-13.216 17.13-22.848l38.64 17.472c-3.58 10.304-9.4 19.6-17.47 27.888-8.06 8.064-17.69 14.448-28.89 19.152zm169.14 6.72c17.69 0 33.82-4.032 48.38-12.096 14.56-8.288 26.21-19.6 34.95-33.936 8.73-14.56 13.1-31.024 13.1-49.392s-4.37-34.72-13.1-49.056c-8.52-14.336-20.05-25.648-34.61-33.936s-30.8-12.432-48.72-12.432c-18.15 0-34.5 4.144-49.06 12.432s-26.21 19.6-34.94 33.936c-8.52 14.336-12.77 30.688-12.77 49.056s4.25 34.72 12.77 49.056c8.73 14.336 20.38 25.648 34.94 33.936 14.78 8.288 31.14 12.432 49.06 12.432zm0-40.32c-9.86 0-18.71-2.352-26.55-7.056-7.61-4.704-13.66-11.2-18.14-19.488-4.26-8.512-6.38-18.032-6.38-28.56s2.12-19.936 6.38-28.224c4.48-8.288 10.53-14.784 18.14-19.488 7.84-4.928 16.69-7.392 26.55-7.392 9.85 0 18.48 2.464 25.87 7.392 7.61 4.704 13.55 11.2 17.81 19.488 4.48 8.288 6.72 17.696 6.72 28.224s-2.24 20.048-6.72 28.56c-4.26 8.288-10.2 14.784-17.81 19.488-7.39 4.704-16.02 7.056-25.87 7.056zm225.23 33.936c-8.73 4.256-18.81 6.384-30.24 6.384-21.5 0-38.41-6.832-50.73-20.496-12.1-13.888-18.15-32.032-18.15-54.432V293.216h44.02v108.192c0 11.648 3.36 20.944 10.08 27.888 6.94 6.944 15.9 10.416 26.88 10.416 10.75 0 19.6-3.472 26.54-10.416 6.95-7.168 10.42-16.8 10.42-28.896V293.216h44.01V476h-41.66v-21.84c-5.15 8.512-12.21 15.008-21.17 19.488zM4108.34 476h44.02V368.816c0-11.872 3.360000000001-21.392 10.08-28.56C4169.38 333.088 4178.34 329.504 4189.32 329.504c10.97 0 19.820000000001 3.584 26.54 10.752C4222.8 347.2 4226.28 356.72 4226.28 368.816V476h44.01V358.4c0-13.664-2.91-25.648-8.73-35.952-5.830000000001-10.528-14-18.704-24.530000000001-24.528-10.309999999999-5.824-22.179999999999-8.736-35.62-8.736-11.42 0-21.73 2.24-30.91 6.72-8.96 4.48-15.9 11.088-20.83 19.824v-22.512h-41.33V476zm304.34.336c-7.17 1.12-14.450000000001 1.68-21.84 1.68-20.610000000001 0-36.62-5.712-48.05-17.136-11.2-11.424-16.8-27.328-16.8-47.712v-80.64h-31.58v-39.312h3.360000000001c8.959999999999 0 15.9-2.352 20.83-7.056S4325.99 274.624 4325.99 265.664v-14.112h44.02v41.664h42v39.312h-42v78.288c0 9.184 2.46 16.24 7.389999999999 21.168s12.77 7.392 23.52 7.392c3.58 0 7.5-.336 11.76-1.008v37.968z" fill="#fff"/></svg>