<svg width="351" height="100" viewBox="0 0 351 100" fill="none" xmlns="http://www.w3.org/2000/svg">
<rect opacity="0.25" width="351" height="100" fill="#00D54B"/>
<path d="M139.842 41.4074C140.197 41.4774 140.565 41.4122 140.874 41.2247L144.259 39.1906C144.429 39.0829 144.574 38.9415 144.687 38.7752C144.8 38.6088 144.877 38.4211 144.915 38.2236C144.952 38.0261 144.948 37.8231 144.903 37.6271C144.859 37.4312 144.774 37.2465 144.655 37.0846C142.925 34.6792 140.632 32.7341 137.977 31.4192C135.322 30.1044 132.385 29.4599 129.422 29.5421C118.079 29.5421 110.273 37.787 110.273 49.9646C110.273 62.1422 118.079 70.4942 129.594 70.4942C132.606 70.5787 135.59 69.8972 138.267 68.5134C140.944 67.1297 143.226 65.0891 144.898 62.5829C145.019 62.412 145.102 62.217 145.141 62.0112C145.179 61.8054 145.173 61.5937 145.123 61.3904C145.073 61.1871 144.979 60.9971 144.849 60.8332C144.718 60.6694 144.554 60.5356 144.367 60.4409L140.946 58.4608C140.635 58.2815 140.268 58.2255 139.918 58.3038C139.568 58.3822 139.26 58.5891 139.055 58.8837C138.031 60.4505 136.623 61.73 134.966 62.6011C133.309 63.4721 131.456 63.9058 129.584 63.8611C122.382 63.8611 117.881 58.0556 117.881 49.9192C117.881 41.7827 122.301 36.0856 129.503 36.0856C131.351 36.032 133.182 36.4392 134.832 37.2705C136.483 38.1017 137.9 39.3308 138.956 40.8467C139.171 41.1375 139.487 41.3375 139.842 41.4074Z" fill="white"/>
<path fill-rule="evenodd" clip-rule="evenodd" d="M166.046 68.2889V66.633C164.246 68.9551 161.734 70.3952 157.692 70.3952C151.714 70.3952 147.563 67.128 147.563 61.3946C147.563 54.2574 153.928 53.0333 157.854 52.4842C158.16 52.4399 158.466 52.3963 158.773 52.3532C162.576 51.8165 165.659 51.3814 165.659 48.8301C165.659 46.3913 162.841 45.7338 160.455 45.7338C157.717 45.7794 155.026 46.4604 152.596 47.723C152.427 47.8156 152.241 47.8731 152.05 47.8919C151.858 47.9106 151.665 47.8904 151.482 47.8323C151.298 47.7742 151.128 47.6796 150.982 47.554C150.837 47.4284 150.718 47.2746 150.633 47.1018L149.4 44.5277C149.235 44.1942 149.205 43.8101 149.315 43.4549C149.426 43.0997 149.669 42.8007 149.994 42.6197C153.398 40.8081 157.193 39.8564 161.049 39.8475C167.91 39.8475 172.753 42.6646 172.753 49.478V68.2889C172.753 68.4781 172.716 68.6653 172.643 68.84C172.571 69.0148 172.465 69.1735 172.331 69.3073C172.197 69.441 172.039 69.5471 171.864 69.6194C171.689 69.6918 171.502 69.7291 171.313 69.7291H167.549C167.355 69.7375 167.161 69.7064 166.979 69.6378C166.797 69.5692 166.631 69.4645 166.49 69.3299C166.35 69.1954 166.238 69.0338 166.161 68.8549C166.085 68.6759 166.046 68.4834 166.046 68.2889ZM160.15 56.9323L160.146 56.933C159.865 56.9823 159.58 57.032 159.294 57.0836C156.692 57.5514 154.531 58.2445 154.531 61.0707C154.531 63.6717 156.413 64.887 159.132 64.887C162.508 64.887 165.659 63.0059 165.659 58.6319V55.2835C164.482 56.1719 162.422 56.5335 160.15 56.9323Z" fill="white"/>
<path d="M178.937 62.2766C179.18 61.994 179.523 61.8164 179.894 61.7812C180.265 61.746 180.635 61.8559 180.927 62.0878C183.334 63.905 186.284 64.8564 189.3 64.7878C192.405 64.7878 194.701 63.7889 194.701 61.3587C194.701 59.1445 192.595 58.7036 187.499 57.8125C182.097 56.9123 176.93 55.1122 176.93 48.9561C176.93 42.5386 182.467 39.8299 188.777 39.8299C192.735 39.7713 196.598 41.0385 199.752 43.4296C199.906 43.5501 200.033 43.7006 200.127 43.872C200.221 44.0434 200.279 44.2321 200.297 44.4266C200.316 44.6212 200.295 44.8174 200.235 45.0034C200.175 45.1895 200.078 45.3614 199.95 45.5087L198.149 47.6239C197.91 47.9076 197.572 48.089 197.204 48.1309C196.835 48.1728 196.465 48.0719 196.169 47.8491C193.95 46.2267 191.265 45.3676 188.516 45.4008C185.86 45.4008 183.538 46.1751 183.538 48.272C183.538 50.4979 186.509 51.0005 189.622 51.5271L189.623 51.5272C189.77 51.552 189.917 51.577 190.065 51.6021C197.042 52.8173 201.471 54.8063 201.471 60.6027C201.471 66.6869 196.601 70.4491 188.867 70.4491C184.641 70.5784 180.502 69.2286 177.164 66.6329C177.014 66.5103 176.89 66.3592 176.8 66.1883C176.709 66.0174 176.653 65.8302 176.635 65.6375C176.618 65.4448 176.639 65.2506 176.697 65.0661C176.755 64.8816 176.85 64.7106 176.975 64.5629L178.937 62.2766Z" fill="white"/>
<path d="M205.748 68.2888V31.6569C205.748 31.4678 205.785 31.2805 205.857 31.1058C205.93 30.9311 206.036 30.7723 206.169 30.6386C206.303 30.5048 206.462 30.3988 206.637 30.3264C206.811 30.254 206.999 30.2168 207.188 30.2168H211.338C212.134 30.2168 212.779 30.8616 212.779 31.6569V44.1676C213.812 42.7891 215.16 41.6776 216.711 40.926C218.261 40.1744 219.969 39.8045 221.692 39.8472C227.831 39.8472 231.432 44.2214 231.432 50.4679V68.2888C231.432 68.4779 231.395 68.6652 231.323 68.8399C231.25 69.0146 231.144 69.1734 231.011 69.3071C230.877 69.4408 230.718 69.5469 230.543 69.6193C230.369 69.6917 230.181 69.7289 229.992 69.7289H225.842C225.46 69.7289 225.093 69.5772 224.823 69.3071C224.553 69.0371 224.401 68.6707 224.401 68.2888V52.088C224.401 48.9828 223.402 46.1657 219.423 46.1657C215.651 46.1657 212.779 48.8211 212.779 53.2489V68.2977C212.779 68.6796 212.627 69.0459 212.357 69.316C212.087 69.5861 211.72 69.7378 211.338 69.7378H207.188C206.998 69.739 206.809 69.7022 206.633 69.6297C206.457 69.5572 206.298 69.4503 206.164 69.3154C206.03 69.1805 205.924 69.0203 205.852 68.844C205.781 68.6677 205.745 68.479 205.748 68.2888Z" fill="white"/>
<path fill-rule="evenodd" clip-rule="evenodd" d="M277.104 68.7573L274.116 59.9368H259.007L256.011 68.7573C255.915 69.0415 255.731 69.2882 255.487 69.4627C255.243 69.6371 254.95 69.7304 254.65 69.7294H249.78C249.549 69.7289 249.321 69.6727 249.115 69.5654C248.91 69.4581 248.734 69.303 248.601 69.1131C248.469 68.9232 248.384 68.7042 248.354 68.4746C248.324 68.245 248.35 68.0116 248.43 67.7942L262.034 31.1534C262.142 30.8848 262.329 30.6552 262.57 30.4946C262.811 30.3339 263.095 30.2498 263.385 30.2532H270.038C270.333 30.2546 270.621 30.3457 270.864 30.5145C271.107 30.6833 271.292 30.9218 271.396 31.1984L284.946 67.8303C285.026 68.0484 285.051 68.2828 285.021 68.5131C284.99 68.7435 284.904 68.963 284.77 69.1529C284.637 69.3429 284.46 69.4979 284.254 69.6046C284.048 69.7112 283.819 69.7664 283.587 69.7654H278.445C278.144 69.7585 277.853 69.6575 277.613 69.4767C277.372 69.2959 277.195 69.0443 277.104 68.7573ZM266.643 36.6348L260.828 53.7895H272.234L266.643 36.6348Z" fill="white"/>
<path fill-rule="evenodd" clip-rule="evenodd" d="M295.379 41.9539V44.2221C296.402 42.8066 297.76 41.6663 299.331 40.903C300.902 40.1397 302.638 39.7772 304.384 39.8479C312.349 39.8479 317.499 46.4365 317.499 55.0677C317.499 63.6995 312.349 70.3683 304.384 70.3683C302.633 70.4347 300.894 70.0647 299.322 69.2917C297.75 68.5187 296.395 67.367 295.379 65.9403V77.8838C295.379 78.6792 294.734 79.324 293.94 79.324H289.788C288.993 79.324 288.348 78.6792 288.348 77.8838V41.882C288.348 41.0869 288.993 40.4421 289.788 40.4421H293.94C294.135 40.4419 294.328 40.4815 294.507 40.5583C294.687 40.6351 294.849 40.7476 294.983 40.8889C295.119 41.03 295.223 41.1972 295.292 41.3804C295.36 41.5635 295.39 41.7587 295.379 41.9539ZM302.906 64.2574C307.776 64.2574 310.107 60.0992 310.107 55.0677C310.107 50.0365 307.73 45.9862 302.906 45.9862C298.081 45.9862 295.379 50.0274 295.379 55.0677C295.379 60.1079 297.947 64.2574 302.906 64.2574Z" fill="white"/>
<path fill-rule="evenodd" clip-rule="evenodd" d="M328.869 41.9536V44.2218C329.894 42.8074 331.251 41.668 332.822 40.9048C334.393 40.1417 336.128 39.7785 337.874 39.8476C345.849 39.8476 350.999 46.436 350.999 55.0672C350.999 63.6987 345.849 70.3681 337.874 70.3681C336.123 70.4325 334.385 70.0616 332.813 69.2888C331.242 68.5159 329.887 67.3652 328.869 65.9398V77.8836C328.869 78.6789 328.225 79.3235 327.43 79.3235H323.278C322.483 79.3235 321.838 78.6789 321.838 77.8838V41.8815C321.838 41.4997 321.99 41.1336 322.26 40.8635C322.53 40.5935 322.896 40.4418 323.278 40.4416H327.43C327.626 40.4401 327.82 40.4788 328 40.5551C328.18 40.6315 328.343 40.744 328.478 40.8856C328.613 41.0275 328.717 41.1955 328.785 41.3792C328.852 41.5628 328.881 41.7583 328.869 41.9536ZM336.406 64.2569C341.276 64.2569 343.607 60.0987 343.607 55.0672C343.607 50.036 341.231 45.9859 336.406 45.9859C331.579 45.9859 328.869 50.0271 328.869 55.0672C328.869 60.1076 331.472 64.2569 336.406 64.2569Z" fill="white"/>
<path fill-rule="evenodd" clip-rule="evenodd" d="M50.6676 11.0996C58.5182 11.0996 62.3804 11.0996 66.6206 12.4316C68.8962 13.2554 70.9628 14.5693 72.6741 16.2802C74.3855 17.9911 75.6997 20.0571 76.5237 22.3321C77.856 26.5355 77.856 30.4328 77.856 38.245V61.7542C77.856 69.5578 77.856 73.4548 76.5237 77.6671C75.6996 79.9421 74.3854 82.0081 72.6741 83.719C70.9628 85.4299 68.8962 86.7437 66.6206 87.5676C62.4162 88.8996 58.5182 88.8996 50.7036 88.8996H27.1163C19.311 88.8996 15.413 88.8996 11.1993 87.5676C8.92377 86.7438 6.85717 85.4299 5.14585 83.719C3.43453 82.0082 2.12033 79.9421 1.29628 77.6671C0 73.4637 0 69.6025 0 61.7542V38.2092C0 30.4056 0 26.5089 1.33234 22.2961C2.15635 20.0211 3.47054 17.955 5.18187 16.2441C6.8932 14.5332 8.95981 13.2194 11.2354 12.3956C15.4038 11.0996 19.311 11.0996 27.1166 11.0996H50.6676Z" fill="white"/>
<path d="M40.8737 36.5987C44.6982 36.6046 48.3974 37.9627 51.3168 40.4328C51.6183 40.7059 52.0128 40.8534 52.4195 40.845C52.8263 40.8367 53.2144 40.6731 53.5044 40.3878L56.5114 37.3727C56.6622 37.2232 56.7804 37.044 56.8586 36.8466C56.9368 36.6491 56.9732 36.4376 56.9656 36.2253C56.958 36.0131 56.9065 35.8047 56.8144 35.6134C56.7223 35.422 56.5915 35.2518 56.4303 35.1134C54.0687 33.105 51.3379 31.5765 48.3908 30.6135L49.2913 26.176C49.338 25.948 49.3333 25.7124 49.2775 25.4864C49.2217 25.2604 49.1163 25.0497 48.9688 24.8695C48.8214 24.6894 48.6357 24.5444 48.4251 24.445C48.2146 24.3456 47.9845 24.2943 47.7517 24.2949H41.963C41.6043 24.2946 41.2562 24.4166 40.9763 24.6409C40.6963 24.8651 40.5013 25.1781 40.4235 25.5282L39.6132 29.4973C31.9068 29.8755 25.3708 33.6915 25.3708 41.5129C25.3708 48.2722 30.7725 51.1794 36.4803 53.2136C41.8817 55.2206 44.7447 55.9679 44.7447 58.7939C44.7447 61.6199 41.8909 63.4019 37.6867 63.4019C33.6066 63.4672 29.6647 61.9252 26.7123 59.1092C26.4193 58.8211 26.0249 58.6597 25.6139 58.6597C25.203 58.6597 24.8086 58.8211 24.5156 59.1092L21.2925 62.2588C21.1419 62.404 21.0222 62.5781 20.9404 62.7706C20.8586 62.9632 20.8164 63.1702 20.8164 63.3794C20.8164 63.5885 20.8586 63.7956 20.9404 63.9881C21.0222 64.1806 21.1419 64.3547 21.2925 64.4999C23.9186 66.9589 27.1238 68.7144 30.6103 69.6032L29.7101 73.7165C29.6625 73.9463 29.666 74.1837 29.7203 74.412C29.7746 74.6403 29.8784 74.8539 30.0244 75.0377C30.1704 75.2214 30.355 75.3709 30.5652 75.4755C30.7753 75.58 31.0059 75.6371 31.2405 75.6428H37.0473C37.4088 75.6447 37.7599 75.5224 38.0419 75.2962C38.3239 75.0701 38.5195 74.7539 38.596 74.4007L39.4331 70.5034C48.6699 69.9363 54.3146 64.9683 54.3146 57.6957C54.3146 50.9994 48.6879 48.1734 41.8548 45.8692C37.9477 44.4021 34.5715 43.439 34.5715 40.5409C34.5715 37.6428 37.7225 36.5987 40.8737 36.5987V36.5987Z" fill="#00D54B"/>
</svg>
