<svg width="4113" height="591" viewBox="0 0 4113 591" fill="none" xmlns="http://www.w3.org/2000/svg">
<rect opacity="0.25" width="4112" height="590" fill="#3B65B7"/>
<path d="M144.577 0.190196C305.121 -0.0935885 465.672 -0.0598046 626.23 0.291548C674.367 99.3384 726.474 196.591 772.998 296.358C724.244 393.842 674.707 491.683 626.207 589.55C465.663 590.137 305.119 590.171 144.575 589.651C96.9385 493.063 48.7469 396.745 0 300.698V289.144C48.5913 193.042 96.7837 96.7242 144.577 0.190196ZM211.976 12.6362C265.031 87.1296 322.062 158.724 375.421 232.975C379.479 240.596 389.258 239.015 396.319 239.765C450.445 162.164 509.824 88.212 566.196 12.2308C448.116 12.3524 330.036 11.5618 211.976 12.6362ZM16.2512 287.806C60.866 287.887 105.488 287.88 150.116 287.785C149.872 199.062 150.765 110.339 149.629 21.6159C104.872 110.191 60.7645 199.103 16.2512 287.806ZM625.317 29.7646C624.363 115.772 625.114 201.778 624.911 287.806C668.39 287.806 711.868 288.069 755.347 287.542C712.016 201.651 670.853 114.476 625.317 29.7646V29.7646ZM192.925 46.2646C200.413 126.282 196.412 207.055 195.765 287.319C241.212 288.312 286.679 287.826 332.146 287.664C336.128 276.619 340.944 265.893 346.551 255.576C295.922 185.54 237.398 120.369 192.925 46.2646ZM558.364 83.4343C514.764 141.387 471.224 199.401 427.746 257.475C432.669 267.092 436.539 277.212 439.29 287.658C485.589 288.023 531.888 287.8 578.207 287.8C579.647 207.245 574.636 126.468 582.264 46.1572C574.697 58.8322 567.433 71.7444 558.364 83.4343ZM376.233 254.313C332.073 263.212 339.377 338.942 385.566 336.428C444.673 337.44 434.946 239.978 376.233 254.313ZM16.2309 302.056C60.8254 390.678 104.73 479.644 149.669 568.083C150.704 479.421 149.893 390.718 150.116 302.035C105.481 302.015 60.8457 301.934 16.2309 302.056ZM196.8 302.319C194.852 382.651 200.736 463.448 192.925 543.658C237.463 469.468 295.957 404.362 346.449 334.144C340.885 323.852 336.13 313.144 332.227 302.117C287.085 302.319 241.922 301.164 196.8 302.319ZM439.392 302.299C436.548 312.683 432.631 322.744 427.705 332.319C477.39 403.993 535.454 469.943 582.264 543.516C573.865 463.326 580.195 382.488 578.207 302.035C531.928 302.015 485.65 301.746 439.392 302.299ZM624.911 302.056C625.175 388.103 624.201 474.151 625.459 560.198C670.599 475.207 712.246 388.292 755.286 302.177C711.828 301.792 668.369 302.056 624.911 302.056ZM379.966 350.867C325.085 427.164 266.35 500.664 212.037 577.367C330.097 578.056 448.156 577.61 566.216 577.59C509.998 501.874 450.879 428.17 396.887 350.927C391.267 350.907 385.525 350.8 379.966 350.867V350.867Z" fill="white"/>
<path d="M1046.11 431.918H1079.04V336.158H1134.48C1151.05 336.158 1165.61 333.022 1178.16 326.75C1190.7 320.478 1200.44 311.518 1207.39 299.87C1214.56 288.222 1218.14 274.558 1218.14 258.878C1218.14 242.974 1214.56 229.31 1207.39 217.886C1200.44 206.238 1190.7 197.278 1178.16 191.006C1165.61 184.734 1151.05 181.598 1134.48 181.598H1046.11V431.918ZM1079.04 305.918V211.838H1135.48C1150.49 211.838 1162.48 216.094 1171.44 224.606C1180.4 232.894 1184.88 244.318 1184.88 258.878C1184.88 273.214 1180.4 284.638 1171.44 293.15C1162.48 301.662 1150.49 305.918 1135.48 305.918H1079.04Z" fill="white"/>
<path d="M1299.27 435.95C1312.48 435.95 1324.35 433.486 1334.88 428.558C1345.41 423.406 1353.92 416.686 1360.42 408.398V431.918H1390.99V308.942C1390.99 296.622 1387.97 285.87 1381.92 276.686C1376.1 267.278 1367.92 259.998 1357.39 254.846C1346.87 249.47 1334.66 246.782 1320.77 246.782C1310.02 246.782 1299.71 248.686 1289.86 252.494C1280 256.302 1271.38 261.566 1263.99 268.286C1256.59 274.782 1251.22 282.174 1247.86 290.462L1275.07 304.574C1278.88 296.062 1284.71 289.118 1292.55 283.742C1300.39 278.366 1309.57 275.678 1320.1 275.678C1331.97 275.678 1341.49 278.814 1348.66 285.086C1356.05 291.134 1359.75 299.086 1359.75 308.942V317.342L1297.92 327.422C1277.54 330.782 1262.53 337.614 1252.9 347.918C1243.49 357.998 1238.79 370.206 1238.79 384.542C1238.79 399.774 1244.39 412.206 1255.59 421.838C1267.01 431.246 1281.57 435.95 1299.27 435.95ZM1271.71 383.534C1271.71 375.694 1274.29 369.086 1279.44 363.71C1284.82 358.334 1293.33 354.638 1304.98 352.622L1359.75 343.55V354.974C1359.75 365.054 1357.39 374.238 1352.69 382.526C1347.99 390.814 1341.38 397.422 1332.87 402.35C1324.35 407.054 1314.39 409.406 1302.96 409.406C1294 409.406 1286.5 406.942 1280.45 402.014C1274.63 397.086 1271.71 390.926 1271.71 383.534Z" fill="white"/>
<path d="M1449.19 505.838C1461.06 505.838 1471.14 503.486 1479.43 498.782C1487.94 494.078 1495.11 487.694 1500.93 479.63C1506.98 471.79 1511.91 463.054 1515.71 453.422L1597.36 250.814H1562.75L1507.99 392.27L1452.88 250.814H1418.95L1490.85 432.254L1485.47 445.358C1480.55 456.558 1475.28 464.51 1469.68 469.214C1464.31 473.918 1456.35 476.27 1445.83 476.27C1442.24 476.27 1438.55 475.934 1434.74 475.262C1431.15 474.814 1428.13 474.366 1425.67 473.918V501.806C1429.25 503.374 1433.06 504.382 1437.09 504.83C1441.12 505.502 1445.15 505.838 1449.19 505.838Z" fill="white"/>
<path d="M1733.64 431.918H1763.21L1834.44 250.814H1799.5L1748.42 387.902L1697.69 250.814H1662.74L1733.64 431.918Z" fill="white"/>
<path d="M1862.4 221.918H1893.64V181.598H1862.4V221.918ZM1862.4 431.918H1893.64V250.814H1862.4V431.918Z" fill="white"/>
<path d="M1995.22 435.95C2008.43 435.95 2020.31 433.486 2030.83 428.558C2041.36 423.406 2049.87 416.686 2056.37 408.398V431.918H2086.95V308.942C2086.95 296.622 2083.92 285.87 2077.87 276.686C2072.05 267.278 2063.87 259.998 2053.35 254.846C2042.82 249.47 2030.61 246.782 2016.72 246.782C2005.97 246.782 1995.67 248.686 1985.81 252.494C1975.95 256.302 1967.33 261.566 1959.94 268.286C1952.55 274.782 1947.17 282.174 1943.81 290.462L1971.03 304.574C1974.83 296.062 1980.66 289.118 1988.5 283.742C1996.34 278.366 2005.52 275.678 2016.05 275.678C2027.92 275.678 2037.44 278.814 2044.61 285.086C2052 291.134 2055.7 299.086 2055.7 308.942V317.342L1993.87 327.422C1973.49 330.782 1958.48 337.614 1948.85 347.918C1939.44 357.998 1934.74 370.206 1934.74 384.542C1934.74 399.774 1940.34 412.206 1951.54 421.838C1962.96 431.246 1977.52 435.95 1995.22 435.95ZM1967.67 383.534C1967.67 375.694 1970.24 369.086 1975.39 363.71C1980.77 358.334 1989.28 354.638 2000.93 352.622L2055.7 343.55V354.974C2055.7 365.054 2053.35 374.238 2048.64 382.526C2043.94 390.814 2037.33 397.422 2028.82 402.35C2020.31 407.054 2010.34 409.406 1998.91 409.406C1989.95 409.406 1982.45 406.942 1976.4 402.014C1970.58 397.086 1967.67 390.926 1967.67 383.534Z" fill="white"/>
<path d="M2370.79 435.95C2388.71 435.95 2404.73 432.926 2418.84 426.878C2433.18 420.83 2445.27 412.878 2455.13 403.022C2464.98 392.942 2472.04 381.966 2476.3 370.094L2435.3 350.942C2430.38 363.486 2422.31 373.902 2411.11 382.19C2400.14 390.254 2386.7 394.286 2370.79 394.286C2355.11 394.286 2341.34 390.59 2329.46 383.198C2317.59 375.806 2308.3 365.614 2301.58 352.622C2294.86 339.406 2291.5 324.062 2291.5 306.59C2291.5 289.118 2294.86 273.886 2301.58 260.894C2308.3 247.678 2317.59 237.486 2329.46 230.318C2341.34 222.926 2355.11 219.23 2370.79 219.23C2386.7 219.23 2400.14 223.374 2411.11 231.662C2422.31 239.726 2430.38 250.03 2435.3 262.574L2476.3 243.422C2472.04 231.55 2464.98 220.686 2455.13 210.83C2445.27 200.75 2433.18 192.686 2418.84 186.638C2404.73 180.59 2388.71 177.566 2370.79 177.566C2352.87 177.566 2336.3 180.814 2321.06 187.31C2305.83 193.582 2292.62 202.542 2281.42 214.19C2270.22 225.614 2261.48 239.278 2255.21 255.182C2248.94 270.862 2245.8 287.998 2245.8 306.59C2245.8 325.182 2248.94 342.43 2255.21 358.334C2261.48 374.014 2270.22 387.678 2281.42 399.326C2292.62 410.974 2305.83 420.046 2321.06 426.542C2336.3 432.814 2352.87 435.95 2370.79 435.95Z" fill="white"/>
<path d="M2509.7 431.918H2553.72V330.11C2553.72 316.222 2557.52 305.47 2565.14 297.854C2572.98 290.014 2583.06 286.094 2595.38 286.094H2611.17V247.118H2600.42C2589.22 247.118 2579.36 249.134 2570.85 253.166C2562.34 257.198 2555.73 264.478 2551.03 275.006V249.134H2509.7V431.918Z" fill="white"/>
<path d="M2722.06 435.95C2740.65 435.95 2756.89 431.806 2770.78 423.518C2784.89 415.006 2794.75 404.254 2800.35 391.262L2764.73 373.79C2760.7 380.734 2755.1 386.446 2747.93 390.926C2740.99 395.182 2732.48 397.31 2722.4 397.31C2709.18 397.31 2698.09 393.278 2689.13 385.214C2680.17 377.15 2675.02 366.398 2673.68 352.958H2805.39C2806.28 350.494 2806.84 347.694 2807.07 344.558C2807.52 341.198 2807.74 337.838 2807.74 334.478C2807.74 318.126 2804.27 303.23 2797.32 289.79C2790.38 276.35 2780.3 265.598 2767.08 257.534C2753.87 249.246 2737.74 245.102 2718.7 245.102C2701.68 245.102 2686.22 249.246 2672.33 257.534C2658.67 265.822 2647.8 277.134 2639.74 291.47C2631.9 305.582 2627.98 321.822 2627.98 340.19C2627.98 357.886 2631.9 374.014 2639.74 388.574C2647.58 403.134 2658.56 414.67 2672.67 423.182C2686.78 431.694 2703.24 435.95 2722.06 435.95ZM2718.7 281.39C2730.35 281.39 2739.98 284.974 2747.6 292.142C2755.44 299.086 2759.8 308.158 2760.7 319.358H2674.68C2677.15 307.262 2682.3 297.966 2690.14 291.47C2698.2 284.75 2707.72 281.39 2718.7 281.39Z" fill="white"/>
<path d="M2926.11 435.95C2937.99 435.95 2948.96 433.934 2959.04 429.902C2969.12 425.646 2977.52 419.598 2984.24 411.758V431.918H3025.91V181.598H2981.89V267.614C2968.23 252.606 2949.52 245.102 2925.78 245.102C2908.53 245.102 2892.85 249.358 2878.74 257.87C2864.85 266.158 2853.87 277.582 2845.81 292.142C2837.75 306.478 2833.71 322.606 2833.71 340.526C2833.71 358.446 2837.75 374.686 2845.81 389.246C2853.87 403.582 2864.85 415.006 2878.74 423.518C2892.63 431.806 2908.42 435.95 2926.11 435.95ZM2930.82 395.63C2920.96 395.63 2912.11 393.278 2904.27 388.574C2896.43 383.87 2890.27 377.374 2885.79 369.086C2881.54 360.574 2879.41 351.054 2879.41 340.526C2879.41 329.998 2881.54 320.59 2885.79 312.302C2890.27 304.014 2896.43 297.518 2904.27 292.814C2912.11 287.886 2920.96 285.422 2930.82 285.422C2940.67 285.422 2949.41 287.774 2957.03 292.478C2964.87 297.182 2970.91 303.678 2975.17 311.966C2979.65 320.254 2981.89 329.774 2981.89 340.526C2981.89 351.278 2979.65 360.798 2975.17 369.086C2970.91 377.374 2964.87 383.87 2957.03 388.574C2949.41 393.278 2940.67 395.63 2930.82 395.63Z" fill="white"/>
<path d="M3066.86 228.638H3110.87V181.598H3066.86V228.638ZM3066.86 431.918H3110.87V249.134H3066.86V431.918Z" fill="white"/>
<path d="M3234.84 433.934C3242.23 433.934 3249.51 433.374 3256.68 432.254V394.286C3252.42 394.958 3248.5 395.294 3244.92 395.294C3234.17 395.294 3226.33 392.83 3221.4 387.902C3216.47 382.974 3214.01 375.918 3214.01 366.734V288.446H3256.01V249.134H3214.01V207.47H3169.99V221.582C3169.99 230.542 3167.53 237.374 3162.6 242.078C3157.67 246.782 3150.73 249.134 3141.77 249.134H3138.41V288.446H3169.99V369.086C3169.99 389.47 3175.59 405.374 3186.79 416.798C3198.22 428.222 3214.23 433.934 3234.84 433.934Z" fill="white"/>
<path d="M3471.32 435.95C3489.24 435.95 3505.26 432.926 3519.37 426.878C3533.71 420.83 3545.8 412.878 3555.66 403.022C3565.52 392.942 3572.57 381.966 3576.83 370.094L3535.84 350.942C3530.91 363.486 3522.84 373.902 3511.64 382.19C3500.67 390.254 3487.23 394.286 3471.32 394.286C3455.64 394.286 3441.87 390.59 3430 383.198C3418.12 375.806 3408.83 365.614 3402.11 352.622C3395.39 339.406 3392.03 324.062 3392.03 306.59C3392.03 289.118 3395.39 273.886 3402.11 260.894C3408.83 247.678 3418.12 237.486 3430 230.318C3441.87 222.926 3455.64 219.23 3471.32 219.23C3487.23 219.23 3500.67 223.374 3511.64 231.662C3522.84 239.726 3530.91 250.03 3535.84 262.574L3576.83 243.422C3572.57 231.55 3565.52 220.686 3555.66 210.83C3545.8 200.75 3533.71 192.686 3519.37 186.638C3505.26 180.59 3489.24 177.566 3471.32 177.566C3453.4 177.566 3436.83 180.814 3421.6 187.31C3406.36 193.582 3393.15 202.542 3381.95 214.19C3370.75 225.614 3362.01 239.278 3355.74 255.182C3349.47 270.862 3346.33 287.998 3346.33 306.59C3346.33 325.182 3349.47 342.43 3355.74 358.334C3362.01 374.014 3370.75 387.678 3381.95 399.326C3393.15 410.974 3406.36 420.046 3421.6 426.542C3436.83 432.814 3453.4 435.95 3471.32 435.95Z" fill="white"/>
<path d="M3662.39 435.95C3686.13 435.95 3705.17 428.11 3719.51 412.43V431.918H3761.17V310.286C3761.17 297.518 3757.93 286.206 3751.43 276.35C3744.93 266.494 3735.97 258.878 3724.55 253.502C3713.35 247.902 3700.25 245.102 3685.24 245.102C3666.87 245.102 3650.52 249.47 3636.18 258.206C3621.85 266.942 3611.99 278.478 3606.61 292.814L3642.57 310.286C3645.93 301.998 3651.19 295.39 3658.36 290.462C3665.53 285.31 3673.93 282.734 3683.56 282.734C3693.64 282.734 3701.7 285.422 3707.75 290.798C3714.02 295.95 3717.16 302.446 3717.16 310.286V316.334L3662.73 325.07C3641.22 328.654 3625.32 335.486 3615.01 345.566C3604.71 355.646 3599.56 368.302 3599.56 383.534C3599.56 399.662 3605.27 412.43 3616.69 421.838C3628.12 431.246 3643.35 435.95 3662.39 435.95ZM3645.25 381.854C3645.25 369.086 3653.88 361.022 3671.13 357.662L3717.16 349.934V357.326C3717.16 369.87 3712.79 380.51 3704.05 389.246C3695.54 397.982 3684.34 402.35 3670.45 402.35C3663.06 402.35 3657.01 400.558 3652.31 396.974C3647.61 393.166 3645.25 388.126 3645.25 381.854Z" fill="white"/>
<path d="M3801.86 431.918H3845.87V330.11C3845.87 316.222 3849.68 305.47 3857.3 297.854C3865.14 290.014 3875.22 286.094 3887.54 286.094H3903.33V247.118H3892.58C3881.38 247.118 3871.52 249.134 3863.01 253.166C3854.5 257.198 3847.89 264.478 3843.18 275.006V249.134H3801.86V431.918Z" fill="white"/>
<path d="M4012.54 435.95C4024.41 435.95 4035.38 433.934 4045.46 429.902C4055.54 425.646 4063.94 419.598 4070.66 411.758V431.918H4112.33V181.598H4068.31V267.614C4054.65 252.606 4035.94 245.102 4012.2 245.102C3994.95 245.102 3979.27 249.358 3965.16 257.87C3951.27 266.158 3940.3 277.582 3932.23 292.142C3924.17 306.478 3920.14 322.606 3920.14 340.526C3920.14 358.446 3924.17 374.686 3932.23 389.246C3940.3 403.582 3951.27 415.006 3965.16 423.518C3979.05 431.806 3994.84 435.95 4012.54 435.95ZM4017.24 395.63C4007.38 395.63 3998.54 393.278 3990.7 388.574C3982.86 383.87 3976.7 377.374 3972.22 369.086C3967.96 360.574 3965.83 351.054 3965.83 340.526C3965.83 329.998 3967.96 320.59 3972.22 312.302C3976.7 304.014 3982.86 297.518 3990.7 292.814C3998.54 287.886 4007.38 285.422 4017.24 285.422C4027.1 285.422 4035.83 287.774 4043.45 292.478C4051.29 297.182 4057.34 303.678 4061.59 311.966C4066.07 320.254 4068.31 329.774 4068.31 340.526C4068.31 351.278 4066.07 360.798 4061.59 369.086C4057.34 377.374 4051.29 383.87 4043.45 388.574C4035.83 393.278 4027.1 395.63 4017.24 395.63Z" fill="white"/>
</svg>
