<svg xmlns="http://www.w3.org/2000/svg" width="1602" height="154" fill="#44374d" xmlns:v="https://vecta.io/nano"><path d="M71.273.558077C77.7576-.221958 84.2922.40807 90.8018.273064c4.7747.060002 9.5892-.570026 14.3242.315014-.055 2.770122-.12 5.535252 0 8.305372-7.9696.38502-15.9591-.15001-23.9286.34502-.385 4.59023.125 9.18543.14 13.78063 6.7896.1 13.5842-.155 20.3686.15.183 2.8826.173 5.7741-.03 8.6554-6.8744.56-13.789-.16-20.6636.425-.055 6.4253.2 12.8556.145 19.2859-3.2148.695-6.5196.555-9.7844.34-.8279-17.0528-.3035-34.2371-.1-51.317323zM229.534.30242c3.152-.444479 6.354-.3955575 9.49.145007l-.11 51.397273c-3.153.245-6.319.2601-9.475.045l.095-51.58728zm16.922.215017c3.165-.730032 6.435-.5500242 9.645-.290013.372 17.183276.333 34.432076.015 51.622276-3.225.2559-6.465.2592-9.69.01l.03-51.342263zm162.458-.20572c3.139-.463904 6.333-.3962907 9.45.200009L418.259 51.874c-2.911.2317-5.836.2183-8.745-.04l-.295-3.8651c-9.832 7.8838-25.902 2.9706-28.763-9.5505-5.364-16.8037 13.938-30.98687 28.283-20.3554.19-5.9133-.14-11.84102.175-17.751283zM397.45 23.1827c-14.734 3.1817-7.676 25.2012 6.324 18.8404 9.602-4.9627 4.741-21.073-6.324-18.8404zM426.169.566854c3.189-.6609136 6.479-.6541039 9.665.02.14 3.095006-.01 6.190006-.12 9.285016-3.149.22413-6.311.22083-9.46-.01l-.085-9.295016zm61.878-.263677c3.432-.496838 6.925-.3783147 10.315.350016C490.412 17.4679 483.67 34.8457 476.113 51.8555c-3.395.24-6.819.36-10.189-.195L488.047.303177zm40.377.269036c3.164-.745034 6.429-.6400294 9.639-.325015.45 17.195302.254 34.436602.075 51.637302-2.91.2017-5.83.1984-8.74-.01l-.269-3.9652c-14.503 10.5205-33.031-1.6145-29.469-19.0063 2.92-13.0181 17.899-18.8424 28.704-10.855.551-5.8103.205-11.65553.06-17.475787zM516.944 23.1982c-7.665 1.1851-10.217 10.668-5.809 16.4758 3.474 4.0852 10.304 4.6352 14.309 1.025 7.114-6.5818 1.494-19.6649-8.5-17.4983v-.0025zM585.233.552759c3.096-.553657182 6.257-.6463307 9.38-.275013.37 5.945264.03 11.910554.2 17.865754 6.513-4.6152 14.322-5.0622 21.168-.8245 6.997 4.4327 10.4 14.3717 7.285 22.1055-2.65 8.5394-12.357 14.0386-21.049 12.1405-2.93-.56-5.389-2.3201-8.009-3.6301-.035 1.275-.115 2.5501-.175 3.8252-2.914.3374-5.854.3726-8.775.105L585.233.552759zM602.932 23.1738c-10.964 1.7-11.116 18.0693-.115 19.8459 15.542 2.0921 15.596-21.8285.115-19.8459zM629.261.550548c3.11-.550000651 6.305-.770001 9.415-.09.161 3.143282.149 6.293012-.035 9.435012-3.146.20334-6.301.19164-9.445-.035-.647-3.08251-.347-6.22751.065-9.310012zM816.933.317853c3.12-.3650167 6.305-.535024 9.39.205009l-.135 51.357338c-2.898.2208-5.809.2091-8.705-.035l-.29-3.8752c-12.611 9.4089-29.512.621-29.653-14.9412.221-15.2587 16.644-23.98906 29.184-14.9651.189-5.9128-.196-11.84058.209-17.745847zM805.424 23.1839c-7.913 1.0385-10.599 11.121-5.629 16.8157 3.784 4.1702 11.124 4.1352 14.814-.14 5.582-7.0803.292-18.4798-9.185-16.6757zM1329.17.53806c6.49-.795035 13.04-.125005 19.55-.100004 6.68-.283513 14.54 2.118594 17.13 8.895404 3.13 8.39684 1.23 19.97694-8.28 23.04054-5.96 2.4106-12.46 1.3-18.68 1.8556l.11 17.4058c-3.21.57-6.48.46-9.7.235-.73-17.0683-.32-34.2446-.13-51.33234zm9.96 8.71039c-.28 5.24025-.15 10.50045.09 15.74075 3.68.22 7.37.08 11.05.03 3.44-.01 7.01-2.8352 6.98-6.4403 1.4-11.66655-10.31-9.61996-18.12-9.32795v-.0025zM1448.18.582638c7.32-.815036 14.71-.115005 22.07-.085003 5.73.195008 12.34 2.830125 14.34 8.690385 4.84 10.05398-.19 22.85898-11.93 24.28058-4.75.9706-9.61.3355-14.41.6755-.14 5.9103.15 11.8256-.18 17.7308-3.37.185-6.76.3851-10.09-.265l.2-51.027262zm10.11 8.600382c-.13 5.31528-.08 10.63548-.04 15.95068 3.5.215 7-.15 10.51-.095 1 .0564 2-.0969 2.93-.45.94-.3531 1.79-.8982 2.5-1.6001 3.27-3.0601 3.02-8.7754-.04-11.8855-4.02-3.44414-10.92-1.77807-15.86-1.92008zm68.88-8.596393c3.1-.58203548 6.28-.6781875 9.41-.285013V51.8889c-3.1.2009-6.22.1992-9.32-.005-.46-17.0637-.52-34.2245-.09-51.297273zM446.906 3.15838c3.103-.19001 6.216-.185 9.319.015.295 3.59517.155 7.20532.21 10.81052 2.895 0 5.805.025 8.655.62-.105 2.5801-.11 5.1702-.03 7.7553-2.875.2051-5.75.1651-8.625.2051-.11 4.9952-.04 9.9904-.015 14.9856-.222 6.1088 3.411 6.6243 8.5 6.7453.087 2.4191.012 4.8414-.225 7.2504-21.772 1.9501-17.496-13.6822-17.929-28.9813-1.985-.02-3.965-.06-5.945-.17-.306-2.63-.413-5.2793-.32-7.9254 7.722-.5175 6.063-5.52176 6.405-11.31052zm202.916.00913c3.205-.20251 6.419-.20251 9.624 0-.19 3.61516-.065 7.23529-.05 10.85549 2.876-.08 5.754.0051 8.62.255.312 2.6814.337 5.3886.075 8.0754-2.905.21-5.82.165-8.73.225-.175 4.8252-.05 9.6504-.035 14.4756-.256 6.4538 3.208 7.1634 8.72 7.2104.25 2.3774.274 4.7734.07 7.1553-3.96.995-8.19.265-11.89-1.3201-9.799-5.0592-5.299-18.5558-6.609-27.4462l-6.145-.32c-.278-2.6482-.272-5.3186.02-7.9654 1.74-.3 3.645-.4 5.115-1.4951 1.585-2.96009.945-6.48025 1.215-9.70539zm461.488-.00054c3.11-.20084 6.23-.19917 9.34.005.17 3.60516.05 7.21533.1 10.82553 2.9.0134 5.78.2021 8.65.565-.13 2.6101-.1 5.2252-.2 7.8353-2.81.16-5.62.13-8.43.15l-.03 16.5208c.1 5.0367 4.96 4.9752 8.72 5.4102-.22 2.2851.24 4.6952-.36 6.9003-3.54 1.2201-7.36.16-10.79-.925-10.73-4.2937-6.18-18.8364-7.33-27.8513l-6.09-.17c-.17-2.5848-.21-5.1767-.11-7.7653 1.91-.595 4.39-.7151 5.55-2.5751.91-2.87016.71-5.9553.98-8.92543zM19.5018 4.30281C46.4891-.611408 62.4681 31.9696 39.6655 48.3803 34.1159 52.185 27.0513 53.01 20.4967 52.35-6.23066 48.2048-7.08611 9.82756 19.5018 4.30281zm2.4748 3.40016C7.63399 10.2781-.222528 29.0479 9.29938 40.5444 18.6743 54.08 37.5536 50.3209 43.6718 35.8942c5.5056-14.3201-6.3101-30.15382-21.6952-28.19123zm1.0733 3.15373c2.2824-.4385 4.6455.0471 6.57 1.35 1.9951 1.325 1.9651 4.185.9801 6.125-.875 1.505-2.7401 1.865-4.3251 2.09-1.855.155-3.93.255-5.55-.825-3.401-2.6065-1.832-8.0235 2.325-8.74zm129.4051 3.7308c2.97-.8 6.06-.625 9.05-.04-.149 1.7545-.171 3.5176-.065 5.2752 1.77-1.455 2.975-3.6051 5.149-4.5252 2.835-1.1935 5.97-1.4816 8.975-.825l-.295 7.9053c-5.114-.15-12.577.6066-12.944 7.1254-.145 7.4553.175 14.9206-.165 22.376-3.22.185-6.47.36-9.655-.275.06-12.3356.49-24.6861-.05-37.0167zm161.974-.0098c2.975-.825 6.075-.59 9.07-.025-.143 1.7466-.163 3.5009-.06 5.2503 1.765-1.4401 2.965-3.5902 5.145-4.4852 2.847-1.2242 6.013-1.4994 9.029-.7851-.32 2.6001-.27 5.2203-.35 7.8354-5.178-.096-12.469.5125-12.939 7.1053-.18 7.4553.2 14.9257-.205 22.381-3.198.2826-6.416.2575-9.61-.075.063-12.4006.383-24.8061-.08-37.2017zM426.328 14.5c3.137-.6709 6.38-.6692 9.515.005l.035 37.1316c-3.15.62-6.37.425-9.55.24-.22-12.453-.195-24.9236 0-37.3766zm202.706.0581c3.155-.5679 6.375-.6774 9.56-.325.357 12.5406.247 25.1061.04 37.6567-3.106.2025-6.223.1975-9.33-.015l-.27-37.3167zm133.145.0039c2.903-.6565 5.914-.6736 8.824-.05l.06 5.2252c3.832-4.5202 7.97-6.4728 13.979-5.2802-.09 2.5901-.09 5.1802-.05 7.7753-4.34.3806-9.141-.0055-11.984 4.0207-1.295 1.9896-1.165 4.4947-1.25 6.7698l.11 18.5859c-3.14.635-6.35.455-9.519.275l-.17-37.3217zm84.001.0305c2.911-.6877 5.945-.6723 8.849.045l.075 3.8802c17.965-13.22658 38.892 7.7614 26.493 25.8512-3.893 5.3312-11.012 8.4584-17.563 7.3503-2.985-.59-5.645-2.1101-8.385-3.3551.13 5.3402.235 10.6904-.01 16.0307-3.08.1908-6.169.1892-9.249-.005-.418-16.5883-.102-33.199-.21-49.7973zm17.268 8.6554c-7.178 1.1606-9.766 9.9945-6.109 15.7357 2.93 4.2352 9.214 5.3153 13.559 2.6901 3.025-1.685 4.69-5.2402 4.415-8.6453.694-6.3253-5.918-11.2555-11.865-9.778v-.0025zm61.357-8.6063c3.481-.8516 7.122-.8034 10.579.14 2.135 8.0004 5.45 15.6107 8.13 23.4261.91-.5703 1.598-1.4349 1.95-2.4501 2.77-7.1253 5.124-14.4107 7.874-21.551 3.245-.255 6.53-.36 9.75.26l-16.584 43.337c-3.124 7.4278-11.435 10.5884-18.849 7.6903.005-2.4651.015-4.9352.175-7.4003 2.37-.155 4.815.205 7.149-.31 2.625-1.5801 4.895-5.0353 3.665-8.1554-4.73-11.6125-8.759-23.524-13.839-34.9866zm42.378-.2195c2.934-.5495 5.947-.5104 8.865.115l.32 4.1602c6.876-6.2187 14.628-5.7862 20.893 1.0151 5.329-6.5503 15.989-7.6209 21.349-.5445 5.02 6.0257 1.69 23.8755 2.81 32.4659-3.18.6-6.43.46-9.64.195-.23-7.7553.21-15.5207-.13-23.271-.09-3.8402-4.62-6.5153-8.11-5.2153-1.29.3103-2.43 1.0435-3.26 2.0823-.818 1.0388-1.268 2.3232-1.274 3.648-.27 7.5853.13 15.1807-.125 22.771-3.157.2483-6.329.2617-9.489.04-.31-7.4553-.07-14.9206-.09-22.381.535-4.2502-3.927-7.3478-7.85-6.2803-2.354.6801-4.624 2.6752-4.654 5.2753-.195 7.7953.155 15.6007-.18 23.391-3.105.2025-6.22.1975-9.325-.015-.606-12.46-.01-24.9736-.11-37.4517zm100.317-.0493c2.95-.5154 5.97-.4696 8.9.135l-.06 4.2452c2.12-1.2251 4-2.9101 6.33-3.7652 6.28-2.1701 14.44.76 16.94 7.1553 1.57 4.1152 1.05 8.5854 1.13 12.8856-.06 5.6203.14 11.2455-.14 16.8558-3.09.21-6.2.205-9.3-.015-1.25-8.3254.79-16.8403-.77-25.0962-3.18-5.9612-13.5-4.3066-13.55 2.8102-.21 7.4003.16 14.8206-.08 22.221-3.15.3091-6.32.3209-9.47.035-.22-12.4696-.39-25.0022.07-37.4667zm133.91.155c3.14-.82 6.39-.43 9.56.045l-.07 21.491c-.04 1.2669.29 2.5182.93 3.6086.65 1.0904 1.59 1.9752 2.72 2.5517 3.46 2.0101 8.52.365 10.08-3.3152 1.26-8.0703-.32-16.2757.6-24.3761 3.1-.6539 6.3-.676 9.41-.065l-.04 37.4167c-3.02.195-6.08.315-9.05-.315.12-1.3901.18-2.7851.22-4.1802-2.46 1.4101-4.51 3.7052-7.41 4.2002-4.23 1.1051-8.82-.305-12.1-3.0851-5.83-4.9913-4.94-13.5421-5.02-20.476.05-4.5002-.16-9.0054.17-13.5006zm203.36.1106c3.49-.8567 7.14-.8034 10.59.155 2.24 8.0103 5.31 15.8047 8.34 23.546 1.73-1.83 2.37-4.3202 3.24-6.6203l5.65-15.8057c.28-.65.41-1.615 1.32-1.645 3.03-.4436 6.11-.3811 9.11.185l-15.59 40.7618c-2.38 8.8424-11.15 13.6586-19.79 10.2704-.02-2.4601 0-4.9202.16-7.3703 2.25-.11 4.53.055 6.78-.21 3.57-1.5641 5.55-6.2473 3.48-9.7254-4.59-11.1155-8.4-22.551-13.29-33.5415zm-1281.276.1542c17.256-3.7712 30.435 15.1922 19.773 29.6863-7.016 9.0005-21.637 9.9035-29.622 1.7096-10.416-10.2114-4.612-29.0113 9.849-31.3959zm1.995 8.4504c-6.88 1.1165-9.112 10.0649-5.915 15.5107 2.825 4.9002 10.37 5.7852 14.43 1.9751 7.209-6.5858 1.583-19.8879-8.517-17.4858h.002zm76.172-7.8353c7.112-2.4701 16.56-.6195 20.464 6.2903 1.204 2.5901 1.199 5.5352 1.239 8.3304l-.14 21.8409c-2.802.2443-5.621.2208-8.419-.07l-.405-3.8301c-2.41 1.375-4.66 3.2601-7.5 3.6501-9.233 2.4246-21.205-6.4003-14.379-15.8762 5.667-5.5337 14.457-4.5837 21.444-7.2503.375-4.7062-5.128-7.3268-9.044-5.3653-2.165.8451-3.685 2.6602-5.16 4.3652-2.609-1.0352-5.142-2.2532-7.58-3.6451 1.15-4.3597 5.39-7.1448 9.48-8.4399zm.76 22.711c-2.825.7851-2.495 5.3403.17 6.1253 6.167 1.5126 11.809-1.5901 11.294-8.4504-3.922.1471-7.794.9325-11.464 2.3251zm80.031-20.9606c9.249-5.7062 23.415-2.5541 27.463 8.0804-2.739 1.09-5.284 2.6201-8.084 3.5652-2.557-6.0198-11.22-7.7889-15.789-3.0202-4.105 4.3152-3.6 12.1756 1.335 15.6607 4.729 3.4602 12.279 1.2751 14.409-4.2102 2.775.9651 5.31 2.4751 7.999 3.6402-2.574 8.0929-12.599 12.3335-20.548 10.716-5.1-1.1956-10.23-3.8907-12.88-8.5909-5.178-8.4034-2.855-21.0065 6.095-25.8412z"/><path d="M348.097 17.8529c12.888-9.58494 32.133 1.9691 28.198 17.9958-8.687.7335-17.535-.615-26.153.65 2.57 8.1289 12.086 9.1409 17.764 3.4902 2.464 1.06 4.894 2.2001 7.259 3.4701-4.345 7.8819-15.221 10.343-23.168 6.8753-13.249-4.5607-15.317-24.7606-3.9-32.4814zm2.515 10.5455c5.444.0605 11.024.616 16.409-.3201-1.469-4.7842-5.404-6.7738-10.21-5.9952-3.194.46-5.439 3.3351-6.199 6.3178v-.0025zm206.605-13.3815c13.749-3.1116 23.82 7.0038 22.343 20.726-8.767.954-17.713-.5366-26.438.74 2.505 7.9678 12.069 9.2134 17.694 3.6602 2.54.9 4.955 2.1201 7.455 3.1351-4.68 8.5654-16.347 10.695-24.689 6.4848-14.819-6.9438-12.582-31.1334 3.635-34.7461zm-.48 8.4404c-1.805 1.0401-2.53 3.0551-2.92 4.9802 5.215.17 10.434.115 15.654.035.256-6.2617-8.417-8.2423-12.736-5.0152h.002zm135.042-5.4288c9.284-6.8438 24.131-3.8616 28.868 7.0103-2.646 1.4632-5.406 2.709-8.254 3.7252-3.887-8.8959-18.099-6.9148-18.154 3.2252-1.573 11.4005 13.269 15.4006 18.169 5.2952 2.865 1.12 5.725 2.3401 8.269 4.0952-3.18 6.4438-9.842 10.2269-16.914 10.625-18.095.2345-26.84-23.0306-11.984-33.9761zm36.284.7927c5.854-5.1617 14.824-5.7138 21.659-2.2151 8.231 4.6112 6.116 15.0147 6.539 22.921-.035 4.1052.14 8.2204-.175 12.3206-2.893.2375-5.8.2475-8.694.03l-.25-3.9152c-5.663 3.8212-11.222 5.5252-17.724 2.4146-6.559-2.5531-8.713-12.0455-2.454-16.1652 2.814-1.9651 6.259-2.5551 9.524-3.4002 1.945-.8565 10.824-.8865 10.119-3.7101-1.566-6.8108-11.449-5.3148-13.714.31-2.88-.6951-5.47-2.1701-8.08-3.5102.16-2.1401 1.845-3.6352 3.25-5.0802zm6.545 19.5659c-2.68 1.18-1.675 5.2202.84 5.9152 5.632 1.4686 11.875-1.9876 11.064-8.3603-4.1-.0691-8.164.7657-11.904 2.4451zm161.505-21.4864c7.569-4.2222 19.51-3.4767 23.893 4.8952 1.705 4.0252 1.29 8.4754 1.36 12.7355.08 5.6703-.17 11.3506.225 17.0108-2.995.6951-6.111.69-9.104-.015l.14-3.3251c-2.54.895-4.61 2.8401-7.305 3.3251-9.328 2.7406-21.727-6.0828-14.859-15.7912 5.7-5.5557 14.496-4.5102 21.484-7.2448.262-4.6827-5.129-7.3109-9.075-5.3703-2.154.8251-3.624 2.6602-5.089 4.3452-2.735-1.07-5.475-2.2051-7.91-3.8701 1.435-2.7327 3.455-5.2528 6.24-6.6953zm4.944 20.9459c-3.521.5765-3.492 5.7502-.144 6.5303 6.118 1.15 11.22-1.7621 10.964-8.4354-3.71-.1375-7.325.7725-10.82 1.9026v.0025zm129.833-17.6582c12.59-12.9276 34.71-2.5581 31.22 15.6557-8.67.766-17.51-.65-26.1.675 1.04 6.1403 9.01 8.8854 14.08 5.8603 1.14-.6351 2.08-1.6001 3.26-2.1851 2.59.445 4.81 2.0851 7.28 2.9601-2.66 6.5303-11.04 9.3359-17.62 8.6209-15.49-1.2536-21.94-20.2674-12.12-31.5869zm9.28 2.7651c-1.79 1.3451-3.75 3.0451-3.55 5.5203 5.28.055 10.58.195 15.86-.0951-.6-5.6047-7.8-8.0883-12.31-5.4252zm103.49-7.9901c7.75-1.8626 16.61 1.1225 20.57 8.2954-2.31 1.13-4.6 2.2951-6.95 3.3101-1.89-1.8951-3.86-4.0902-6.68-4.4202-2.43-.24-5.53-.7-7.1 1.6601-1.47 1.505.29 3.5901 1.88 4.0852 5.57 2.1851 12.33 2.1851 16.69 6.8053 7.1 12.044-7.13 19.6228-17.7 16.7007-5.04-1.268-10.86-4.5452-11.7-10.1204 2.19-.9201 4.38-1.8301 6.62-2.6402 1.96 2.1601 3.83 4.9303 6.93 5.4203 3.79.5595 9.13.827 8.62-4.4802-4.41-3.1652-10.15-2.9351-14.94-5.2152-10.11-4.8273-6.7-17.7703 3.76-19.4009zm107.51.025c7.7-1.8826 16.8.9405 20.59 8.2654-2.28 1.16-4.53 2.4101-6.96 3.2301-1.86-2.0901-4.11-4.1852-7.04-4.4102-2.1-.11-4.63-.455-6.23 1.2201-5.39 6.3852 14.78 5.7467 18.1 11.366 1.1 1.53 1.77 3.3326 1.92 5.2131s-.21 3.7673-1.05 5.4568c-5.94 10.443-27.3 8.1274-30.19-3.8551 2.17-1.1847 4.47-2.1062 6.86-2.7451 1.64 2.12 3.35 4.6052 6.16 5.2202 3.24.713 9.46 1.0265 9.25-3.7202-3.83-4.4897-10.97-3.2911-15.81-6.2408-9.18-5.1522-5.43-17.4697 4.4-19.0003zm29.74 4.2118c13.69-11.24754 32.71-1.5446 30.12 16.5207-8.75.9895-17.67-.4795-26.37.715 2.19 6.5723 9.98 9.447 15.64 5.1648.91-.5696 1.84-1.7946 3.06-1.2046 2.26.9151 4.39 2.1301 6.72 2.9001-6.41 10.3035-21.64 11.3921-29.96 2.8352-6.76-7.3544-6.54-20.0594.79-26.9312zm4.54 9.2504c5.29.115 10.59.185 15.89-.04-.8-8.6309-15.03-8.5994-15.89.04zm88.88-9.8221c5.4-4.6547 13.5-5.4117 19.97-2.6501 5.46 2.0266 8.01 7.9923 7.8 13.5206.05 7.4603.31 14.9307-.01 22.391-2.92.2025-5.84.1925-8.75-.03l-.34-3.9302c-5.66 4.2732-12.24 5.5188-18.62 1.9546-7.46-4.1087-6.79-14.5466 1.48-17.2203 4.18-1.465 8.55-2.2951 12.9-3.0601 1.34-.39 3.04-.46 3.93-1.7001-.63-7.4693-11.55-6.5103-13.83-.48-2.88-.775-5.54-2.1651-8.13-3.6002.41-2.1726 2.06-3.7401 3.6-5.1952zm7.62 19.1409c-3.96.9-3.88 5.5917-.14 6.6403 5.57 1.182 11.39-2.2241 10.67-8.4254-3.6-.17-7.15.615-10.53 1.7851zm117.96-22.5617c8.95-3.1166 21.78 2.0201 21.14 12.8006v23.8211c-3 .3608-6.03.2647-9-.285.1-1.1701.13-2.3401.18-3.5102-2.49 1.1651-4.68 3.0401-7.45 3.5202-8.89 2.4651-20.92-5.4443-15.12-15.1007 5.2-6.1503 14.31-5.4708 21.46-7.6349.1-1.58.48-3.5851-1.09-4.5952-4-3.6211-10.02-1-12.42 3.1752-2.77-.9608-5.45-2.1517-8.02-3.5602 1.71-4.3507 5.83-7.5258 10.32-8.6309zm-.37 23.1311c-1.65.64-1.47 2.6651-1.25 4.0901.37 1.7351 2.38 2.1601 3.91 2.1401 5.74.4311 9.74-2.9966 9.12-8.9004-4.01.4301-8.07 1.0501-11.78 2.6702h0zm64.68-19.9463c8.24.3 16.52-.506 24.73.11.13 8.3554-.25 16.7258.23 25.0711 3.26-2.393 6.34-5.0236 9.22-7.8703.9-1.0851 2.34-.8551 3.6-.7501-.64 2.5052-2.91 3.9852-4.44 5.9153-2.96 3.5252-5.88 7.1053-9.17 10.3355-.94.955-2.41.775-3.61.69-1.38-.155-2.25-1.3701-3.17-2.2601-4.03-4.5452-7.62-9.4704-11.94-13.7556 1.05-.56 2.34-1.8351 3.56-.8951 3.08 2.6252 5.6 5.8553 8.75 8.4154 1.3-6.9958.37-14.2316.56-21.3159-8.42-.5736-16.91.034-25.29-.6551-.06-.8-.11-1.595-.14-2.3951 2.29-.785 4.72-.615 7.11-.64zM19.8124 24.2138c3.4212-.2859 6.8608-.2742 10.28.035.4195 7.1865.2885 14.432.065 21.63-3.485.145-7.035.455-10.475-.325.29-7.11 0-14.23.13-21.34zM1172.39 42.5243c2.75-.6842 5.64-.6808 8.39.01-1.49 5.795-3.62 11.41-4.7 17.305-2.11.2632-4.25.1429-6.33-.355 1.12-5.605 2.06-11.27 2.64-16.96zM95.2388 88.9609c1.4299-1.3851 3.5498-.62 5.2552-.325-15.3265 15.0561-24.099 39.2631-15.1046 59.8031-1.7249-.19-4.3397.77-5.2696-1.225-9.9514-19.774-.173-44.078 15.119-58.2531zM266.247 88.49c1.635-.7001 3.44-.2351 5.11.09-4.65 16.96-8.91 34.058-12.884 51.187-1.715.225-3.485.245-5.065-.535.679-1.602 1.176-3.276 1.48-4.99-2.595 1.085-4.615 3.195-7.284 4.12-3.685 1.285-7.77 2.27-11.595.955-11.114-2.464-11.899-16.229-6.139-24.201 6.075-9.65 22.889-16.0166 30.553-4.915 2.85-6.96 3.678-14.5692 5.824-21.711zm-20.773 21.221c-6.9 1.23-12.989 7.28-13.499 14.396-1.45 12.358 14.685 13.087 21.213 5.814 8.816-8.139 5.859-22.425-7.714-20.21zm90.229-21.3744c2.364-.2976 5.922-.7531 6.32 2.4051 1.485 5.0452 4.085 9.6503 6.049 14.5153 3.555 7.181 5.9 14.979 9.91 21.911 1.35-2.3 1.815-4.96 2.5-7.5 2.495-10.446 5.519-20.771 7.579-31.3164 2.004-.3657 4.064-.2993 6.04.195-4.8 16.9584-8.94 34.1384-12.929 51.3024-1.69-.03-3.73.56-5.165-.52-5.85-12.836-10.439-26.474-17.134-38.842-3.857 12.764-6.765 25.845-9.849 38.827-1.72 1.255-4.115.46-6.06.215 4.659-16.932 9.15-34 12.739-51.1924zm101.871.3671c8.415-1.535 17.17-.2865 25.703-.5655 2.55-.1275 5.106.0185 7.624.4355-.295 1.5701-.64 3.1302-.96 4.6952-4.529.5351-9.094.1101-13.639.3151-4.459 15.041-8.167 30.508-11.594 45.797-1.745 1.115-3.965.48-5.87.2l11.455-45.982c-4.525-.2-9.055.11-13.574-.2301l.855-4.6652zm196.536-.3569c1.738-.2849 3.515-.2048 5.22.235-3.98 13.9792-7.246 28.1482-10.809 42.2322-.53 2.525-1.53 4.945-1.675 7.54-.37 2.57-3.84 1.525-5.48.88.705-1.609 1.209-3.298 1.5-5.03-21.76 16.145-39.5-5.496-20.824-23.901 7.28-6.371 20.155-9.234 26.458-.115 2.498-7.101 3.948-14.5159 5.61-21.8412zm-20.659 21.3712c-5.384.89-9.974 4.805-12.349 9.62-3.1 6.885-.338 15.346 8.15 15.236 10.956 1.344 23.251-14.527 13.449-22.982-2.54-2.149-6.102-2.404-9.252-1.874h.002zm94.493-21.1316c6.024-1.2951 12.214-.105 18.308-.145 6.468-.3291 13.525 3.3616 13.35 10.5854-1.245 20.0142-16.949 21.7192-33.383 21.0062-1.855 5.599-3.306 11.324-4.34 17.131-.2.875-.26 1.885-.95 2.535-1.855.585-3.805.19-5.645-.21 3.04-9.921 5.233-20.096 7.835-30.142 1.665-6.905 3.77-13.7203 4.825-20.7606zm4.969 5.0652c-2.465 6.7604-3.844 13.8604-5.454 20.8614 10.77-.073 23.109 2.419 25.848-11.466 1.561-12.5856-12.352-9.1749-20.394-9.3929v-.0025zm110.395-5.1492c6.105-1.125 12.31-.005 18.464-.035 8.492-.211 14.799 5.8353 12.534 14.5206-4.06 17.368-18.599 17.328-33.323 17.126-1.646 6.583-3.614 13.088-4.844 19.776-1.937.144-3.884.002-5.78-.42 4.575-16.921 8.822-33.942 12.949-50.9676zm4.26 5.3153c-1.605 6.9053-3.97 13.6453-4.945 20.6813 5.966-.373 14.149 1.42 19.269-1.83 5.841-3.37 9.99-13.4856 3.17-17.9113-2.545-1.35-5.515-1.265-8.305-1.245-3.064.0675-6.154-.1925-9.189.3025v.0025zm71.772-5.6572c1.666-.1271 3.342.0028 4.969.385-4.204 16.5915-8.804 33.1075-12.334 49.8525-.53 2.52-3.845 1.32-5.625 1.12 4.605-17.047 8.734-34.214 12.99-51.3575zm407.97.0013c1.63-.0639 3.25.0046 4.87.205-1.42 6.6783-3.37 13.2502-4.93 19.9012 3.05-1.11 5.75-3.08 8.98-3.735 4.69-1.12 11.11.991 12.53 6.004 1.04 3.496-.15 7.106-.98 10.511-1.74 6.236-2.97 12.601-4.65 18.841-1.76.088-3.53-.036-5.27-.37 1.64-4.39 2.61-9 3.81-13.525.8-3.596 2.11-7.171 1.88-10.906-.66-6.278-8.93-6.729-13.32-4.06-2.89 1.936-4.95 4.899-5.74 8.29-1.6 6.191-3.36 12.356-4.44 18.666-.2 2.966-3.78 1.808-5.72 1.535 4.59-17.046 8.77-34.211 12.98-51.3572zm114.02.0251c1.68-.1579 3.37-.0311 5 .375-2.94 10.9905-6.12 21.9811-8.14 33.1861 7.37-4.838 13.47-11.45 20.55-16.725 2.03-1.555 4.74-.835 7.02-.355-5.89 4.23-11.34 9.091-16.79 13.855 2.72 6.972 4.89 14.157 7.97 20.996-1.91.38-3.96.815-5.83.11-2.8-5.279-3.71-11.504-6.53-16.841-2.15.926-3.62 2.796-5.47 4.126-4.88 2.54-3.9 8.068-5.53 12.485-1.54 1.08-3.58.34-5.28.115 4.75-17.001 8.65-34.231 13.03-51.3271zm137.46.2738c1.67-.16 4.09-1 5.18.7951 1.13 2.2318 2 4.5922 2.57 7.0303 5.55 18.1459-3.69 38.1619-16.8 50.7769-1.53 1.79-4.05 1.38-6.12 1.63 15.04-15.529 24.55-39.397 15.17-60.2323zm-1154.823.3011c23.043-3.6796 30.263 18.2662 18.998 35.4512-8.572 13.301-29.771 22.237-42.512 9.646-12.923-17.282 4.216-42.436 23.514-45.0972zm-.99 5.4803c-11.679 2.2621-21.045 13.3009-21.099 25.2359-.467 8.692 7.2 15.745 15.809 14.835 12.95-.255 23.931-12.12 24.778-24.77.457-11.2502-9.027-17.3255-19.488-15.3009zm753.793-1.5661c1.73-.1366 3.46-.1383 5.18-.005l-2.83 11.301c2.9.075 5.86-.09 8.71.64-.57 1.537-1.03 3.11-1.38 4.71-2.89.3-5.8.17-8.69.275-1.06 3.51-1.71 7.13-2.77 10.645-.81 4.19-2.72 8.306-2.16 12.651 1.79 2.37 5 2.23 7.67 2.22-.41 1.59-.11 3.98-2.08 4.56-1.59.413-3.26.437-4.87.071-1.6-.366-3.09-1.113-4.35-2.176-2.04-2.095-2-5.3-1.44-7.98 1.64-6.646 3.43-13.266 4.79-19.981-2.39-.055-4.78-.03-7.13-.455.56-1.51 1.01-3.06 1.45-4.605 8.56-.55 8.21-4.9007 9.9-11.871zm37.22.1045c1.76-.1959 3.54-.2394 5.31-.13-.86 3.7852-2.11 7.4855-2.69 11.3305 2.81.065 5.65-.075 8.44.455-.46 1.577-.84 3.178-1.13 4.795-2.89.41-5.8.295-8.7.31-1.19 3.875-2.31 7.771-3.24 11.716-.92 3.8-2.17 7.695-1.64 11.645 1.62 2.635 5.1 2.09 7.74 2.255-.55 1.442-1.02 2.911-1.43 4.401-5.34 1.567-12.68-.933-11.88-7.531.75-7.629 4.36-14.756 4.77-22.461-2.22-.015-4.43-.078-6.63-.19.37-1.51.57-3.07 1.14-4.525 1.96-1.165 4.7-.34 6.35-2.15 2.78-2.54 2.68-6.5403 3.59-9.9205zm343.06.0006c1.72-.2459 3.47-.2845 5.2-.115-1.03 3.7852-1.68 7.6799-3.03 11.3709 2.99.01 6.03-.21 8.97.515-.53 1.534-.98 3.097-1.35 4.68-2.85.395-5.73.285-8.59.335-1.19 2.575-1.55 5.405-2.32 8.105-1.04 4.88-3.18 9.751-2.84 14.806 1.39 2.86 4.91 2.65 7.61 2.63-.32 1.345-.44 2.74-.89 4.05-3.52 1.868-8.85.677-11.1-2.635-1.28-2.565-1.05-5.585-.3-8.27 1.45-6.201 3.33-12.331 4.38-18.611-2.33-.1-4.66-.13-6.97-.305.53-1.55.84-3.185 1.54-4.67 2.01-.93 4.69-.32 6.28-2.2 2.31-2.6556 2.56-6.4007 3.41-9.6859zM101.426 104.372c2.022-.421 4.115-.363 6.11.17.665 9.001 2.367 17.883 4.01 26.737 2.11-1.631 3.334-4.051 4.789-6.226l12.085-18.416c1.406-3.306 4.792-2.814 7.639-1.87-8.694 11.482-16.092 23.908-24.274 35.756-4.536 7.817-11.308 15.539-21.318 12.976.2499-1.575.4599-3.155.6699-4.735 7.2336-.355 10.0851-.108 13.9641-6.95.68-1.1 1.93-2.12 1.615-3.555l-5.29-33.887zm81.614-.096c1.7-.22 3.425-.159 5.105.18-1.175 3.585-1.955 7.281-2.965 10.916-2.009 8.43-7.306 20.739 6.97 19.021 5.955-.95 9.214-6.806 10.214-12.266l4.29-17.861c1.722-.2 3.466-.09 5.15.325-3.182 11.651-6.339 23.322-8.765 35.152-1.719.237-3.468.148-5.154-.265.375-1.2.75-2.405 1.015-3.635-3.015.965-5.6 2.985-8.74 3.63-5.05 1.595-11.414-1.27-12.764-6.581-.99-3.285.01-6.675.885-9.86 1.753-6.21 3.033-12.546 4.759-18.756zm302.964.478c1.48-1.15 3.505-.46 5.18-.19l-.885 4.195c3.645-2.175 7.5-4.6 11.909-4.535 3.325.33 7.145 1.4 8.83 4.575 1.49 2.18 1.575 4.975 1.03 7.481-2.085 7.85-4.07 15.73-5.86 23.651-1.776.078-3.554-.053-5.3-.39 1.77-4.526 2.635-9.326 3.92-13.996.765-3.315 1.94-6.59 1.955-10.025-1.257-10.251-17.459-6.162-18.778 2.275-2.148 7.158-3.504 14.71-5.636 21.786-1.609.795-3.509.15-5.184-.12 3.555-11.382 6.274-23.068 8.819-34.707zm291.262-.192c2.032-.632 4.208-.632 6.24 0 .603 8.993 2.355 17.866 3.984 26.717 2.12-1.626 3.355-4.046 4.805-6.226 4.761-6.757 8.831-14.089 13.854-20.616 1.865-.735 3.97-.265 5.8.39-8.908 11.878-16.582 24.665-25.004 36.892-4.325 7.516-11.147 14.219-20.528 11.746l.68-4.676c7.243-.379 10.071-.13 13.969-6.975.725-1.14 2.01-2.22 1.595-3.725l-5.395-33.527zm296.174 1.094c.45-2.59 3.79-1.305 5.6-1.165-1.83 6.1-3.32 12.3-4.76 18.505-1.32 4.164-1.62 10.07 3.72 11.291 3.62.8 7.71.065 10.45-2.555 5.16-3.838 7.13-20.595 9.1-27.426 1.69-.234 3.41-.176 5.08.17-2.86 11.769-6.4 23.415-8.68 35.316-1.67.199-3.36.137-5.01-.185l.79-4.05c-6 3.497-13.37 7.071-19.2 1.195-2.34-2.36-2.92-5.99-2.33-9.155 1.64-7.341 3.81-14.556 5.24-21.941zm38.59-1.339c1.71-.268 3.45-.188 5.13.235l-.87 4.255c5.36-3.8 12.64-6.595 18.63-2.44 2.81 2.055 3.97 5.77 3.23 9.13l-6 24.406c-1.77.103-3.54-.016-5.27-.355 1.75-4.53 2.6-9.335 3.89-14 1.13-5.017 4.61-12.988-2.04-15.501-5.87-1.995-13.36 1.505-14.75 7.75-2.01 7.116-3.68 14.366-5.42 21.526-1.5 1.175-3.63.465-5.33.19 3.44-11.584 6.26-23.38 8.8-35.196zm229.61 6.115c12.69-11.6381 32.81-6.304 26.29 13.276-9.5.825-19.07-.07-28.59.475-1.63 10.331 10.39 13.68 17.7 8.659 1.49-.9 2.67-2.264 4.24-3.054 1.28.065 2.38.84 3.51 1.395-2.33 5.58-11.45 8.405-17.07 8.78-17.35-.58-16.35-20.296-6.08-29.531zm6.71.18c-3.4 1.72-5.87 4.875-7.27 8.37l22.45.045c1.1-9.555-7.83-12.069-15.18-8.415zm144.13-6.301c1.77-.27 3.58-.19 5.32.235-1.62 4.915-2.79 9.97-4.04 14.991-1.3 4.842-3.91 12.781 2.73 14.705 3.61.845 7.74.19 10.5-2.44 5.68-4.466 6.81-20.396 9.27-27.636 1.68-.107 3.38.019 5.03.375-2.85 11.596-6.31 23.092-8.62 34.792-1.55 1.17-3.64.375-5.38.175l1.5-3.651c-3.23.695-5.82 2.991-9.07 3.631-4.72 1.42-10.56-.815-12.4-5.561-1.57-4.195-.02-8.62 1.08-12.72 1.58-5.581 2.65-11.286 4.08-16.896zm-1338.486.451c27.827-3.5 20.581 31.728-2.18 34.811-17.325 2.428-21.891-14.604-12.019-26.551 3.509-4.395 8.746-7.145 14.199-8.26zm-.51 5c-6.395 1.365-12.06 6.73-13.064 13.301-2.347 13.267 14.488 14.673 21.318 6.404 8.699-8.242 5.148-22.223-8.254-19.705zm136.486-5.056c26.998-3.227 20.81 31.402-2.59 34.896-16.493 2.358-21.698-13.682-12.673-25.64 3.569-4.996 9.308-8.106 15.263-9.256zm-.505 5.01c-6.994 1.34-13.309 7.521-13.524 14.861-.146 1.248-.026 2.512.35 3.711s1 2.304 1.833 3.245 1.853 1.696 2.997 2.215 2.384.792 3.64.8c16.853 1.962 26.574-26.879 4.704-24.832zm233.492 2.496c10.999-12.9006 34.277-10.132 28.323 10.406-.475 1.409-2.255 1.289-3.45 1.394-8.014.076-16.034-.029-24.043.031-.17-.043-.348-.046-.519-.009s-.332.11-.471.218-.251.244-.329.401-.119.329-.121.505c-.195 2.96.85 6.19 3.345 7.97 6.715 4.381 13.09 1.073 18.628-3.345 1.435.145 2.625 1.07 3.865 1.735-17.337 18.849-42.611 3.228-25.228-19.306zm1.115 6.76l22.593-.055c1.238-15.218-19.356-10.963-22.593.055zm35.784-4.855c10.524-15.0716 36.158-13.218 29.803 9.33-9.496 1.437-19.248.114-28.828.66-1.66 9.908 9.31 13.571 16.779 9.235 1.845-1.075 3.47-2.47 5.19-3.735 1.205.505 2.39 1.065 3.565 1.65-3.035 4.796-8.64 7.276-14.04 8.291-4.014.965-8.359-.015-11.774-2.265-7.764-5.424-5.206-16.412-.695-23.166zm9.625-3.366c-3.32 1.786-5.63 4.951-7.28 8.261h22.594c1.514-9.501-8.243-12.195-15.314-8.258v-.003zm86.186-.325c6.083-5.569 17.129-9.12 23.669-2.465 2.2 2.365 1.76 5.896 1.215 8.806-2.025 7.47-3.94 14.97-5.49 22.551-1.585 1.09-3.6.45-5.31.1.525-1.535 1.13-3.045 1.585-4.605-5.386 2.475-10.213 6.581-16.639 4.769-7.913-1.362-8.794-10.581-3.035-15.15 6.84-5.377 16.149-4.695 24.004-7.501-.185-2.07.275-4.74-1.755-6.055-3.255-2.065-7.544-1.615-10.954-.155-2.02.805-3.245 2.85-5.25 3.63-1.335-.095-2.46-.925-3.615-1.505.349-.909.885-1.733 1.575-2.42zm4.395 13.901c-2.965.76-5.845 2.815-6.545 5.94-1.005 3.982 4.273 5.241 7.275 4.825 7.255-.281 12.552-6.616 13.569-13.47-4.853.375-9.584 1.56-14.299 2.705zm89.178-17.341c6.205-3.529 16.438-4.4 19.998 3.145 1.365 3.861-.625 7.731-1.405 11.486-1.18 5.475-2.945 10.81-3.71 16.371-.22 2.925-3.844 1.815-5.749 1.555.54-1.66 1.11-3.31 1.555-4.995-5.018 3.213-10.916 6.917-17.104 4.91-6.871-1.646-7.993-9.122-3.66-14.021 6.787-6.272 16.844-5.765 25.213-8.415.03-1.95.51-4.47-1.309-5.796-3.115-2.325-7.4-2.01-10.885-.77-2.12.675-3.459 2.541-5.189 3.801-1.58.24-2.93-.915-4.32-1.46 1.385-2.676 4.03-4.361 6.565-5.811zm5.444 15.946c-5.137 1.008-14.18 2.71-12.204 9.89 3.935 4.338 11.049 2.177 15.079-.995 3.17-2.29 4.92-6.15 5.32-9.97-2.764.042-5.514.402-8.195 1.075zm114.093-17.955c5.79-1.881 14.983.318 15.229 7.55-.923 9.245-4.746 18.046-6.049 27.276-1.698.185-3.413.102-5.085-.245.385-1.745.955-3.44 1.47-5.155-4.84 3.12-10.24 6.773-16.304 5.28-6.79-1.23-9.239-7.624-5.334-13.211 6.309-7.522 17.405-6.647 26.073-9.41-.11-1.94.535-4.405-1.34-5.715-3.225-2.55-7.905-2.2-11.495-.635-2.025.815-3.379 2.64-5.249 3.675-1.4-.27-2.615-1.07-3.89-1.65 2.73-4.07 7.349-6.49 11.974-7.76zm-.845 18.196c-4.731.888-11.902 2.591-11.494 8.72 2.542 5.717 11.827 3.146 15.544-.145 3.26-2.305 4.565-6.335 5.25-10.095-3.133.278-6.241.786-9.3 1.52zm62.793-18.191c5.793-1.873 15.039.314 15.319 7.546-1.128 9.205-4.581 18.08-6.085 27.266-1.692.208-3.407.142-5.079-.195.38-1.73.93-3.41 1.435-5.105-5.043 3.2-10.787 6.943-17.029 5.014-7.546-1.666-8.315-10.224-2.91-14.86 6.88-5.507 16.313-5.091 24.393-7.58-.155-1.83.57-4.15-1.08-5.481-5.241-4.322-12.787-1.393-16.979 3.011-1.34-.599-2.642-1.278-3.899-2.035 2.881-3.876 7.319-6.331 11.914-7.581zm-6.115 19.486c-4.916 1.164-9.66 8.374-2.685 10.446 8.532 1.846 16.509-4.78 17.344-13.261-4.969.435-9.839 1.565-14.659 2.815zm32.037-13.045c7.743-7.936 23.948-11.108 29.058 1.245-1.61 1.4-3.685 1.995-5.72 2.405-.76-1.435-1.18-3.25-2.699-4.085-8.719-4.801-19.754 2.618-21.214 11.825-2.624 13.375 13.649 15.259 20.459 6.405 1.804-.61 3.344 1.13 4.634 2.155-18.897 19.666-42.789 1.971-24.518-19.95zm38.257-.256c7.986-7.796 23.516-10.713 28.876 1.46-1.69 1.305-3.68 2.144-5.79 2.435-1.3-3.844-3.8-5.264-7.75-5.53-8.17-.55-15.727 6.61-16.306 14.646-1.406 12.8 15.116 13.226 20.916 4.615 1.57.555 3.16 1.25 4.19 2.63-19.218 19.923-42.716 1.289-24.136-20.256zm50.036-6.396c22.24-3.723 22.87 21.777 7.22 31.181-9.77 6.713-25.66 5.167-26.63-8.906-.04-10.953 8.81-20.421 19.41-22.275zm-.03 4.925c-7.55 1.25-13.65 8.22-13.96 15.846.5 11.21 15.6 11.306 21.49 4.179 8.63-7.672 5.72-22.297-7.53-20.025zm179.53-4.909c6.87-1.697 15.28 1.137 17.71 8.25 3.07 11.701-6.6 23.531-17.76 26.121-17.41 4.487-24.9-13.034-14.26-25.711 3.37-4.665 8.78-7.45 14.31-8.66zm-.03 4.925c-15.73 2.445-20.4 28.115.07 24.556 14.34-3.253 18.94-26.814-.07-24.556zm38.39 4.36c6.38-9.142 23.41-14.738 30.23-3.3.31.775 1.2 1.65.56 2.495-1.67.966-3.54 1.538-5.46 1.67-.69-1.595-1.41-3.39-3.06-4.21-9.97-4.866-21.92 5.364-20.84 15.841.17 7.963 10.21 9.775 16.04 6.5 1.99-1.02 3.47-2.75 5.05-4.3 1.25.575 2.46 1.235 3.69 1.865-.02.372.04.743.16 1.095-16.73 17.113-40.52 5.033-26.37-17.656zm116.04-2.417c7.75-8.224 23.95-11.366 29.27 1.035-1.56 1.24-3.59 2.27-5.6 2.165-1.29-1.045-1.55-3.11-3.13-3.95-8.77-4.67-19.71 2.953-21.03 12.16-2.26 13.829 14.19 14.654 20.98 5.711 1.28.59 2.53 1.26 3.79 1.93-.01.285-.05.855-.06 1.14-5.35 4.979-12.74 9.418-20.31 7.7-3.79-.91-7.6-3.17-9.1-6.935-2.73-7.162.06-15.586 5.19-20.956zm85.06-6.939c15.9-2.978 22.51 12.244 13.99 24.476-5.19 7.221-15 12.54-23.93 10.061-4.02-1.05-7.85-3.871-8.95-8.026-3.58-12.316 6.88-24.671 18.89-26.511zm-.02 4.94c-7.22 1.11-13.77 7.405-14 14.911-.9 9.305 9.45 12.172 16.51 8.62 12.09-5.505 14.41-25.173-2.51-23.531z"/></svg>