<?xml version="1.0" encoding="utf-8"?>
<svg version="1.1" id="CART-POLICIES-CONFIRM" xmlns:v="https://vecta.io/nano"
	 xmlns="http://www.w3.org/2000/svg" xmlns:xlink="http://www.w3.org/1999/xlink" x="0px" y="0px" viewBox="0 0 1138 258"
	 enable-background="new 0 0 1138 258" xml:space="preserve"
	 loading="lazy" alt="By continuing to checkout, you agree to ALL provisos, including our Terms of Use &amp; Privacy Policy. You also affirm compliance with every additional product/general disclaimer listed on the “sarmmies.bio” web domain (if applicable).
PLEASE NOTE: This agreement ALSO includes Dwolla, Inc. (&quot;Dwolla&quot;) Terms of Service &amp; Privacy Policy.

SARMMIES ANALYTICAL LLC" class="cart_policies_confirm img n-antiSelect" draggable="false">
<path fill="#44374D" d="M13.4,54.7c2,0,3.8-0.4,5.4-1.1c1.6-0.7,2.8-1.7,3.6-2.9s1.3-2.7,1.3-4.3c0-2.5-1-4.6-3.1-6.1
	c1-0.7,1.7-1.6,2.3-2.7s0.8-2.2,0.8-3.5c0-1.9-0.6-3.6-1.8-4.9s-3-2.4-5.2-3.1l-4.5-1.3c-0.9-0.3-1.7-0.6-2.4-1.1
	c-0.6-0.4-1-1.1-1-2s0.3-1.6,1-2.1c0.7-0.5,1.6-0.8,2.8-0.8c1.4,0,2.7,0.4,3.8,1.2c1.1,0.7,1.9,1.7,2.4,3l4.8-2.3
	c-0.8-2.3-2.3-4-4.3-5.2c-2-1.2-4.2-1.8-6.7-1.8c-2,0-3.7,0.4-5.2,1.1c-1.5,0.7-2.7,1.7-3.6,2.9S2.6,20.4,2.6,22c0,2.5,1,4.5,3.1,6
	c-1,0.7-1.7,1.6-2.3,2.7S2.6,33,2.6,34.3c0,1.9,0.6,3.5,1.8,4.9c1.2,1.4,2.9,2.4,5.3,3l4.5,1.3c0.9,0.2,1.7,0.6,2.4,1.1s1,1.1,1,2
	c0,0.9-0.4,1.8-1.2,2.3c-0.8,0.5-1.8,0.8-3,0.8c-1.6,0-3-0.4-4.3-1.3s-2.3-2.1-3-3.6l-4.8,2.3c0.8,2.4,2.3,4.2,4.5,5.6
	C8,54,10.5,54.7,13.4,54.7z M12.8,37.2c-1.2-0.4-2.1-0.8-2.9-1.4c-0.7-0.6-1.1-1.5-1.1-2.6c0-1.4,0.5-2.4,1.4-3.1l3.2,0.9
	c1.3,0.4,2.3,0.9,2.9,1.5c0.7,0.7,1.1,1.5,1.1,2.5c0,1.3-0.5,2.4-1.4,3.1C16.1,38.2,12.8,37.2,12.8,37.2z M46.5,50h15.1
	c3.6,0,6.5-0.9,8.6-2.8s3.2-4.5,3.2-7.8c0-1.7-0.4-3.4-1.3-4.9c-0.8-1.5-2.1-2.7-3.8-3.7c2.4-1.7,3.6-4.1,3.6-7.2
	c0-2.8-0.9-5.1-2.8-6.8c-1.9-1.7-4.4-2.5-7.6-2.5h-15V50z M51.2,28.9V18.5h10.2c1.7,0,3.1,0.4,4.2,1.3c1.1,0.9,1.6,2.1,1.6,3.7
	c0,1.6-0.5,2.9-1.6,3.9c-1.1,1-2.4,1.5-4.2,1.5C61.4,28.9,51.2,28.9,51.2,28.9z M51.2,45.7V33.2h10.6c2.1,0,3.7,0.6,5,1.7
	s1.9,2.7,1.9,4.6c0,1.9-0.6,3.4-1.9,4.6s-2.9,1.7-5,1.7C61.7,45.7,51.2,45.7,51.2,45.7z M80.6,60.6c1.7,0,3.1-0.3,4.3-1
	c1.2-0.7,2.2-1.6,3.1-2.7c0.9-1.1,1.6-2.4,2.1-3.7l11.7-28.9h-4.9L89,44.3l-7.9-20.2h-4.8L86.5,50l-0.8,1.9
	c-0.7,1.6-1.5,2.7-2.3,3.4c-0.8,0.7-1.9,1-3.4,1c-0.5,0-1.1,0-1.6-0.1L77.2,56v4c0.5,0.2,1.1,0.4,1.6,0.4
	C79.4,60.5,80,60.6,80.6,60.6z M126,50.6c1.7,0,3.3-0.3,4.8-0.9c1.5-0.6,2.8-1.4,3.9-2.5s1.9-2.2,2.4-3.6l-4-2
	c-0.6,1.4-1.5,2.5-2.8,3.4c-1.2,0.8-2.7,1.2-4.3,1.2c-1.6,0-3-0.4-4.3-1.2c-1.2-0.8-2.2-1.9-3-3.3c-0.7-1.4-1.1-3-1.1-4.7
	c0-1.8,0.4-3.4,1.1-4.8s1.7-2.5,3-3.3c1.3-0.8,2.7-1.2,4.3-1.2c1.6,0,3.1,0.4,4.3,1.3c1.2,0.8,2.2,1.9,2.8,3.3l4-1.9
	c-0.5-1.3-1.4-2.5-2.5-3.6c-1.1-1.1-2.4-1.9-3.8-2.4c-1.5-0.6-3.1-0.9-4.8-0.9c-2.5,0-4.8,0.6-6.8,1.8c-2,1.2-3.5,2.8-4.6,4.8
	c-1.1,2-1.7,4.3-1.7,6.9c0,2.6,0.6,4.9,1.7,6.9s2.7,3.7,4.6,4.8C121.2,50,123.5,50.6,126,50.6z M155.2,50.6c2.4,0,4.7-0.6,6.7-1.7
	s3.6-2.8,4.8-4.8c1.2-2,1.8-4.4,1.8-7c0-2.6-0.6-4.9-1.8-6.9c-1.2-2-2.7-3.6-4.8-4.8c-2-1.2-4.3-1.8-6.8-1.8c-2.5,0-4.8,0.6-6.8,1.8
	c-2,1.2-3.6,2.8-4.8,4.8c-1.2,2-1.7,4.3-1.7,6.9s0.6,4.9,1.8,7c1.1,2,2.8,3.7,4.8,4.8C150.4,50,152.7,50.6,155.2,50.6L155.2,50.6z
	 M155.2,46.3c-1.6,0-3.1-0.4-4.4-1.2c-1.3-0.8-2.3-1.9-3.1-3.3c-0.8-1.4-1.2-3-1.2-4.8s0.4-3.3,1.2-4.7s1.8-2.5,3.1-3.3
	c1.3-0.8,2.8-1.2,4.4-1.2c1.6,0,3,0.4,4.3,1.2c1.3,0.8,2.3,1.9,3.1,3.3c0.8,1.4,1.2,2.9,1.2,4.7s-0.4,3.3-1.2,4.8
	c-0.7,1.4-1.8,2.5-3.1,3.3C158.2,45.9,156.8,46.3,155.2,46.3z M174.3,50h4.5V34.7c0-2.1,0.6-3.8,1.8-5s2.7-1.8,4.5-1.8
	s3.3,0.6,4.5,1.8c1.2,1.2,1.7,2.8,1.7,5V50h4.5V33.2c0-1.9-0.4-3.5-1.3-4.9c-0.8-1.5-2-2.6-3.5-3.5c-1.4-0.9-3.1-1.3-4.9-1.3
	c-1.6,0-3,0.3-4.3,1c-1.3,0.6-2.3,1.6-3.1,2.7v-3.2h-4.4L174.3,50L174.3,50z M212.7,50.3l1.3,0c0.5,0,1-0.1,1.4-0.2v-4l-0.9,0.1
	l-0.9,0c-1.6,0-2.7-0.4-3.4-1.2c-0.6-0.8-1-1.9-1-3.2V28.4h5.8v-4.3h-5.8v-6h-4.5v2.1c0,1.2-0.3,2.1-1,2.8c-0.7,0.7-1.6,1-2.7,1h-1
	v4.3h4.7V42c0,2.6,0.7,4.7,2,6.1C208.2,49.6,210.1,50.3,212.7,50.3L212.7,50.3z M221.2,20h4.5v-5.8h-4.5V20z M221.2,50h4.5V24.1
	h-4.5V50z M232.6,50h4.5V34.7c0-2.1,0.6-3.8,1.8-5s2.7-1.8,4.5-1.8s3.3,0.6,4.5,1.8c1.2,1.2,1.7,2.8,1.7,5V50h4.5V33.2
	c0-1.9-0.4-3.5-1.3-4.9c-0.8-1.5-2-2.6-3.5-3.5c-1.4-0.9-3.1-1.3-4.9-1.3c-1.6,0-3,0.3-4.3,1c-1.3,0.6-2.3,1.6-3.1,2.7v-3.2h-4.4
	L232.6,50L232.6,50z M269.6,50.6c1.6,0,3-0.3,4.3-1c1.3-0.7,2.3-1.6,3.1-2.8V50h4.4V24.1h-4.5v15.3c0,2.1-0.6,3.8-1.8,5
	c-1.2,1.2-2.6,1.8-4.5,1.8c-1.9,0-3.4-0.6-4.5-1.7c-1.2-1.2-1.7-2.8-1.7-4.7V24.1h-4.5v16.2c0,2,0.4,3.8,1.2,5.4
	c0.8,1.5,2,2.7,3.4,3.6C266,50.1,267.7,50.6,269.6,50.6L269.6,50.6z M288.3,20h4.5v-5.8h-4.5V20z M288.3,50h4.5V24.1h-4.5V50z
	 M299.7,50h4.5V34.7c0-2.1,0.6-3.8,1.8-5s2.7-1.8,4.5-1.8s3.3,0.6,4.5,1.8c1.2,1.2,1.7,2.8,1.7,5V50h4.5V33.2c0-1.9-0.4-3.5-1.3-4.9
	c-0.8-1.5-2-2.6-3.5-3.5c-1.4-0.9-3.1-1.3-4.9-1.3c-1.6,0-3,0.3-4.3,1c-1.3,0.6-2.3,1.6-3.1,2.7v-3.2h-4.4L299.7,50L299.7,50z
	 M339.8,60.6c2.4,0,4.5-0.5,6.4-1.5c1.9-1,3.4-2.4,4.4-4.1s1.6-3.8,1.6-6V24.1h-4.4v3.6c-1-1.3-2.3-2.4-3.8-3.1
	c-1.5-0.7-3.2-1.1-5-1.1c-2.4,0-4.6,0.6-6.5,1.7c-1.9,1.1-3.4,2.7-4.5,4.6c-1.1,2-1.6,4.1-1.6,6.6s0.5,4.6,1.6,6.6
	c1.1,1.9,2.6,3.5,4.5,4.7c1.9,1.1,4.1,1.7,6.5,1.7c1.8,0,3.4-0.4,4.9-1.1s2.7-1.7,3.7-3v3.6c0,1.6-0.4,2.9-1.1,4
	c-0.7,1.1-1.6,2-2.8,2.5c-1.2,0.6-2.5,0.9-4,0.9c-1.9,0-3.5-0.4-4.8-1.3c-1.2-0.8-2.1-1.9-2.5-3.1l-4.2,1.9c0.9,2,2.3,3.6,4.4,4.9
	S337.1,60.6,339.8,60.6L339.8,60.6z M339.5,45.1c-1.6,0-3-0.4-4.3-1.2c-1.2-0.8-2.2-1.8-3-3.1c-0.7-1.3-1.1-2.8-1.1-4.4
	s0.4-3,1.1-4.3c0.7-1.3,1.7-2.4,3-3.1c1.3-0.8,2.7-1.2,4.3-1.2c1.5,0,2.9,0.4,4.2,1.2c1.2,0.8,2.3,1.8,2.9,3.1
	c0.7,1.3,1.1,2.7,1.1,4.3c0,1.6-0.4,3-1.1,4.3c-0.7,1.3-1.7,2.4-2.9,3.1C342.4,44.7,341,45.1,339.5,45.1z M378,50.3l1.3,0
	c0.5,0,1-0.1,1.4-0.2v-4l-0.9,0.1l-0.9,0c-1.6,0-2.7-0.4-3.4-1.2c-0.6-0.8-1-1.9-1-3.2V28.4h5.8v-4.3h-5.8v-6h-4.5v2.1
	c0,1.2-0.3,2.1-1,2.8c-0.7,0.7-1.6,1-2.7,1h-1v4.3h4.7V42c0,2.6,0.7,4.7,2,6.1C373.5,49.6,375.4,50.3,378,50.3L378,50.3z
	 M398.1,50.6c2.4,0,4.7-0.6,6.7-1.7s3.6-2.8,4.8-4.8c1.2-2,1.8-4.4,1.8-7c0-2.6-0.6-4.9-1.8-6.9c-1.2-2-2.7-3.6-4.8-4.8
	c-2-1.2-4.3-1.8-6.8-1.8c-2.5,0-4.8,0.6-6.8,1.8c-2,1.2-3.6,2.8-4.8,4.8c-1.2,2-1.7,4.3-1.7,6.9s0.6,4.9,1.8,7
	c1.1,2,2.8,3.7,4.8,4.8C393.3,50,395.6,50.6,398.1,50.6L398.1,50.6z M398.1,46.3c-1.6,0-3.1-0.4-4.4-1.2c-1.3-0.8-2.3-1.9-3.1-3.3
	c-0.8-1.4-1.2-3-1.2-4.8s0.4-3.3,1.2-4.7s1.8-2.5,3.1-3.3c1.3-0.8,2.8-1.2,4.4-1.2c1.6,0,3,0.4,4.3,1.2c1.3,0.8,2.3,1.9,3.1,3.3
	c0.8,1.4,1.2,2.9,1.2,4.7s-0.4,3.3-1.2,4.8c-0.7,1.4-1.8,2.5-3.1,3.3C401.1,45.9,399.7,46.3,398.1,46.3z M437.5,50.6
	c1.7,0,3.3-0.3,4.8-0.9c1.5-0.6,2.8-1.4,3.9-2.5s1.9-2.2,2.4-3.6l-4-2c-0.6,1.4-1.5,2.5-2.8,3.4c-1.2,0.8-2.7,1.2-4.3,1.2
	c-1.6,0-3-0.4-4.3-1.2c-1.2-0.8-2.2-1.9-3-3.3c-0.7-1.4-1.1-3-1.1-4.7c0-1.8,0.4-3.4,1.1-4.8s1.7-2.5,3-3.3c1.3-0.8,2.7-1.2,4.3-1.2
	c1.6,0,3.1,0.4,4.3,1.3c1.2,0.8,2.2,1.9,2.8,3.3l4-1.9c-0.5-1.3-1.4-2.5-2.5-3.6c-1.1-1.1-2.4-1.9-3.8-2.4c-1.5-0.6-3.1-0.9-4.8-0.9
	c-2.5,0-4.8,0.6-6.8,1.8c-2,1.2-3.5,2.8-4.6,4.8c-1.1,2-1.7,4.3-1.7,6.9c0,2.6,0.6,4.9,1.7,6.9s2.7,3.7,4.6,4.8
	C432.7,50,434.9,50.6,437.5,50.6z M454.4,50h4.5V34.7c0-2.1,0.6-3.8,1.8-5c1.2-1.2,2.7-1.8,4.5-1.8s3.3,0.6,4.4,1.8
	c1.2,1.2,1.8,2.8,1.8,5V50h4.5V33.2c0-1.9-0.4-3.5-1.3-4.9c-0.8-1.5-2-2.6-3.5-3.5c-1.4-0.9-3.1-1.3-4.9-1.3c-1.6,0-3,0.3-4.3,1
	c-1.2,0.6-2.3,1.5-3,2.6V14.1h-4.5V50z M494.1,50.6c2.7,0,5-0.6,6.9-1.9s3.3-2.8,4.1-4.6l-3.7-1.9c-0.7,1.2-1.7,2.3-2.9,3.1
	s-2.6,1.2-4.4,1.2c-1.4,0-2.8-0.3-4-1c-1.2-0.7-2.2-1.6-3-2.8c-0.8-1.2-1.2-2.7-1.2-4.3h19.8c0.2-0.9,0.2-1.7,0.2-2.4
	c0-2.1-0.5-4.2-1.4-6s-2.4-3.4-4.2-4.6c-1.8-1.2-4-1.8-6.5-1.8c-2.4,0-4.5,0.6-6.4,1.7s-3.4,2.8-4.5,4.8c-1.1,2-1.6,4.3-1.6,6.9
	s0.6,4.9,1.7,7s2.7,3.7,4.6,4.8S491.6,50.6,494.1,50.6z M493.8,27.5c1.3,0,2.5,0.3,3.6,0.9c1.1,0.6,2,1.4,2.6,2.4s1,2.3,1.1,3.6H486
	c0.3-2.2,1.2-3.9,2.7-5.1S491.8,27.5,493.8,27.5L493.8,27.5z M523.7,50.6c1.7,0,3.3-0.3,4.8-0.9c1.5-0.6,2.8-1.4,3.9-2.5
	s1.9-2.2,2.4-3.6l-4-2c-0.6,1.4-1.5,2.5-2.8,3.4c-1.2,0.8-2.7,1.2-4.3,1.2c-1.6,0-3-0.4-4.3-1.2c-1.2-0.8-2.2-1.9-3-3.3
	c-0.7-1.4-1.1-3-1.1-4.7c0-1.8,0.4-3.4,1.1-4.8s1.7-2.5,3-3.3c1.3-0.8,2.7-1.2,4.3-1.2c1.6,0,3.1,0.4,4.3,1.3
	c1.2,0.8,2.2,1.9,2.8,3.3l4-1.9c-0.5-1.3-1.4-2.5-2.5-3.6c-1.1-1.1-2.4-1.9-3.8-2.4c-1.5-0.6-3.1-0.9-4.8-0.9
	c-2.5,0-4.8,0.6-6.8,1.8c-2,1.2-3.5,2.8-4.6,4.8c-1.1,2-1.7,4.3-1.7,6.9c0,2.6,0.6,4.9,1.7,6.9s2.7,3.7,4.6,4.8
	C518.9,50,521.2,50.6,523.7,50.6z M540.6,50h4.5v-7.8l4.4-4.7l8.6,12.4h5.3l-10.6-15.5l9.9-10.4H557l-11.9,12.1V13.9h-4.5L540.6,50
	L540.6,50z M579.2,50.6c2.4,0,4.7-0.6,6.7-1.7s3.6-2.8,4.8-4.8c1.2-2,1.8-4.4,1.8-7c0-2.6-0.6-4.9-1.8-6.9c-1.2-2-2.7-3.6-4.8-4.8
	c-2-1.2-4.3-1.8-6.8-1.8c-2.5,0-4.8,0.6-6.8,1.8c-2,1.2-3.6,2.8-4.8,4.8c-1.2,2-1.7,4.3-1.7,6.9s0.6,4.9,1.8,7
	c1.1,2,2.8,3.7,4.8,4.8C574.5,50,576.7,50.6,579.2,50.6L579.2,50.6z M579.2,46.3c-1.6,0-3.1-0.4-4.4-1.2c-1.3-0.8-2.3-1.9-3.1-3.3
	c-0.8-1.4-1.2-3-1.2-4.8s0.4-3.3,1.2-4.7s1.8-2.5,3.1-3.3c1.3-0.8,2.8-1.2,4.4-1.2c1.6,0,3,0.4,4.3,1.2c1.3,0.8,2.3,1.9,3.1,3.3
	c0.8,1.4,1.2,2.9,1.2,4.7s-0.4,3.3-1.2,4.8c-0.7,1.4-1.8,2.5-3.1,3.3C582.3,45.9,580.8,46.3,579.2,46.3z M607.5,50.6
	c1.6,0,3-0.3,4.3-1c1.3-0.7,2.3-1.6,3.1-2.8V50h4.4V24.1h-4.5v15.3c0,2.1-0.6,3.8-1.8,5c-1.2,1.2-2.6,1.8-4.5,1.8
	c-1.9,0-3.4-0.6-4.5-1.7c-1.2-1.2-1.7-2.8-1.7-4.7V24.1h-4.5v16.2c0,2,0.4,3.8,1.2,5.4c0.8,1.5,2,2.7,3.4,3.6
	C603.9,50.1,605.6,50.6,607.5,50.6L607.5,50.6z M636.7,50.3l1.3,0c0.5,0,1-0.1,1.4-0.2v-4l-0.9,0.1l-0.9,0c-1.6,0-2.7-0.4-3.4-1.2
	c-0.6-0.8-1-1.9-1-3.2V28.4h5.8v-4.3h-5.8v-6h-4.5v2.1c0,1.2-0.3,2.1-1,2.8c-0.7,0.7-1.6,1-2.7,1h-1v4.3h4.7V42c0,2.6,0.7,4.7,2,6.1
	C632.2,49.6,634.2,50.3,636.7,50.3z M646,56.7c3.7-0.9,5.6-3.6,5.6-8.4v-4.1H647V50h2.4c-0.2,2.6-1.3,4.1-3.3,4.7
	C646,54.7,646,56.7,646,56.7z M669.3,60.6c1.7,0,3.1-0.3,4.3-1c1.2-0.7,2.2-1.6,3.1-2.7c0.9-1.1,1.6-2.4,2.1-3.7l11.7-28.9h-4.9
	l-7.8,20.2l-7.9-20.2h-4.8L675.2,50l-0.8,1.9c-0.7,1.6-1.5,2.7-2.3,3.4c-0.8,0.7-1.9,1-3.4,1c-0.5,0-1.1,0-1.6-0.1
	c-0.5-0.1-0.9-0.1-1.3-0.2v4c0.5,0.2,1.1,0.4,1.6,0.4C668.1,60.5,668.7,60.6,669.3,60.6L669.3,60.6z M706.2,50.6
	c2.4,0,4.7-0.6,6.7-1.7s3.6-2.8,4.8-4.8c1.2-2,1.8-4.4,1.8-7c0-2.6-0.6-4.9-1.8-6.9c-1.2-2-2.7-3.6-4.8-4.8c-2-1.2-4.3-1.8-6.8-1.8
	c-2.5,0-4.8,0.6-6.8,1.8c-2,1.2-3.6,2.8-4.8,4.8c-1.2,2-1.7,4.3-1.7,6.9s0.6,4.9,1.8,7c1.1,2,2.8,3.7,4.8,4.8
	C701.5,50,703.7,50.6,706.2,50.6L706.2,50.6z M706.2,46.3c-1.6,0-3.1-0.4-4.4-1.2c-1.3-0.8-2.3-1.9-3.1-3.3c-0.8-1.4-1.2-3-1.2-4.8
	s0.4-3.3,1.2-4.7s1.8-2.5,3.1-3.3c1.3-0.8,2.8-1.2,4.4-1.2c1.6,0,3,0.4,4.3,1.2c1.3,0.8,2.3,1.9,3.1,3.3c0.8,1.4,1.2,2.9,1.2,4.7
	s-0.4,3.3-1.2,4.8c-0.7,1.4-1.8,2.5-3.1,3.3C709.3,45.9,707.8,46.3,706.2,46.3z M734.5,50.6c1.6,0,3-0.3,4.3-1
	c1.3-0.7,2.3-1.6,3.1-2.8V50h4.4V24.1h-4.5v15.3c0,2.1-0.6,3.8-1.8,5c-1.2,1.2-2.6,1.8-4.5,1.8c-1.9,0-3.4-0.6-4.5-1.7
	c-1.2-1.2-1.7-2.8-1.7-4.7V24.1h-4.5v16.2c0,2,0.4,3.8,1.2,5.4c0.8,1.5,2,2.7,3.4,3.6C730.9,50.1,732.6,50.6,734.5,50.6L734.5,50.6z
	 M769.1,50.6c1.9,0,3.6-0.4,5.1-1.1c1.5-0.7,2.7-1.7,3.6-2.9V50h4.4V32.4c0-1.8-0.4-3.3-1.3-4.6c-0.8-1.3-2-2.4-3.5-3.1
	c-1.5-0.8-3.2-1.2-5.2-1.2c-1.5,0-3,0.3-4.4,0.8s-2.6,1.3-3.7,2.3c-1.1,0.9-1.8,2-2.3,3.2l3.9,2c0.5-1.2,1.4-2.2,2.5-3
	s2.4-1.2,3.9-1.2c1.7,0,3.1,0.4,4.1,1.3c1.1,0.9,1.6,2,1.6,3.4v1.2l-8.8,1.4c-2.9,0.5-5.1,1.5-6.4,2.9c-1.3,1.4-2,3.2-2,5.2
	c0,2.2,0.8,4,2.4,5.3C764.4,49.9,766.5,50.6,769.1,50.6L769.1,50.6z M765.1,43.1c0-1.1,0.4-2.1,1.1-2.8c0.8-0.8,2-1.3,3.6-1.6
	l7.8-1.3V39c0,1.4-0.3,2.8-1,3.9s-1.6,2.1-2.8,2.8c-1.2,0.7-2.6,1-4.3,1c-1.3,0-2.4-0.4-3.2-1.1C765.5,45,765.1,44.1,765.1,43.1
	L765.1,43.1z M801.4,60.6c2.4,0,4.5-0.5,6.4-1.5c1.9-1,3.4-2.4,4.4-4.1s1.6-3.8,1.6-6V24.1h-4.4v3.6c-1-1.3-2.3-2.4-3.8-3.1
	c-1.5-0.7-3.2-1.1-5-1.1c-2.4,0-4.6,0.6-6.5,1.7c-1.9,1.1-3.4,2.7-4.5,4.6c-1.1,2-1.6,4.1-1.6,6.6s0.5,4.6,1.6,6.6
	c1.1,1.9,2.6,3.5,4.5,4.7c1.9,1.1,4.1,1.7,6.5,1.7c1.8,0,3.4-0.4,4.9-1.1s2.7-1.7,3.7-3v3.6c0,1.6-0.4,2.9-1.1,4
	c-0.7,1.1-1.6,2-2.8,2.5c-1.2,0.6-2.5,0.9-4,0.9c-1.9,0-3.5-0.4-4.8-1.3c-1.2-0.8-2.1-1.9-2.5-3.1l-4.2,1.9c0.9,2,2.3,3.6,4.4,4.9
	S798.7,60.6,801.4,60.6z M801.1,45.1c-1.6,0-3-0.4-4.3-1.2c-1.2-0.8-2.2-1.8-3-3.1c-0.7-1.3-1.1-2.8-1.1-4.4s0.4-3,1.1-4.3
	c0.7-1.3,1.7-2.4,3-3.1c1.3-0.8,2.7-1.2,4.3-1.2c1.5,0,2.9,0.4,4.2,1.2c1.2,0.8,2.3,1.8,2.9,3.1c0.7,1.3,1.1,2.7,1.1,4.3
	c0,1.6-0.4,3-1.1,4.3c-0.7,1.3-1.7,2.4-2.9,3.1C804,44.7,802.6,45.1,801.1,45.1L801.1,45.1z M820.7,50h4.5V34.6
	c0-2.1,0.6-3.7,1.7-4.8c1.1-1.2,2.6-1.7,4.4-1.7h2.3v-4.2H832c-1.6,0-3,0.3-4.1,0.9c-1.2,0.5-2.1,1.4-2.7,2.5v-3.1h-4.4V50z
	 M849.4,50.6c2.7,0,5-0.6,6.9-1.9s3.3-2.8,4.1-4.6l-3.7-1.9c-0.7,1.2-1.7,2.3-2.9,3.1s-2.6,1.2-4.4,1.2c-1.4,0-2.8-0.3-4-1
	c-1.2-0.7-2.2-1.6-3-2.8c-0.8-1.2-1.2-2.7-1.2-4.3h19.8c0.2-0.9,0.2-1.7,0.2-2.4c0-2.1-0.5-4.2-1.4-6s-2.4-3.4-4.2-4.6
	c-1.8-1.2-4-1.8-6.5-1.8c-2.4,0-4.5,0.6-6.4,1.7s-3.4,2.8-4.5,4.8c-1.1,2-1.6,4.3-1.6,6.9s0.6,4.9,1.7,7s2.7,3.7,4.6,4.8
	S846.9,50.6,849.4,50.6L849.4,50.6z M849,27.5c1.3,0,2.5,0.3,3.6,0.9c1.1,0.6,2,1.4,2.6,2.4s1,2.3,1.1,3.6h-15.1
	c0.3-2.2,1.2-3.9,2.7-5.1S847.1,27.5,849,27.5z M878.9,50.6c2.7,0,5-0.6,6.9-1.9s3.3-2.8,4.1-4.6l-3.7-1.9c-0.7,1.2-1.7,2.3-2.9,3.1
	s-2.6,1.2-4.4,1.2c-1.4,0-2.8-0.3-4-1c-1.2-0.7-2.2-1.6-3-2.8c-0.8-1.2-1.2-2.7-1.2-4.3h19.8c0.2-0.9,0.2-1.7,0.2-2.4
	c0-2.1-0.5-4.2-1.4-6s-2.4-3.4-4.2-4.6c-1.8-1.2-4-1.8-6.5-1.8c-2.4,0-4.5,0.6-6.4,1.7s-3.4,2.8-4.5,4.8c-1.1,2-1.6,4.3-1.6,6.9
	s0.6,4.9,1.7,7s2.7,3.7,4.6,4.8S876.4,50.6,878.9,50.6L878.9,50.6z M878.5,27.5c1.3,0,2.5,0.3,3.6,0.9c1.1,0.6,2,1.4,2.6,2.4
	s1,2.3,1.1,3.6h-15.1c0.3-2.2,1.2-3.9,2.7-5.1S876.6,27.5,878.5,27.5z M915.3,50.3c0.4,0,0.8,0,1.3,0s1-0.1,1.4-0.2v-4l-0.9,0.1
	c-0.3,0-0.6,0-0.9,0c-1.6,0-2.7-0.4-3.4-1.2c-0.6-0.8-1-1.9-1-3.2V28.4h5.8v-4.3h-5.8v-6h-4.5v2.1c0,1.2-0.3,2.1-1,2.8
	c-0.7,0.7-1.6,1-2.7,1h-1v4.3h4.7V42c0,2.6,0.7,4.7,2,6.1C910.8,49.6,912.8,50.3,915.3,50.3z M935.4,50.6c2.4,0,4.7-0.6,6.7-1.7
	s3.6-2.8,4.8-4.8c1.2-2,1.8-4.4,1.8-7c0-2.6-0.6-4.9-1.8-6.9c-1.2-2-2.7-3.6-4.8-4.8c-2-1.2-4.3-1.8-6.8-1.8c-2.5,0-4.8,0.6-6.8,1.8
	c-2,1.2-3.6,2.8-4.8,4.8c-1.2,2-1.7,4.3-1.7,6.9s0.6,4.9,1.8,7c1.1,2,2.8,3.7,4.8,4.8C930.6,50,932.9,50.6,935.4,50.6L935.4,50.6z
	 M935.4,46.3c-1.6,0-3.1-0.4-4.4-1.2c-1.3-0.8-2.3-1.9-3.1-3.3c-0.8-1.4-1.2-3-1.2-4.8s0.4-3.3,1.2-4.7s1.8-2.5,3.1-3.3
	c1.3-0.8,2.8-1.2,4.4-1.2c1.6,0,3,0.4,4.3,1.2c1.3,0.8,2.3,1.9,3.1,3.3c0.8,1.4,1.2,2.9,1.2,4.7s-0.4,3.3-1.2,4.8
	c-0.7,1.4-1.8,2.5-3.1,3.3C938.4,45.9,937,46.3,935.4,46.3z M959.9,50h5l2.9-8.4h15.3L986,50h5l-12.8-35.8h-5.6L959.9,50z
	 M969.3,37.3l6.1-17.7l6.1,17.7H969.3L969.3,37.3z M995.6,50h20.4v-4.3h-15.7V14.2h-4.7L995.6,50L995.6,50z M1021.3,50h20.4v-4.3
	H1026V14.2h-4.7L1021.3,50L1021.3,50z M1048.2,29.9h4.7v-5.8h-4.7V29.9z M1048.2,50h4.7v-5.8h-4.7V50z"/>
<path fill="#44374D" d="M664.4,58.4h393.8v1.9H664.4V58.4z M2.6,122.2h3.3v-9.9c0.7,1,1.7,1.8,2.8,2.3c1.2,0.5,2.5,0.8,3.9,0.8
	c1.8,0,3.5-0.4,4.9-1.3c1.5-0.9,2.6-2.1,3.5-3.6c0.8-1.5,1.3-3.3,1.3-5.2c0-1.9-0.4-3.7-1.3-5.2c-0.8-1.5-2-2.7-3.4-3.6
	s-3.1-1.3-4.9-1.3c-1.5,0-2.8,0.3-4,0.9c-1.2,0.6-2.1,1.3-2.8,2.3v-2.7H2.6V122.2z M12.4,112.2c-1.2,0-2.3-0.3-3.3-0.9
	s-1.8-1.4-2.3-2.4c-0.6-1.1-0.8-2.2-0.8-3.5c0-1.3,0.3-2.5,0.8-3.5c0.6-1,1.4-1.8,2.3-2.4c1-0.6,2.1-0.9,3.3-0.9
	c1.2,0,2.3,0.3,3.2,0.9c1,0.6,1.7,1.4,2.3,2.5c0.6,1,0.8,2.2,0.8,3.5c0,1.3-0.3,2.5-0.8,3.5c-0.6,1-1.3,1.8-2.3,2.4
	C14.7,111.9,13.6,112.2,12.4,112.2z M26.7,115H30v-11.6c0-1.6,0.4-2.8,1.3-3.6c0.8-0.9,1.9-1.3,3.3-1.3h1.7v-3.2h-1.2
	c-1.2,0-2.2,0.2-3.1,0.6c-0.9,0.4-1.5,1-2.1,1.9v-2.3h-3.3V115z M48.5,115.4c1.8,0,3.5-0.4,5-1.3s2.7-2.1,3.6-3.6
	c0.9-1.5,1.4-3.3,1.4-5.3c0-1.9-0.4-3.7-1.3-5.2c-0.8-1.5-2.1-2.8-3.6-3.6c-1.5-0.9-3.2-1.3-5.1-1.3c-1.9,0-3.6,0.4-5.1,1.3
	c-1.5,0.9-2.7,2.1-3.6,3.6c-0.9,1.5-1.3,3.2-1.3,5.2s0.4,3.7,1.3,5.2c0.9,1.5,2.1,2.8,3.6,3.6C44.9,115,46.6,115.4,48.5,115.4z
	 M48.5,112.2c-1.2,0-2.3-0.3-3.3-0.9c-1-0.6-1.8-1.4-2.3-2.4c-0.6-1.1-0.9-2.2-0.9-3.6s0.3-2.5,0.9-3.5c0.5-1,1.3-1.8,2.3-2.4
	c1-0.6,2.1-0.9,3.3-0.9c1.2,0,2.3,0.3,3.2,0.9c1,0.6,1.8,1.4,2.3,2.4c0.6,1,0.9,2.2,0.9,3.5s-0.3,2.5-0.9,3.6
	c-0.6,1-1.3,1.8-2.3,2.4C50.8,111.9,49.7,112.2,48.5,112.2z M67.9,115H71l7.6-19.4h-3.7l-5.5,14.7L64,95.6h-3.7L67.9,115z
	 M81.7,92.5H85v-4.3h-3.3V92.5z M81.7,115H85V95.6h-3.3V115z M97.1,115.4c1.4,0,2.6-0.2,3.7-0.7s1.9-1.1,2.5-2
	c0.6-0.9,0.9-1.8,0.9-3c0-1.3-0.4-2.5-1.3-3.5s-2.1-1.7-3.7-2.1l-3.2-0.9l-1.2-0.4c-0.4-0.2-0.8-0.5-1-0.8c-0.3-0.4-0.4-0.8-0.4-1.4
	c0-0.7,0.3-1.4,0.9-1.9c0.6-0.5,1.4-0.7,2.3-0.7c1.1,0,2,0.3,2.9,0.9c0.9,0.6,1.5,1.4,2,2.4l2.7-1.3c-0.5-1.5-1.6-2.8-2.9-3.6
	c-1.3-0.9-2.9-1.3-4.6-1.3c-1.3,0-2.4,0.2-3.5,0.7c-1,0.5-1.8,1.2-2.4,2c-0.6,0.8-0.9,1.8-0.9,3c0,1.2,0.4,2.4,1.2,3.3
	c0.8,0.9,2.1,1.6,3.9,2.1l2.9,0.8c0.4,0.1,0.8,0.3,1.3,0.5c0.5,0.2,0.8,0.5,1.2,0.8c0.3,0.3,0.5,0.8,0.5,1.4c0,0.8-0.3,1.5-1,2
	s-1.6,0.8-2.6,0.8c-1.1,0-2.3-0.3-3.2-1c-1-0.7-1.7-1.6-2.3-2.8l-2.7,1.3c0.6,1.6,1.6,2.9,3.1,3.9S95.2,115.4,97.1,115.4z
	 M117.8,115.4c1.8,0,3.5-0.4,5-1.3s2.7-2.1,3.6-3.6c0.9-1.5,1.4-3.3,1.4-5.3c0-1.9-0.4-3.7-1.3-5.2c-0.8-1.5-2.1-2.8-3.6-3.6
	c-1.5-0.9-3.2-1.3-5.1-1.3c-1.9,0-3.6,0.4-5.1,1.3c-1.5,0.9-2.7,2.1-3.6,3.6c-0.9,1.5-1.3,3.2-1.3,5.2s0.4,3.7,1.3,5.2
	c0.9,1.5,2.1,2.8,3.6,3.6C114.2,115,115.9,115.4,117.8,115.4z M117.8,112.2c-1.2,0-2.3-0.3-3.3-0.9c-1-0.6-1.8-1.4-2.3-2.4
	c-0.6-1.1-0.9-2.2-0.9-3.6s0.3-2.5,0.9-3.5c0.5-1,1.3-1.8,2.3-2.4c1-0.6,2.1-0.9,3.3-0.9c1.2,0,2.3,0.3,3.2,0.9
	c1,0.6,1.8,1.4,2.3,2.4c0.6,1,0.9,2.2,0.9,3.5s-0.3,2.5-0.9,3.6c-0.6,1-1.3,1.8-2.3,2.4C120.1,111.9,119,112.2,117.8,112.2z
	 M139.1,115.4c1.4,0,2.6-0.2,3.7-0.7s1.9-1.1,2.5-2c0.6-0.9,0.9-1.8,0.9-3c0-1.3-0.4-2.5-1.3-3.5s-2.1-1.7-3.7-2.1l-3.2-0.9
	l-1.2-0.4c-0.4-0.2-0.8-0.5-1-0.8c-0.3-0.4-0.4-0.8-0.4-1.4c0-0.7,0.3-1.4,0.9-1.9c0.6-0.5,1.4-0.7,2.3-0.7c1.1,0,2,0.3,2.9,0.9
	c0.9,0.6,1.5,1.4,2,2.4l2.7-1.3c-0.5-1.5-1.6-2.8-2.9-3.6c-1.3-0.9-2.9-1.3-4.6-1.3c-1.3,0-2.4,0.2-3.5,0.7c-1,0.5-1.8,1.2-2.4,2
	c-0.6,0.8-0.9,1.8-0.9,3c0,1.2,0.4,2.4,1.2,3.3c0.8,0.9,2.1,1.6,3.9,2.1l2.9,0.8c0.4,0.1,0.8,0.3,1.3,0.5c0.5,0.2,0.8,0.5,1.2,0.8
	c0.3,0.3,0.5,0.8,0.5,1.4c0,0.8-0.3,1.5-1,2s-1.6,0.8-2.6,0.8c-1.1,0-2.3-0.3-3.2-1c-1-0.7-1.7-1.6-2.3-2.8l-2.7,1.3
	c0.6,1.6,1.6,2.9,3.1,3.9S137.1,115.4,139.1,115.4L139.1,115.4z M151.1,120c2.8-0.6,4.2-2.7,4.2-6.3v-3.1h-3.5v4.3h1.8
	c-0.1,1.9-1,3.1-2.5,3.5L151.1,120L151.1,120z M167.5,92.5h3.3v-4.3h-3.3V92.5z M167.5,115h3.3V95.6h-3.3V115z M176.1,115h3.3v-11.5
	c0-1.6,0.4-2.8,1.3-3.7s2-1.4,3.4-1.4s2.5,0.5,3.3,1.4c0.9,0.9,1.3,2.1,1.3,3.7V115h3.4v-12.6c0-1.4-0.3-2.6-1-3.7
	c-0.6-1.1-1.5-2-2.6-2.6c-1.1-0.6-2.3-1-3.7-1c-1.2,0-2.3,0.3-3.2,0.8c-0.9,0.5-1.7,1.2-2.3,2.1v-2.4h-3.3L176.1,115L176.1,115z
	 M205.9,115.4c1.3,0,2.5-0.2,3.6-0.7c1.1-0.5,2.1-1.1,2.9-1.9s1.4-1.7,1.8-2.7l-3-1.5c-0.4,1-1.2,1.9-2.1,2.6
	c-0.9,0.6-2,0.9-3.2,0.9c-1.2,0-2.2-0.3-3.2-0.9c-0.9-0.6-1.7-1.5-2.2-2.4c-0.6-1.1-0.8-2.2-0.8-3.5c0-1.3,0.3-2.5,0.8-3.6
	c0.5-1,1.3-1.8,2.2-2.4c1-0.6,2-0.9,3.2-0.9c1.2,0,2.3,0.3,3.2,1c0.9,0.6,1.6,1.4,2.1,2.4l3-1.4c-0.4-1-1-1.9-1.9-2.7
	c-0.8-0.8-1.8-1.4-2.9-1.8c-1.1-0.5-2.3-0.7-3.6-0.7c-1.9,0-3.6,0.4-5.1,1.3c-1.5,0.9-2.6,2.1-3.5,3.6c-0.8,1.5-1.3,3.2-1.3,5.2
	c0,1.9,0.4,3.6,1.3,5.2c0.8,1.5,2,2.8,3.5,3.6C202.3,115,204,115.4,205.9,115.4z M218.6,115h3.3V88.2h-3.3V115z M234,115.4
	c1.2,0,2.3-0.2,3.2-0.7c1-0.5,1.7-1.2,2.3-2.1v2.4h3.3V95.6h-3.4v11.5c0,1.6-0.4,2.8-1.3,3.7c-0.9,0.9-2,1.4-3.3,1.4
	c-1.4,0-2.5-0.4-3.4-1.3c-0.9-0.9-1.3-2.1-1.3-3.5V95.6h-3.3v12.1c0,1.5,0.3,2.9,0.9,4c0.6,1.2,1.5,2.1,2.6,2.7
	C231.4,115.1,232.6,115.4,234,115.4L234,115.4z M256.9,115.4c1.4,0,2.7-0.3,3.9-0.8c1.2-0.6,2.2-1.4,2.9-2.4v2.8h3.3V88.2h-3.4v10
	c-0.7-1-1.7-1.7-2.8-2.2s-2.4-0.8-3.9-0.8c-1.8,0-3.5,0.4-4.9,1.3c-1.4,0.9-2.6,2.1-3.4,3.6c-0.8,1.5-1.3,3.2-1.3,5.2
	c0,1.9,0.4,3.6,1.3,5.2c0.8,1.5,2,2.7,3.4,3.6C253.4,115,255,115.4,256.9,115.4L256.9,115.4z M257.2,112.2c-1.2,0-2.3-0.3-3.3-0.9
	s-1.7-1.4-2.3-2.4c-0.6-1.1-0.8-2.2-0.8-3.5c0-1.3,0.3-2.5,0.8-3.5c0.6-1.1,1.3-1.9,2.3-2.5c1-0.6,2.1-0.9,3.3-0.9
	c1.2,0,2.3,0.3,3.3,0.9c1,0.6,1.7,1.4,2.3,2.4c0.6,1,0.9,2.2,0.9,3.5c0,1.3-0.3,2.5-0.9,3.5c-0.6,1-1.3,1.8-2.3,2.4
	S258.4,112.2,257.2,112.2z M272.1,92.5h3.3v-4.3h-3.3V92.5z M272.1,115h3.3V95.6h-3.3V115z M280.7,115h3.3v-11.5
	c0-1.6,0.4-2.8,1.3-3.7s2-1.4,3.4-1.4s2.5,0.5,3.3,1.4c0.9,0.9,1.3,2.1,1.3,3.7V115h3.4v-12.6c0-1.4-0.3-2.6-1-3.7
	c-0.6-1.1-1.5-2-2.6-2.6c-1.1-0.6-2.3-1-3.7-1c-1.2,0-2.3,0.3-3.2,0.8c-0.9,0.5-1.7,1.2-2.3,2.1v-2.4h-3.3V115z M310.8,122.9
	c1.8,0,3.4-0.4,4.8-1.2c1.4-0.7,2.5-1.8,3.3-3.1s1.2-2.8,1.2-4.5V95.6h-3.3v2.7c-0.8-1-1.7-1.8-2.8-2.3s-2.4-0.8-3.7-0.8
	c-1.8,0-3.5,0.4-4.9,1.3c-1.4,0.8-2.5,2-3.3,3.5s-1.2,3.1-1.2,4.9s0.4,3.5,1.2,4.9c0.8,1.5,2,2.6,3.4,3.5c1.4,0.8,3.1,1.3,4.9,1.3
	c1.3,0,2.5-0.3,3.7-0.8c1.1-0.5,2.1-1.3,2.8-2.3v2.7c0,1.2-0.3,2.2-0.8,3c-0.5,0.8-1.2,1.5-2.1,1.9c-0.9,0.4-1.9,0.6-3,0.6
	c-1.4,0-2.6-0.3-3.6-1c-0.9-0.6-1.6-1.4-1.9-2.3l-3.1,1.4c0.6,1.5,1.7,2.7,3.3,3.7S308.7,122.9,310.8,122.9L310.8,122.9z
	 M310.6,111.3c-1.2,0-2.3-0.3-3.2-0.9c-0.9-0.6-1.7-1.4-2.2-2.3c-0.5-1-0.8-2.1-0.8-3.3s0.3-2.3,0.8-3.2c0.6-1,1.3-1.8,2.2-2.3
	c1-0.6,2-0.9,3.2-0.9c1.2,0,2.2,0.3,3.1,0.9c0.9,0.6,1.7,1.4,2.2,2.3c0.6,1,0.8,2,0.8,3.2c0,1.2-0.3,2.3-0.8,3.2
	c-0.5,1-1.3,1.8-2.2,2.3C312.8,111,311.7,111.3,310.6,111.3L310.6,111.3z M340.7,115.4c1.8,0,3.5-0.4,5-1.3s2.7-2.1,3.6-3.6
	c0.9-1.5,1.4-3.3,1.4-5.3c0-1.9-0.4-3.7-1.3-5.2c-0.8-1.5-2.1-2.8-3.6-3.6c-1.5-0.9-3.2-1.3-5.1-1.3c-1.9,0-3.6,0.4-5.1,1.3
	c-1.5,0.9-2.7,2.1-3.6,3.6c-0.9,1.5-1.3,3.2-1.3,5.2s0.4,3.7,1.3,5.2c0.9,1.5,2.1,2.8,3.6,3.6C337.2,115,338.9,115.4,340.7,115.4
	L340.7,115.4z M340.7,112.2c-1.2,0-2.3-0.3-3.3-0.9c-1-0.6-1.8-1.4-2.3-2.4c-0.6-1.1-0.9-2.2-0.9-3.6s0.3-2.5,0.9-3.5
	c0.5-1,1.3-1.8,2.3-2.4c1-0.6,2.1-0.9,3.3-0.9c1.2,0,2.3,0.3,3.2,0.9c1,0.6,1.8,1.4,2.3,2.4c0.6,1,0.9,2.2,0.9,3.5s-0.3,2.5-0.9,3.6
	c-0.6,1-1.3,1.8-2.3,2.4C343,111.9,341.9,112.2,340.7,112.2z M361.9,115.4c1.2,0,2.3-0.2,3.2-0.7c1-0.5,1.7-1.2,2.3-2.1v2.4h3.3
	V95.6h-3.4v11.5c0,1.6-0.4,2.8-1.3,3.7c-0.9,0.9-2,1.4-3.3,1.4c-1.4,0-2.5-0.4-3.4-1.3c-0.9-0.9-1.3-2.1-1.3-3.5V95.6h-3.3v12.1
	c0,1.5,0.3,2.9,0.9,4c0.6,1.2,1.5,2.1,2.6,2.7C359.3,115.1,360.5,115.4,361.9,115.4z M376,115h3.3v-11.6c0-1.6,0.4-2.8,1.3-3.6
	c0.8-0.9,1.9-1.3,3.3-1.3h1.7v-3.2h-1.2c-1.2,0-2.2,0.2-3.1,0.6c-0.9,0.4-1.5,1-2.1,1.9v-2.3H376V115z M405.7,115h4.9V92.5h6.8v-4.3
	h-18.7v4.3h6.9V115z M426.9,115.4c2,0,3.7-0.4,5.2-1.3c1.5-0.9,2.6-2.1,3.2-3.5l-3.8-1.9c-0.4,0.7-1,1.4-1.8,1.8
	c-0.7,0.5-1.7,0.7-2.7,0.7c-1.4,0-2.6-0.4-3.6-1.3s-1.5-2-1.7-3.5h14.1c0.1-0.3,0.2-0.6,0.2-0.9c0-0.4,0.1-0.7,0.1-1.1
	c0-1.8-0.4-3.3-1.1-4.8s-1.8-2.6-3.2-3.5c-1.4-0.9-3.1-1.3-5.2-1.3c-1.8,0-3.5,0.4-5,1.3c-1.5,0.9-2.6,2.1-3.5,3.6
	c-0.8,1.5-1.3,3.3-1.3,5.2c0,1.9,0.4,3.6,1.3,5.2c0.8,1.5,2,2.8,3.5,3.7C423.1,115,424.8,115.4,426.9,115.4L426.9,115.4z
	 M426.5,98.9c1.2,0,2.3,0.4,3.1,1.2c0.8,0.7,1.3,1.7,1.4,2.9h-9.2c0.3-1.3,0.8-2.3,1.7-3C424.3,99.2,425.3,98.9,426.5,98.9z
	 M439.6,115h4.7v-10.9c0-1.5,0.4-2.6,1.2-3.5c0.8-0.8,1.9-1.3,3.2-1.3h1.7v-4.2h-1.2c-1.2,0-2.3,0.2-3.2,0.6s-1.6,1.2-2.1,2.3v-2.8
	h-4.4L439.6,115L439.6,115z M453.1,115h4.7v-11.5c0-1.3,0.3-2.3,1-3.1s1.6-1.2,2.7-1.2c1.2,0,2.1,0.4,2.7,1.2c0.7,0.7,1,1.8,1,3.1
	V115h4.7v-11.5c0-1.3,0.3-2.3,1-3.1s1.6-1.2,2.7-1.2c1.2,0,2.1,0.4,2.7,1.2c0.7,0.7,1,1.8,1,3.1V115h4.7v-12.6c0-1.5-0.3-2.7-1-3.9
	c-0.6-1.1-1.5-2-2.6-2.6c-1.1-0.6-2.3-0.9-3.7-0.9c-1.3,0-2.5,0.3-3.5,0.8c-1,0.5-1.9,1.3-2.6,2.4c-0.6-1-1.4-1.7-2.5-2.3
	c-1.1-0.6-2.2-0.9-3.6-0.9c-1.2,0-2.3,0.2-3.3,0.7c-0.9,0.5-1.7,1.2-2.2,2.2v-2.4h-4.4L453.1,115L453.1,115z M493.8,115.4
	c1.5,0,2.8-0.3,3.9-0.8s2-1.2,2.6-2.1c0.6-0.9,0.9-2,0.9-3.1c0-1.4-0.4-2.5-1.3-3.5s-2.1-1.7-3.7-2.2l-3.1-0.9
	c-0.7-0.2-1.2-0.4-1.7-0.8s-0.6-0.7-0.6-1.3c0-0.6,0.2-1,0.7-1.4s1.1-0.5,1.9-0.5c1,0,1.9,0.3,2.7,0.8c0.8,0.5,1.4,1.2,1.7,2.1
	l3.6-1.7c-0.6-1.6-1.6-2.8-3-3.7c-1.4-0.9-3-1.4-4.9-1.4c-1.4,0-2.7,0.3-3.8,0.8c-1.1,0.5-1.9,1.2-2.6,2.1c-0.6,0.9-0.9,1.9-0.9,3.1
	c0,1.3,0.4,2.5,1.3,3.5c0.9,1,2.1,1.7,3.8,2.2l3.2,0.9c0.6,0.2,1.2,0.4,1.6,0.8c0.5,0.3,0.7,0.7,0.7,1.3c0,0.6-0.3,1.2-0.8,1.5
	c-0.5,0.4-1.2,0.5-2,0.5c-1.1,0-2.1-0.3-3-0.9s-1.6-1.5-2.1-2.6l-3.5,1.7c0.6,1.7,1.6,3,3.2,4C489.9,114.9,491.7,115.4,493.8,115.4
	L493.8,115.4z M520.8,115.4c1.9,0,3.6-0.4,5.2-1.3c1.5-0.9,2.8-2.1,3.7-3.6c0.9-1.6,1.4-3.3,1.4-5.3s-0.5-3.7-1.4-5.3
	c-0.9-1.5-2.2-2.8-3.7-3.6c-1.6-0.9-3.3-1.3-5.2-1.3c-1.9,0-3.7,0.4-5.3,1.3c-1.5,0.9-2.8,2.1-3.7,3.6c-0.9,1.5-1.4,3.3-1.4,5.3
	s0.5,3.7,1.4,5.3c0.9,1.5,2.2,2.8,3.7,3.6C517.1,115,518.9,115.4,520.8,115.4L520.8,115.4z M520.8,111.1c-1.1,0-2-0.3-2.8-0.8
	c-0.8-0.5-1.5-1.2-1.9-2.1c-0.5-0.9-0.7-1.9-0.7-3.1s0.2-2.1,0.7-3c0.5-0.9,1.1-1.6,1.9-2.1c0.8-0.5,1.8-0.8,2.8-0.8s2,0.3,2.8,0.8
	c0.8,0.5,1.5,1.2,1.9,2.1c0.5,0.9,0.7,1.9,0.7,3s-0.2,2.1-0.7,3.1c-0.5,0.9-1.1,1.6-1.9,2.1C522.8,110.9,521.9,111.1,520.8,111.1z
	 M536.5,115h4.7V99.6h4.4v-4.2h-4.4v-0.6c0-1,0.3-1.7,0.9-2.2c0.6-0.5,1.4-0.7,2.4-0.7c0.4,0,0.8,0,1.2,0.1v-4.1
	c-0.6-0.1-1.2-0.2-1.8-0.2c-2.3,0-4.1,0.6-5.4,1.8s-2,3-2,5.2v0.6h-3.5v4.2h3.5V115z M566,115.4c2.1,0,3.9-0.4,5.5-1.3
	c1.6-0.9,2.9-2.1,3.8-3.6s1.4-3.2,1.4-5.1V88.2h-4.9v17c0,1.1-0.3,2.1-0.8,3c-0.5,0.9-1.2,1.6-2,2.1c-0.8,0.5-1.8,0.7-3,0.7
	c-1.1,0-2.1-0.2-3-0.7c-0.9-0.5-1.6-1.2-2.1-2.1c-0.5-0.9-0.7-1.9-0.7-3v-17h-4.9v17.2c0,1.9,0.5,3.6,1.4,5.1s2.2,2.7,3.7,3.6
	C562.1,115,563.9,115.4,566,115.4z M588.6,115.4c1.5,0,2.8-0.3,3.9-0.8s2-1.2,2.6-2.1c0.6-0.9,0.9-2,0.9-3.1c0-1.4-0.4-2.5-1.3-3.5
	s-2.1-1.7-3.7-2.2l-3.1-0.9c-0.7-0.2-1.2-0.4-1.7-0.8s-0.6-0.7-0.6-1.3c0-0.6,0.2-1,0.7-1.4s1.1-0.5,1.9-0.5c1,0,1.9,0.3,2.7,0.8
	c0.8,0.5,1.4,1.2,1.7,2.1l3.6-1.7c-0.6-1.6-1.6-2.8-3-3.7c-1.4-0.9-3-1.4-4.9-1.4c-1.4,0-2.7,0.3-3.8,0.8c-1.1,0.5-1.9,1.2-2.6,2.1
	c-0.6,0.9-0.9,1.9-0.9,3.1c0,1.3,0.4,2.5,1.3,3.5c0.9,1,2.1,1.7,3.8,2.2l3.2,0.9c0.6,0.2,1.2,0.4,1.6,0.8c0.5,0.3,0.7,0.7,0.7,1.3
	c0,0.6-0.3,1.2-0.8,1.5c-0.5,0.4-1.2,0.5-2,0.5c-1.1,0-2.1-0.3-3-0.9s-1.6-1.5-2.1-2.6l-3.5,1.7c0.6,1.7,1.6,3,3.2,4
	C584.7,114.9,586.5,115.4,588.6,115.4L588.6,115.4z M608.9,115.4c2,0,3.7-0.4,5.2-1.3c1.5-0.9,2.6-2.1,3.2-3.5l-3.8-1.9
	c-0.4,0.7-1,1.4-1.8,1.8c-0.7,0.5-1.7,0.7-2.7,0.7c-1.4,0-2.6-0.4-3.6-1.3s-1.5-2-1.7-3.5h14.1c0.1-0.3,0.2-0.6,0.2-0.9
	c0-0.4,0.1-0.7,0.1-1.1c0-1.8-0.4-3.3-1.1-4.8s-1.8-2.6-3.2-3.5c-1.4-0.9-3.1-1.3-5.2-1.3c-1.8,0-3.5,0.4-5,1.3
	c-1.5,0.9-2.6,2.1-3.5,3.6c-0.8,1.5-1.3,3.3-1.3,5.2c0,1.9,0.4,3.6,1.3,5.2c0.8,1.5,2,2.8,3.5,3.7
	C605.1,115,606.9,115.4,608.9,115.4L608.9,115.4z M608.5,98.9c1.2,0,2.3,0.4,3.1,1.2c0.8,0.7,1.3,1.7,1.4,2.9h-9.2
	c0.3-1.3,0.8-2.3,1.7-3C606.3,99.2,607.4,98.9,608.5,98.9z M641.9,115.4c1.9,0,3.4-0.4,4.6-1.2c1.2-0.8,2.3-1.7,3.1-2.7l3.2,3.4h4.4
	l-5.8-6.2l4.6-7.1h-3.9l-3.1,4.6l-4.7-5.1c0.5-0.3,1-0.6,1.5-1s1.1-0.9,1.7-1.5c0.6-0.6,1-1.2,1.3-2c0.4-0.8,0.5-1.6,0.5-2.6
	c0-1.2-0.3-2.3-0.9-3.3c-0.6-1-1.4-1.7-2.4-2.3c-1-0.6-2.1-0.8-3.3-0.8s-2.3,0.3-3.3,0.8c-1,0.6-1.8,1.3-2.4,2.3
	c-0.6,1-0.9,2.1-0.9,3.4c0,1.4,0.3,2.6,0.9,3.7c0.6,1.1,1.4,2,2.1,2.8l-1.5,1c-0.6,0.4-1.2,0.9-1.7,1.5s-1.1,1.4-1.5,2.2
	c-0.4,0.9-0.6,1.9-0.6,3c0,1.4,0.3,2.6,1,3.6s1.6,1.8,2.7,2.4C639.1,115.2,640.4,115.4,641.9,115.4L641.9,115.4z M639.8,94.1
	c0-1,0.3-1.8,0.9-2.4s1.4-0.9,2.3-0.9s1.7,0.3,2.3,0.9s0.9,1.4,0.9,2.3c0,0.8-0.2,1.5-0.6,2.1c-0.4,0.6-0.9,1.2-1.5,1.6
	c-0.6,0.4-1.2,0.9-1.8,1.2c-0.6-0.7-1.2-1.5-1.8-2.3C640.1,95.9,639.8,95,639.8,94.1z M637.8,108.5c0-1,0.2-1.8,0.6-2.4
	c0.4-0.7,0.9-1.3,1.5-1.8c0.6-0.5,1.2-0.9,1.7-1.2l5.7,6c-0.6,0.8-1.3,1.6-2.2,2.2c-0.8,0.6-1.9,0.9-3.2,0.9c-1.2,0-2.3-0.3-3.1-1
	C638.2,110.6,637.8,109.7,637.8,108.5L637.8,108.5z M674.1,115h4.9v-9.9h5.1c1.8,0,3.4-0.3,4.8-1c1.4-0.7,2.5-1.6,3.3-2.9
	c0.8-1.3,1.2-2.8,1.2-4.6c0-1.8-0.4-3.4-1.2-4.6s-1.9-2.2-3.3-2.8c-1.4-0.7-3-1-4.8-1h-10V115z M679,100.8v-8.3h5.2
	c1.3,0,2.4,0.4,3.2,1.1s1.2,1.8,1.2,3c0,1.2-0.4,2.3-1.2,3c-0.8,0.7-1.8,1.1-3.2,1.1H679z M697,115h4.7v-10.9c0-1.5,0.4-2.6,1.2-3.5
	c0.8-0.8,1.9-1.3,3.2-1.3h1.7v-4.2h-1.2c-1.2,0-2.3,0.2-3.2,0.6s-1.6,1.2-2.1,2.3v-2.8H697V115z M710.5,93.2h4.7v-5h-4.7V93.2z
	 M710.5,115h4.7V95.4h-4.7V115z M725.5,115h4.2l7.7-19.6h-5.1l-4.6,12.8l-4.6-12.8h-5.1L725.5,115z M745.2,115.4
	c2.5,0,4.6-0.8,6.1-2.5v2.1h4.5v-13c0-1.4-0.3-2.6-1-3.6s-1.7-1.9-2.9-2.4c-1.2-0.6-2.6-0.9-4.2-0.9c-2,0-3.7,0.5-5.3,1.4
	s-2.6,2.2-3.2,3.7l3.9,1.9c0.4-0.9,0.9-1.6,1.7-2.1c0.8-0.6,1.7-0.8,2.7-0.8c1.1,0,1.9,0.3,2.6,0.9c0.7,0.6,1,1.2,1,2.1v0.6
	l-5.8,0.9c-2.3,0.4-4,1.1-5.1,2.2s-1.7,2.4-1.7,4.1c0,1.7,0.6,3.1,1.8,4.1S743.1,115.4,745.2,115.4z M743.4,109.6
	c0-1.4,0.9-2.2,2.8-2.6l4.9-0.8v0.8c0,1.3-0.5,2.5-1.4,3.4c-0.9,0.9-2.1,1.4-3.6,1.4c-0.8,0-1.4-0.2-1.9-0.6
	C743.6,110.8,743.4,110.3,743.4,109.6L743.4,109.6z M769.6,115.4c1.4,0,2.7-0.2,3.9-0.7c1.2-0.5,2.2-1.2,3.1-2.1
	c0.9-0.9,1.5-1.9,1.9-3l-4.1-1.9c-0.4,1-1,1.8-1.8,2.4c-0.8,0.6-1.8,0.9-2.9,0.9c-1,0-2-0.3-2.8-0.8c-0.8-0.5-1.4-1.2-1.9-2.1
	c-0.5-0.9-0.7-1.9-0.7-3.1c0-1.2,0.2-2.2,0.7-3.1s1.1-1.6,1.9-2.1c0.8-0.5,1.7-0.8,2.8-0.8c1.1,0,2.1,0.3,2.9,0.9
	c0.8,0.6,1.5,1.4,1.8,2.4l4.1-1.8c-0.4-1.1-1.1-2.2-1.9-3c-0.9-0.9-1.9-1.6-3.1-2.1S771,95,769.6,95c-1.9,0-3.7,0.4-5.3,1.3
	c-1.5,0.9-2.8,2.1-3.6,3.6c-0.9,1.5-1.3,3.3-1.3,5.2s0.4,3.7,1.3,5.3c0.9,1.5,2.1,2.8,3.6,3.7C765.9,115,767.6,115.4,769.6,115.4z
	 M784.4,123c1.8,0,3.4-0.5,4.6-1.6c1.2-1,2.2-2.5,3-4.4l8.5-21.6h-5.1l-5,13.5l-5.1-13.5h-5.1L788,115l-0.4,1
	c-0.4,0.8-0.8,1.5-1.3,2c-0.5,0.5-1.3,0.8-2.3,0.8c-0.4,0-0.8,0-1.2-0.1c-0.4,0-0.8-0.1-1.2-0.2v4c0.4,0.2,0.9,0.3,1.4,0.4
	C783.4,122.9,783.9,123,784.4,123L784.4,123z M809.9,115h4.9v-9.9h5.1c1.8,0,3.4-0.3,4.8-1c1.4-0.7,2.5-1.6,3.3-2.9
	c0.8-1.3,1.2-2.8,1.2-4.6c0-1.8-0.4-3.4-1.2-4.6s-1.9-2.2-3.3-2.8c-1.4-0.7-3-1-4.8-1h-10V115z M814.8,100.8v-8.3h5.2
	c1.3,0,2.4,0.4,3.2,1.1s1.2,1.8,1.2,3c0,1.2-0.4,2.3-1.2,3c-0.8,0.7-1.8,1.1-3.2,1.1H814.8z M841.7,115.4c1.9,0,3.6-0.4,5.2-1.3
	c1.5-0.9,2.8-2.1,3.7-3.6c0.9-1.6,1.4-3.3,1.4-5.3s-0.5-3.7-1.4-5.3c-0.9-1.5-2.2-2.8-3.7-3.6c-1.6-0.9-3.3-1.3-5.2-1.3
	c-1.9,0-3.7,0.4-5.3,1.3c-1.5,0.9-2.8,2.1-3.7,3.6c-0.9,1.5-1.4,3.3-1.4,5.3s0.5,3.7,1.4,5.3c0.9,1.5,2.2,2.8,3.7,3.6
	C838.1,115,839.8,115.4,841.7,115.4L841.7,115.4z M841.7,111.1c-1.1,0-2-0.3-2.8-0.8c-0.8-0.5-1.5-1.2-1.9-2.1
	c-0.5-0.9-0.7-1.9-0.7-3.1s0.2-2.1,0.7-3c0.5-0.9,1.1-1.6,1.9-2.1c0.8-0.5,1.8-0.8,2.8-0.8s2,0.3,2.8,0.8c0.8,0.5,1.5,1.2,1.9,2.1
	c0.5,0.9,0.7,1.9,0.7,3s-0.2,2.1-0.7,3.1c-0.5,0.9-1.1,1.6-1.9,2.1C843.7,110.9,842.8,111.1,841.7,111.1z M855.6,115h4.7V88.2h-4.7
	V115z M864.7,93.2h4.7v-5h-4.7V93.2z M864.7,115h4.7V95.4h-4.7V115z M883.2,115.4c1.4,0,2.7-0.2,3.9-0.7c1.2-0.5,2.2-1.2,3.1-2.1
	c0.9-0.9,1.5-1.9,1.9-3l-4.1-1.9c-0.4,1-1,1.8-1.8,2.4c-0.8,0.6-1.8,0.9-2.9,0.9c-1,0-2-0.3-2.8-0.8c-0.8-0.5-1.4-1.2-1.9-2.1
	c-0.5-0.9-0.7-1.9-0.7-3.1c0-1.2,0.2-2.2,0.7-3.1s1.1-1.6,1.9-2.1c0.8-0.5,1.7-0.8,2.8-0.8c1.1,0,2.1,0.3,2.9,0.9
	c0.8,0.6,1.5,1.4,1.8,2.4l4.1-1.8c-0.4-1.1-1.1-2.2-1.9-3c-0.9-0.9-1.9-1.6-3.1-2.1s-2.5-0.7-3.9-0.7c-1.9,0-3.7,0.4-5.3,1.3
	c-1.5,0.9-2.8,2.1-3.6,3.6c-0.9,1.5-1.3,3.3-1.3,5.2s0.4,3.7,1.3,5.3c0.9,1.5,2.1,2.8,3.6,3.7C879.5,115,881.3,115.4,883.2,115.4z
	 M898.1,123c1.8,0,3.4-0.5,4.6-1.6c1.2-1,2.2-2.5,3-4.4l8.5-21.6h-5.1l-5,13.5L899,95.4h-5.1l7.7,19.6l-0.4,1
	c-0.4,0.8-0.8,1.5-1.3,2c-0.5,0.5-1.3,0.8-2.3,0.8c-0.4,0-0.8,0-1.2-0.1c-0.4,0-0.8-0.1-1.2-0.2v4c0.4,0.2,0.9,0.3,1.4,0.4
	C897,122.9,897.5,123,898.1,123L898.1,123z M916.9,120.6c3.6-0.8,5.5-3.3,5.5-7.6V110h-4.8v5h2.2c-0.3,1.8-1.3,2.9-2.9,3.3
	L916.9,120.6L916.9,120.6z M937.3,115h3.2l3.2-6.6h12l1.4,6.6h2.9l-6-26.8h-3.1L937.3,115z M945,105.7l7-14.1l3,14.1H945z
	 M963.6,115h2.9l3-21.6l11.7,21.6h2.5l3.7-26.8h-2.9l-3,21.4l-11.7-21.4h-2.5L963.6,115z M990.1,115h9.5c3,0,5.6-0.6,7.7-1.9
	s3.8-3,5-5.3c1.2-2.3,1.8-4.8,1.8-7.7c0-2.3-0.5-4.4-1.4-6.2s-2.3-3.2-4.1-4.2c-1.8-1-3.8-1.5-6.3-1.5h-8.4L990.1,115L990.1,115z
	 M993.4,112.3l3-21.4h5.5c1.9,0,3.5,0.4,4.9,1.2s2.4,1.9,3.1,3.3c0.8,1.4,1.1,3.1,1.1,5c0,2.4-0.5,4.4-1.4,6.2s-2.3,3.2-4,4.2
	c-1.7,1-3.7,1.5-5.9,1.5H993.4z M1028.7,115.4c1.3,0,2.6-0.3,3.7-0.8c1.2-0.5,2.1-1.2,2.9-2.1l-0.4,2.4h2.7l1.8-12.8
	c0.2-1.4,0-2.6-0.6-3.6c-0.6-1-1.4-1.8-2.4-2.4c-1.1-0.6-2.3-0.9-3.7-0.9c-1.8,0-3.4,0.4-4.9,1.3c-1.4,0.8-2.5,1.9-3.2,3.1l2.3,1.5
	c0.6-0.9,1.3-1.7,2.2-2.3c1-0.6,2.1-0.9,3.3-0.9c0.8,0,1.5,0.2,2.2,0.5c0.7,0.3,1.2,0.7,1.6,1.4c0.4,0.6,0.5,1.4,0.4,2.4l-0.1,0.6
	l-7.3,1.2c-2.1,0.3-3.8,1.1-5,2.2c-1.2,1-1.8,2.5-1.8,4.1c0,1.2,0.3,2.2,0.9,3c0.6,0.8,1.4,1.3,2.3,1.7
	C1026.7,115.2,1027.7,115.4,1028.7,115.4L1028.7,115.4z M1025.5,110c0-1,0.4-1.8,1.2-2.4c0.8-0.7,1.9-1.1,3.2-1.4l6.5-1.1l-0.2,1.4
	c-0.2,1.2-0.6,2.3-1.2,3.2c-0.7,1-1.5,1.7-2.5,2.3c-1,0.6-2.1,0.9-3.3,0.9c-1.1,0-2-0.3-2.7-0.8
	C1025.8,111.6,1025.5,110.9,1025.5,110L1025.5,110z M1045.2,115h2.7l2.3-16.6h11.4l-2.3,16.6h2.7l2.3-16.6h8.6l-2.3,16.6h2.7
	l2.7-19.3h-11.3l0.2-1.3c0.2-1.6,0.8-2.6,1.7-3.2s1.9-0.9,3.1-0.9c0.1,0,0.3,0,0.5,0c0.3,0,0.5,0,0.7,0.1l0.2-2.4
	c-0.6-0.1-1.2-0.2-1.8-0.2c-1,0-2.1,0.2-3.1,0.7c-1,0.5-1.8,1.2-2.6,2.2s-1.2,2.2-1.4,3.6l-0.2,1.4h-11.4l0.2-1.3
	c0.2-1.6,0.8-2.6,1.7-3.2s1.9-0.9,3.1-0.9c0.1,0,0.3,0,0.5,0c0.3,0,0.5,0,0.7,0.1l0.2-2.4c-0.5-0.1-1.1-0.2-1.8-0.2
	c-1,0-2.1,0.2-3.1,0.7c-1,0.5-1.8,1.2-2.6,2.2s-1.2,2.2-1.4,3.6l-0.2,1.4h-3.8l-0.4,2.7h3.8L1045.2,115L1045.2,115z M1078.4,115h2.7
	l1.6-11.5c0.3-1.8,0.9-3.1,1.8-4c1-0.9,2.1-1.3,3.5-1.3h1.7l0.4-2.7h-1.2c-1.2,0-2.2,0.2-3.1,0.6c-0.9,0.4-1.7,0.9-2.3,1.7l0.3-2
	h-2.7L1078.4,115L1078.4,115z M1090.6,115h2.7l1.6-11.4c0.2-1.2,0.5-2.1,1.1-3c0.6-0.8,1.3-1.5,2.1-1.9c0.8-0.5,1.7-0.7,2.7-0.7
	c1.3,0,2.4,0.5,3.1,1.4c0.8,0.9,1.1,2.1,0.8,3.7L1103,115h2.7l1.7-11.9c0.2-1.1,0.5-2,1.1-2.8c0.6-0.8,1.3-1.4,2.1-1.8
	c0.8-0.4,1.7-0.6,2.6-0.6c1.3,0,2.4,0.5,3.1,1.4c0.8,0.9,1.1,2.1,0.8,3.7l-1.6,11.9h2.7l1.7-12.1c0.2-1.5,0.1-2.8-0.5-4
	c-0.5-1.2-1.3-2.1-2.3-2.7s-2.2-1-3.5-1c-1.3,0-2.5,0.3-3.7,0.9s-2.2,1.6-2.9,2.8c-0.4-1.2-1.2-2.1-2.2-2.7c-1-0.7-2.2-1-3.5-1
	c-1.1,0-2.1,0.2-3.1,0.7c-1,0.5-1.8,1.2-2.5,2l0.3-2.3h-2.7L1090.6,115L1090.6,115z M10.8,160.4c1.9,0,3.6-0.5,5.1-1.4
	c1.5-0.9,2.7-2.1,3.4-3.5l-2.4-1.4c-0.6,1.1-1.4,2-2.4,2.6c-1,0.6-2.2,1-3.5,1c-1.2,0-2.2-0.3-3.2-0.9s-1.7-1.4-2.2-2.4
	s-0.8-2.2-0.8-3.5c0-1.4,0.3-2.7,0.9-4c0.6-1.2,1.5-2.2,2.6-3c1.1-0.8,2.4-1.2,3.8-1.2c1.3,0,2.4,0.3,3.3,1c0.9,0.6,1.6,1.5,2,2.5
	l2.5-1.2c-0.6-1.5-1.5-2.7-3-3.6s-3-1.4-4.9-1.4c-1.9,0-3.6,0.5-5.1,1.4c-1.5,0.9-2.8,2.2-3.7,3.9C2.5,147.2,2,149,2,151
	c0,1.8,0.4,3.4,1.1,4.8s1.8,2.5,3.1,3.3C7.6,160,9.1,160.4,10.8,160.4L10.8,160.4z M33.3,160.4c1.4,0,2.8-0.3,4-0.8
	c1.2-0.5,2.4-1.3,3.3-2.3c1-1,1.7-2.2,2.2-3.5c0.6-1.3,0.8-2.7,0.8-4.1c0-1.8-0.4-3.5-1.2-4.9c-0.8-1.4-1.9-2.5-3.3-3.3
	c-1.4-0.8-3-1.2-4.8-1.2c-1.4,0-2.8,0.3-4.1,0.8c-1.2,0.5-2.4,1.3-3.3,2.3c-0.9,1-1.7,2.1-2.2,3.4c-0.5,1.3-0.8,2.6-0.8,4.1
	c0,1.9,0.4,3.5,1.2,5c0.8,1.4,2,2.6,3.3,3.4C30,160,31.6,160.4,33.3,160.4L33.3,160.4z M33.3,157.7c-1.2,0-2.3-0.3-3.3-0.9
	c-1-0.6-1.7-1.4-2.3-2.4c-0.6-1-0.8-2.2-0.8-3.5c0-1.5,0.3-2.8,1-4s1.6-2.2,2.7-2.9c1.2-0.7,2.4-1.1,3.8-1.1c1.2,0,2.3,0.3,3.3,0.9
	c1,0.6,1.8,1.4,2.3,2.4c0.6,1,0.8,2.2,0.8,3.5c0,1.4-0.3,2.8-1,4s-1.6,2.2-2.7,3C36,157.4,34.7,157.7,33.3,157.7L33.3,157.7z
	 M47.2,160h2.7l1.6-11.4c0.2-1.2,0.5-2.1,1.1-3c0.6-0.8,1.3-1.5,2.1-1.9c0.8-0.5,1.7-0.7,2.7-0.7c1.3,0,2.4,0.5,3.1,1.4
	c0.8,0.9,1,2.1,0.8,3.7L59.6,160h2.7l1.7-11.9c0.1-1.1,0.5-2,1.1-2.8s1.3-1.4,2.1-1.8c0.8-0.4,1.7-0.6,2.6-0.6
	c1.3,0,2.4,0.5,3.1,1.4c0.8,0.9,1,2.1,0.8,3.7L72,160h2.7l1.7-12.1c0.2-1.5,0.1-2.8-0.5-4c-0.5-1.2-1.3-2.1-2.3-2.7s-2.2-1-3.5-1
	c-1.3,0-2.5,0.3-3.7,0.9s-2.2,1.6-2.9,2.8c-0.4-1.2-1.2-2.1-2.2-2.7c-1-0.7-2.2-1-3.5-1c-1.1,0-2.1,0.2-3.1,0.7s-1.8,1.2-2.5,2
	l0.3-2.3h-2.7L47.2,160z M78.9,167.2h2.7l1.4-10.4c0.7,1.2,1.7,2.1,3,2.7c1.3,0.6,2.7,1,4.2,1c1.5,0,2.8-0.3,4-0.8
	c1.2-0.6,2.3-1.4,3.2-2.4c0.9-1,1.7-2.2,2.2-3.5c0.5-1.3,0.8-2.7,0.8-4.2c0-1.8-0.4-3.3-1.1-4.7c-0.7-1.4-1.8-2.5-3.1-3.3
	c-1.3-0.8-2.9-1.3-4.7-1.3c-1.3,0-2.5,0.2-3.6,0.7c-1.1,0.4-2.1,1-2.9,1.8l0.3-2.1h-2.7L78.9,167.2z M90.2,157.7
	c-1.2,0-2.3-0.3-3.3-0.9c-0.9-0.6-1.7-1.5-2.2-2.4c-0.6-1-0.8-2.2-0.8-3.5c0-1.4,0.3-2.7,0.9-3.9s1.5-2.2,2.6-2.9
	c1.1-0.7,2.4-1.1,3.8-1.1c1.3,0,2.4,0.3,3.3,0.9c1,0.6,1.7,1.4,2.2,2.4c0.6,1,0.8,2.2,0.8,3.5c0,1.4-0.3,2.8-1,4s-1.5,2.2-2.6,3
	S91.6,157.7,90.2,157.7z M103.9,160h2.7l3.7-26.8h-2.7L103.9,160z M115.4,137.1h2.7l0.5-4H116L115.4,137.1z M112.2,160h2.7l2.7-19.3
	h-2.7L112.2,160z M126.6,160.4c1.3,0,2.6-0.3,3.7-0.8c1.2-0.5,2.1-1.2,2.9-2.1l-0.4,2.4h2.7l1.8-12.8c0.2-1.4,0-2.6-0.6-3.6
	c-0.6-1-1.4-1.8-2.4-2.4c-1.1-0.6-2.3-0.9-3.7-0.9c-1.8,0-3.4,0.4-4.9,1.3c-1.4,0.8-2.5,1.9-3.2,3.1l2.3,1.5
	c0.6-0.9,1.3-1.7,2.2-2.3c1-0.6,2.1-0.9,3.3-0.9c0.8,0,1.5,0.2,2.2,0.5c0.7,0.3,1.2,0.7,1.6,1.4s0.5,1.4,0.4,2.4l-0.1,0.6l-7.3,1.2
	c-2.1,0.3-3.8,1.1-5,2.2c-1.2,1-1.8,2.5-1.8,4.1c0,1.2,0.3,2.2,0.9,3c0.6,0.8,1.4,1.3,2.3,1.7S125.6,160.4,126.6,160.4L126.6,160.4z
	 M123.4,155c0-1,0.4-1.8,1.2-2.4c0.8-0.7,1.9-1.1,3.2-1.4l6.5-1.1l-0.2,1.4c-0.1,1.2-0.6,2.3-1.2,3.2c-0.7,1-1.5,1.7-2.5,2.3
	s-2.1,0.9-3.3,0.9c-1.1,0-2-0.3-2.7-0.8C123.7,156.6,123.4,155.9,123.4,155z M141.2,160h2.7l1.6-11.4c0.3-1.7,0.9-3.1,2.1-4.1
	c1.1-1,2.5-1.5,4-1.5c1.4,0,2.5,0.5,3.3,1.4c0.8,0.9,1,2.1,0.8,3.7L154,160h2.7l1.7-12.1c0.2-1.5,0.1-2.8-0.4-4
	c-0.5-1.2-1.2-2.1-2.3-2.7c-1-0.6-2.2-1-3.6-1c-1.1,0-2.2,0.2-3.2,0.7c-1,0.5-1.8,1.1-2.5,2l0.3-2.3h-2.7L141.2,160L141.2,160z
	 M171.3,160.4c1.9,0,3.6-0.5,5.1-1.4c1.5-0.9,2.7-2.1,3.4-3.5l-2.4-1.4c-0.6,1.1-1.4,2-2.4,2.6c-1,0.6-2.2,1-3.5,1
	c-1.2,0-2.2-0.3-3.2-0.9s-1.7-1.4-2.2-2.4s-0.8-2.2-0.8-3.5c0-1.4,0.3-2.7,0.9-4c0.6-1.2,1.5-2.2,2.6-3c1.1-0.8,2.4-1.2,3.8-1.2
	c1.3,0,2.4,0.3,3.3,1c0.9,0.6,1.6,1.5,2,2.5l2.5-1.2c-0.6-1.5-1.5-2.7-3-3.6s-3-1.4-4.9-1.4c-1.9,0-3.6,0.5-5.1,1.4
	c-1.5,0.9-2.8,2.2-3.7,3.9c-0.9,1.6-1.3,3.4-1.3,5.5c0,1.8,0.4,3.4,1.1,4.8s1.8,2.5,3.1,3.3C168,160,169.5,160.4,171.3,160.4
	L171.3,160.4z M193.4,160.4c1.3,0,2.5-0.2,3.6-0.6c1.1-0.4,2.1-1,3-1.7c0.8-0.7,1.5-1.5,1.9-2.4l-2.3-1.3c-0.7,1-1.5,1.9-2.6,2.6
	c-1,0.7-2.2,1-3.6,1c-1.1,0-2.1-0.3-3.1-0.8s-1.7-1.2-2.3-2.2c-0.6-1-0.9-2.1-0.9-3.3v-0.5h15.2l0.2-1.1c0.1-0.5,0.1-0.9,0.1-1.3
	c0-1.5-0.3-2.8-1-4.1c-0.6-1.3-1.6-2.4-2.8-3.2s-2.8-1.2-4.5-1.2c-1.4,0-2.8,0.3-4,0.9c-1.2,0.6-2.3,1.3-3.2,2.3
	c-0.9,1-1.6,2.1-2.1,3.4c-0.5,1.3-0.7,2.7-0.7,4.1c0,1.8,0.4,3.4,1.2,4.9c0.8,1.4,1.9,2.5,3.2,3.3
	C190.2,160,191.7,160.4,193.4,160.4L193.4,160.4z M194.4,142.8c1.1,0,2.1,0.3,3,0.8c0.9,0.5,1.6,1.2,2,2.1c0.5,0.9,0.7,1.9,0.6,3
	h-12.3c0.4-1.8,1.2-3.2,2.3-4.3C191,143.3,192.5,142.8,194.4,142.8L194.4,142.8z M216.4,160h2.7l6.8-15.1l2.4,15.1h2.7l9.4-19.3
	h-3.1l-7,15.1l-2.5-15.1h-2.7l-6.8,15.2l-2.8-15.2h-2.9L216.4,160z M244.1,137.1h2.7l0.5-4h-2.7L244.1,137.1z M240.9,160h2.7
	l2.7-19.3h-2.7L240.9,160z M256.7,160.2l0.8,0c0.4,0,0.7,0,1-0.1l0.2-2.5l-0.7,0.1l-0.8,0c-1.2,0-1.9-0.3-2.3-0.9s-0.4-1.4-0.3-2.3
	l1.5-11.1h4.2l0.4-2.7h-4.2l0.6-4.5h-2.7l-0.2,1.5c-0.1,0.8-0.5,1.5-1,2.1c-0.6,0.6-1.3,0.8-2.1,0.8h-0.8l-0.4,2.7h3.6l-1.5,10.9
	c-0.2,1.9,0,3.3,0.9,4.4S255,160.2,256.7,160.2L256.7,160.2z M263.3,160h2.7l1.6-11.4c0.2-1.7,0.9-3.1,2.1-4.1
	c1.2-1,2.5-1.5,3.9-1.5c1.4,0,2.5,0.5,3.3,1.4c0.8,0.9,1,2.1,0.8,3.7L276,160h2.7l1.7-12.1c0.2-1.5,0.1-2.8-0.4-4
	c-0.5-1.2-1.2-2.1-2.3-2.7c-1-0.6-2.2-1-3.6-1c-1.1,0-2.2,0.2-3.2,0.7c-1,0.5-1.8,1.1-2.5,2l1.3-9.8H267L263.3,160z M299.6,160.4
	c1.3,0,2.5-0.2,3.6-0.6c1.1-0.4,2.1-1,3-1.7c0.8-0.7,1.5-1.5,1.9-2.4l-2.3-1.3c-0.7,1-1.5,1.9-2.6,2.6c-1,0.7-2.2,1-3.6,1
	c-1.1,0-2.1-0.3-3.1-0.8s-1.7-1.2-2.3-2.2c-0.6-1-0.9-2.1-0.9-3.3v-0.5h15.2l0.2-1.1c0.1-0.5,0.1-0.9,0.1-1.3c0-1.5-0.3-2.8-1-4.1
	c-0.6-1.3-1.6-2.4-2.8-3.2s-2.8-1.2-4.5-1.2c-1.4,0-2.8,0.3-4,0.9c-1.2,0.6-2.3,1.3-3.2,2.3c-0.9,1-1.6,2.1-2.1,3.4
	c-0.5,1.3-0.7,2.7-0.7,4.1c0,1.8,0.4,3.4,1.2,4.9c0.8,1.4,1.9,2.5,3.2,3.3C296.3,160,297.9,160.4,299.6,160.4z M300.5,142.8
	c1.1,0,2.1,0.3,3,0.8c0.9,0.5,1.6,1.2,2,2.1c0.5,0.9,0.7,1.9,0.6,3h-12.3c0.4-1.8,1.2-3.2,2.3-4.3
	C297.2,143.3,298.7,142.8,300.5,142.8L300.5,142.8z M316.7,160h2.7l10.3-19.3h-3.2l-8.1,15.7l-3.7-15.7h-2.9L316.7,160z
	 M339.4,160.4c1.3,0,2.5-0.2,3.6-0.6c1.1-0.4,2.1-1,3-1.7c0.8-0.7,1.5-1.5,1.9-2.4l-2.3-1.3c-0.7,1-1.5,1.9-2.6,2.6
	c-1,0.7-2.2,1-3.6,1c-1.1,0-2.1-0.3-3.1-0.8s-1.7-1.2-2.3-2.2c-0.6-1-0.9-2.1-0.9-3.3v-0.5h15.2l0.2-1.1c0.1-0.5,0.1-0.9,0.1-1.3
	c0-1.5-0.3-2.8-1-4.1c-0.6-1.3-1.6-2.4-2.8-3.2s-2.8-1.2-4.5-1.2c-1.4,0-2.8,0.3-4,0.9c-1.2,0.6-2.3,1.3-3.2,2.3
	c-0.9,1-1.6,2.1-2.1,3.4c-0.5,1.3-0.7,2.7-0.7,4.1c0,1.8,0.4,3.4,1.2,4.9c0.8,1.4,1.9,2.5,3.2,3.3
	C336.1,160,337.6,160.4,339.4,160.4z M340.3,142.8c1.1,0,2.1,0.3,3,0.8c0.9,0.5,1.6,1.2,2,2.1c0.5,0.9,0.7,1.9,0.6,3h-12.3
	c0.4-1.8,1.2-3.2,2.3-4.3C337,143.3,338.5,142.8,340.3,142.8L340.3,142.8z M352.1,160h2.7l1.6-11.5c0.3-1.8,0.9-3.1,1.8-4
	c1-0.9,2.1-1.3,3.5-1.3h1.7l0.4-2.7h-1.2c-1.2,0-2.2,0.2-3.1,0.6c-0.9,0.4-1.6,0.9-2.3,1.7l0.3-2h-2.7L352.1,160L352.1,160z
	 M363.6,167.9c1.2,0,2.3-0.3,3.3-0.8s1.8-1.2,2.4-2c0.7-0.8,1.3-1.7,1.8-2.6l11.9-21.9H380l-8.6,15.8l-4-15.8h-2.8l5,19.3l-1,1.7
	c-0.5,0.9-1,1.6-1.5,2.2s-1,0.9-1.6,1.1c-0.6,0.2-1.2,0.4-2.1,0.4c-0.4,0-0.7,0-1-0.1l-0.9-0.1l-0.2,2.5
	C361.9,167.8,362.7,167.9,363.6,167.9L363.6,167.9z M395.7,160.4c1.3,0,2.6-0.3,3.7-0.8c1.2-0.5,2.1-1.2,2.9-2.1l-0.4,2.4h2.7
	l1.8-12.8c0.2-1.4,0-2.6-0.6-3.6c-0.6-1-1.4-1.8-2.4-2.4c-1.1-0.6-2.3-0.9-3.7-0.9c-1.8,0-3.4,0.4-4.9,1.3c-1.4,0.8-2.5,1.9-3.2,3.1
	l2.3,1.5c0.6-0.9,1.3-1.7,2.2-2.3c1-0.6,2.1-0.9,3.3-0.9c0.8,0,1.5,0.2,2.2,0.5c0.7,0.3,1.2,0.7,1.6,1.4s0.5,1.4,0.4,2.4l-0.1,0.6
	l-7.3,1.2c-2.1,0.3-3.8,1.1-5,2.2c-1.2,1-1.8,2.5-1.8,4.1c0,1.2,0.3,2.2,0.9,3c0.6,0.8,1.4,1.3,2.3,1.7S394.7,160.4,395.7,160.4
	L395.7,160.4z M392.4,155c0-1,0.4-1.8,1.2-2.4c0.8-0.7,1.9-1.1,3.2-1.4l6.5-1.1l-0.2,1.4c-0.1,1.2-0.6,2.3-1.2,3.2
	c-0.7,1-1.5,1.7-2.5,2.3s-2.1,0.9-3.3,0.9c-1.1,0-2-0.3-2.7-0.8C392.8,156.6,392.4,155.9,392.4,155L392.4,155z M419.7,160.4
	c1.3,0,2.6-0.2,3.7-0.7c1.2-0.5,2.2-1.2,3-2.1l-0.3,2.4h2.7l3.7-26.8h-2.7l-1.5,10.9c-0.7-1.2-1.7-2.1-3-2.8c-1.2-0.7-2.7-1-4.4-1
	c-1.5,0-2.8,0.3-4.1,0.9c-1.2,0.6-2.3,1.3-3.2,2.3c-0.9,1-1.6,2.1-2.1,3.5c-0.5,1.3-0.8,2.7-0.8,4.2c0,1.8,0.4,3.4,1.1,4.8
	c0.7,1.4,1.8,2.5,3.2,3.3C416.4,160,418,160.4,419.7,160.4L419.7,160.4z M419.9,157.7c-1.2,0-2.3-0.3-3.2-0.9
	c-0.9-0.6-1.7-1.4-2.2-2.3c-0.5-1-0.8-2.1-0.8-3.4c0-1.5,0.3-2.8,0.9-4c0.6-1.2,1.5-2.2,2.6-3c1.1-0.7,2.4-1.1,3.8-1.1
	c1.2,0,2.3,0.3,3.3,0.9c1,0.6,1.7,1.4,2.3,2.4c0.6,1,0.8,2.2,0.8,3.5c0,1.4-0.3,2.7-1,4s-1.6,2.2-2.7,3
	C422.6,157.4,421.3,157.7,419.9,157.7z M443.8,160.4c1.3,0,2.6-0.2,3.7-0.7c1.2-0.5,2.2-1.2,3-2.1l-0.3,2.4h2.7l3.7-26.8h-2.7
	l-1.5,10.9c-0.7-1.2-1.7-2.1-3-2.8c-1.2-0.7-2.7-1-4.4-1c-1.5,0-2.8,0.3-4.1,0.9c-1.2,0.6-2.3,1.3-3.2,2.3c-0.9,1-1.6,2.1-2.1,3.5
	c-0.5,1.3-0.8,2.7-0.8,4.2c0,1.8,0.4,3.4,1.1,4.8c0.7,1.4,1.8,2.5,3.2,3.3C440.5,160,442.1,160.4,443.8,160.4L443.8,160.4z
	 M444,157.7c-1.2,0-2.3-0.3-3.2-0.9c-0.9-0.6-1.7-1.4-2.2-2.3c-0.5-1-0.8-2.1-0.8-3.4c0-1.5,0.3-2.8,0.9-4c0.6-1.2,1.5-2.2,2.6-3
	c1.1-0.7,2.4-1.1,3.8-1.1c1.2,0,2.3,0.3,3.3,0.9c1,0.6,1.7,1.4,2.3,2.4c0.6,1,0.8,2.2,0.8,3.5c0,1.4-0.3,2.7-1,4s-1.6,2.2-2.7,3
	C446.7,157.4,445.4,157.7,444,157.7z M461.6,137.1h2.7l0.5-4h-2.7L461.6,137.1z M458.4,160h2.7l2.7-19.3h-2.7L458.4,160z
	 M474.3,160.2l0.8,0c0.4,0,0.7,0,1-0.1l0.2-2.5l-0.7,0.1l-0.8,0c-1.2,0-1.9-0.3-2.3-0.9s-0.4-1.4-0.3-2.3l1.5-11.1h4.2l0.4-2.7h-4.2
	l0.6-4.5h-2.7l-0.2,1.5c-0.1,0.8-0.5,1.5-1,2.1c-0.6,0.6-1.3,0.8-2.1,0.8h-0.8l-0.4,2.7h3.6l-1.5,10.9c-0.2,1.9,0,3.3,0.9,4.4
	S472.5,160.2,474.3,160.2L474.3,160.2z M484,137.1h2.7l0.5-4h-2.7L484,137.1z M480.8,160h2.7l2.7-19.3h-2.7L480.8,160z M499,160.4
	c1.4,0,2.8-0.3,4-0.8c1.2-0.5,2.4-1.3,3.3-2.3c1-1,1.7-2.2,2.2-3.5c0.6-1.3,0.8-2.7,0.8-4.1c0-1.8-0.4-3.5-1.2-4.9
	c-0.8-1.4-1.9-2.5-3.3-3.3c-1.4-0.8-3-1.2-4.8-1.2c-1.4,0-2.8,0.3-4.1,0.8c-1.2,0.5-2.4,1.3-3.3,2.3c-0.9,1-1.7,2.1-2.2,3.4
	c-0.5,1.3-0.8,2.6-0.8,4.1c0,1.9,0.4,3.5,1.2,5c0.8,1.4,2,2.6,3.3,3.4C495.7,160,497.3,160.4,499,160.4L499,160.4z M499,157.7
	c-1.2,0-2.3-0.3-3.3-0.9c-1-0.6-1.7-1.4-2.3-2.4c-0.6-1-0.8-2.2-0.8-3.5c0-1.5,0.3-2.8,1-4s1.6-2.2,2.7-2.9c1.2-0.7,2.4-1.1,3.8-1.1
	c1.2,0,2.3,0.3,3.3,0.9c1,0.6,1.8,1.4,2.3,2.4c0.6,1,0.8,2.2,0.8,3.5c0,1.4-0.3,2.8-1,4s-1.6,2.2-2.7,3
	C501.6,157.4,500.4,157.7,499,157.7L499,157.7z M512.8,160h2.7l1.6-11.4c0.3-1.7,0.9-3.1,2.1-4.1c1.1-1,2.5-1.5,4-1.5
	c1.4,0,2.5,0.5,3.3,1.4c0.8,0.9,1,2.1,0.8,3.7l-1.7,11.9h2.7l1.7-12.1c0.2-1.5,0.1-2.8-0.4-4c-0.5-1.2-1.2-2.1-2.3-2.7
	c-1-0.6-2.2-1-3.6-1c-1.1,0-2.2,0.2-3.2,0.7c-1,0.5-1.8,1.1-2.5,2l0.3-2.3h-2.7L512.8,160L512.8,160z M539.6,160.4
	c1.3,0,2.6-0.3,3.7-0.8c1.2-0.5,2.1-1.2,2.9-2.1l-0.4,2.4h2.7l1.8-12.8c0.2-1.4,0-2.6-0.6-3.6c-0.6-1-1.4-1.8-2.4-2.4
	c-1.1-0.6-2.3-0.9-3.7-0.9c-1.8,0-3.4,0.4-4.9,1.3c-1.4,0.8-2.5,1.9-3.2,3.1l2.3,1.5c0.6-0.9,1.3-1.7,2.2-2.3c1-0.6,2.1-0.9,3.3-0.9
	c0.8,0,1.5,0.2,2.2,0.5c0.7,0.3,1.2,0.7,1.6,1.4s0.5,1.4,0.4,2.4l-0.1,0.6l-7.3,1.2c-2.1,0.3-3.8,1.1-5,2.2c-1.2,1-1.8,2.5-1.8,4.1
	c0,1.2,0.3,2.2,0.9,3c0.6,0.8,1.4,1.3,2.3,1.7S538.5,160.4,539.6,160.4L539.6,160.4z M536.3,155c0-1,0.4-1.8,1.2-2.4
	c0.8-0.7,1.9-1.1,3.2-1.4l6.5-1.1l-0.2,1.4c-0.1,1.2-0.6,2.3-1.2,3.2c-0.7,1-1.5,1.7-2.5,2.3s-2.1,0.9-3.3,0.9c-1.1,0-2-0.3-2.7-0.8
	C536.6,156.6,536.3,155.9,536.3,155L536.3,155z M554.1,160h2.7l3.7-26.8h-2.7L554.1,160z M567.6,167.2h2.7l1.4-10.4
	c0.7,1.2,1.7,2.1,3,2.7c1.3,0.6,2.7,1,4.2,1c1.5,0,2.8-0.3,4-0.8c1.2-0.6,2.3-1.4,3.2-2.4c0.9-1,1.7-2.2,2.2-3.5
	c0.5-1.3,0.8-2.7,0.8-4.2c0-1.8-0.4-3.3-1.1-4.7c-0.7-1.4-1.8-2.5-3.1-3.3c-1.3-0.8-2.9-1.3-4.7-1.3c-1.3,0-2.5,0.2-3.6,0.7
	c-1.1,0.4-2.1,1-2.9,1.8l0.3-2.1h-2.7L567.6,167.2L567.6,167.2z M578.9,157.7c-1.2,0-2.3-0.3-3.3-0.9c-0.9-0.6-1.7-1.5-2.2-2.4
	c-0.6-1-0.8-2.2-0.8-3.5c0-1.4,0.3-2.7,0.9-3.9s1.5-2.2,2.6-2.9c1.1-0.7,2.4-1.1,3.8-1.1c1.3,0,2.4,0.3,3.3,0.9
	c1,0.6,1.7,1.4,2.2,2.4c0.6,1,0.8,2.2,0.8,3.5c0,1.4-0.3,2.8-1,4s-1.5,2.2-2.6,3S580.3,157.7,578.9,157.7L578.9,157.7z M592.6,160
	h2.7l1.6-11.5c0.3-1.8,0.9-3.1,1.8-4c1-0.9,2.1-1.3,3.5-1.3h1.7l0.4-2.7h-1.2c-1.2,0-2.2,0.2-3.1,0.6c-0.9,0.4-1.6,0.9-2.3,1.7
	l0.3-2h-2.7L592.6,160z M614.6,160.4c1.4,0,2.8-0.3,4-0.8c1.2-0.5,2.4-1.3,3.3-2.3c1-1,1.7-2.2,2.2-3.5c0.6-1.3,0.8-2.7,0.8-4.1
	c0-1.8-0.4-3.5-1.2-4.9c-0.8-1.4-1.9-2.5-3.3-3.3c-1.4-0.8-3-1.2-4.8-1.2c-1.4,0-2.8,0.3-4.1,0.8c-1.2,0.5-2.4,1.3-3.3,2.3
	c-0.9,1-1.7,2.1-2.2,3.4c-0.5,1.3-0.8,2.6-0.8,4.1c0,1.9,0.4,3.5,1.2,5c0.8,1.4,2,2.6,3.3,3.4C611.3,160,612.9,160.4,614.6,160.4
	L614.6,160.4z M614.5,157.7c-1.2,0-2.3-0.3-3.3-0.9c-1-0.6-1.7-1.4-2.3-2.4c-0.6-1-0.8-2.2-0.8-3.5c0-1.5,0.3-2.8,1-4
	s1.6-2.2,2.7-2.9c1.2-0.7,2.4-1.1,3.8-1.1c1.2,0,2.3,0.3,3.3,0.9c1,0.6,1.8,1.4,2.3,2.4c0.6,1,0.8,2.2,0.8,3.5c0,1.4-0.3,2.8-1,4
	s-1.6,2.2-2.7,3C617.2,157.4,616,157.7,614.5,157.7L614.5,157.7z M637.8,160.4c1.3,0,2.6-0.2,3.7-0.7c1.2-0.5,2.2-1.2,3-2.1
	l-0.3,2.4h2.7l3.7-26.8h-2.7l-1.5,10.9c-0.7-1.2-1.7-2.1-3-2.8c-1.2-0.7-2.7-1-4.4-1c-1.5,0-2.8,0.3-4.1,0.9
	c-1.2,0.6-2.3,1.3-3.2,2.3c-0.9,1-1.6,2.1-2.1,3.5c-0.5,1.3-0.8,2.7-0.8,4.2c0,1.8,0.4,3.4,1.1,4.8c0.7,1.4,1.8,2.5,3.2,3.3
	C634.6,160,636.1,160.4,637.8,160.4z M638,157.7c-1.2,0-2.3-0.3-3.2-0.9c-0.9-0.6-1.7-1.4-2.2-2.3c-0.5-1-0.8-2.1-0.8-3.4
	c0-1.5,0.3-2.8,0.9-4c0.6-1.2,1.5-2.2,2.6-3c1.1-0.7,2.4-1.1,3.8-1.1c1.2,0,2.3,0.3,3.3,0.9c1,0.6,1.7,1.4,2.3,2.4
	c0.6,1,0.8,2.2,0.8,3.5c0,1.4-0.3,2.7-1,4s-1.6,2.2-2.7,3C640.7,157.4,639.4,157.7,638,157.7z M659.4,160.4c1.1,0,2.2-0.2,3.2-0.7
	c1-0.5,1.9-1.2,2.6-2l-0.3,2.3h2.7l2.7-19.3h-2.7l-1.6,11.4c-0.2,1.7-0.9,3.1-2.1,4.1c-1.1,1-2.4,1.5-3.9,1.5
	c-1.4,0-2.6-0.5-3.3-1.4c-0.8-0.9-1-2.2-0.8-3.7l1.7-11.9h-2.7l-1.7,11.7c-0.2,1.6-0.1,3,0.4,4.2s1.2,2.1,2.3,2.8
	C656.8,160.1,658,160.4,659.4,160.4z M682.6,160.4c1.9,0,3.6-0.5,5.1-1.4c1.5-0.9,2.7-2.1,3.4-3.5l-2.4-1.4c-0.6,1.1-1.4,2-2.4,2.6
	c-1,0.6-2.2,1-3.5,1c-1.2,0-2.2-0.3-3.2-0.9s-1.7-1.4-2.2-2.4s-0.8-2.2-0.8-3.5c0-1.4,0.3-2.7,0.9-4c0.6-1.2,1.5-2.2,2.6-3
	c1.1-0.8,2.4-1.2,3.8-1.2c1.3,0,2.4,0.3,3.3,1c0.9,0.6,1.6,1.5,2,2.5l2.5-1.2c-0.6-1.5-1.5-2.7-3-3.6s-3-1.4-4.9-1.4
	c-1.9,0-3.6,0.5-5.1,1.4c-1.5,0.9-2.8,2.2-3.7,3.9c-0.9,1.6-1.3,3.4-1.3,5.5c0,1.8,0.4,3.4,1.1,4.8s1.8,2.5,3.1,3.3
	C679.3,160,680.8,160.4,682.6,160.4L682.6,160.4z M702.7,160.2l0.8,0c0.4,0,0.7,0,1-0.1l0.2-2.5l-0.7,0.1l-0.8,0
	c-1.2,0-1.9-0.3-2.3-0.9s-0.4-1.4-0.3-2.3l1.5-11.1h4.2l0.4-2.7h-4.2l0.6-4.5h-2.7l-0.2,1.5c-0.1,0.8-0.5,1.5-1,2.1
	c-0.6,0.6-1.3,0.8-2.1,0.8h-0.8l-0.4,2.7h3.6l-1.5,10.9c-0.2,1.9,0,3.3,0.9,4.4S700.9,160.2,702.7,160.2L702.7,160.2z M706.3,161.4
	h3.3l16.3-29.7h-3.3L706.3,161.4z M733.1,167.9c1.7,0,3.3-0.3,4.7-1c1.4-0.7,2.7-1.6,3.6-2.9c1-1.2,1.5-2.7,1.8-4.4l2.6-18.9h-2.7
	l-0.4,3.2c-0.7-1.1-1.7-2-2.9-2.7c-1.2-0.7-2.6-1-4.2-1c-1.4,0-2.8,0.3-4,0.8c-1.2,0.5-2.3,1.3-3.2,2.2c-0.9,1-1.6,2.1-2.1,3.3
	c-0.5,1.2-0.8,2.6-0.8,4c0,1.8,0.4,3.4,1.2,4.8c0.8,1.3,1.9,2.4,3.2,3.2c1.3,0.7,2.8,1.1,4.4,1.1c1.3,0,2.5-0.2,3.6-0.7
	c1.2-0.5,2.1-1.2,3-2.1l-0.4,2.7c-0.2,1.3-0.6,2.4-1.3,3.2c-0.7,0.8-1.6,1.5-2.6,1.9s-2.1,0.6-3.1,0.6c-1.7,0-3-0.3-3.9-1
	c-0.9-0.6-1.5-1.4-1.8-2.2l-2.5,1c0.5,1.4,1.4,2.5,2.7,3.5C729.2,167.5,731,167.9,733.1,167.9L733.1,167.9z M734.5,157
	c-1.2,0-2.2-0.3-3.1-0.8c-0.9-0.6-1.7-1.4-2.2-2.3c-0.5-1-0.8-2.1-0.8-3.3c0-1.4,0.3-2.7,1-3.9c0.7-1.2,1.6-2.1,2.7-2.7
	c1.1-0.7,2.3-1,3.6-1c1.2,0,2.3,0.3,3.2,0.9c0.9,0.5,1.7,1.3,2.2,2.3c0.5,1,0.8,2.1,0.8,3.3c0,1.3-0.3,2.6-1,3.7
	c-0.7,1.1-1.6,2.1-2.7,2.8C737,156.7,735.8,157,734.5,157L734.5,157z M758.2,160.4c1.3,0,2.5-0.2,3.6-0.6c1.1-0.4,2.1-1,3-1.7
	c0.8-0.7,1.5-1.5,1.9-2.4l-2.3-1.3c-0.7,1-1.5,1.9-2.6,2.6c-1,0.7-2.2,1-3.6,1c-1.1,0-2.1-0.3-3.1-0.8s-1.7-1.2-2.3-2.2
	c-0.6-1-0.9-2.1-0.9-3.3v-0.5h15.2l0.2-1.1c0.1-0.5,0.1-0.9,0.1-1.3c0-1.5-0.3-2.8-1-4.1c-0.6-1.3-1.6-2.4-2.8-3.2s-2.8-1.2-4.5-1.2
	c-1.4,0-2.8,0.3-4,0.9c-1.2,0.6-2.3,1.3-3.2,2.3c-0.9,1-1.6,2.1-2.1,3.4c-0.5,1.3-0.7,2.7-0.7,4.1c0,1.8,0.4,3.4,1.2,4.9
	c0.8,1.4,1.9,2.5,3.2,3.3C755,160,756.5,160.4,758.2,160.4L758.2,160.4z M759.2,142.8c1.1,0,2.1,0.3,3,0.8c0.9,0.5,1.6,1.2,2,2.1
	c0.5,0.9,0.7,1.9,0.6,3h-12.3c0.4-1.8,1.2-3.2,2.3-4.3C755.8,143.3,757.3,142.8,759.2,142.8L759.2,142.8z M770.9,160h2.7l1.6-11.4
	c0.3-1.7,0.9-3.1,2.1-4.1c1.1-1,2.5-1.5,4-1.5c1.4,0,2.5,0.5,3.3,1.4c0.8,0.9,1,2.1,0.8,3.7l-1.7,11.9h2.7l1.7-12.1
	c0.2-1.5,0.1-2.8-0.4-4c-0.5-1.2-1.2-2.1-2.3-2.7c-1-0.6-2.2-1-3.6-1c-1.1,0-2.2,0.2-3.2,0.7c-1,0.5-1.8,1.1-2.5,2l0.3-2.3h-2.7
	L770.9,160z M801.1,160.4c1.3,0,2.5-0.2,3.6-0.6c1.1-0.4,2.1-1,3-1.7c0.8-0.7,1.5-1.5,1.9-2.4l-2.3-1.3c-0.7,1-1.5,1.9-2.6,2.6
	c-1,0.7-2.2,1-3.6,1c-1.1,0-2.1-0.3-3.1-0.8s-1.7-1.2-2.3-2.2c-0.6-1-0.9-2.1-0.9-3.3v-0.5h15.2l0.2-1.1c0.1-0.5,0.1-0.9,0.1-1.3
	c0-1.5-0.3-2.8-1-4.1c-0.6-1.3-1.6-2.4-2.8-3.2s-2.8-1.2-4.5-1.2c-1.4,0-2.8,0.3-4,0.9c-1.2,0.6-2.3,1.3-3.2,2.3
	c-0.9,1-1.6,2.1-2.1,3.4c-0.5,1.3-0.7,2.7-0.7,4.1c0,1.8,0.4,3.4,1.2,4.9c0.8,1.4,1.9,2.5,3.2,3.3
	C797.9,160,799.4,160.4,801.1,160.4L801.1,160.4z M802.1,142.8c1.1,0,2.1,0.3,3,0.8c0.9,0.5,1.6,1.2,2,2.1c0.5,0.9,0.7,1.9,0.6,3
	h-12.3c0.4-1.8,1.2-3.2,2.3-4.3C798.7,143.3,800.2,142.8,802.1,142.8L802.1,142.8z M813.8,160h2.7l1.6-11.5c0.3-1.8,0.9-3.1,1.8-4
	c1-0.9,2.1-1.3,3.5-1.3h1.7l0.4-2.7h-1.2c-1.2,0-2.2,0.2-3.1,0.6c-0.9,0.4-1.6,0.9-2.3,1.7l0.3-2h-2.7L813.8,160z M832,160.4
	c1.3,0,2.6-0.3,3.7-0.8c1.2-0.5,2.1-1.2,2.9-2.1l-0.4,2.4h2.7l1.8-12.8c0.2-1.4,0-2.6-0.6-3.6c-0.6-1-1.4-1.8-2.4-2.4
	c-1.1-0.6-2.3-0.9-3.7-0.9c-1.8,0-3.4,0.4-4.9,1.3c-1.4,0.8-2.5,1.9-3.2,3.1l2.3,1.5c0.6-0.9,1.3-1.7,2.2-2.3c1-0.6,2.1-0.9,3.3-0.9
	c0.8,0,1.5,0.2,2.2,0.5c0.7,0.3,1.2,0.7,1.6,1.4s0.5,1.4,0.4,2.4l-0.1,0.6l-7.3,1.2c-2.1,0.3-3.8,1.1-5,2.2c-1.2,1-1.8,2.5-1.8,4.1
	c0,1.2,0.3,2.2,0.9,3c0.6,0.8,1.4,1.3,2.3,1.7S831,160.4,832,160.4L832,160.4z M828.8,155c0-1,0.4-1.8,1.2-2.4
	c0.8-0.7,1.9-1.1,3.2-1.4l6.5-1.1l-0.2,1.4c-0.1,1.2-0.6,2.3-1.2,3.2c-0.7,1-1.5,1.7-2.5,2.3s-2.1,0.9-3.3,0.9c-1.1,0-2-0.3-2.7-0.8
	C829.1,156.6,828.8,155.9,828.8,155L828.8,155z M846.6,160h2.7l3.7-26.8h-2.7L846.6,160z M870.5,160.4c1.3,0,2.6-0.2,3.7-0.7
	c1.2-0.5,2.2-1.2,3-2.1l-0.3,2.4h2.7l3.7-26.8h-2.7l-1.5,10.9c-0.7-1.2-1.7-2.1-3-2.8c-1.2-0.7-2.7-1-4.4-1c-1.5,0-2.8,0.3-4.1,0.9
	c-1.2,0.6-2.3,1.3-3.2,2.3c-0.9,1-1.6,2.1-2.1,3.5c-0.5,1.3-0.8,2.7-0.8,4.2c0,1.8,0.4,3.4,1.1,4.8c0.7,1.4,1.8,2.5,3.2,3.3
	C867.2,160,868.7,160.4,870.5,160.4z M870.7,157.7c-1.2,0-2.3-0.3-3.2-0.9c-0.9-0.6-1.7-1.4-2.2-2.3c-0.5-1-0.8-2.1-0.8-3.4
	c0-1.5,0.3-2.8,0.9-4c0.6-1.2,1.5-2.2,2.6-3c1.1-0.7,2.4-1.1,3.8-1.1c1.2,0,2.3,0.3,3.3,0.9c1,0.6,1.7,1.4,2.3,2.4
	c0.6,1,0.8,2.2,0.8,3.5c0,1.4-0.3,2.7-1,4s-1.6,2.2-2.7,3C873.3,157.4,872.1,157.7,870.7,157.7z M888.3,137.1h2.7l0.5-4h-2.7
	L888.3,137.1z M885.1,160h2.7l2.7-19.3h-2.7L885.1,160z M900.5,160.4c1.4,0,2.6-0.3,3.7-0.8s2-1.2,2.6-2.1c0.6-0.9,1-1.9,1-3
	c0-1.2-0.4-2.2-1.2-3.1c-0.8-0.9-1.9-1.5-3.3-1.9l-3.1-0.9c-0.9-0.3-1.5-0.6-1.9-1c-0.4-0.4-0.6-1-0.6-1.6c0-0.9,0.4-1.7,1.1-2.3
	s1.7-0.9,2.9-0.9c2.3,0,3.8,1.1,4.6,3.4l2.4-0.9c-0.4-1.4-1.2-2.7-2.4-3.6c-1.2-0.9-2.7-1.3-4.4-1.3c-1.3,0-2.4,0.3-3.5,0.8
	c-1.1,0.5-1.9,1.2-2.5,2.2c-0.6,0.9-0.9,1.9-0.9,3c0,2.4,1.5,4.1,4.5,4.9l2.7,0.8c1.9,0.5,2.9,1.4,2.9,2.7c0,1-0.4,1.8-1.2,2.4
	c-0.8,0.6-1.8,0.9-3,0.9c-1.3,0-2.4-0.3-3.4-1c-1-0.7-1.7-1.6-2.1-2.8l-2.3,0.9c0.4,1.6,1.4,2.9,2.7,3.9
	C897,160,898.7,160.4,900.5,160.4L900.5,160.4z M921.2,160.4c1.9,0,3.6-0.5,5.1-1.4c1.5-0.9,2.7-2.1,3.4-3.5l-2.4-1.4
	c-0.6,1.1-1.4,2-2.4,2.6c-1,0.6-2.2,1-3.5,1c-1.2,0-2.2-0.3-3.2-0.9s-1.7-1.4-2.2-2.4s-0.8-2.2-0.8-3.5c0-1.4,0.3-2.7,0.9-4
	c0.6-1.2,1.5-2.2,2.6-3c1.1-0.8,2.4-1.2,3.8-1.2c1.3,0,2.4,0.3,3.3,1c0.9,0.6,1.6,1.5,2,2.5l2.5-1.2c-0.6-1.5-1.5-2.7-3-3.6
	s-3-1.4-4.9-1.4c-1.9,0-3.6,0.5-5.1,1.4c-1.5,0.9-2.8,2.2-3.7,3.9c-0.9,1.6-1.3,3.4-1.3,5.5c0,1.8,0.4,3.4,1.1,4.8s1.8,2.5,3.1,3.3
	C917.9,160,919.5,160.4,921.2,160.4L921.2,160.4z M933.9,160h2.7l3.7-26.8h-2.7L933.9,160L933.9,160z M948.3,160.4
	c1.3,0,2.6-0.3,3.7-0.8c1.2-0.5,2.1-1.2,2.9-2.1l-0.4,2.4h2.7l1.8-12.8c0.2-1.4,0-2.6-0.6-3.6c-0.6-1-1.4-1.8-2.4-2.4
	c-1.1-0.6-2.3-0.9-3.7-0.9c-1.8,0-3.4,0.4-4.9,1.3c-1.4,0.8-2.5,1.9-3.2,3.1l2.3,1.5c0.6-0.9,1.3-1.7,2.2-2.3c1-0.6,2.1-0.9,3.3-0.9
	c0.8,0,1.5,0.2,2.2,0.5c0.7,0.3,1.2,0.7,1.6,1.4s0.5,1.4,0.4,2.4l-0.1,0.6l-7.3,1.2c-2.1,0.3-3.8,1.1-5,2.2c-1.2,1-1.8,2.5-1.8,4.1
	c0,1.2,0.3,2.2,0.9,3c0.6,0.8,1.4,1.3,2.3,1.7S947.2,160.4,948.3,160.4L948.3,160.4z M945,155c0-1,0.4-1.8,1.2-2.4
	c0.8-0.7,1.9-1.1,3.2-1.4l6.5-1.1l-0.2,1.4c-0.1,1.2-0.6,2.3-1.2,3.2c-0.7,1-1.5,1.7-2.5,2.3s-2.1,0.9-3.3,0.9c-1.1,0-2-0.3-2.7-0.8
	C945.3,156.6,945,155.9,945,155L945,155z M966,137.1h2.7l0.5-4h-2.7L966,137.1z M962.8,160h2.7l2.7-19.3h-2.7L962.8,160z M971.2,160
	h2.7l1.6-11.4c0.2-1.2,0.5-2.1,1.1-3c0.6-0.8,1.3-1.5,2.1-1.9c0.8-0.5,1.7-0.7,2.7-0.7c1.3,0,2.4,0.5,3.1,1.4c0.8,0.9,1,2.1,0.8,3.7
	l-1.7,11.9h2.7l1.7-11.9c0.1-1.1,0.5-2,1.1-2.8s1.3-1.4,2.1-1.8c0.8-0.4,1.7-0.6,2.6-0.6c1.3,0,2.4,0.5,3.1,1.4
	c0.8,0.9,1,2.1,0.8,3.7L996,160h2.7l1.7-12.1c0.2-1.5,0.1-2.8-0.5-4c-0.5-1.2-1.3-2.1-2.3-2.7s-2.2-1-3.5-1c-1.3,0-2.5,0.3-3.7,0.9
	s-2.2,1.6-2.9,2.8c-0.4-1.2-1.2-2.1-2.2-2.7c-1-0.7-2.2-1-3.5-1c-1.1,0-2.1,0.2-3.1,0.7s-1.8,1.2-2.5,2l0.3-2.3h-2.7L971.2,160
	L971.2,160z M1013.4,160.4c1.3,0,2.5-0.2,3.6-0.6c1.1-0.4,2.1-1,3-1.7c0.8-0.7,1.5-1.5,1.9-2.4l-2.3-1.3c-0.7,1-1.5,1.9-2.5,2.6
	c-1,0.7-2.2,1-3.6,1c-1.1,0-2.1-0.3-3.1-0.8c-0.9-0.5-1.7-1.2-2.3-2.2c-0.6-1-0.9-2.1-0.9-3.3v-0.5h15.2l0.2-1.1
	c0.1-0.5,0.1-0.9,0.1-1.3c0-1.5-0.3-2.8-1-4.1c-0.6-1.3-1.6-2.4-2.8-3.2c-1.2-0.8-2.8-1.2-4.5-1.2c-1.4,0-2.8,0.3-4,0.9
	c-1.2,0.6-2.3,1.4-3.2,2.3c-0.9,1-1.6,2.1-2.1,3.4c-0.5,1.3-0.7,2.7-0.7,4.1c0,1.8,0.4,3.4,1.2,4.9c0.8,1.4,1.9,2.5,3.2,3.3
	C1010.2,160,1011.7,160.4,1013.4,160.4z M1014.4,142.8c1.1,0,2.1,0.3,3,0.8c0.9,0.5,1.6,1.2,2,2.1c0.5,0.9,0.7,1.9,0.6,3h-12.3
	c0.4-1.8,1.2-3.2,2.3-4.3C1011,143.3,1012.5,142.8,1014.4,142.8L1014.4,142.8z M1026.1,160h2.7l1.6-11.5c0.3-1.8,0.9-3.1,1.8-4
	c1-0.9,2.1-1.3,3.5-1.3h1.7l0.4-2.7h-1.2c-1.2,0-2.2,0.2-3.1,0.6c-0.9,0.4-1.6,0.9-2.3,1.7l0.3-2h-2.7L1026.1,160z M1044.4,160h2.7
	l3.8-26.8h-2.7L1044.4,160z M1055.9,137.1h2.7l0.5-4h-2.7L1055.9,137.1z M1052.7,160h2.7l2.7-19.3h-2.7L1052.7,160z M1068.1,160.4
	c1.4,0,2.6-0.3,3.7-0.8c1.1-0.5,2-1.2,2.6-2.1c0.6-0.9,1-1.9,1-3c0-1.2-0.4-2.2-1.2-3.1c-0.8-0.9-1.9-1.5-3.3-1.9l-3.1-0.9
	c-0.9-0.3-1.5-0.6-1.9-1c-0.4-0.4-0.6-1-0.6-1.6c0-0.9,0.4-1.7,1.1-2.3c0.8-0.6,1.7-0.9,2.9-0.9c2.3,0,3.8,1.1,4.7,3.4l2.4-0.9
	c-0.4-1.5-1.2-2.7-2.4-3.6c-1.2-0.9-2.7-1.3-4.4-1.3c-1.3,0-2.4,0.3-3.5,0.8c-1.1,0.5-1.9,1.2-2.5,2.2c-0.6,0.9-0.9,1.9-0.9,3
	c0,2.4,1.5,4.1,4.5,4.9l2.7,0.8c1.9,0.5,2.9,1.4,2.9,2.7c0,1-0.4,1.8-1.2,2.4c-0.8,0.6-1.8,0.9-3,0.9c-1.3,0-2.4-0.3-3.4-1
	c-1-0.7-1.7-1.6-2.1-2.8l-2.3,0.9c0.5,1.6,1.4,2.9,2.7,3.9C1064.6,160,1066.2,160.4,1068.1,160.4L1068.1,160.4z M1086.9,160.2l0.8,0
	c0.3,0,0.7,0,1-0.1l0.2-2.5l-0.7,0.1l-0.8,0c-1.2,0-1.9-0.3-2.3-0.9s-0.4-1.4-0.3-2.3l1.6-11.1h4.2l0.4-2.7h-4.2l0.6-4.5h-2.7
	l-0.2,1.5c-0.1,0.8-0.4,1.5-1.1,2.1c-0.6,0.6-1.3,0.8-2.1,0.8h-0.8l-0.4,2.7h3.6l-1.5,10.9c-0.2,1.9,0.1,3.3,0.9,4.4
	C1083.9,159.7,1085.1,160.2,1086.9,160.2L1086.9,160.2z M1102.3,160.4c1.3,0,2.5-0.2,3.6-0.6c1.1-0.4,2.1-1,2.9-1.7
	c0.8-0.7,1.5-1.5,1.9-2.4l-2.3-1.3c-0.7,1-1.5,1.9-2.6,2.6c-1,0.7-2.2,1-3.6,1c-1.1,0-2.1-0.3-3.1-0.8c-0.9-0.5-1.7-1.2-2.3-2.2
	c-0.6-1-0.9-2.1-0.9-3.3v-0.5h15.2l0.2-1.1c0.1-0.5,0.1-0.9,0.1-1.3c0-1.5-0.3-2.8-1-4.1c-0.6-1.3-1.6-2.4-2.8-3.2
	c-1.2-0.8-2.8-1.2-4.5-1.2c-1.4,0-2.8,0.3-4,0.9c-1.2,0.6-2.3,1.4-3.2,2.3c-0.9,1-1.6,2.1-2.1,3.4c-0.5,1.3-0.7,2.7-0.7,4.1
	c0,1.8,0.4,3.4,1.2,4.9c0.8,1.4,1.9,2.5,3.2,3.3C1099,160,1100.5,160.4,1102.3,160.4L1102.3,160.4z M1103.2,142.8
	c1.1,0,2.1,0.3,2.9,0.8c0.9,0.5,1.6,1.2,2,2.1c0.5,0.9,0.7,1.9,0.6,3h-12.3c0.4-1.8,1.2-3.2,2.3-4.3
	C1099.9,143.3,1101.4,142.8,1103.2,142.8L1103.2,142.8z M1124.4,160.4c1.3,0,2.6-0.2,3.7-0.7c1.2-0.5,2.2-1.2,3-2.1l-0.3,2.4h2.7
	l3.7-26.8h-2.7l-1.5,10.9c-0.7-1.2-1.7-2.1-2.9-2.8c-1.2-0.7-2.7-1-4.3-1c-1.5,0-2.8,0.3-4.1,0.9c-1.2,0.6-2.3,1.3-3.2,2.3
	c-0.9,1-1.6,2.2-2.1,3.5c-0.5,1.3-0.8,2.7-0.8,4.2c0,1.8,0.4,3.4,1.1,4.8c0.8,1.4,1.8,2.5,3.2,3.3
	C1121.1,160,1122.7,160.4,1124.4,160.4L1124.4,160.4z M1124.6,157.7c-1.2,0-2.3-0.3-3.2-0.9c-0.9-0.6-1.7-1.4-2.2-2.3
	c-0.5-1-0.8-2.1-0.8-3.4c0-1.5,0.3-2.8,0.9-4c0.7-1.2,1.5-2.2,2.6-3c1.1-0.7,2.4-1.1,3.8-1.1c1.2,0,2.3,0.3,3.3,0.9
	c1,0.6,1.7,1.4,2.3,2.4c0.6,1,0.8,2.2,0.8,3.5c0,1.4-0.3,2.7-1,4c-0.7,1.2-1.6,2.2-2.7,3C1127.2,157.4,1126,157.7,1124.6,157.7z
	 M11.3,205.4c1.4,0,2.8-0.3,4-0.8c1.2-0.5,2.4-1.3,3.3-2.3c1-1,1.7-2.2,2.2-3.5c0.6-1.3,0.8-2.7,0.8-4.1c0-1.8-0.4-3.5-1.2-4.9
	c-0.8-1.4-1.9-2.5-3.3-3.3c-1.4-0.8-3-1.2-4.8-1.2c-1.4,0-2.8,0.3-4.1,0.8c-1.2,0.5-2.4,1.3-3.3,2.3c-0.9,1-1.7,2.1-2.2,3.4
	c-0.5,1.3-0.8,2.6-0.8,4.1c0,1.9,0.4,3.5,1.2,5c0.8,1.4,2,2.6,3.3,3.4C8,205,9.6,205.4,11.3,205.4L11.3,205.4z M11.3,202.7
	c-1.2,0-2.3-0.3-3.3-0.9c-1-0.6-1.7-1.4-2.3-2.4c-0.6-1-0.8-2.2-0.8-3.5c0-1.5,0.3-2.8,1-4s1.6-2.2,2.7-2.9c1.2-0.7,2.4-1.1,3.8-1.1
	c1.2,0,2.3,0.3,3.3,0.9c1,0.6,1.8,1.4,2.3,2.4c0.6,1,0.8,2.2,0.8,3.5c0,1.4-0.3,2.8-1,4s-1.6,2.2-2.7,3
	C14,202.4,12.7,202.7,11.3,202.7L11.3,202.7z M25.1,205h2.7l1.6-11.4c0.3-1.7,0.9-3.1,2.1-4.1c1.1-1,2.5-1.5,4-1.5
	c1.4,0,2.5,0.5,3.3,1.4c0.8,0.9,1,2.1,0.8,3.7L37.9,205h2.7l1.7-12.1c0.2-1.5,0.1-2.8-0.4-4c-0.5-1.2-1.2-2.1-2.3-2.7
	c-1-0.6-2.2-1-3.6-1c-1.1,0-2.2,0.2-3.2,0.7c-1,0.5-1.8,1.1-2.5,2l0.3-2.3h-2.7L25.1,205z M59.4,205.2l0.8,0c0.4,0,0.7,0,1-0.1
	l0.2-2.5l-0.7,0.1l-0.8,0c-1.2,0-1.9-0.3-2.3-0.9s-0.4-1.4-0.3-2.3l1.5-11.1h4.2l0.4-2.7h-4.2l0.6-4.5h-2.7l-0.2,1.5
	c-0.1,0.8-0.5,1.5-1,2.1c-0.6,0.6-1.3,0.8-2.1,0.8H53l-0.4,2.7h3.6l-1.5,10.9c-0.2,1.9,0,3.3,0.9,4.4S57.7,205.2,59.4,205.2z
	 M66,205h2.7l1.6-11.4c0.2-1.7,0.9-3.1,2.1-4.1c1.2-1,2.5-1.5,3.9-1.5c1.4,0,2.5,0.5,3.3,1.4c0.8,0.9,1,2.1,0.8,3.7L78.7,205h2.7
	l1.7-12.1c0.2-1.5,0.1-2.8-0.4-4c-0.5-1.2-1.2-2.1-2.3-2.7c-1-0.6-2.2-1-3.6-1c-1.1,0-2.2,0.2-3.2,0.7c-1,0.5-1.8,1.1-2.5,2l1.3-9.8
	h-2.7L66,205L66,205z M96.2,205.4c1.3,0,2.5-0.2,3.6-0.6c1.1-0.4,2.1-1,3-1.7c0.8-0.7,1.5-1.5,1.9-2.4l-2.3-1.3
	c-0.7,1-1.5,1.9-2.6,2.6c-1,0.7-2.2,1-3.6,1c-1.1,0-2.1-0.3-3.1-0.8s-1.7-1.2-2.3-2.2c-0.6-1-0.9-2.1-0.9-3.3v-0.5h15.2l0.2-1.1
	c0.1-0.5,0.1-0.9,0.1-1.3c0-1.5-0.3-2.8-1-4.1c-0.6-1.3-1.6-2.4-2.8-3.2s-2.8-1.2-4.5-1.2c-1.4,0-2.8,0.3-4,0.9
	c-1.2,0.6-2.3,1.3-3.2,2.3c-0.9,1-1.6,2.1-2.1,3.4c-0.5,1.3-0.7,2.7-0.7,4.1c0,1.8,0.4,3.4,1.2,4.9c0.8,1.4,1.9,2.5,3.2,3.3
	C92.9,205,94.4,205.4,96.2,205.4L96.2,205.4z M97.1,187.8c1.1,0,2.1,0.3,3,0.8c0.9,0.5,1.6,1.2,2,2.1c0.5,0.9,0.7,1.9,0.6,3H90.3
	c0.4-1.8,1.2-3.2,2.3-4.3C93.8,188.3,95.3,187.8,97.1,187.8L97.1,187.8z M123.1,186h2.9l0.5-4H125c0.2-0.8,0.5-1.5,0.9-2.1
	s1.1-1,1.8-1.2l0.1-1.1c-1.2,0.3-2.2,0.9-3,1.8c-0.7,0.9-1.2,2.1-1.4,3.5C123.5,183,123.1,186,123.1,186z M117.7,186h2.9l0.5-4h-1.5
	c0.2-0.8,0.5-1.5,0.9-2.1s1.1-1,1.8-1.2l0.1-1.1c-1.2,0.3-2.2,0.9-3,1.8c-0.7,0.9-1.2,2.1-1.4,3.5L117.7,186z M137.1,205.4
	c1.4,0,2.6-0.3,3.7-0.8s2-1.2,2.6-2.1c0.6-0.9,1-1.9,1-3c0-1.2-0.4-2.2-1.2-3.1c-0.8-0.9-1.9-1.5-3.3-1.9l-3.1-0.9
	c-0.9-0.3-1.5-0.6-1.9-1c-0.4-0.4-0.6-1-0.6-1.6c0-0.9,0.4-1.7,1.1-2.3s1.7-0.9,2.9-0.9c2.3,0,3.8,1.1,4.6,3.4l2.4-0.9
	c-0.4-1.4-1.2-2.7-2.4-3.6c-1.2-0.9-2.7-1.3-4.4-1.3c-1.3,0-2.4,0.3-3.5,0.8c-1.1,0.5-1.9,1.2-2.5,2.2c-0.6,0.9-0.9,1.9-0.9,3
	c0,2.4,1.5,4.1,4.5,4.9l2.7,0.8c1.9,0.5,2.9,1.4,2.9,2.7c0,1-0.4,1.8-1.2,2.4c-0.8,0.6-1.8,0.9-3,0.9c-1.3,0-2.4-0.3-3.4-1
	c-1-0.7-1.7-1.6-2.1-2.8l-2.3,0.9c0.4,1.6,1.4,2.9,2.7,3.9C133.6,205,135.2,205.4,137.1,205.4L137.1,205.4z M154.5,205.4
	c1.3,0,2.6-0.3,3.7-0.8c1.2-0.5,2.1-1.2,2.9-2.1l-0.4,2.4h2.7l1.8-12.8c0.2-1.4,0-2.6-0.6-3.6c-0.6-1-1.4-1.8-2.4-2.4
	c-1.1-0.6-2.3-0.9-3.7-0.9c-1.8,0-3.4,0.4-4.9,1.3c-1.4,0.8-2.5,1.9-3.2,3.1l2.3,1.5c0.6-0.9,1.3-1.7,2.2-2.3c1-0.6,2.1-0.9,3.3-0.9
	c0.8,0,1.5,0.2,2.2,0.5c0.7,0.3,1.2,0.7,1.6,1.4s0.5,1.4,0.4,2.4l-0.1,0.6l-7.3,1.2c-2.1,0.3-3.8,1.1-5,2.2c-1.2,1-1.8,2.5-1.8,4.1
	c0,1.2,0.3,2.2,0.9,3c0.6,0.8,1.4,1.3,2.3,1.7S153.4,205.4,154.5,205.4L154.5,205.4z M151.2,200c0-1,0.4-1.8,1.2-2.4
	c0.8-0.7,1.9-1.1,3.2-1.4l6.5-1.1l-0.2,1.4c-0.1,1.2-0.6,2.3-1.2,3.2c-0.7,1-1.5,1.7-2.5,2.3s-2.1,0.9-3.3,0.9c-1.1,0-2-0.3-2.7-0.8
	C151.5,201.6,151.2,200.9,151.2,200z M169,205h2.7l1.6-11.5c0.3-1.8,0.9-3.1,1.8-4c1-0.9,2.1-1.3,3.5-1.3h1.7l0.4-2.7h-1.2
	c-1.2,0-2.2,0.2-3.1,0.6c-0.9,0.4-1.6,0.9-2.3,1.7l0.3-2h-2.7L169,205z M181.2,205h2.7l1.6-11.4c0.2-1.2,0.5-2.1,1.1-3
	c0.6-0.8,1.3-1.5,2.1-1.9c0.8-0.5,1.7-0.7,2.7-0.7c1.3,0,2.4,0.5,3.1,1.4c0.8,0.9,1,2.1,0.8,3.7l-1.7,11.9h2.7l1.7-11.9
	c0.1-1.1,0.5-2,1.1-2.8s1.3-1.4,2.1-1.8c0.8-0.4,1.7-0.6,2.6-0.6c1.3,0,2.4,0.5,3.1,1.4c0.8,0.9,1,2.1,0.8,3.7L206,205h2.7l1.7-12.1
	c0.2-1.5,0.1-2.8-0.5-4c-0.5-1.2-1.3-2.1-2.3-2.7s-2.2-1-3.5-1c-1.3,0-2.5,0.3-3.7,0.9s-2.2,1.6-2.9,2.8c-0.4-1.2-1.2-2.1-2.2-2.7
	c-1-0.7-2.2-1-3.5-1c-1.1,0-2.1,0.2-3.1,0.7s-1.8,1.2-2.5,2l0.3-2.3h-2.7L181.2,205L181.2,205z M213.9,205h2.7l1.6-11.4
	c0.2-1.2,0.5-2.1,1.1-3c0.6-0.8,1.3-1.5,2.1-1.9c0.8-0.5,1.7-0.7,2.7-0.7c1.3,0,2.4,0.5,3.1,1.4c0.8,0.9,1,2.1,0.8,3.7l-1.7,11.9
	h2.7l1.7-11.9c0.1-1.1,0.5-2,1.1-2.8s1.3-1.4,2.1-1.8c0.8-0.4,1.7-0.6,2.6-0.6c1.3,0,2.4,0.5,3.1,1.4c0.8,0.9,1,2.1,0.8,3.7
	l-1.7,11.9h2.7l1.7-12.1c0.2-1.5,0.1-2.8-0.5-4c-0.5-1.2-1.3-2.1-2.3-2.7s-2.2-1-3.5-1c-1.3,0-2.5,0.3-3.7,0.9s-2.2,1.6-2.9,2.8
	c-0.4-1.2-1.2-2.1-2.2-2.7c-1-0.7-2.2-1-3.5-1c-1.1,0-2.1,0.2-3.1,0.7s-1.8,1.2-2.5,2l0.3-2.3h-2.7L213.9,205L213.9,205z
	 M249.9,182.1h2.7l0.5-4h-2.7L249.9,182.1z M246.7,205h2.7l2.7-19.3h-2.7L246.7,205L246.7,205z M264.5,205.4c1.3,0,2.5-0.2,3.6-0.6
	c1.1-0.4,2.1-1,3-1.7c0.8-0.7,1.5-1.5,1.9-2.4l-2.3-1.3c-0.7,1-1.5,1.9-2.6,2.6c-1,0.7-2.2,1-3.6,1c-1.1,0-2.1-0.3-3.1-0.8
	s-1.7-1.2-2.3-2.2c-0.6-1-0.9-2.1-0.9-3.3v-0.5h15.2l0.2-1.1c0.1-0.5,0.1-0.9,0.1-1.3c0-1.5-0.3-2.8-1-4.1c-0.6-1.3-1.6-2.4-2.8-3.2
	s-2.8-1.2-4.5-1.2c-1.4,0-2.8,0.3-4,0.9c-1.2,0.6-2.3,1.3-3.2,2.3c-0.9,1-1.6,2.1-2.1,3.4c-0.5,1.3-0.7,2.7-0.7,4.1
	c0,1.8,0.4,3.4,1.2,4.9c0.8,1.4,1.9,2.5,3.2,3.3C261.3,205,262.8,205.4,264.5,205.4z M265.5,187.8c1.1,0,2.1,0.3,3,0.8
	c0.9,0.5,1.6,1.2,2,2.1c0.5,0.9,0.7,1.9,0.6,3h-12.3c0.4-1.8,1.2-3.2,2.3-4.3C262.1,188.3,263.6,187.8,265.5,187.8L265.5,187.8z
	 M284.2,205.4c1.4,0,2.6-0.3,3.7-0.8s2-1.2,2.6-2.1c0.6-0.9,1-1.9,1-3c0-1.2-0.4-2.2-1.2-3.1c-0.8-0.9-1.9-1.5-3.3-1.9l-3.1-0.9
	c-0.9-0.3-1.5-0.6-1.9-1c-0.4-0.4-0.6-1-0.6-1.6c0-0.9,0.4-1.7,1.1-2.3s1.7-0.9,2.9-0.9c2.3,0,3.8,1.1,4.6,3.4l2.4-0.9
	c-0.4-1.4-1.2-2.7-2.4-3.6c-1.2-0.9-2.7-1.3-4.4-1.3c-1.3,0-2.4,0.3-3.5,0.8c-1.1,0.5-1.9,1.2-2.5,2.2c-0.6,0.9-0.9,1.9-0.9,3
	c0,2.4,1.5,4.1,4.5,4.9l2.7,0.8c1.9,0.5,2.9,1.4,2.9,2.7c0,1-0.4,1.8-1.2,2.4c-0.8,0.6-1.8,0.9-3,0.9c-1.3,0-2.4-0.3-3.4-1
	c-1-0.7-1.7-1.6-2.1-2.8l-2.3,0.9c0.4,1.6,1.4,2.9,2.7,3.9C280.8,205,282.4,205.4,284.2,205.4L284.2,205.4z M296.5,205h2.9l0.6-4
	H297L296.5,205z M316.2,205.4c1.5,0,2.8-0.3,4-0.8c1.2-0.6,2.3-1.4,3.2-2.4c0.9-1,1.7-2.2,2.2-3.5c0.5-1.3,0.8-2.7,0.8-4.2
	c0-1.8-0.4-3.3-1.1-4.7c-0.7-1.4-1.8-2.5-3.1-3.3c-1.3-0.8-2.9-1.3-4.7-1.3c-1.3,0-2.5,0.2-3.6,0.7c-1.1,0.4-2.1,1-2.9,1.8l1.3-9.6
	h-2.7l-3.7,26.8h2.7l0.4-3.2c0.7,1.2,1.7,2.1,3,2.7C313.3,205.1,314.7,205.4,316.2,205.4L316.2,205.4z M316.2,202.7
	c-1.2,0-2.3-0.3-3.3-0.9c-0.9-0.6-1.7-1.5-2.2-2.4c-0.6-1-0.8-2.2-0.8-3.5c0-1.4,0.3-2.7,0.9-3.9s1.5-2.2,2.6-2.9
	c1.1-0.7,2.4-1.1,3.8-1.1c1.3,0,2.4,0.3,3.3,0.9c1,0.6,1.7,1.4,2.2,2.4c0.6,1,0.8,2.2,0.8,3.5c0,1.4-0.3,2.8-1,4s-1.5,2.2-2.6,3
	S317.6,202.7,316.2,202.7L316.2,202.7z M333,182.1h2.7l0.5-4h-2.7L333,182.1z M329.8,205h2.7l2.7-19.3h-2.7L329.8,205z M348,205.4
	c1.4,0,2.8-0.3,4-0.8c1.2-0.5,2.4-1.3,3.3-2.3c1-1,1.7-2.2,2.2-3.5c0.6-1.3,0.8-2.7,0.8-4.1c0-1.8-0.4-3.5-1.2-4.9
	c-0.8-1.4-1.9-2.5-3.3-3.3c-1.4-0.8-3-1.2-4.8-1.2c-1.4,0-2.8,0.3-4.1,0.8c-1.2,0.5-2.4,1.3-3.3,2.3c-0.9,1-1.7,2.1-2.2,3.4
	c-0.5,1.3-0.8,2.6-0.8,4.1c0,1.9,0.4,3.5,1.2,5c0.8,1.4,2,2.6,3.3,3.4C344.7,205,346.3,205.4,348,205.4L348,205.4z M348,202.7
	c-1.2,0-2.3-0.3-3.3-0.9c-1-0.6-1.7-1.4-2.3-2.4c-0.6-1-0.8-2.2-0.8-3.5c0-1.5,0.3-2.8,1-4s1.6-2.2,2.7-2.9c1.2-0.7,2.4-1.1,3.8-1.1
	c1.2,0,2.3,0.3,3.3,0.9c1,0.6,1.8,1.4,2.3,2.4c0.6,1,0.8,2.2,0.8,3.5c0,1.4-0.3,2.8-1,4s-1.6,2.2-2.7,3
	C350.7,202.4,349.4,202.7,348,202.7L348,202.7z M370,186.5c1.2-0.3,2.2-0.9,3-1.8s1.2-2.1,1.4-3.5l0.4-3h-2.9l-0.5,4h1.5
	c-0.2,0.8-0.5,1.5-0.9,2.1c-0.4,0.6-1,1-1.8,1.2L370,186.5z M364.6,186.5c1.2-0.3,2.2-0.9,3-1.8s1.2-2.1,1.4-3.5l0.4-3h-2.9l-0.5,4
	h1.5c-0.2,0.8-0.5,1.5-0.9,2.1c-0.4,0.6-1,1-1.8,1.2L364.6,186.5z M387.3,205h2.7l6.8-15.1l2.4,15.1h2.7l9.4-19.3h-3.1l-7,15.1
	l-2.5-15.1h-2.7l-6.8,15.2l-2.8-15.2h-2.9L387.3,205z M421,205.4c1.3,0,2.5-0.2,3.6-0.6c1.1-0.4,2.1-1,3-1.7
	c0.8-0.7,1.5-1.5,1.9-2.4l-2.3-1.3c-0.7,1-1.5,1.9-2.6,2.6c-1,0.7-2.2,1-3.6,1c-1.1,0-2.1-0.3-3.1-0.8s-1.7-1.2-2.3-2.2
	c-0.6-1-0.9-2.1-0.9-3.3v-0.5H430l0.2-1.1c0.1-0.5,0.1-0.9,0.1-1.3c0-1.5-0.3-2.8-1-4.1c-0.6-1.3-1.6-2.4-2.8-3.2s-2.8-1.2-4.5-1.2
	c-1.4,0-2.8,0.3-4,0.9c-1.2,0.6-2.3,1.3-3.2,2.3c-0.9,1-1.6,2.1-2.1,3.4c-0.5,1.3-0.7,2.7-0.7,4.1c0,1.8,0.4,3.4,1.2,4.9
	c0.8,1.4,1.9,2.5,3.2,3.3C417.7,205,419.2,205.4,421,205.4z M421.9,187.8c1.1,0,2.1,0.3,3,0.8c0.9,0.5,1.6,1.2,2,2.1
	c0.5,0.9,0.7,1.9,0.6,3h-12.3c0.4-1.8,1.2-3.2,2.3-4.3C418.6,188.3,420.1,187.8,421.9,187.8L421.9,187.8z M444,205.4
	c1.5,0,2.8-0.3,4-0.8c1.2-0.6,2.3-1.4,3.2-2.4c0.9-1,1.7-2.2,2.2-3.5c0.5-1.3,0.8-2.7,0.8-4.2c0-1.8-0.4-3.3-1.1-4.7
	c-0.7-1.4-1.8-2.5-3.1-3.3c-1.3-0.8-2.9-1.3-4.7-1.3c-1.3,0-2.5,0.2-3.6,0.7c-1.1,0.4-2.1,1-2.9,1.8l1.3-9.6h-2.7l-3.7,26.8h2.7
	l0.4-3.2c0.7,1.2,1.7,2.1,3,2.7C441.1,205.1,442.5,205.4,444,205.4L444,205.4z M443.9,202.7c-1.2,0-2.3-0.3-3.3-0.9
	c-0.9-0.6-1.7-1.5-2.2-2.4c-0.6-1-0.8-2.2-0.8-3.5c0-1.4,0.3-2.7,0.9-3.9s1.5-2.2,2.6-2.9c1.1-0.7,2.4-1.1,3.8-1.1
	c1.3,0,2.4,0.3,3.3,0.9c1,0.6,1.7,1.4,2.2,2.4c0.6,1,0.8,2.2,0.8,3.5c0,1.4-0.3,2.8-1,4s-1.5,2.2-2.6,3S445.4,202.7,443.9,202.7
	L443.9,202.7z M473.2,205.4c1.3,0,2.6-0.2,3.7-0.7c1.2-0.5,2.2-1.2,3-2.1l-0.3,2.4h2.7l3.7-26.8h-2.7l-1.5,10.9
	c-0.7-1.2-1.7-2.1-3-2.8c-1.2-0.7-2.7-1-4.4-1c-1.5,0-2.8,0.3-4.1,0.9c-1.2,0.6-2.3,1.3-3.2,2.3c-0.9,1-1.6,2.1-2.1,3.5
	c-0.5,1.3-0.8,2.7-0.8,4.2c0,1.8,0.4,3.4,1.1,4.8c0.7,1.4,1.8,2.5,3.2,3.3C469.9,205,471.4,205.4,473.2,205.4L473.2,205.4z
	 M473.4,202.7c-1.2,0-2.3-0.3-3.2-0.9c-0.9-0.6-1.7-1.4-2.2-2.3c-0.5-1-0.8-2.1-0.8-3.4c0-1.5,0.3-2.8,0.9-4c0.6-1.2,1.5-2.2,2.6-3
	c1.1-0.7,2.4-1.1,3.8-1.1c1.2,0,2.3,0.3,3.3,0.9c1,0.6,1.7,1.4,2.3,2.4c0.6,1,0.8,2.2,0.8,3.5c0,1.4-0.3,2.7-1,4s-1.6,2.2-2.7,3
	C476,202.4,474.8,202.7,473.4,202.7z M497.7,205.4c1.4,0,2.8-0.3,4-0.8c1.2-0.5,2.4-1.3,3.3-2.3c1-1,1.7-2.2,2.2-3.5
	c0.6-1.3,0.8-2.7,0.8-4.1c0-1.8-0.4-3.5-1.2-4.9c-0.8-1.4-1.9-2.5-3.3-3.3c-1.4-0.8-3-1.2-4.8-1.2c-1.4,0-2.8,0.3-4.1,0.8
	c-1.2,0.5-2.4,1.3-3.3,2.3c-0.9,1-1.7,2.1-2.2,3.4c-0.5,1.3-0.8,2.6-0.8,4.1c0,1.9,0.4,3.5,1.2,5c0.8,1.4,2,2.6,3.3,3.4
	C494.4,205,496,205.4,497.7,205.4L497.7,205.4z M497.7,202.7c-1.2,0-2.3-0.3-3.3-0.9c-1-0.6-1.7-1.4-2.3-2.4c-0.6-1-0.8-2.2-0.8-3.5
	c0-1.5,0.3-2.8,1-4s1.6-2.2,2.7-2.9c1.2-0.7,2.4-1.1,3.8-1.1c1.2,0,2.3,0.3,3.3,0.9c1,0.6,1.8,1.4,2.3,2.4c0.6,1,0.8,2.2,0.8,3.5
	c0,1.4-0.3,2.8-1,4s-1.6,2.2-2.7,3C500.3,202.4,499.1,202.7,497.7,202.7L497.7,202.7z M511.5,205h2.7l1.6-11.4
	c0.2-1.2,0.5-2.1,1.1-3c0.6-0.8,1.3-1.5,2.1-1.9c0.8-0.5,1.7-0.7,2.7-0.7c1.3,0,2.4,0.5,3.1,1.4c0.8,0.9,1,2.1,0.8,3.7l-1.7,11.9
	h2.7l1.7-11.9c0.1-1.1,0.5-2,1.1-2.8s1.3-1.4,2.1-1.8c0.8-0.4,1.7-0.6,2.6-0.6c1.3,0,2.4,0.5,3.1,1.4c0.8,0.9,1,2.1,0.8,3.7
	l-1.7,11.9h2.7l1.7-12.1c0.2-1.5,0.1-2.8-0.5-4c-0.5-1.2-1.3-2.1-2.3-2.7s-2.2-1-3.5-1c-1.3,0-2.5,0.3-3.7,0.9s-2.2,1.6-2.9,2.8
	c-0.4-1.2-1.2-2.1-2.2-2.7c-1-0.7-2.2-1-3.5-1c-1.1,0-2.1,0.2-3.1,0.7s-1.8,1.2-2.5,2l0.3-2.3h-2.7L511.5,205L511.5,205z
	 M550.3,205.4c1.3,0,2.6-0.3,3.7-0.8c1.2-0.5,2.1-1.2,2.9-2.1l-0.4,2.4h2.7l1.8-12.8c0.2-1.4,0-2.6-0.6-3.6c-0.6-1-1.4-1.8-2.4-2.4
	c-1.1-0.6-2.3-0.9-3.7-0.9c-1.8,0-3.4,0.4-4.9,1.3c-1.4,0.8-2.5,1.9-3.2,3.1l2.3,1.5c0.6-0.9,1.3-1.7,2.2-2.3c1-0.6,2.1-0.9,3.3-0.9
	c0.8,0,1.5,0.2,2.2,0.5c0.7,0.3,1.2,0.7,1.6,1.4s0.5,1.4,0.4,2.4l-0.1,0.6l-7.3,1.2c-2.1,0.3-3.8,1.1-5,2.2c-1.2,1-1.8,2.5-1.8,4.1
	c0,1.2,0.3,2.2,0.9,3c0.6,0.8,1.4,1.3,2.3,1.7S549.3,205.4,550.3,205.4L550.3,205.4z M547.1,200c0-1,0.4-1.8,1.2-2.4
	c0.8-0.7,1.9-1.1,3.2-1.4l6.5-1.1l-0.2,1.4c-0.1,1.2-0.6,2.3-1.2,3.2c-0.7,1-1.5,1.7-2.5,2.3s-2.1,0.9-3.3,0.9c-1.1,0-2-0.3-2.7-0.8
	C547.4,201.6,547.1,200.9,547.1,200L547.1,200z M568.1,182.1h2.7l0.5-4h-2.7L568.1,182.1z M564.9,205h2.7l2.7-19.3h-2.7L564.9,205z
	 M573.2,205h2.7l1.6-11.4c0.3-1.7,0.9-3.1,2.1-4.1c1.1-1,2.5-1.5,4-1.5c1.4,0,2.5,0.5,3.3,1.4c0.8,0.9,1,2.1,0.8,3.7L586,205h2.7
	l1.7-12.1c0.2-1.5,0.1-2.8-0.4-4c-0.5-1.2-1.2-2.1-2.3-2.7c-1-0.6-2.2-1-3.6-1c-1.1,0-2.2,0.2-3.2,0.7c-1,0.5-1.8,1.1-2.5,2l0.3-2.3
	h-2.7L573.2,205L573.2,205z M604.7,210h2.3c-2.5-4.1-3.8-8.6-3.8-13.3c0-3.2,0.6-6.4,1.8-9.6s3-6.2,5.3-9H608
	c-2.5,2.5-4.4,5.4-5.7,8.6c-1.3,3.2-2,6.6-2,10.1C600.3,202,601.8,206.4,604.7,210z M614.4,182.1h2.7l0.5-4h-2.7L614.4,182.1z
	 M611.2,205h2.7l2.7-19.3h-2.7L611.2,205z M621.5,205h2.7l2.3-16.6h4.7l0.4-2.7h-4.7l0.2-1.3c0.2-1.6,0.8-2.6,1.7-3.2
	s1.9-0.9,3.1-0.9c0.1,0,0.3,0,0.5,0c0.3,0,0.5,0,0.7,0.1l0.2-2.4c-0.5-0.1-1.1-0.2-1.8-0.2c-1,0-2.1,0.2-3.1,0.7
	c-1,0.5-1.8,1.2-2.6,2.2s-1.2,2.2-1.4,3.6l-0.2,1.4h-3.8l-0.4,2.7h3.8L621.5,205z M646,205.4c1.3,0,2.6-0.3,3.7-0.8
	c1.2-0.5,2.1-1.2,2.9-2.1l-0.4,2.4h2.7l1.8-12.8c0.2-1.4,0-2.6-0.6-3.6c-0.6-1-1.4-1.8-2.4-2.4c-1.1-0.6-2.3-0.9-3.7-0.9
	c-1.8,0-3.4,0.4-4.9,1.3c-1.4,0.8-2.5,1.9-3.2,3.1l2.3,1.5c0.6-0.9,1.3-1.7,2.2-2.3c1-0.6,2.1-0.9,3.3-0.9c0.8,0,1.5,0.2,2.2,0.5
	c0.7,0.3,1.2,0.7,1.6,1.4s0.5,1.4,0.4,2.4l-0.1,0.6l-7.3,1.2c-2.1,0.3-3.8,1.1-5,2.2c-1.2,1-1.8,2.5-1.8,4.1c0,1.2,0.3,2.2,0.9,3
	c0.6,0.8,1.4,1.3,2.3,1.7S644.9,205.4,646,205.4L646,205.4z M642.7,200c0-1,0.4-1.8,1.2-2.4c0.8-0.7,1.9-1.1,3.2-1.4l6.5-1.1
	l-0.2,1.4c-0.1,1.2-0.6,2.3-1.2,3.2c-0.7,1-1.5,1.7-2.5,2.3s-2.1,0.9-3.3,0.9c-1.1,0-2-0.3-2.7-0.8C643,201.6,642.7,200.9,642.7,200
	L642.7,200z M659.5,212.2h2.7l1.4-10.4c0.7,1.2,1.7,2.1,3,2.7c1.3,0.6,2.7,1,4.2,1c1.5,0,2.8-0.3,4-0.8c1.2-0.6,2.3-1.4,3.2-2.4
	c0.9-1,1.7-2.2,2.2-3.5c0.5-1.3,0.8-2.7,0.8-4.2c0-1.8-0.4-3.3-1.1-4.7c-0.7-1.4-1.8-2.5-3.1-3.3c-1.3-0.8-2.9-1.3-4.7-1.3
	c-1.3,0-2.5,0.2-3.6,0.7c-1.1,0.4-2.1,1-2.9,1.8l0.3-2.1h-2.7L659.5,212.2L659.5,212.2z M670.8,202.7c-1.2,0-2.3-0.3-3.3-0.9
	c-0.9-0.6-1.7-1.5-2.2-2.4c-0.6-1-0.8-2.2-0.8-3.5c0-1.4,0.3-2.7,0.9-3.9s1.5-2.2,2.6-2.9c1.1-0.7,2.4-1.1,3.8-1.1
	c1.3,0,2.4,0.3,3.3,0.9c1,0.6,1.7,1.4,2.2,2.4c0.6,1,0.8,2.2,0.8,3.5c0,1.4-0.3,2.8-1,4s-1.5,2.2-2.6,3S672.3,202.7,670.8,202.7
	L670.8,202.7z M683.5,212.2h2.7l1.4-10.4c0.7,1.2,1.7,2.1,3,2.7c1.3,0.6,2.7,1,4.2,1c1.5,0,2.8-0.3,4-0.8c1.2-0.6,2.3-1.4,3.2-2.4
	c0.9-1,1.7-2.2,2.2-3.5c0.5-1.3,0.8-2.7,0.8-4.2c0-1.8-0.4-3.3-1.1-4.7c-0.7-1.4-1.8-2.5-3.1-3.3c-1.3-0.8-2.9-1.3-4.7-1.3
	c-1.3,0-2.5,0.2-3.6,0.7c-1.1,0.4-2.1,1-2.9,1.8l0.3-2.1h-2.7L683.5,212.2L683.5,212.2z M694.8,202.7c-1.2,0-2.3-0.3-3.3-0.9
	c-0.9-0.6-1.7-1.5-2.2-2.4c-0.6-1-0.8-2.2-0.8-3.5c0-1.4,0.3-2.7,0.9-3.9s1.5-2.2,2.6-2.9c1.1-0.7,2.4-1.1,3.8-1.1
	c1.3,0,2.4,0.3,3.3,0.9c1,0.6,1.7,1.4,2.2,2.4c0.6,1,0.8,2.2,0.8,3.5c0,1.4-0.3,2.8-1,4s-1.5,2.2-2.6,3S696.2,202.7,694.8,202.7
	L694.8,202.7z M708.5,205h2.7l3.7-26.8h-2.7L708.5,205z M720,182.1h2.7l0.5-4h-2.7L720,182.1z M716.8,205h2.7l2.7-19.3h-2.7
	L716.8,205z M734.6,205.4c1.9,0,3.6-0.5,5.1-1.4c1.5-0.9,2.7-2.1,3.4-3.5l-2.4-1.4c-0.6,1.1-1.4,2-2.4,2.6c-1,0.6-2.2,1-3.5,1
	c-1.2,0-2.2-0.3-3.2-0.9s-1.7-1.4-2.2-2.4s-0.8-2.2-0.8-3.5c0-1.4,0.3-2.7,0.9-4c0.6-1.2,1.5-2.2,2.6-3c1.1-0.8,2.4-1.2,3.8-1.2
	c1.3,0,2.4,0.3,3.3,1c0.9,0.6,1.6,1.5,2,2.5l2.5-1.2c-0.6-1.5-1.5-2.7-3-3.6s-3-1.4-4.9-1.4c-1.9,0-3.6,0.5-5.1,1.4
	c-1.5,0.9-2.8,2.2-3.7,3.9c-0.9,1.6-1.3,3.4-1.3,5.5c0,1.8,0.4,3.4,1.1,4.8s1.8,2.5,3.1,3.3C731.3,205,732.8,205.4,734.6,205.4
	L734.6,205.4z M752.9,205.4c1.3,0,2.6-0.3,3.7-0.8c1.2-0.5,2.1-1.2,2.9-2.1l-0.4,2.4h2.7l1.8-12.8c0.2-1.4,0-2.6-0.6-3.6
	c-0.6-1-1.4-1.8-2.4-2.4c-1.1-0.6-2.3-0.9-3.7-0.9c-1.8,0-3.4,0.4-4.9,1.3c-1.4,0.8-2.5,1.9-3.2,3.1l2.3,1.5
	c0.6-0.9,1.3-1.7,2.2-2.3c1-0.6,2.1-0.9,3.3-0.9c0.8,0,1.5,0.2,2.2,0.5c0.7,0.3,1.2,0.7,1.6,1.4s0.5,1.4,0.4,2.4l-0.1,0.6l-7.3,1.2
	c-2.1,0.3-3.8,1.1-5,2.2c-1.2,1-1.8,2.5-1.8,4.1c0,1.2,0.3,2.2,0.9,3c0.6,0.8,1.4,1.3,2.3,1.7S751.9,205.4,752.9,205.4L752.9,205.4z
	 M749.7,200c0-1,0.4-1.8,1.2-2.4c0.8-0.7,1.9-1.1,3.2-1.4l6.5-1.1l-0.2,1.4c-0.1,1.2-0.6,2.3-1.2,3.2c-0.7,1-1.5,1.7-2.5,2.3
	s-2.1,0.9-3.3,0.9c-1.1,0-2-0.3-2.7-0.8C750,201.6,749.7,200.9,749.7,200L749.7,200z M777.9,205.4c1.5,0,2.8-0.3,4-0.8
	c1.2-0.6,2.3-1.4,3.2-2.4c0.9-1,1.7-2.2,2.2-3.5c0.5-1.3,0.8-2.7,0.8-4.2c0-1.8-0.4-3.3-1.1-4.7c-0.7-1.4-1.8-2.5-3.1-3.3
	c-1.3-0.8-2.9-1.3-4.7-1.3c-1.3,0-2.5,0.2-3.6,0.7c-1.1,0.4-2.1,1-2.9,1.8l1.3-9.6h-2.7l-3.7,26.8h2.7l0.4-3.2
	c0.7,1.2,1.7,2.1,3,2.7C774.9,205.1,776.3,205.4,777.9,205.4L777.9,205.4z M777.8,202.7c-1.2,0-2.3-0.3-3.3-0.9
	c-0.9-0.6-1.7-1.5-2.2-2.4c-0.6-1-0.8-2.2-0.8-3.5c0-1.4,0.3-2.7,0.9-3.9s1.5-2.2,2.6-2.9c1.1-0.7,2.4-1.1,3.8-1.1
	c1.3,0,2.4,0.3,3.3,0.9c1,0.6,1.7,1.4,2.2,2.4c0.6,1,0.8,2.2,0.8,3.5c0,1.4-0.3,2.8-1,4s-1.5,2.2-2.6,3S779.2,202.7,777.8,202.7
	L777.8,202.7z M791.5,205h2.7l3.7-26.8h-2.7L791.5,205L791.5,205z M809.3,205.4c1.3,0,2.5-0.2,3.6-0.6c1.1-0.4,2.1-1,3-1.7
	c0.8-0.7,1.5-1.5,1.9-2.4l-2.3-1.3c-0.7,1-1.5,1.9-2.6,2.6c-1,0.7-2.2,1-3.6,1c-1.1,0-2.1-0.3-3.1-0.8s-1.7-1.2-2.3-2.2
	c-0.6-1-0.9-2.1-0.9-3.3v-0.5h15.2l0.2-1.1c0.1-0.5,0.1-0.9,0.1-1.3c0-1.5-0.3-2.8-1-4.1c-0.6-1.3-1.6-2.4-2.8-3.2s-2.8-1.2-4.5-1.2
	c-1.4,0-2.8,0.3-4,0.9c-1.2,0.6-2.3,1.3-3.2,2.3c-0.9,1-1.6,2.1-2.1,3.4c-0.5,1.3-0.7,2.7-0.7,4.1c0,1.8,0.4,3.4,1.2,4.9
	c0.8,1.4,1.9,2.5,3.2,3.3C806.1,205,807.6,205.4,809.3,205.4L809.3,205.4z M810.3,187.8c1.1,0,2.1,0.3,3,0.8c0.9,0.5,1.6,1.2,2,2.1
	c0.5,0.9,0.7,1.9,0.6,3h-12.3c0.4-1.8,1.2-3.2,2.3-4.3C806.9,188.3,808.4,187.8,810.3,187.8L810.3,187.8z M820.4,210h2.3
	c2.5-2.5,4.4-5.4,5.7-8.7c1.3-3.2,2-6.6,2-10.1c0-2.4-0.4-4.8-1.1-7c-0.7-2.2-1.8-4.3-3.2-6.1h-2.3c1.2,2,2.2,4.2,2.8,6.4
	c0.6,2.2,0.9,4.5,0.9,6.8c0,3.2-0.6,6.4-1.8,9.6C824.4,204.2,822.7,207.2,820.4,210L820.4,210z M834.1,205h2.9l0.6-4h-2.9L834.1,205
	z M18.4,253c-2.3,0-4.4-0.4-6.4-1.3c-2-0.8-3.8-2-5.3-3.5c-1.5-1.5-2.7-3.3-3.6-5.3c-0.8-2-1.3-4.1-1.3-6.4s0.4-4.4,1.3-6.4
	c0.9-2,2.1-3.7,3.6-5.3c1.5-1.5,3.3-2.7,5.3-3.6c2-0.9,4.1-1.3,6.4-1.3s4.4,0.4,6.4,1.3c2,0.8,3.8,2,5.3,3.6
	c1.5,1.5,2.7,3.3,3.6,5.3c0.9,2,1.3,4.1,1.3,6.4s-0.4,4.4-1.3,6.4c-0.8,2-2,3.8-3.6,5.3c-1.5,1.5-3.3,2.7-5.3,3.5
	C22.8,252.5,20.6,253,18.4,253z M18.4,249.9c1.8,0,3.6-0.3,5.2-1c1.6-0.7,3.1-1.7,4.3-2.9c1.2-1.2,2.2-2.7,2.9-4.3
	c0.7-1.6,1-3.4,1-5.2s-0.3-3.6-1-5.2c-0.7-1.6-1.7-3.1-2.9-4.3c-1.2-1.2-2.7-2.2-4.3-2.9c-1.6-0.7-3.3-1-5.2-1s-3.6,0.3-5.2,1
	c-1.6,0.7-3.1,1.7-4.3,2.9c-1.2,1.2-2.2,2.7-2.9,4.3c-0.7,1.6-1,3.3-1,5.2s0.3,3.6,1,5.2c0.7,1.6,1.7,3,2.9,4.3
	c1.2,1.2,2.7,2.2,4.3,2.9C14.8,249.5,16.5,249.9,18.4,249.9z M18.4,230.6c-0.5,0-1-0.1-1.4-0.4c-0.4-0.3-0.6-0.7-0.6-1.4
	c0-0.7,0.2-1.2,0.6-1.4c0.4-0.2,0.9-0.4,1.4-0.4c1.3,0,1.9,0.6,1.9,1.8c0,0.7-0.2,1.1-0.6,1.4C19.3,230.4,18.8,230.6,18.4,230.6z
	 M16.5,245.5v-13.2h3.6v13.2H16.5z M56.8,250h3.6v-23.6h7.2v-3.2h-18v3.2h7.3C56.8,226.4,56.8,250,56.8,250z M70.5,250h3.3v-11.5
	c0-1.6,0.4-2.8,1.3-3.7c0.9-0.9,2-1.4,3.4-1.4s2.4,0.5,3.3,1.4c0.9,0.9,1.3,2.1,1.3,3.7V250h3.4v-12.6c0-1.4-0.3-2.6-1-3.7
	c-0.6-1.1-1.5-2-2.6-2.6c-1.1-0.6-2.3-1-3.7-1c-1.2,0-2.2,0.2-3.2,0.7c-0.9,0.5-1.7,1.1-2.3,2v-9.8h-3.3V250z M91.4,227.5h3.3v-4.3
	h-3.3V227.5z M91.4,250h3.3v-19.4h-3.3V250z M106.9,250.4c1.4,0,2.6-0.2,3.7-0.7s1.9-1.1,2.5-2c0.6-0.9,0.9-1.8,0.9-3
	c0-1.3-0.4-2.5-1.3-3.5s-2.1-1.7-3.7-2.1l-3.2-0.9c-0.4-0.1-0.8-0.3-1.2-0.4c-0.4-0.2-0.8-0.5-1-0.8c-0.3-0.4-0.4-0.8-0.4-1.4
	c0-0.7,0.3-1.4,0.9-1.9c0.6-0.5,1.4-0.7,2.3-0.7c1.1,0,2,0.3,2.9,0.9c0.9,0.6,1.5,1.4,2,2.4l2.7-1.3c-0.5-1.5-1.6-2.8-2.9-3.6
	c-1.3-0.9-2.9-1.3-4.6-1.3c-1.3,0-2.4,0.2-3.5,0.7c-1,0.5-1.8,1.2-2.4,2c-0.6,0.8-0.9,1.8-0.9,3c0,1.2,0.4,2.4,1.2,3.3
	c0.8,0.9,2.1,1.6,3.9,2.1l2.9,0.8c0.4,0.1,0.8,0.3,1.3,0.5c0.5,0.2,0.8,0.5,1.2,0.8c0.3,0.3,0.5,0.8,0.5,1.4c0,0.8-0.3,1.5-1,2
	s-1.6,0.8-2.6,0.8c-1.1,0-2.3-0.3-3.2-1c-1-0.7-1.7-1.6-2.3-2.8l-2.7,1.3c0.6,1.6,1.6,2.9,3.1,3.9S105,250.4,106.9,250.4
	L106.9,250.4z M122.4,250h3.8l2.2-6.3h11.4l2.2,6.3h3.8l-9.6-26.8H132L122.4,250z M129.5,240.5l4.6-13.3l4.6,13.3H129.5z M149.2,250
	h15.3v-3.2h-11.8v-23.6h-3.5V250z M177.6,250.4c1.8,0,3.3-0.3,4.6-0.9c1.3-0.6,2.4-1.5,3.1-2.7c0.8-1.1,1.2-2.4,1.2-3.9
	c0-3.5-2.1-5.9-6.4-7.2l-4.5-1.3c-1.3-0.4-2.2-1-2.8-1.8c-0.6-0.8-0.9-1.7-0.9-2.6c0-1.2,0.4-2.2,1.3-3c0.9-0.7,2.1-1.1,3.5-1.1
	c1.6,0,2.9,0.4,4.1,1.2c1.2,0.8,2,1.9,2.6,3.4l3-1.3c-0.4-1.2-1.1-2.3-2-3.3c-0.9-1-2-1.8-3.3-2.3c-1.3-0.6-2.7-0.9-4.4-0.9
	s-3,0.3-4.3,1c-1.2,0.6-2.2,1.5-3,2.6c-0.7,1.1-1,2.4-1,3.9c0,1.7,0.5,3.2,1.5,4.5s2.5,2.2,4.5,2.8l4.9,1.5c1.2,0.4,2.1,0.9,2.8,1.5
	s1,1.5,1,2.7c0,1.2-0.5,2.2-1.5,3c-1,0.7-2.2,1.1-3.8,1.1c-1.7,0-3.2-0.5-4.5-1.4c-1.3-0.9-2.3-2.3-2.9-4l-3.1,1.3
	c0.4,1.4,1.1,2.6,2.1,3.7c1,1.1,2.2,1.9,3.6,2.6S175.9,250.4,177.6,250.4L177.6,250.4z M204.5,250.4c1.9,0,3.7-0.3,5.3-1
	c1.7-0.7,3.1-1.7,4.4-2.9s2.2-2.7,2.9-4.4s1-3.5,1-5.5c0-2-0.3-3.8-1-5.5c-0.7-1.7-1.7-3.2-2.9-4.4c-1.2-1.2-2.7-2.2-4.4-2.9
	c-1.6-0.7-3.4-1-5.3-1c-1.9,0-3.7,0.3-5.3,1c-1.7,0.7-3.1,1.6-4.4,2.9c-1.2,1.2-2.2,2.7-2.9,4.4s-1,3.5-1,5.5s0.3,3.9,1,5.5
	s1.7,3.1,2.9,4.4s2.7,2.2,4.3,2.9C200.9,250.1,202.6,250.4,204.5,250.4L204.5,250.4z M204.5,247.2c-1.9,0-3.7-0.5-5.2-1.4
	c-1.5-0.9-2.7-2.3-3.6-3.8c-0.9-1.6-1.3-3.4-1.3-5.4s0.4-3.7,1.3-5.3s2.1-2.8,3.6-3.8c1.5-1,3.3-1.4,5.2-1.4s3.7,0.5,5.2,1.4
	c1.5,0.9,2.7,2.2,3.6,3.8s1.3,3.4,1.3,5.3s-0.4,3.8-1.3,5.4c-0.8,1.6-2.1,2.9-3.6,3.8C208.2,246.7,206.5,247.2,204.5,247.2z
	 M229.1,227.5h3.3v-4.3h-3.3V227.5z M229.1,250h3.3v-19.4h-3.3V250z M237.7,250h3.3v-11.5c0-1.6,0.4-2.8,1.3-3.7s2-1.4,3.4-1.4
	s2.5,0.5,3.3,1.4c0.9,0.9,1.3,2.1,1.3,3.7V250h3.4v-12.6c0-1.4-0.3-2.6-1-3.7c-0.6-1.1-1.5-2-2.6-2.6c-1.1-0.6-2.3-1-3.7-1
	c-1.2,0-2.3,0.3-3.2,0.8c-0.9,0.5-1.7,1.2-2.3,2.1v-2.4h-3.3L237.7,250L237.7,250z M267.6,250.4c1.3,0,2.5-0.2,3.6-0.7
	c1.1-0.5,2.1-1.1,2.9-1.9s1.4-1.7,1.8-2.7l-3-1.5c-0.4,1-1.2,1.9-2.1,2.6c-0.9,0.6-2,0.9-3.2,0.9c-1.2,0-2.2-0.3-3.2-0.9
	c-0.9-0.6-1.7-1.5-2.2-2.4c-0.6-1.1-0.8-2.2-0.8-3.5c0-1.3,0.3-2.5,0.8-3.6c0.5-1,1.3-1.8,2.2-2.4c1-0.6,2-0.9,3.2-0.9
	c1.2,0,2.3,0.3,3.2,1c0.9,0.6,1.6,1.4,2.1,2.4l3-1.4c-0.4-1-1-1.9-1.9-2.7c-0.8-0.8-1.8-1.4-2.9-1.8c-1.1-0.5-2.3-0.7-3.6-0.7
	c-1.9,0-3.6,0.4-5.1,1.3c-1.5,0.9-2.6,2.1-3.5,3.6c-0.8,1.5-1.3,3.2-1.3,5.2c0,1.9,0.4,3.6,1.3,5.2c0.8,1.5,2,2.8,3.5,3.6
	C264,250,265.7,250.4,267.6,250.4L267.6,250.4z M280.3,250h3.3v-26.8h-3.3V250z M295.7,250.4c1.2,0,2.3-0.2,3.2-0.7
	c1-0.5,1.7-1.2,2.3-2.1v2.4h3.3v-19.4h-3.4v11.5c0,1.6-0.4,2.8-1.3,3.7c-0.9,0.9-2,1.4-3.3,1.4c-1.4,0-2.5-0.4-3.4-1.3
	c-0.9-0.9-1.3-2.1-1.3-3.5v-11.8h-3.3v12.1c0,1.5,0.3,2.9,0.9,4c0.6,1.2,1.5,2.1,2.6,2.7C293,250.1,294.3,250.4,295.7,250.4
	L295.7,250.4z M318.5,250.4c1.4,0,2.7-0.3,3.9-0.8c1.2-0.6,2.2-1.4,2.9-2.4v2.8h3.3v-26.8h-3.4v10c-0.7-1-1.7-1.7-2.8-2.2
	s-2.4-0.8-3.9-0.8c-1.8,0-3.5,0.4-4.9,1.3c-1.4,0.9-2.6,2.1-3.4,3.6c-0.8,1.5-1.3,3.2-1.3,5.2c0,1.9,0.4,3.6,1.3,5.2
	c0.8,1.5,2,2.7,3.4,3.6C315,250,316.7,250.4,318.5,250.4L318.5,250.4z M318.8,247.2c-1.2,0-2.3-0.3-3.3-0.9s-1.7-1.4-2.3-2.4
	c-0.6-1.1-0.8-2.2-0.8-3.5c0-1.3,0.3-2.5,0.8-3.5c0.6-1.1,1.3-1.9,2.3-2.5c1-0.6,2.1-0.9,3.3-0.9c1.2,0,2.3,0.3,3.3,0.9
	c1,0.6,1.7,1.4,2.3,2.4c0.6,1,0.9,2.2,0.9,3.5c0,1.3-0.3,2.5-0.9,3.5c-0.6,1-1.3,1.8-2.3,2.4S320,247.2,318.8,247.2L318.8,247.2z
	 M342.7,250.4c2,0,3.7-0.5,5.2-1.4s2.5-2.1,3.1-3.4l-2.8-1.4c-0.5,0.9-1.3,1.7-2.2,2.3c-0.9,0.6-2,0.9-3.3,0.9c-1.1,0-2.1-0.2-3-0.7
	c-0.9-0.5-1.7-1.2-2.3-2.1c-0.6-0.9-0.9-2-0.9-3.2h14.8c0.1-0.6,0.2-1.2,0.2-1.8c0-1.6-0.4-3.1-1.1-4.5s-1.8-2.6-3.1-3.5
	c-1.3-0.9-3-1.3-4.9-1.3c-1.8,0-3.4,0.4-4.8,1.3s-2.5,2.1-3.4,3.6c-0.8,1.5-1.2,3.2-1.2,5.2s0.4,3.7,1.3,5.2c0.8,1.5,2,2.8,3.5,3.6
	C339.2,250,340.8,250.4,342.7,250.4L342.7,250.4z M342.4,233.2c0.9,0,1.9,0.2,2.7,0.7c0.8,0.4,1.5,1,2,1.8s0.8,1.7,0.8,2.7h-11.3
	c0.2-1.6,0.9-2.9,2-3.9S341,233.2,342.4,233.2L342.4,233.2z M362.8,250.4c1.4,0,2.6-0.2,3.7-0.7s1.9-1.1,2.5-2
	c0.6-0.9,0.9-1.8,0.9-3c0-1.3-0.4-2.5-1.3-3.5s-2.1-1.7-3.7-2.1l-3.2-0.9c-0.4-0.1-0.8-0.3-1.2-0.4c-0.4-0.2-0.8-0.5-1-0.8
	c-0.3-0.4-0.4-0.8-0.4-1.4c0-0.7,0.3-1.4,0.9-1.9c0.6-0.5,1.4-0.7,2.3-0.7c1.1,0,2,0.3,2.9,0.9c0.9,0.6,1.5,1.4,2,2.4l2.7-1.3
	c-0.5-1.5-1.6-2.8-2.9-3.6c-1.3-0.9-2.9-1.3-4.6-1.3c-1.3,0-2.4,0.2-3.5,0.7c-1,0.5-1.8,1.2-2.4,2c-0.6,0.8-0.9,1.8-0.9,3
	c0,1.2,0.4,2.4,1.2,3.3c0.8,0.9,2.1,1.6,3.9,2.1l2.9,0.8c0.4,0.1,0.8,0.3,1.3,0.5c0.5,0.2,0.8,0.5,1.2,0.8c0.3,0.3,0.5,0.8,0.5,1.4
	c0,0.8-0.3,1.5-1,2s-1.6,0.8-2.6,0.8c-1.1,0-2.3-0.3-3.2-1c-1-0.7-1.7-1.6-2.3-2.8l-2.7,1.3c0.6,1.6,1.6,2.9,3.1,3.9
	S360.9,250.4,362.8,250.4L362.8,250.4z M380.9,250h8.8c2.7,0,5.1-0.6,7.1-1.7s3.6-2.7,4.7-4.7s1.7-4.4,1.7-7c0-2.7-0.6-5-1.7-7
	c-1.1-2-2.7-3.6-4.7-4.7c-2-1.1-4.4-1.7-7.1-1.7h-8.8V250z M384.4,246.8v-20.3h5.3c2,0,3.7,0.4,5.1,1.3c1.5,0.8,2.6,2,3.4,3.5
	c0.8,1.5,1.2,3.3,1.2,5.4c0,2.1-0.4,3.9-1.2,5.4s-1.9,2.7-3.4,3.6c-1.4,0.8-3.2,1.2-5.1,1.2L384.4,246.8L384.4,246.8z M411.6,250
	h3.2l4.6-14.6l4.6,14.6h3.2l6.7-19.4h-3.7l-4.7,14.2l-4.5-14.2h-3.2l-4.5,14.2l-4.6-14.2H405L411.6,250L411.6,250z M445.8,250.4
	c1.8,0,3.5-0.4,5-1.3s2.7-2.1,3.6-3.6c0.9-1.5,1.4-3.3,1.4-5.3c0-1.9-0.4-3.7-1.3-5.2c-0.8-1.5-2.1-2.8-3.6-3.6
	c-1.5-0.9-3.2-1.3-5.1-1.3c-1.9,0-3.6,0.4-5.1,1.3c-1.5,0.9-2.7,2.1-3.6,3.6c-0.9,1.5-1.3,3.2-1.3,5.2s0.4,3.7,1.3,5.2
	c0.9,1.5,2.1,2.8,3.6,3.6C442.2,250,443.9,250.4,445.8,250.4L445.8,250.4z M445.8,247.2c-1.2,0-2.3-0.3-3.3-0.9
	c-1-0.6-1.8-1.4-2.3-2.4c-0.6-1.1-0.9-2.2-0.9-3.6s0.3-2.5,0.9-3.5c0.5-1,1.3-1.8,2.3-2.4c1-0.6,2.1-0.9,3.3-0.9
	c1.2,0,2.3,0.3,3.2,0.9c1,0.6,1.8,1.4,2.3,2.4c0.6,1,0.9,2.2,0.9,3.5s-0.3,2.5-0.9,3.6c-0.6,1-1.3,1.8-2.3,2.4
	C448.1,246.9,447,247.2,445.8,247.2z M460.1,250h3.3v-26.8h-3.3V250z M468.7,250h3.3v-26.8h-3.3V250z M482.9,250.4
	c1.4,0,2.7-0.3,3.8-0.8c1.1-0.6,2-1.3,2.7-2.2v2.5h3.3v-13.2c0-1.3-0.3-2.5-1-3.5c-0.6-1-1.5-1.8-2.6-2.3c-1.1-0.6-2.4-0.9-3.9-0.9
	c-1.1,0-2.3,0.2-3.3,0.6c-1.1,0.4-2,1-2.8,1.7c-0.8,0.7-1.4,1.5-1.7,2.4l2.9,1.5c0.4-0.9,1-1.7,1.9-2.2s1.8-0.9,3-0.9
	c1.3,0,2.3,0.3,3.1,1c0.8,0.6,1.2,1.5,1.2,2.6v0.9l-6.6,1.1c-2.2,0.4-3.8,1.1-4.8,2.2c-1,1.1-1.5,2.4-1.5,3.9c0,1.6,0.6,3,1.8,4
	C479.4,249.9,481,250.4,482.9,250.4L482.9,250.4z M479.9,244.8c0-0.8,0.3-1.5,0.8-2.1c0.6-0.6,1.5-1,2.7-1.2l5.9-1v1.2
	c0,1.1-0.3,2.1-0.8,3c-0.5,0.9-1.2,1.6-2.1,2.1c-0.9,0.5-2,0.8-3.2,0.8c-1,0-1.8-0.3-2.4-0.8C480.2,246.3,479.9,245.6,479.9,244.8
	L479.9,244.8z M498.5,232.1c1.4-0.3,2.4-1,3.1-2c0.7-1,1.1-2.3,1.1-3.9v-3.1h-3.5v4.3h1.8c-0.1,0.8-0.3,1.4-0.8,2
	c-0.4,0.6-1,0.9-1.7,1.1L498.5,232.1L498.5,232.1z M515.6,250.4c1.4,0,2.6-0.2,3.7-0.7s1.9-1.1,2.5-2c0.6-0.9,0.9-1.8,0.9-3
	c0-1.3-0.4-2.5-1.3-3.5s-2.1-1.7-3.7-2.1l-3.2-0.9c-0.4-0.1-0.8-0.3-1.2-0.4c-0.4-0.2-0.8-0.5-1-0.8c-0.3-0.4-0.4-0.8-0.4-1.4
	c0-0.7,0.3-1.4,0.9-1.9c0.6-0.5,1.4-0.7,2.3-0.7c1.1,0,2,0.3,2.9,0.9c0.9,0.6,1.5,1.4,2,2.4l2.7-1.3c-0.5-1.5-1.6-2.8-2.9-3.6
	c-1.3-0.9-2.9-1.3-4.6-1.3c-1.3,0-2.4,0.2-3.5,0.7c-1,0.5-1.8,1.2-2.4,2c-0.6,0.8-0.9,1.8-0.9,3c0,1.2,0.4,2.4,1.2,3.3
	c0.8,0.9,2.1,1.6,3.9,2.1l2.9,0.8c0.4,0.1,0.8,0.3,1.3,0.5c0.5,0.2,0.8,0.5,1.2,0.8c0.3,0.3,0.5,0.8,0.5,1.4c0,0.8-0.3,1.5-1,2
	s-1.6,0.8-2.6,0.8c-1.1,0-2.3-0.3-3.2-1c-1-0.7-1.7-1.6-2.3-2.8l-2.7,1.3c0.6,1.6,1.6,2.9,3.1,3.9S513.7,250.4,515.6,250.4
	L515.6,250.4z M544.2,250h4.9v-22.5h6.8v-4.3h-18.7v4.3h6.9L544.2,250L544.2,250z M565.4,250.4c2,0,3.7-0.4,5.2-1.3
	c1.5-0.9,2.6-2.1,3.2-3.5l-3.8-1.9c-0.4,0.7-1,1.4-1.8,1.8c-0.7,0.5-1.7,0.7-2.7,0.7c-1.4,0-2.6-0.4-3.6-1.3s-1.5-2-1.7-3.5h14.1
	c0.1-0.3,0.2-0.6,0.2-0.9c0-0.4,0.1-0.7,0.1-1.1c0-1.8-0.4-3.3-1.1-4.8s-1.8-2.6-3.2-3.5c-1.4-0.9-3.1-1.3-5.2-1.3
	c-1.8,0-3.5,0.4-5,1.3c-1.5,0.9-2.6,2.1-3.5,3.6c-0.8,1.5-1.3,3.3-1.3,5.2c0,1.9,0.4,3.6,1.3,5.2c0.8,1.5,2,2.8,3.5,3.7
	C561.6,250,563.4,250.4,565.4,250.4L565.4,250.4z M565,233.9c1.2,0,2.3,0.4,3.1,1.2c0.8,0.7,1.3,1.7,1.4,2.9h-9.2
	c0.3-1.3,0.8-2.3,1.7-3C562.8,234.2,563.8,233.9,565,233.9L565,233.9z M578.1,250h4.7v-10.9c0-1.5,0.4-2.6,1.2-3.5
	c0.8-0.8,1.9-1.3,3.2-1.3h1.7v-4.2h-1.2c-1.2,0-2.3,0.2-3.2,0.6s-1.6,1.2-2.1,2.3v-2.8h-4.4V250z M591.6,250h4.7v-11.5
	c0-1.3,0.3-2.3,1-3.1s1.6-1.2,2.7-1.2c1.2,0,2.1,0.4,2.7,1.2c0.7,0.7,1,1.8,1,3.1V250h4.7v-11.5c0-1.3,0.3-2.3,1-3.1
	s1.6-1.2,2.7-1.2c1.2,0,2.1,0.4,2.7,1.2c0.7,0.7,1,1.8,1,3.1V250h4.7v-12.6c0-1.5-0.3-2.7-1-3.9c-0.6-1.1-1.5-2-2.6-2.6
	c-1.1-0.6-2.3-0.9-3.7-0.9c-1.3,0-2.5,0.3-3.5,0.8c-1,0.5-1.9,1.3-2.6,2.4c-0.6-1-1.4-1.7-2.5-2.3c-1.1-0.6-2.2-0.9-3.6-0.9
	c-1.2,0-2.3,0.2-3.3,0.7c-0.9,0.5-1.7,1.2-2.2,2.2v-2.4h-4.4L591.6,250L591.6,250z M632.3,250.4c1.5,0,2.8-0.3,3.9-0.8
	s2-1.2,2.6-2.1c0.6-0.9,0.9-2,0.9-3.1c0-1.4-0.4-2.5-1.3-3.5s-2.1-1.7-3.7-2.2l-3.1-0.9c-0.7-0.2-1.2-0.4-1.7-0.8s-0.6-0.7-0.6-1.3
	c0-0.6,0.2-1,0.7-1.4s1.1-0.5,1.9-0.5c1,0,1.9,0.3,2.7,0.8c0.8,0.5,1.4,1.2,1.7,2.1l3.6-1.7c-0.6-1.6-1.6-2.8-3-3.7
	c-1.4-0.9-3-1.4-4.9-1.4c-1.4,0-2.7,0.3-3.8,0.8c-1.1,0.5-1.9,1.2-2.6,2.1c-0.6,0.9-0.9,1.9-0.9,3.1c0,1.3,0.4,2.5,1.3,3.5
	c0.9,1,2.1,1.7,3.8,2.2l3.2,0.9c0.6,0.2,1.2,0.4,1.6,0.8c0.5,0.3,0.7,0.7,0.7,1.3c0,0.6-0.3,1.2-0.8,1.5c-0.5,0.4-1.2,0.5-2,0.5
	c-1.1,0-2.1-0.3-3-0.9s-1.6-1.5-2.1-2.6l-3.5,1.7c0.6,1.7,1.6,3,3.2,4C628.4,249.9,630.2,250.4,632.3,250.4L632.3,250.4z
	 M659.3,250.4c1.9,0,3.6-0.4,5.2-1.3c1.5-0.9,2.8-2.1,3.7-3.6c0.9-1.6,1.4-3.3,1.4-5.3s-0.5-3.7-1.4-5.3c-0.9-1.5-2.2-2.8-3.7-3.6
	c-1.6-0.9-3.3-1.3-5.2-1.3c-1.9,0-3.7,0.4-5.3,1.3c-1.5,0.9-2.8,2.1-3.7,3.6c-0.9,1.5-1.4,3.3-1.4,5.3s0.5,3.7,1.4,5.3
	c0.9,1.5,2.2,2.8,3.7,3.6C655.6,250,657.4,250.4,659.3,250.4L659.3,250.4z M659.3,246.1c-1.1,0-2-0.3-2.8-0.8
	c-0.8-0.5-1.5-1.2-1.9-2.1c-0.5-0.9-0.7-1.9-0.7-3.1s0.2-2.1,0.7-3c0.5-0.9,1.1-1.6,1.9-2.1c0.8-0.5,1.8-0.8,2.8-0.8s2,0.3,2.8,0.8
	c0.8,0.5,1.5,1.2,1.9,2.1c0.5,0.9,0.7,1.9,0.7,3s-0.2,2.1-0.7,3.1c-0.5,0.9-1.1,1.6-1.9,2.1C661.3,245.9,660.4,246.1,659.3,246.1z
	 M675,250h4.7v-15.4h4.4v-4.2h-4.4v-0.6c0-1,0.3-1.7,0.9-2.2c0.6-0.5,1.4-0.7,2.4-0.7c0.4,0,0.8,0,1.2,0.1v-4.1
	c-0.6-0.1-1.2-0.2-1.8-0.2c-2.3,0-4.1,0.6-5.4,1.8s-2,3-2,5.2v0.6h-3.5v4.2h3.5V250z M703.8,250.4c1.8,0,3.5-0.3,4.9-1
	s2.5-1.6,3.3-2.8s1.2-2.5,1.2-4.1c0-3.6-2.1-6-6.4-7.4l-4.9-1.5c-1-0.3-1.7-0.7-2.2-1.3c-0.5-0.6-0.7-1.2-0.7-2c0-1,0.4-1.8,1.1-2.4
	c0.8-0.6,1.8-0.9,3-0.9c1.4,0,2.6,0.4,3.7,1.1c1.1,0.7,1.8,1.8,2.4,3.1l4-1.8c-0.7-2-2-3.6-3.8-4.9c-1.8-1.2-3.9-1.8-6.3-1.8
	c-1.8,0-3.3,0.3-4.7,1c-1.3,0.6-2.4,1.6-3.2,2.7c-0.7,1.2-1.1,2.5-1.1,4.1c0,1.8,0.5,3.3,1.6,4.6c1.1,1.3,2.6,2.2,4.7,2.9l5.1,1.7
	c0.9,0.3,1.6,0.7,2.1,1.2c0.5,0.5,0.7,1.2,0.7,1.9c0,1-0.4,1.8-1.2,2.4c-0.8,0.6-1.8,0.9-3.1,0.9c-1.5,0-2.9-0.4-4.1-1.3
	c-1.2-0.9-2.2-2.1-2.8-3.6L693,243c0.5,1.5,1.2,2.8,2.3,3.9c1.1,1.1,2.3,2,3.7,2.6C700.5,250.1,702.1,250.4,703.8,250.4L703.8,250.4
	z M726.4,250.4c2,0,3.7-0.4,5.2-1.3c1.5-0.9,2.6-2.1,3.2-3.5l-3.8-1.9c-0.4,0.7-1,1.4-1.8,1.8c-0.7,0.5-1.7,0.7-2.7,0.7
	c-1.4,0-2.6-0.4-3.6-1.3s-1.5-2-1.7-3.5h14.1c0.1-0.3,0.2-0.6,0.2-0.9c0-0.4,0.1-0.7,0.1-1.1c0-1.8-0.4-3.3-1.1-4.8
	s-1.8-2.6-3.2-3.5c-1.4-0.9-3.1-1.3-5.2-1.3c-1.8,0-3.5,0.4-5,1.3c-1.5,0.9-2.6,2.1-3.5,3.6c-0.8,1.5-1.3,3.3-1.3,5.2
	c0,1.9,0.4,3.6,1.3,5.2c0.8,1.5,2,2.8,3.5,3.7C722.6,250,724.4,250.4,726.4,250.4L726.4,250.4z M726,233.9c1.2,0,2.3,0.4,3.1,1.2
	c0.8,0.7,1.3,1.7,1.4,2.9h-9.2c0.3-1.3,0.8-2.3,1.7-3C723.8,234.2,724.9,233.9,726,233.9L726,233.9z M739.1,250h4.7v-10.9
	c0-1.5,0.4-2.6,1.2-3.5c0.8-0.8,1.9-1.3,3.2-1.3h1.7v-4.2h-1.2c-1.2,0-2.3,0.2-3.2,0.6s-1.6,1.2-2.1,2.3v-2.8h-4.4V250z M758.5,250
	h4.2l7.7-19.6h-5.1l-4.6,12.8l-4.6-12.8h-5.1L758.5,250z M773,228.2h4.7v-5H773V228.2z M773,250h4.7v-19.6H773V250z M791.5,250.4
	c1.4,0,2.7-0.2,3.9-0.7c1.2-0.5,2.2-1.2,3.1-2.1c0.9-0.9,1.5-1.9,1.9-3l-4.1-1.9c-0.4,1-1,1.8-1.8,2.4c-0.8,0.6-1.8,0.9-2.9,0.9
	c-1,0-2-0.3-2.8-0.8c-0.8-0.5-1.4-1.2-1.9-2.1c-0.5-0.9-0.7-1.9-0.7-3.1c0-1.2,0.2-2.2,0.7-3.1s1.1-1.6,1.9-2.1
	c0.8-0.5,1.7-0.8,2.8-0.8c1.1,0,2.1,0.3,2.9,0.9c0.8,0.6,1.5,1.4,1.8,2.4l4.1-1.8c-0.4-1.1-1.1-2.2-1.9-3c-0.9-0.9-1.9-1.6-3.1-2.1
	s-2.5-0.7-3.9-0.7c-1.9,0-3.7,0.4-5.3,1.3c-1.5,0.9-2.8,2.1-3.6,3.6c-0.9,1.5-1.3,3.3-1.3,5.2s0.4,3.7,1.3,5.3
	c0.9,1.5,2.1,2.8,3.6,3.7C787.8,250,789.6,250.4,791.5,250.4z M813.3,250.4c2,0,3.7-0.4,5.2-1.3c1.5-0.9,2.6-2.1,3.2-3.5l-3.8-1.9
	c-0.4,0.7-1,1.4-1.8,1.8c-0.7,0.5-1.7,0.7-2.7,0.7c-1.4,0-2.6-0.4-3.6-1.3s-1.5-2-1.7-3.5h14.1c0.1-0.3,0.2-0.6,0.2-0.9
	c0-0.4,0.1-0.7,0.1-1.1c0-1.8-0.4-3.3-1.1-4.8s-1.8-2.6-3.2-3.5c-1.4-0.9-3.1-1.3-5.2-1.3c-1.8,0-3.5,0.4-5,1.3
	c-1.5,0.9-2.6,2.1-3.5,3.6c-0.8,1.5-1.3,3.3-1.3,5.2c0,1.9,0.4,3.6,1.3,5.2c0.8,1.5,2,2.8,3.5,3.7
	C809.5,250,811.2,250.4,813.3,250.4L813.3,250.4z M812.9,233.9c1.2,0,2.3,0.4,3.1,1.2c0.8,0.7,1.3,1.7,1.4,2.9h-9.2
	c0.3-1.3,0.8-2.3,1.7-3C810.7,234.2,811.7,233.9,812.9,233.9L812.9,233.9z M846.3,250.4c1.9,0,3.4-0.4,4.6-1.2
	c1.2-0.8,2.3-1.7,3.1-2.7l3.2,3.4h4.4l-5.8-6.2l4.6-7.1h-3.9l-3.1,4.6l-4.7-5.1c0.5-0.3,1-0.6,1.5-1s1.1-0.9,1.7-1.5
	c0.6-0.6,1-1.2,1.3-2c0.4-0.8,0.5-1.6,0.5-2.6c0-1.2-0.3-2.3-0.9-3.3c-0.6-1-1.4-1.7-2.4-2.3c-1-0.6-2.1-0.8-3.3-0.8
	s-2.3,0.3-3.3,0.8c-1,0.6-1.8,1.3-2.4,2.3c-0.6,1-0.9,2.1-0.9,3.4c0,1.4,0.3,2.6,0.9,3.7c0.6,1.1,1.4,2,2.1,2.8
	c-0.4,0.2-0.9,0.6-1.5,1c-0.6,0.4-1.2,0.9-1.7,1.5s-1.1,1.4-1.5,2.2c-0.4,0.9-0.6,1.9-0.6,3c0,1.4,0.3,2.6,1,3.6s1.6,1.8,2.7,2.4
	C843.4,250.2,844.8,250.4,846.3,250.4L846.3,250.4z M844.1,229.1c0-1,0.3-1.8,0.9-2.4s1.4-0.9,2.3-0.9s1.7,0.3,2.3,0.9
	s0.9,1.4,0.9,2.3c0,0.8-0.2,1.5-0.6,2.1c-0.4,0.6-0.9,1.2-1.5,1.6c-0.6,0.4-1.2,0.9-1.8,1.2c-0.6-0.7-1.2-1.5-1.8-2.3
	C844.4,230.9,844.1,230,844.1,229.1L844.1,229.1z M842.2,243.5c0-1,0.2-1.8,0.6-2.4c0.4-0.7,0.9-1.3,1.5-1.8
	c0.6-0.5,1.2-0.9,1.7-1.2l5.7,6c-0.6,0.8-1.3,1.6-2.2,2.2c-0.8,0.6-1.9,0.9-3.2,0.9c-1.2,0-2.3-0.3-3.1-1
	C842.6,245.6,842.2,244.7,842.2,243.5L842.2,243.5z M878.4,250h4.9v-9.9h5.1c1.8,0,3.4-0.3,4.8-1c1.4-0.7,2.5-1.6,3.3-2.9
	c0.8-1.3,1.2-2.8,1.2-4.6c0-1.8-0.4-3.4-1.2-4.6s-1.9-2.2-3.3-2.8c-1.4-0.7-3-1-4.8-1h-10V250z M883.3,235.8v-8.3h5.2
	c1.3,0,2.4,0.4,3.2,1.1s1.2,1.8,1.2,3c0,1.2-0.4,2.3-1.2,3c-0.8,0.7-1.8,1.1-3.2,1.1H883.3z M901.4,250h4.7v-10.9
	c0-1.5,0.4-2.6,1.2-3.5c0.8-0.8,1.9-1.3,3.2-1.3h1.7v-4.2h-1.2c-1.2,0-2.3,0.2-3.2,0.6s-1.6,1.2-2.1,2.3v-2.8h-4.4V250z
	 M914.9,228.2h4.7v-5h-4.7V228.2z M914.9,250h4.7v-19.6h-4.7V250z M929.8,250h4.2l7.7-19.6h-5.1l-4.6,12.8l-4.6-12.8h-5.1L929.8,250
	z M949.6,250.4c2.5,0,4.6-0.8,6.1-2.5v2.1h4.5v-13c0-1.4-0.3-2.6-1-3.6s-1.7-1.9-2.9-2.4c-1.2-0.6-2.6-0.9-4.2-0.9
	c-2,0-3.7,0.5-5.3,1.4s-2.6,2.2-3.2,3.7l3.9,1.9c0.4-0.9,0.9-1.6,1.7-2.1c0.8-0.6,1.7-0.8,2.7-0.8c1.1,0,1.9,0.3,2.6,0.9
	c0.7,0.6,1,1.2,1,2.1v0.6l-5.8,0.9c-2.3,0.4-4,1.1-5.1,2.2s-1.7,2.4-1.7,4.1c0,1.7,0.6,3.1,1.8,4.1S947.5,250.4,949.6,250.4
	L949.6,250.4z M947.7,244.6c0-1.4,0.9-2.2,2.8-2.6l4.9-0.8v0.8c0,1.3-0.5,2.5-1.4,3.4c-0.9,0.9-2.1,1.4-3.6,1.4
	c-0.8,0-1.4-0.2-1.9-0.6C948,245.8,947.7,245.3,947.7,244.6L947.7,244.6z M973.9,250.4c1.4,0,2.7-0.2,3.9-0.7
	c1.2-0.5,2.2-1.2,3.1-2.1c0.9-0.9,1.5-1.9,1.9-3l-4.1-1.9c-0.4,1-1,1.8-1.8,2.4c-0.8,0.6-1.8,0.9-2.9,0.9c-1,0-2-0.3-2.8-0.8
	c-0.8-0.5-1.4-1.2-1.9-2.1c-0.5-0.9-0.7-1.9-0.7-3.1c0-1.2,0.2-2.2,0.7-3.1s1.1-1.6,1.9-2.1c0.8-0.5,1.7-0.8,2.8-0.8
	c1.1,0,2.1,0.3,2.9,0.9c0.8,0.6,1.5,1.4,1.8,2.4l4.1-1.8c-0.4-1.1-1.1-2.2-1.9-3c-0.9-0.9-1.9-1.6-3.1-2.1s-2.5-0.7-3.9-0.7
	c-1.9,0-3.7,0.4-5.3,1.3c-1.5,0.9-2.8,2.1-3.6,3.6c-0.9,1.5-1.3,3.3-1.3,5.2s0.4,3.7,1.3,5.3c0.9,1.5,2.1,2.8,3.6,3.7
	C970.2,250,972,250.4,973.9,250.4z M988.8,258c1.8,0,3.4-0.5,4.6-1.6c1.2-1,2.2-2.5,3-4.4l8.5-21.6h-5.1l-5,13.5l-5.1-13.5h-5.1
	l7.7,19.6l-0.4,1c-0.4,0.8-0.8,1.5-1.3,2c-0.5,0.5-1.3,0.8-2.3,0.8c-0.4,0-0.8,0-1.2-0.1c-0.4,0-0.8-0.1-1.2-0.2v4
	c0.4,0.2,0.9,0.3,1.4,0.4C987.7,257.9,988.2,258,988.8,258z M1014.3,250h4.9v-9.9h5.1c1.8,0,3.4-0.3,4.8-1c1.3-0.6,2.5-1.6,3.3-2.9
	c0.8-1.3,1.2-2.8,1.2-4.6c0-1.8-0.4-3.4-1.2-4.6s-1.9-2.2-3.3-2.8c-1.4-0.7-3-1-4.8-1h-10V250z M1019.2,235.8v-8.3h5.2
	c1.3,0,2.4,0.4,3.2,1.1s1.2,1.8,1.2,3c0,1.2-0.4,2.3-1.2,3c-0.8,0.7-1.8,1.1-3.2,1.1H1019.2L1019.2,235.8z M1046.1,250.4
	c1.9,0,3.6-0.4,5.2-1.3c1.6-0.9,2.8-2.1,3.7-3.6c0.9-1.6,1.4-3.3,1.4-5.3s-0.5-3.7-1.4-5.3c-0.9-1.5-2.2-2.7-3.7-3.6
	s-3.3-1.3-5.2-1.3c-1.9,0-3.7,0.4-5.2,1.3c-1.5,0.9-2.8,2.1-3.8,3.6c-0.9,1.5-1.4,3.3-1.4,5.3s0.4,3.7,1.4,5.3
	c0.9,1.5,2.2,2.8,3.8,3.6C1042.4,250,1044.2,250.4,1046.1,250.4z M1046.1,246.1c-1.1,0-2-0.3-2.8-0.8c-0.8-0.5-1.5-1.2-1.9-2.1
	c-0.5-0.9-0.7-1.9-0.7-3.1s0.2-2.1,0.7-3c0.5-0.9,1.1-1.6,1.9-2.1c0.8-0.5,1.8-0.8,2.8-0.8c1.1,0,2,0.3,2.8,0.8
	c0.8,0.5,1.5,1.2,1.9,2.1c0.5,0.9,0.7,1.9,0.7,3s-0.2,2.1-0.7,3.1c-0.4,0.9-1.1,1.6-1.9,2.1C1048.1,245.9,1047.2,246.1,1046.1,246.1
	z M1060,250h4.7v-26.8h-4.7V250z M1069.1,228.2h4.7v-5h-4.7V228.2z M1069.1,250h4.7v-19.6h-4.7V250z M1087.6,250.4
	c1.4,0,2.7-0.2,3.9-0.7c1.2-0.5,2.2-1.2,3.1-2.1c0.9-0.9,1.5-1.9,1.9-3l-4.1-1.9c-0.4,1-1,1.8-1.8,2.4c-0.8,0.6-1.8,0.9-2.9,0.9
	c-1,0-2-0.3-2.8-0.8c-0.8-0.5-1.4-1.2-1.9-2.1c-0.4-0.9-0.7-1.9-0.7-3.1c0-1.2,0.2-2.2,0.7-3.1c0.5-0.9,1.1-1.6,1.9-2.1
	c0.8-0.5,1.7-0.8,2.8-0.8c1.1,0,2.1,0.3,2.9,0.9c0.8,0.6,1.4,1.4,1.8,2.4l4.1-1.8c-0.4-1.1-1.1-2.2-1.9-3c-0.9-0.9-1.9-1.6-3.1-2.1
	s-2.5-0.7-3.9-0.7c-1.9,0-3.7,0.4-5.3,1.3c-1.5,0.9-2.8,2.1-3.6,3.6c-0.9,1.5-1.3,3.3-1.3,5.2s0.4,3.7,1.3,5.3
	c0.9,1.5,2.1,2.8,3.6,3.7C1083.9,250,1085.6,250.4,1087.6,250.4z M1102.4,258c1.8,0,3.4-0.5,4.6-1.6c1.2-1,2.2-2.5,3-4.4l8.5-21.6
	h-5.1l-5,13.5l-5.1-13.5h-5.1l7.7,19.6l-0.4,1c-0.4,0.8-0.8,1.5-1.3,2c-0.5,0.5-1.3,0.8-2.3,0.8c-0.4,0-0.8,0-1.2-0.1
	c-0.4,0-0.8-0.1-1.2-0.2v4c0.4,0.2,0.9,0.3,1.4,0.4C1101.4,257.9,1101.9,258,1102.4,258L1102.4,258z"/>
<path fill="#44374D" d="M398.4,121.3h221.1v1.4H398.4V121.3z M671.5,121.3H926v1.4H671.5V121.3z M536.9,256.3h286.9v1.4H536.9V256.3
	z M875.8,256.3H1119v1.4H875.8V256.3z M1021.2,121.3h100.7v1.4h-100.7V121.3z M0,166.3h204.7v1.4H0V166.3z"/>
<a href="https://www.sarmmies.bio/tou" target="_blank" >
	<rect x="392.4" y="79.3" opacity="0" fill="#7F7F7F" width="232.5" height="51.4"/>
</a>
<a href="https://www.sarmmies.bio/privacy" target="_blank" >
	<rect x="662.2" y="80.3" opacity="0" fill="#7F7F7F" width="271.7" height="51.4"/>
</a>
<a href="https://www.sarmmies.bio/dwolla/account-tos" target="_blank" >
	<rect x="529.1" y="215.6" opacity="0" fill="#7F7F7F" width="302.3" height="42.1"/>
</a>
<a href="https://www.sarmmies.bio/dwolla/privacy" target="_blank" >
	<rect x="869.4" y="215.5" opacity="0" fill="#7F7F7F" width="256.9" height="42.1"/>
</a>
</svg>
